<svg xmlns="http://www.w3.org/2000/svg" xmlns:xlink="http://www.w3.org/1999/xlink" width="98" height="97.999" viewBox="0 0 98 97.999">
  <defs>
    <clipPath id="clip-path">
      <rect id="Rectangle_411080" data-name="Rectangle 411080" width="55" height="52" transform="translate(825.051 2027)" fill="#fff"/>
    </clipPath>
  </defs>
  <g id="Group_1206320" data-name="Group 1206320" transform="translate(-803.781 -2003.55)">
    <g id="Group_1204447" data-name="Group 1204447" transform="translate(0 -541.412)">
      <g id="Group_1204142" data-name="Group 1204142" transform="translate(-67.331 2267.798)">
        <g id="Group_1188789" data-name="Group 1188789" transform="translate(871.113 277.164)">
          <path id="Path_1243039" data-name="Path 1243039" d="M41.05,0h0a41.05,41.05,0,0,1,0,82.1h0a41.05,41.05,0,0,1,0-82.1Z" transform="translate(7.951 7.949)" fill="#ffa724"/>
          <rect id="Rectangle_400907" data-name="Rectangle 400907" width="88.438" height="88.437" rx="44.218" transform="translate(4.782 4.781)" fill="none"/>
          <g id="Group_1098742" data-name="Group 1098742" transform="translate(0)">
            <g id="Rectangle_400898" data-name="Rectangle 400898" transform="translate(0)" fill="none" stroke="#fff" stroke-width="2" opacity="0.859">
              <rect width="98" height="97.999" rx="48.999" stroke="none"/>
              <rect x="1" y="1" width="96" height="95.999" rx="47.999" fill="none"/>
            </g>
            <g id="Rectangle_400907-2" data-name="Rectangle 400907" transform="translate(0)" fill="none" stroke="#0f1f33" stroke-linecap="round" stroke-width="2">
              <rect width="98" height="97.999" rx="48.999" stroke="none"/>
              <rect x="1" y="1" width="96" height="95.999" rx="47.999" fill="none"/>
            </g>
          </g>
        </g>
      </g>
    </g>
    <g id="Mask_Group_1099574" data-name="Mask Group 1099574" clip-path="url(#clip-path)">
      <g id="funding_16941234" transform="translate(826.449 2026.898)">
        <g id="Group_1206772" data-name="Group 1206772">
          <g id="Group_1206769" data-name="Group 1206769">
            <circle id="Ellipse_12723" data-name="Ellipse 12723" cx="6.042" cy="6.042" r="6.042" transform="translate(8.267 1.048) rotate(-1.26)" fill="#fdb800"/>
            <path id="Path_1262774" data-name="Path 1262774" d="M14.435.918a6.028,6.028,0,0,1,4.652,2.187,6.04,6.04,0,0,0-8.3,8.665A6.04,6.04,0,0,1,14.435.918Z" fill="#f4a40e" fill-rule="evenodd"/>
          </g>
          <g id="Group_1206770" data-name="Group 1206770">
            <path id="Path_1262775" data-name="Path 1262775" d="M12.729,25.272h3.463a.351.351,0,0,1,.351.351v5.084a.351.351,0,0,1-.351.351H12.729a.351.351,0,0,1-.351-.351V25.623a.351.351,0,0,1,.351-.351Z" fill="#fc685b" fill-rule="evenodd"/>
            <path id="Path_1262776" data-name="Path 1262776" d="M15.523,25.272h.669a.351.351,0,0,1,.351.351v5.084a.351.351,0,0,1-.351.351H12.729a.351.351,0,0,1-.351-.351v-.669h2.794a.351.351,0,0,0,.351-.351Z" fill="#fb4737" fill-rule="evenodd"/>
            <path id="Path_1262777" data-name="Path 1262777" d="M20,21.46h3.463a.351.351,0,0,1,.351.351v8.9a.351.351,0,0,1-.351.351H20a.351.351,0,0,1-.351-.351v-8.9A.351.351,0,0,1,20,21.46Z" fill="#ffda2d" fill-rule="evenodd"/>
            <path id="Path_1262778" data-name="Path 1262778" d="M22.795,21.46h.669a.351.351,0,0,1,.351.351v8.9a.351.351,0,0,1-.351.351H20a.351.351,0,0,1-.351-.351v-.669h2.794a.351.351,0,0,0,.351-.351Z" fill="#ffc700" fill-rule="evenodd"/>
            <path id="Path_1262779" data-name="Path 1262779" d="M27.273,17.648h3.463a.351.351,0,0,1,.351.351V30.707a.351.351,0,0,1-.351.351H27.273a.351.351,0,0,1-.351-.351V18a.351.351,0,0,1,.351-.351Z" fill="#72d561" fill-rule="evenodd"/>
            <path id="Path_1262780" data-name="Path 1262780" d="M30.067,17.648h.669a.351.351,0,0,1,.351.351V30.707a.351.351,0,0,1-.351.351H27.273a.351.351,0,0,1-.351-.351v-.669h2.794a.351.351,0,0,0,.351-.351Z" fill="#42c345" fill-rule="evenodd"/>
            <path id="Path_1262781" data-name="Path 1262781" d="M38.359,14.809v15.9a.351.351,0,0,1-.351.351H34.545a.351.351,0,0,1-.351-.351v-15.9h-1.33a.271.271,0,0,1-.2-.457l3.289-3.523a.441.441,0,0,1,.645,0l3.289,3.523a.271.271,0,0,1-.2.457Z" fill="#64b5f6" fill-rule="evenodd"/>
            <path id="Path_1262782" data-name="Path 1262782" d="M38.359,14.809v15.9a.351.351,0,0,1-.351.351H34.545a.351.351,0,0,1-.351-.351v-.669h2.794a.351.351,0,0,0,.351-.351v-15.9h1.33a.271.271,0,0,0,.2-.457l-2.444-2.619a.441.441,0,0,1,.175.115l3.289,3.523a.271.271,0,0,1-.2.457Zm-5.184,0h-.311a.271.271,0,0,1-.2-.457l.509-.545Z" fill="#42a5f5" fill-rule="evenodd"/>
            <path id="Path_1262783" data-name="Path 1262783" d="M28.491,8.73l-.685-1.187a.372.372,0,0,1,.372-.555l4.493.607a.372.372,0,0,1,.295.51L31.245,12.3a.372.372,0,0,1-.667.045l-.685-1.187-16,9.24a.489.489,0,0,1-.667-.179l-.914-1.583a.489.489,0,0,1,.179-.667Z" fill="#64b5f6" fill-rule="evenodd"/>
            <path id="Path_1262784" data-name="Path 1262784" d="M28.05,7.966l-.244-.422a.373.373,0,0,1,.268-.555l.417.722Zm4.7-.351-1.5,3.666a.372.372,0,0,1-.667.045l-.685-1.187-16,9.24a.489.489,0,0,1-.667-.179l-.716-1.241-.019.011a.489.489,0,0,0-.179.667l.914,1.583a.489.489,0,0,0,.667.179l16-9.24.685,1.187a.372.372,0,0,0,.667-.045l1.721-4.195A.372.372,0,0,0,32.749,7.615Z" fill="#42a5f5" fill-rule="evenodd"/>
          </g>
          <g id="Group_1206771" data-name="Group 1206771">
            <path id="Path_1262785" data-name="Path 1262785" d="M25.454,29.786l11.272,14a1.966,1.966,0,0,1-2.78,2.78,1.966,1.966,0,0,1-2.78,2.78l-1.517-1.516a1.966,1.966,0,0,1-2.78,2.78l-2.676-2.676a1.966,1.966,0,0,1-2.78,2.78L10.447,39.747l2.224-9.961Z" fill="#ffd6bd" fill-rule="evenodd"/>
            <path id="Path_1262786" data-name="Path 1262786" d="M25.454,29.786,27,31.709H12.241l.429-1.924Z" fill="#f9c6aa" fill-rule="evenodd"/>
            <path id="Path_1262787" data-name="Path 1262787" d="M27.53,41.274a.8.8,0,0,1,1.126-1.126l5.416,5.416a.8.8,0,0,1-1.126,1.126Zm-6.224,4.9a.8.8,0,0,1,1.126-1.126l1.9,1.9a.8.8,0,0,1-1.126,1.126Zm3.112-2.449,4.231,4.231a.8.8,0,0,0,1.126-1.126L25.544,42.6a.8.8,0,0,0-1.126,1.126Z" fill="#f9c6aa" fill-rule="evenodd"/>
            <path id="Path_1262788" data-name="Path 1262788" d="M14.35,28.717l-3.441-.685a.687.687,0,0,0-.805.538L7.43,41.99a.687.687,0,0,0,.538.805l3.441.685a.687.687,0,0,0,.805-.538l2.674-13.421a.687.687,0,0,0-.538-.805Z" fill="#64b5f6" fill-rule="evenodd"/>
            <path id="Path_1262789" data-name="Path 1262789" d="M14.35,28.717l-.438-.087L11.287,41.81a.687.687,0,0,1-.805.538l-3-.6-.048.241a.687.687,0,0,0,.538.805l3.441.685a.687.687,0,0,0,.805-.538l2.674-13.421a.687.687,0,0,0-.538-.805Z" fill="#42a5f5" fill-rule="evenodd"/>
            <path id="Path_1262790" data-name="Path 1262790" d="M42.373,38.958c-.095.036-3.757-9.215-3.851-9.18-3.518,1.314-6.214,1.794-9.839-1.2a2.938,2.938,0,0,0-3.833-.1l-4.614,3.852a1.814,1.814,0,0,0-.7,1.8l1.4,6.413c3.558-.877,3.541-3.409,3.792-6.071.121-1.02,1.768-.74,3.836,1.144l8.51,8.634Z" fill="#f9c6aa" fill-rule="evenodd"/>
            <path id="Path_1262791" data-name="Path 1262791" d="M38.833,30.446l-.009-.021-.009-.021-.009-.021-.017-.041-.009-.02-.008-.02-.008-.019h0l-.016-.037-.008-.018-.008-.018-.008-.018-.008-.017-.015-.034-.007-.016-.007-.016-.007-.016,0,0-.011-.025-.026-.058-.008-.017-.024-.053,0-.011-.023-.049v0h0l-.02-.041,0,0a.343.343,0,0,0-.028-.048h0s-.006-.006-.007-.005l-.072.027-.007,0-.007,0-.007,0-.007,0-.007,0-.007,0-.006,0h0l-.007,0-.007,0-.007,0-.007,0-.007,0-.007,0-.007,0-.007,0-.007,0-.007,0-.013,0-.007,0-.214.078h0c-2.317.834-4.3,1.245-6.465.439,2.366,1.3,4.424,1.1,6.79.339,1.091,2.634,3.086,7.62,3.156,7.593L36.358,43.53l.716.726,5.3-5.3c-.079.03-2.637-6.393-3.54-8.511Zm-17.01,9.823c2.67-1.06,2.677-3.371,2.9-5.791.1-.887,1.364-.791,3.051.488h0c-2.068-1.884-3.716-2.163-3.836-1.144-.208,2.214-.233,4.337-2.28,5.494l-1.019-4.669a1.814,1.814,0,0,1,.7-1.8l4.614-3.852a2.8,2.8,0,0,1,2.508-.579,2.906,2.906,0,0,0-3.615.068l-4.614,3.852a1.814,1.814,0,0,0-.7,1.8l1.4,6.413.162-.042h0l.15-.042.013,0,.137-.042.021-.007.122-.041.034-.012.106-.038.04-.015Z" fill="#eaab92" fill-rule="evenodd"/>
            <path id="Path_1262792" data-name="Path 1262792" d="M37.854,28.717l3.441-.685a.687.687,0,0,1,.805.538L44.774,41.99a.687.687,0,0,1-.538.805l-3.441.685a.687.687,0,0,1-.805-.538L37.316,29.522a.686.686,0,0,1,.538-.805Z" fill="#ffda2d" fill-rule="evenodd"/>
            <path id="Path_1262793" data-name="Path 1262793" d="M37.854,28.717l.438-.087,2.626,13.18a.687.687,0,0,0,.805.538l3-.6.048.241a.687.687,0,0,1-.538.805l-3.441.685a.687.687,0,0,1-.805-.538L37.316,29.522a.687.687,0,0,1,.538-.805Z" fill="#ffc700" fill-rule="evenodd"/>
          </g>
        </g>
        <path id="Path_1262794" data-name="Path 1262794" d="M12.221,5.7a2.077,2.077,0,0,1,1.4-1.961V3.368a.816.816,0,1,1,1.631,0V3.7a2.088,2.088,0,0,1,1.12.783.816.816,0,1,1-1.322.956.449.449,0,0,0-.359-.186h-.4a.442.442,0,0,0,0,.885h.281a2.073,2.073,0,0,1,.675,4.034v.372a.816.816,0,1,1-1.631,0V10.21a2.087,2.087,0,0,1-1.12-.783.816.816,0,0,1,1.322-.956.443.443,0,0,0,.359.186h.4a.442.442,0,1,0,0-.884h-.281A2.076,2.076,0,0,1,12.221,5.7Zm2.214-3.967a5.225,5.225,0,1,0,5.224,5.225,5.23,5.23,0,0,0-5.224-5.225Zm0,12.08A6.856,6.856,0,1,0,7.579,6.958,6.864,6.864,0,0,0,14.435,13.813ZM40.764,42.655,38.142,29.491l.377-.075.008,0,2.8-.557,2.622,13.164Zm-4.615,3.332a1.157,1.157,0,0,1-1.626,0h0L28.67,40.134a.816.816,0,0,0-1.154,1.154l5.854,5.854a1.15,1.15,0,0,1-1.627,1.626l-1.516-1.516h0l-4.668-4.668A.815.815,0,0,0,24.4,43.736L29.073,48.4a1.15,1.15,0,0,1-1.627,1.626l-2.675-2.676h0l-2.324-2.324a.816.816,0,1,0-1.153,1.154l2.322,2.323h0a1.15,1.15,0,0,1-1.626,1.626l-8.654-8.652L15.505,30.6H21.04l-1.326,1.106a2.611,2.611,0,0,0-.975,2.6l1.4,6.412a.816.816,0,0,0,.992.618c3.895-.959,4.143-3.786,4.363-6.279.01-.115.02-.231.031-.347A5.25,5.25,0,0,1,28,36.21l8.4,8.52a1.161,1.161,0,0,1-.247,1.257ZM11.44,42.655l2.623-13.164-1.847-.368h0l-1.334-.265L8.256,42.021Zm1.754-16.568h2.533V28.97h-.069a1.511,1.511,0,0,0-.194-.415,1.487,1.487,0,0,0-.953-.638l-1.317-.263Zm7.272-3.812H23v6.691l0,0H20.465V22.275Zm6.353,6.362a1.993,1.993,0,0,0-1.446.471l-1.039.868h0l-3.574,2.983a1.027,1.027,0,0,0-.427,1L21.542,39.5c1.994-.808,2.137-2.429,2.327-4.583.015-.172.031-.345.047-.518,0-.006,0-.012,0-.019a1.406,1.406,0,0,1,.917-1.2c1.022-.381,2.582.288,4.279,1.834l.032.029L37.078,43.1l1.76-1.76L36.832,31.27c-2.275.679-5.2.8-8.668-2.061a2.438,2.438,0,0,0-1.279-.566c-.024,0-.046,0-.067-.006Zm3.452-10.175V28.739a11.941,11.941,0,0,1-1.068-.788,4.208,4.208,0,0,0-1.465-.794V18.463h2.533Zm6.006-6.784-2.161,2.313h.078a.816.816,0,0,1,.816.816V29.991a8.188,8.188,0,0,0,1.5-.328,1.5,1.5,0,0,1,1.03-1.708V14.808a.816.816,0,0,1,.816-.816h.077Zm9.3,30.152L42.9,28.409a1.5,1.5,0,0,0-1.765-1.179l-1.961.391v-12h.515a1.086,1.086,0,0,0,.794-1.828L37.2,10.271a1.257,1.257,0,0,0-1.837,0L32.07,13.8a1.086,1.086,0,0,0,.794,1.828h.515V29.974a6.667,6.667,0,0,1-1.476-.388V18a1.169,1.169,0,0,0-1.167-1.166H27.273A1.169,1.169,0,0,0,26.106,18v9.041a3.626,3.626,0,0,0-1.476.589V21.81a1.167,1.167,0,0,0-1.166-1.166H20a1.167,1.167,0,0,0-1.166,1.166v7.16H17.358V25.623a1.168,1.168,0,0,0-1.167-1.167H12.729a1.168,1.168,0,0,0-1.166,1.167V27.33l-.493-.1A1.5,1.5,0,0,0,9.3,28.409L6.63,41.83A1.5,1.5,0,0,0,7.809,43.6l3.44.685a1.526,1.526,0,0,0,.294.029,1.5,1.5,0,0,0,1.385-.928l7.908,7.907a2.781,2.781,0,0,0,4.571-.989l.885.885a2.781,2.781,0,0,0,4.58-1.016,2.78,2.78,0,0,0,4.463-2.216h0a2.765,2.765,0,0,0,1.967-.812,2.809,2.809,0,0,0,.717-2.68l1.208-1.207a1.5,1.5,0,0,0,1.432,1.055,1.53,1.53,0,0,0,.293-.029l3.44-.685a1.5,1.5,0,0,0,1.179-1.765ZM28.9,9.437,13.179,18.513l.586,1.016,15.721-9.076a.814.814,0,0,1,1.113.3l.235.4,1.16-2.828-3.031-.41.234.4a.817.817,0,0,1-.3,1.115ZM27.377,8.431l-15.3,8.833a1.3,1.3,0,0,0-.477,1.78l.915,1.584a1.3,1.3,0,0,0,.791.608,1.347,1.347,0,0,0,.34.045A1.287,1.287,0,0,0,14.3,21.1l15.3-8.833.277.48A1.187,1.187,0,0,0,32,12.609l1.721-4.195a1.188,1.188,0,0,0-.94-1.628L28.288,6.18A1.188,1.188,0,0,0,27.1,7.951Z" fill-rule="evenodd"/>
      </g>
    </g>
  </g>
</svg>
