<svg xmlns="http://www.w3.org/2000/svg" xmlns:xlink="http://www.w3.org/1999/xlink" width="98" height="97.999" viewBox="0 0 98 97.999">
  <defs>
    <clipPath id="clip-path">
      <rect id="Rectangle_411080" data-name="Rectangle 411080" width="55" height="52" transform="translate(825.051 2027)" fill="#fff"/>
    </clipPath>
  </defs>
  <g id="Group_1206407" data-name="Group 1206407" transform="translate(-803.781 -2003.55)">
    <g id="Group_1204447" data-name="Group 1204447" transform="translate(0 -541.412)">
      <g id="Group_1204142" data-name="Group 1204142" transform="translate(-67.331 2267.798)">
        <g id="Group_1188789" data-name="Group 1188789" transform="translate(871.113 277.164)">
          <path id="Path_1243039" data-name="Path 1243039" d="M41.05,0h0a41.05,41.05,0,0,1,0,82.1h0a41.05,41.05,0,0,1,0-82.1Z" transform="translate(7.951 7.949)" fill="#ffa724"/>
          <rect id="Rectangle_400907" data-name="Rectangle 400907" width="88.438" height="88.437" rx="44.218" transform="translate(4.782 4.781)" fill="none"/>
          <g id="Group_1098742" data-name="Group 1098742" transform="translate(0)">
            <g id="Rectangle_400898" data-name="Rectangle 400898" transform="translate(0)" fill="none" stroke="#fff" stroke-width="2" opacity="0.859">
              <rect width="98" height="97.999" rx="48.999" stroke="none"/>
              <rect x="1" y="1" width="96" height="95.999" rx="47.999" fill="none"/>
            </g>
            <g id="Rectangle_400907-2" data-name="Rectangle 400907" transform="translate(0)" fill="none" stroke="#0f1f33" stroke-linecap="round" stroke-width="2">
              <rect width="98" height="97.999" rx="48.999" stroke="none"/>
              <rect x="1" y="1" width="96" height="95.999" rx="47.999" fill="none"/>
            </g>
          </g>
        </g>
      </g>
    </g>
    <g id="Mask_Group_1099586" data-name="Mask Group 1099586" clip-path="url(#clip-path)">
      <g id="Page-1" transform="translate(826.551 2027)">
        <g id="_046---Keyword-Rankings" data-name="046---Keyword-Rankings">
          <path id="Shape" d="M51.133,3.467v7.8H.867v-7.8a2.6,2.6,0,0,1,2.6-2.6H48.533A2.6,2.6,0,0,1,51.133,3.467Z" fill="#02a9f4"/>
          <path id="Shape-2" data-name="Shape" d="M48.533.867h-2.6a2.6,2.6,0,0,1,2.6,2.6v7.8h2.6v-7.8A2.6,2.6,0,0,0,48.533.867Z" fill="#0377bc"/>
          <path id="Shape-3" data-name="Shape" d="M51.133,11.267V48.533a2.6,2.6,0,0,1-2.6,2.6H3.467a2.6,2.6,0,0,1-2.6-2.6V11.267Z" fill="#f5f5f5"/>
          <path id="Shape-4" data-name="Shape" d="M48.533,11.267V48.533a2.6,2.6,0,0,1-2.6,2.6h2.6a2.6,2.6,0,0,0,2.6-2.6V11.267Z" fill="#cfd8dc"/>
          <circle id="Oval" cx="1.733" cy="1.733" r="1.733" transform="translate(4.333 4.333)" fill="#e91e63"/>
          <circle id="Oval-2" data-name="Oval" cx="1.733" cy="1.733" r="1.733" transform="translate(11.267 4.333)" fill="#ffdc00"/>
          <circle id="Oval-3" data-name="Oval" cx="1.733" cy="1.733" r="1.733" transform="translate(18.2 4.333)" fill="#a4c400"/>
          <rect id="Rectangle-path" width="12.133" height="3.467" rx="1.733" transform="translate(35.533 4.333)" fill="#3f51b5"/>
          <path id="Shape-5" data-name="Shape" d="M17.333,14.733a5.2,5.2,0,1,0,5.2,5.2A5.2,5.2,0,0,0,17.333,14.733Zm0,6.933a1.733,1.733,0,1,1,1.733-1.733A1.733,1.733,0,0,1,17.333,21.667Z" fill="#ffdc00"/>
          <path id="Shape-6" data-name="Shape" d="M39.858,19.777a1.742,1.742,0,0,1-1.725,1.889h-.867a.867.867,0,0,0-.867.867v1.733a.867.867,0,0,1-.867.867h-5.2a.867.867,0,0,1-.867-.867V22.533a.867.867,0,0,0-.867-.867H22.23a5.1,5.1,0,0,0,0-3.467H38.038a1.8,1.8,0,0,1,1.82,1.577Z" fill="#ff9801"/>
          <path id="Shape-7" data-name="Shape" d="M38.038,18.2h-2.6a1.8,1.8,0,0,1,1.82,1.577,1.733,1.733,0,0,1-1.725,1.889h-.867a.867.867,0,0,0-.867.867v1.733a.867.867,0,0,1-.867.867h2.6a.867.867,0,0,0,.867-.867V22.533a.867.867,0,0,1,.867-.867h.867a1.733,1.733,0,0,0,1.725-1.889A1.8,1.8,0,0,0,38.038,18.2Z" fill="#f57c00"/>
          <path id="Shape-8" data-name="Shape" d="M15.6,28.6v3.467H11.267A.867.867,0,0,1,10.4,31.2V29.467a.867.867,0,0,1,.867-.867Z" fill="#9d27b0"/>
          <path id="Shape-9" data-name="Shape" d="M41.6,29.467V31.2a.867.867,0,0,1-.867.867H15.6V28.6H40.733A.867.867,0,0,1,41.6,29.467Z" fill="#02a9f4"/>
          <path id="Shape-10" data-name="Shape" d="M40.733,28.6h-2.6a.867.867,0,0,1,.867.867V31.2a.867.867,0,0,1-.867.867h2.6A.867.867,0,0,0,41.6,31.2V29.467A.867.867,0,0,0,40.733,28.6Z" fill="#0377bc"/>
          <rect id="Rectangle-path-2" data-name="Rectangle-path" width="3.467" height="8.667" rx="0.867" transform="translate(6.933 39)" fill="#e91e63"/>
          <rect id="Rectangle-path-3" data-name="Rectangle-path" width="3.467" height="10.4" rx="0.867" transform="translate(13.867 37.267)" fill="#ffdc00"/>
          <rect id="Rectangle-path-4" data-name="Rectangle-path" width="3.467" height="6.933" rx="0.867" transform="translate(20.8 40.733)" fill="#e91e63"/>
          <rect id="Rectangle-path-5" data-name="Rectangle-path" width="3.467" height="10.4" rx="0.867" transform="translate(27.733 37.267)" fill="#ffdc00"/>
          <rect id="Rectangle-path-6" data-name="Rectangle-path" width="3.467" height="12.133" rx="0.867" transform="translate(34.667 35.533)" fill="#e91e63"/>
          <rect id="Rectangle-path-7" data-name="Rectangle-path" width="3.467" height="10.4" rx="0.867" transform="translate(41.6 37.267)" fill="#ffdc00"/>
          <g id="Group_1206842" data-name="Group 1206842">
            <path id="Shape-11" data-name="Shape" d="M48.533,0H3.467A3.467,3.467,0,0,0,0,3.467V48.533A3.467,3.467,0,0,0,3.467,52H48.533A3.467,3.467,0,0,0,52,48.533V3.467A3.467,3.467,0,0,0,48.533,0ZM3.467,1.733H48.533a1.733,1.733,0,0,1,1.733,1.733V10.4H1.733V3.467A1.733,1.733,0,0,1,3.467,1.733ZM48.533,50.267H3.467a1.733,1.733,0,0,1-1.733-1.733v-36.4H50.267v36.4A1.733,1.733,0,0,1,48.533,50.267Z"/>
            <path id="Shape-12" data-name="Shape" d="M6.067,8.667a2.6,2.6,0,1,0-2.6-2.6A2.6,2.6,0,0,0,6.067,8.667Zm0-3.467a.867.867,0,1,1-.867.867A.867.867,0,0,1,6.067,5.2Z"/>
            <path id="Shape-13" data-name="Shape" d="M13,8.667a2.6,2.6,0,1,0-2.6-2.6A2.6,2.6,0,0,0,13,8.667ZM13,5.2a.867.867,0,1,1-.867.867A.867.867,0,0,1,13,5.2Z"/>
            <path id="Shape-14" data-name="Shape" d="M19.933,8.667a2.6,2.6,0,1,0-2.6-2.6A2.6,2.6,0,0,0,19.933,8.667Zm0-3.467a.867.867,0,1,1-.867.867A.867.867,0,0,1,19.933,5.2Z"/>
            <path id="Shape-15" data-name="Shape" d="M37.267,8.667h8.667a2.6,2.6,0,0,0,0-5.2H37.267a2.6,2.6,0,0,0,0,5.2Zm0-3.467h8.667a.867.867,0,0,1,0,1.733H37.267a.867.867,0,0,1,0-1.733Z"/>
            <path id="Shape-16" data-name="Shape" d="M17.333,26a6.067,6.067,0,0,0,5.473-3.467H28.6v1.733A1.733,1.733,0,0,0,30.333,26h5.2a1.733,1.733,0,0,0,1.733-1.733V22.533h.867a2.608,2.608,0,0,0,2.588-2.83,2.664,2.664,0,0,0-2.683-2.37H22.806A6.067,6.067,0,1,0,17.333,26Zm20.7-6.933a.937.937,0,0,1,.953.794.875.875,0,0,1-.858.939h-.867a1.733,1.733,0,0,0-1.733,1.733v1.733H33.8V23.4a.867.867,0,1,0-1.733,0v.867H30.333V22.533A1.733,1.733,0,0,0,28.6,20.8H23.331a5.451,5.451,0,0,0,0-1.733ZM17.333,15.6A4.333,4.333,0,1,1,13,19.933,4.333,4.333,0,0,1,17.333,15.6Z"/>
            <path id="Shape-17" data-name="Shape" d="M17.333,22.533a2.6,2.6,0,1,0-2.6-2.6A2.6,2.6,0,0,0,17.333,22.533Zm0-3.467a.867.867,0,1,1-.867.867A.867.867,0,0,1,17.333,19.067Z"/>
            <path id="Shape-18" data-name="Shape" d="M40.733,32.933A1.733,1.733,0,0,0,42.467,31.2V29.467a1.733,1.733,0,0,0-1.733-1.733H11.267a1.733,1.733,0,0,0-1.733,1.733V31.2a1.733,1.733,0,0,0,1.733,1.733Zm0-1.733H16.467V29.467H40.733ZM11.267,29.467h3.467V31.2H11.267Z"/>
            <path id="Shape-19" data-name="Shape" d="M9.533,38.133H7.8a1.733,1.733,0,0,0-1.733,1.733V46.8A1.733,1.733,0,0,0,7.8,48.533H9.533A1.733,1.733,0,0,0,11.267,46.8V39.867A1.733,1.733,0,0,0,9.533,38.133ZM7.8,46.8V39.867H9.533V46.8Z"/>
            <path id="Shape-20" data-name="Shape" d="M16.467,36.4H14.733A1.733,1.733,0,0,0,13,38.133V46.8a1.733,1.733,0,0,0,1.733,1.733h1.733A1.733,1.733,0,0,0,18.2,46.8V38.133A1.733,1.733,0,0,0,16.467,36.4ZM14.733,46.8V38.133h1.733V46.8Z"/>
            <path id="Shape-21" data-name="Shape" d="M23.4,39.867H21.667A1.733,1.733,0,0,0,19.933,41.6v5.2a1.733,1.733,0,0,0,1.733,1.733H23.4A1.733,1.733,0,0,0,25.133,46.8V41.6A1.733,1.733,0,0,0,23.4,39.867ZM21.667,46.8V41.6H23.4v5.2Z"/>
            <path id="Shape-22" data-name="Shape" d="M30.333,36.4H28.6a1.733,1.733,0,0,0-1.733,1.733V46.8A1.733,1.733,0,0,0,28.6,48.533h1.733A1.733,1.733,0,0,0,32.067,46.8V38.133A1.733,1.733,0,0,0,30.333,36.4ZM28.6,46.8V38.133h1.733V46.8Z"/>
            <path id="Shape-23" data-name="Shape" d="M37.267,34.667H35.533A1.733,1.733,0,0,0,33.8,36.4V46.8a1.733,1.733,0,0,0,1.733,1.733h1.733A1.733,1.733,0,0,0,39,46.8V36.4A1.733,1.733,0,0,0,37.267,34.667ZM35.533,46.8V36.4h1.733V46.8Z"/>
            <path id="Shape-24" data-name="Shape" d="M44.2,36.4H42.467a1.733,1.733,0,0,0-1.733,1.733V46.8a1.733,1.733,0,0,0,1.733,1.733H44.2A1.733,1.733,0,0,0,45.933,46.8V38.133A1.733,1.733,0,0,0,44.2,36.4ZM42.467,46.8V38.133H44.2V46.8Z"/>
          </g>
        </g>
      </g>
    </g>
  </g>
</svg>
