<svg xmlns="http://www.w3.org/2000/svg" xmlns:xlink="http://www.w3.org/1999/xlink" width="98" height="97.999" viewBox="0 0 98 97.999">
  <defs>
    <clipPath id="clip-path">
      <rect id="Rectangle_411080" data-name="Rectangle 411080" width="55" height="52" transform="translate(825.051 2027)" fill="#fff"/>
    </clipPath>
  </defs>
  <g id="Group_1206677" data-name="Group 1206677" transform="translate(-803.781 -2003.55)">
    <g id="Group_1204447" data-name="Group 1204447" transform="translate(0 -541.412)">
      <g id="Group_1204142" data-name="Group 1204142" transform="translate(-67.331 2267.798)">
        <g id="Group_1188789" data-name="Group 1188789" transform="translate(871.113 277.164)">
          <path id="Path_1243039" data-name="Path 1243039" d="M41.05,0h0a41.05,41.05,0,0,1,0,82.1h0a41.05,41.05,0,0,1,0-82.1Z" transform="translate(7.951 7.949)" fill="#ffa724"/>
          <rect id="Rectangle_400907" data-name="Rectangle 400907" width="88.438" height="88.437" rx="44.218" transform="translate(4.782 4.781)" fill="none"/>
          <g id="Group_1098742" data-name="Group 1098742" transform="translate(0)">
            <g id="Rectangle_400898" data-name="Rectangle 400898" transform="translate(0)" fill="none" stroke="#fff" stroke-width="2" opacity="0.859">
              <rect width="98" height="97.999" rx="48.999" stroke="none"/>
              <rect x="1" y="1" width="96" height="95.999" rx="47.999" fill="none"/>
            </g>
            <g id="Rectangle_400907-2" data-name="Rectangle 400907" transform="translate(0)" fill="none" stroke="#0f1f33" stroke-linecap="round" stroke-width="2">
              <rect width="98" height="97.999" rx="48.999" stroke="none"/>
              <rect x="1" y="1" width="96" height="95.999" rx="47.999" fill="none"/>
            </g>
          </g>
        </g>
      </g>
    </g>
    <g id="Mask_Group_1099591" data-name="Mask Group 1099591" clip-path="url(#clip-path)">
      <g id="Layer_14" data-name="Layer 14" transform="translate(824.164 2024.613)">
        <rect id="Rectangle_412828" data-name="Rectangle 412828" width="53.226" height="46.129" rx="2.661" transform="translate(1.774 5.323)" fill="#4596ec"/>
        <path id="Path_1263068" data-name="Path 1263068" d="M1.774,48.79a2.661,2.661,0,0,0,2.661,2.661h47.9A2.661,2.661,0,0,0,55,48.79V12.419H1.774Z" fill="#e0e0e0"/>
        <path id="Path_1263069" data-name="Path 1263069" d="M4.435,5.323A2.661,2.661,0,0,0,1.774,7.984V9.758H46.129A2.661,2.661,0,0,0,48.79,7.1V5.323Z" fill="#6aabf0"/>
        <path id="Path_1263070" data-name="Path 1263070" d="M1.774,12.419v33.71H47.016a1.774,1.774,0,0,0,1.774-1.774V12.419Z" fill="#f5f5f5"/>
        <path id="Path_1263071" data-name="Path 1263071" d="M5.323,23.065H30.161V37.258H5.323Z" fill="#f7c244"/>
        <path id="Path_1263072" data-name="Path 1263072" d="M5.323,23.065v9.758H21.29a2.661,2.661,0,0,0,2.661-2.661v-7.1Z" fill="#f9ce69"/>
        <path id="Path_1263073" data-name="Path 1263073" d="M26.613,33.71H51.452V47.9H26.613Z" fill="#67ac5c"/>
        <path id="Path_1263074" data-name="Path 1263074" d="M26.613,33.71v9.758H42.581a2.661,2.661,0,0,0,2.661-2.661v-7.1Z" fill="#85bd7d"/>
        <rect id="Rectangle_412829" data-name="Rectangle 412829" width="39.032" height="3.548" rx="1.774" transform="translate(5.323 15.968)" fill="#e0e0e0"/>
        <path id="Path_1263075" data-name="Path 1263075" d="M52.339,4.435H4.435A3.548,3.548,0,0,0,.887,7.984V48.79a3.548,3.548,0,0,0,3.548,3.548h47.9a3.548,3.548,0,0,0,3.548-3.548V7.984A3.548,3.548,0,0,0,52.339,4.435Zm1.774,3.548v3.548H20.4V6.21H52.339A1.774,1.774,0,0,1,54.113,7.984ZM4.435,6.21H18.629v5.323H2.661V7.984A1.774,1.774,0,0,1,4.435,6.21Zm47.9,44.355H4.435A1.774,1.774,0,0,1,2.661,48.79V13.306H54.113V48.79A1.774,1.774,0,0,1,52.339,50.565Z"/>
        <path id="Path_1263076" data-name="Path 1263076" d="M7.984,7.984H9.758V9.758H7.984Z"/>
        <path id="Path_1263077" data-name="Path 1263077" d="M4.435,7.984H6.21V9.758H4.435Z"/>
        <path id="Path_1263078" data-name="Path 1263078" d="M11.532,7.984h1.774V9.758H11.532Z"/>
        <path id="Path_1263079" data-name="Path 1263079" d="M15.081,7.984h1.774V9.758H15.081Z"/>
        <path id="Path_1263080" data-name="Path 1263080" d="M7.1,20.4H42.581a2.661,2.661,0,1,0,0-5.323H7.1a2.661,2.661,0,1,0,0,5.323Zm0-3.548H42.581a.887.887,0,1,1,0,1.774H7.1a.887.887,0,1,1,0-1.774Z"/>
        <path id="Path_1263081" data-name="Path 1263081" d="M51.452,17.742a2.661,2.661,0,1,0-1.517,2.4l1.774,1.774,1.26-1.26-1.774-1.774A2.661,2.661,0,0,0,51.452,17.742Zm-3.548,0a.887.887,0,1,1,.887.887A.887.887,0,0,1,47.9,17.742Z"/>
        <path id="Path_1263082" data-name="Path 1263082" d="M17.742,27.5a.887.887,0,0,1,.887.887H20.4a2.661,2.661,0,0,0-1.774-2.5V24.839H16.855v1.047a2.661,2.661,0,0,0,.887,5.163.887.887,0,1,1-.887.887H15.081a2.661,2.661,0,0,0,1.774,2.5v1.047h1.774V34.437a2.661,2.661,0,0,0-.887-5.163.887.887,0,1,1,0-1.774Z"/>
        <path id="Path_1263083" data-name="Path 1263083" d="M21.29,33.71h3.548v1.774H21.29Z"/>
        <path id="Path_1263084" data-name="Path 1263084" d="M8.871,25.726a.887.887,0,0,1-.887.887A.887.887,0,0,0,7.1,27.5v5.323a.887.887,0,0,0,.887.887.887.887,0,0,1,.887.887.887.887,0,0,0,.887.887h4.435V33.71h-3.7a2.661,2.661,0,0,0-1.623-1.623v-3.85a2.661,2.661,0,0,0,1.623-1.623h3.7V24.839H9.758A.887.887,0,0,0,8.871,25.726Z"/>
        <path id="Path_1263085" data-name="Path 1263085" d="M51.452,32.823h-20.4V23.065a.887.887,0,0,0-.887-.887H5.323a.887.887,0,0,0-.887.887V37.258a.887.887,0,0,0,.887.887h20.4V47.9a.887.887,0,0,0,.887.887H51.452a.887.887,0,0,0,.887-.887V33.71A.887.887,0,0,0,51.452,32.823ZM6.21,36.371V23.952H29.274v8.871h-.887V27.5a.887.887,0,0,0-.887-.887.887.887,0,0,1-.887-.887.887.887,0,0,0-.887-.887H21.29v1.774h3.7a2.661,2.661,0,0,0,1.623,1.623v4.586a.887.887,0,0,0-.887.887v2.661ZM50.565,47.016H27.5V34.6H50.565Z"/>
        <path id="Path_1263086" data-name="Path 1263086" d="M47.9,38.881v3.85a2.661,2.661,0,0,0-1.623,1.623h-3.7v1.774h4.435a.887.887,0,0,0,.887-.887.887.887,0,0,1,.887-.887.887.887,0,0,0,.887-.887V38.145a.887.887,0,0,0-.887-.887.887.887,0,0,1-.887-.887.887.887,0,0,0-.887-.887H42.581v1.774h3.7A2.661,2.661,0,0,0,47.9,38.881Z"/>
        <path id="Path_1263087" data-name="Path 1263087" d="M29.274,44.355a.887.887,0,0,1,.887.887.887.887,0,0,0,.887.887h4.435V44.355h-3.7a2.661,2.661,0,0,0-1.623-1.623v-3.85a2.661,2.661,0,0,0,1.623-1.623h3.7V35.484H31.048a.887.887,0,0,0-.887.887.887.887,0,0,1-.887.887.887.887,0,0,0-.887.887v5.323a.887.887,0,0,0,.887.887Z"/>
        <path id="Path_1263088" data-name="Path 1263088" d="M37.258,45.242h.887v.887h1.774v-.887a2.65,2.65,0,0,0,1.969-4.435,2.65,2.65,0,0,0-1.969-4.435v-.887H38.145v.887h-.887a.887.887,0,0,0-.887.887v7.1A.887.887,0,0,0,37.258,45.242Zm2.661-1.774H38.145V41.694h1.774a.887.887,0,0,1,0,1.774Zm-1.774-5.323h1.774a.887.887,0,0,1,0,1.774H38.145Z"/>
        <path id="Path_1263089" data-name="Path 1263089" d="M23.065,44.7a10.8,10.8,0,0,1-4.5-5.119l-1.641.674a12.535,12.535,0,0,0,6.689,6.689.881.881,0,0,0,1.224-.816V43.468H23.065Z"/>
        <path id="Path_1263090" data-name="Path 1263090" d="M32.335,24.1a.887.887,0,0,0-.4.736V27.5H33.71V26.267a10.734,10.734,0,0,1,4.506,5.119l1.641-.674a12.535,12.535,0,0,0-6.689-6.689.887.887,0,0,0-.834.08Z"/>
      </g>
    </g>
  </g>
</svg>
