<svg xmlns="http://www.w3.org/2000/svg" xmlns:xlink="http://www.w3.org/1999/xlink" width="98" height="97.999" viewBox="0 0 98 97.999">
  <defs>
    <clipPath id="clip-path">
      <rect id="Rectangle_411080" data-name="Rectangle 411080" width="55" height="52" transform="translate(825.051 2027)" fill="#fff"/>
    </clipPath>
  </defs>
  <g id="Group_1206680" data-name="Group 1206680" transform="translate(-803.781 -2003.55)">
    <g id="Group_1204447" data-name="Group 1204447" transform="translate(0 -541.412)">
      <g id="Group_1204142" data-name="Group 1204142" transform="translate(-67.331 2267.798)">
        <g id="Group_1188789" data-name="Group 1188789" transform="translate(871.113 277.164)">
          <path id="Path_1243039" data-name="Path 1243039" d="M41.05,0h0a41.05,41.05,0,0,1,0,82.1h0a41.05,41.05,0,0,1,0-82.1Z" transform="translate(7.951 7.949)" fill="#ffa724"/>
          <rect id="Rectangle_400907" data-name="Rectangle 400907" width="88.438" height="88.437" rx="44.218" transform="translate(4.782 4.781)" fill="none"/>
          <g id="Group_1098742" data-name="Group 1098742" transform="translate(0)">
            <g id="Rectangle_400898" data-name="Rectangle 400898" transform="translate(0)" fill="none" stroke="#fff" stroke-width="2" opacity="0.859">
              <rect width="98" height="97.999" rx="48.999" stroke="none"/>
              <rect x="1" y="1" width="96" height="95.999" rx="47.999" fill="none"/>
            </g>
            <g id="Rectangle_400907-2" data-name="Rectangle 400907" transform="translate(0)" fill="none" stroke="#0f1f33" stroke-linecap="round" stroke-width="2">
              <rect width="98" height="97.999" rx="48.999" stroke="none"/>
              <rect x="1" y="1" width="96" height="95.999" rx="47.999" fill="none"/>
            </g>
          </g>
        </g>
      </g>
    </g>
    <g id="Mask_Group_1099592" data-name="Mask Group 1099592" clip-path="url(#clip-path)">
      <g id="cashflow_18233943" transform="translate(824.049 2024.498)">
        <path id="Path_1263091" data-name="Path 1263091" d="M50.121,41.543a2.277,2.277,0,0,1,.413,2.31,2.72,2.72,0,0,1-2.208,1.624v.561a.779.779,0,1,1-1.559,0v-.606a3.079,3.079,0,0,1-2.438-2.316.779.779,0,1,1,1.518-.35c.257,1.121,1.505,1.267,2.2,1.176a1.229,1.229,0,0,0,1.031-.659.713.713,0,0,0-.158-.744c-.341-.409-.672-.474-1.333-.573a5.859,5.859,0,0,1-1.2-.274l-.023-.009A2.462,2.462,0,0,1,44.66,39.4,2.54,2.54,0,0,1,46.4,37.1a3.7,3.7,0,0,1,.37-.115v-.627a.779.779,0,0,1,1.559,0v.606a3.273,3.273,0,0,1,2.272,2.1.779.779,0,1,1-1.457.552,1.643,1.643,0,0,0-2.2-1.057,1.013,1.013,0,0,0-.72.861c-.006.444.443.7.721.814a4.587,4.587,0,0,0,.883.191,3.28,3.28,0,0,1,2.3,1.117Zm-2.623,6.6A6.945,6.945,0,1,0,40.553,41.2,6.945,6.945,0,0,0,47.5,48.143ZM44.4,22.83l1.715,1.315V32.81a8.438,8.438,0,0,0-3.43,1.387V24.144l1.716-1.315ZM47.668,32.7V23.76a.78.78,0,0,0-.305-.619l-2.5-1.913a.78.78,0,0,0-.947,0l-2.495,1.913a.779.779,0,0,0-.305.619V35.582A8.5,8.5,0,1,0,47.668,32.7ZM19.08,25.366a.828.828,0,0,1-.827.826H9.605a.828.828,0,0,1-.827-.826V23.858a.828.828,0,0,1,.827-.827h8.647a.828.828,0,0,1,.827.827v1.507Zm0-4.72a.829.829,0,0,1-.821.826H9.6a.829.829,0,0,1-.821-.826V19.138a.828.828,0,0,1,.827-.827h8.647a.828.828,0,0,1,.827.827v1.507Zm-10.3-6.227a.828.828,0,0,1,.827-.827h8.647a.828.828,0,0,1,.827.827v1.506a.831.831,0,0,1-.82.827H9.6a.831.831,0,0,1-.82-.827V14.42Zm11.861,0a2.389,2.389,0,0,0-2.386-2.386H9.605A2.389,2.389,0,0,0,7.219,14.42v1.506a2.374,2.374,0,0,0,.629,1.605,2.375,2.375,0,0,0-.629,1.608v1.507a2.374,2.374,0,0,0,.629,1.6,2.374,2.374,0,0,0-.629,1.608v1.507A2.388,2.388,0,0,0,9.6,27.751h8.647a2.389,2.389,0,0,0,2.386-2.385V23.858a2.375,2.375,0,0,0-.628-1.608,2.376,2.376,0,0,0,.628-1.6V19.138a2.369,2.369,0,0,0-.629-1.608,2.373,2.373,0,0,0,.629-1.605V14.419ZM1.212,19.694a.778.778,0,0,0,.777.78h0A.779.779,0,0,0,2.77,19.7a10.866,10.866,0,0,1,20.345-5.28l-.148-.08a.779.779,0,1,0-.74,1.372l2.13,1.149a.78.78,0,0,0,.371.094.772.772,0,0,0,.286-.055.782.782,0,0,0,.453-.478l.785-2.347a.779.779,0,0,0-1.479-.494l-.13.39A12.425,12.425,0,0,0,1.212,19.694Zm1.444,5.844a12.425,12.425,0,0,0,23.409-5.7.779.779,0,0,0-.774-.785h-.006a.779.779,0,0,0-.779.774A10.866,10.866,0,0,1,4.2,25.112l.129.07a.779.779,0,0,0,.739-1.372l-2.13-1.15a.778.778,0,0,0-1.109.439l-.786,2.347a.779.779,0,0,0,.492.986.766.766,0,0,0,.247.04.779.779,0,0,0,.739-.532Zm7.675,19.556H6.9V43.572l1.716-1.315,1.715,1.315v1.522Zm1.254-2.524L9.091,40.657a.78.78,0,0,0-.949,0l-2.5,1.914a.78.78,0,0,0-.305.618v2.685a.779.779,0,0,0,.779.779H11.11a.779.779,0,0,0,.779-.779V43.188a.777.777,0,0,0-.3-.618ZM39.249,16.506a.779.779,0,0,1,.821-.736l3.1.169a.78.78,0,0,1,.731.874l-.379,3.067a.778.778,0,0,1-.773.685.689.689,0,0,1-.1-.007.779.779,0,0,1-.678-.868l.133-1.078A127.561,127.561,0,0,1,8.137,38.019a.779.779,0,1,1-.523-1.469A125.729,125.729,0,0,0,41.141,17.39l-1.156-.063a.779.779,0,0,1-.736-.821ZM19.276,45.094V38.4l-1.715-1.316L15.845,38.4v6.7Zm1.254-7.7-2.494-1.913a.78.78,0,0,0-.949,0l-2.495,1.914a.778.778,0,0,0-.305.618v7.861a.779.779,0,0,0,.779.779h4.989a.779.779,0,0,0,.779-.779V38.012a.778.778,0,0,0-.305-.618Zm7.691,7.7V33.809l-1.715-1.315L24.79,33.809V45.094Zm1.254-12.288a.78.78,0,0,1,.305.619V45.874a.779.779,0,0,1-.779.779H24.011a.779.779,0,0,1-.779-.779V33.425a.78.78,0,0,1,.305-.619l2.495-1.913a.778.778,0,0,1,.949,0l2.494,1.913Zm7.691,12.288V28.534L35.45,27.218l-1.716,1.316v16.56Zm1.254-17.563-2.494-1.913a.778.778,0,0,0-.949,0l-2.495,1.913a.778.778,0,0,0-.305.618V45.874a.779.779,0,0,0,.779.779h4.989a.779.779,0,0,0,.779-.779V28.149a.779.779,0,0,0-.305-.618Z" fill="#242222" fill-rule="evenodd"/>
        <path id="Path_1263092" data-name="Path 1263092" d="M46.367,41.684A2.462,2.462,0,0,1,44.66,39.4,2.54,2.54,0,0,1,46.4,37.1a3.7,3.7,0,0,1,.37-.115v-.627a.779.779,0,0,1,1.559,0v.607a3.273,3.273,0,0,1,2.272,2.1.779.779,0,1,1-1.457.552,1.643,1.643,0,0,0-2.2-1.057,1.013,1.013,0,0,0-.72.861c-.006.444.443.7.721.814a4.587,4.587,0,0,0,.883.191,3.28,3.28,0,0,1,2.3,1.117,2.277,2.277,0,0,1,.413,2.31,2.72,2.72,0,0,1-2.208,1.624v.561a.779.779,0,1,1-1.559,0v-.606a3.079,3.079,0,0,1-2.438-2.316.779.779,0,1,1,1.518-.35c.257,1.121,1.505,1.267,2.2,1.176a1.229,1.229,0,0,0,1.031-.659.713.713,0,0,0-.158-.744c-.341-.409-.672-.474-1.333-.573a5.859,5.859,0,0,1-1.2-.274l-.023-.009Zm8.076-.486A6.945,6.945,0,1,0,47.5,48.143,6.945,6.945,0,0,0,54.443,41.2Z" fill="#fdc72e" fill-rule="evenodd"/>
        <path id="Path_1263093" data-name="Path 1263093" d="M42.679,34.2a8.438,8.438,0,0,1,3.43-1.387V24.144L44.4,22.83l-1.716,1.315Z" fill="#96ff96" fill-rule="evenodd"/>
        <path id="Path_1263094" data-name="Path 1263094" d="M37.165,45.094V28.534l-1.714-1.316-1.716,1.316v16.56Z" fill="#fdc72e" fill-rule="evenodd"/>
        <path id="Path_1263095" data-name="Path 1263095" d="M28.221,45.094V33.809l-1.715-1.315L24.79,33.809V45.094Z" fill="#8ac9fe" fill-rule="evenodd"/>
        <path id="Path_1263096" data-name="Path 1263096" d="M19.276,45.094V38.4l-1.715-1.316L15.845,38.4v6.7Z" fill="#697c86" fill-rule="evenodd"/>
        <path id="Path_1263097" data-name="Path 1263097" d="M10.331,45.094V43.572L8.617,42.258,6.9,43.572v1.522Z" fill="#fb545c" fill-rule="evenodd"/>
        <path id="Path_1263098" data-name="Path 1263098" d="M9.605,26.192h8.647a.828.828,0,0,0,.827-.826V23.858a.828.828,0,0,0-.827-.827H9.605a.828.828,0,0,0-.827.827v1.507a.828.828,0,0,0,.827.826Z" fill="#ffe177" fill-rule="evenodd"/>
        <path id="Path_1263099" data-name="Path 1263099" d="M9.605,21.472h8.654a.829.829,0,0,0,.821-.826V19.138a.828.828,0,0,0-.827-.827H9.605a.828.828,0,0,0-.827.827v1.507a.829.829,0,0,0,.821.826h0Z" fill="#fdc72e" fill-rule="evenodd"/>
        <path id="Path_1263100" data-name="Path 1263100" d="M9.605,16.753H18.26a.831.831,0,0,0,.82-.827V14.419a.828.828,0,0,0-.827-.827H9.605a.828.828,0,0,0-.827.827v1.506a.831.831,0,0,0,.82.827h.008Z" fill="#ffe177" fill-rule="evenodd"/>
      </g>
    </g>
  </g>
</svg>
