<svg xmlns="http://www.w3.org/2000/svg" xmlns:xlink="http://www.w3.org/1999/xlink" width="98" height="97.999" viewBox="0 0 98 97.999">
  <defs>
    <clipPath id="clip-path">
      <rect id="Rectangle_411080" data-name="Rectangle 411080" width="55" height="52" transform="translate(825.051 2027)" fill="#fff"/>
    </clipPath>
  </defs>
  <g id="Group_1206678" data-name="Group 1206678" transform="translate(-803.781 -2003.55)">
    <g id="Group_1204447" data-name="Group 1204447" transform="translate(0 -541.412)">
      <g id="Group_1204142" data-name="Group 1204142" transform="translate(-67.331 2267.798)">
        <g id="Group_1188789" data-name="Group 1188789" transform="translate(871.113 277.164)">
          <path id="Path_1243039" data-name="Path 1243039" d="M41.05,0h0a41.05,41.05,0,0,1,0,82.1h0a41.05,41.05,0,0,1,0-82.1Z" transform="translate(7.951 7.949)" fill="#ffa724"/>
          <rect id="Rectangle_400907" data-name="Rectangle 400907" width="88.438" height="88.437" rx="44.218" transform="translate(4.782 4.781)" fill="none"/>
          <g id="Group_1098742" data-name="Group 1098742" transform="translate(0)">
            <g id="Rectangle_400898" data-name="Rectangle 400898" transform="translate(0)" fill="none" stroke="#fff" stroke-width="2" opacity="0.859">
              <rect width="98" height="97.999" rx="48.999" stroke="none"/>
              <rect x="1" y="1" width="96" height="95.999" rx="47.999" fill="none"/>
            </g>
            <g id="Rectangle_400907-2" data-name="Rectangle 400907" transform="translate(0)" fill="none" stroke="#0f1f33" stroke-linecap="round" stroke-width="2">
              <rect width="98" height="97.999" rx="48.999" stroke="none"/>
              <rect x="1" y="1" width="96" height="95.999" rx="47.999" fill="none"/>
            </g>
          </g>
        </g>
      </g>
    </g>
    <g id="Mask_Group_1099590" data-name="Mask Group 1099590" clip-path="url(#clip-path)">
      <g id="engagement_17328225" transform="translate(825.709 2026.158)">
        <path id="Path_1263062" data-name="Path 1263062" d="M37.921,39.9,41.5,45.108,43.15,39.9h3.462A2.2,2.2,0,0,0,48.8,37.71V24.815a2.2,2.2,0,0,0-2.191-2.191H27.074a2.2,2.2,0,0,0-2.191,2.191V37.71A2.2,2.2,0,0,0,27.074,39.9Z" fill="#fdcd56" fill-rule="evenodd"/>
        <path id="Path_1263063" data-name="Path 1263063" d="M13.5,32.242l-4.049,5-1.589-5H5.294a2.118,2.118,0,0,1-2.113-2.113V13.372a2.118,2.118,0,0,1,2.113-2.113H26.63a2.118,2.118,0,0,1,2.113,2.113V30.129a2.118,2.118,0,0,1-2.113,2.113Z" fill="#66d4f1" fill-rule="evenodd"/>
        <path id="Path_1263064" data-name="Path 1263064" d="M10.394,22.1a.472.472,0,0,1,.146-.348.45.45,0,0,1,.352-.14l.641.044a.48.48,0,0,0,.5-.46c.3-1.027,1.6-2.357,1.74-2.938l.78-3.211a1.543,1.543,0,0,1,3,.728l-.826,3.5a.54.54,0,0,0,.168.538c.154.138.257.117,1.3.124l3.8-.005a1.029,1.029,0,0,1,1.075,1.151,1.207,1.207,0,0,1-1.419,1.147,1.1,1.1,0,0,1,.948,1.159c0,.634-.538,1.152-1.529,1.148A1.316,1.316,0,0,1,21.9,25.7c0,.634-.538,1.152-1.514,1.148a1.409,1.409,0,0,1,.854,1.159,1.193,1.193,0,0,1-1.159,1.165l-6.433.016a.9.9,0,0,1-.829-.553.508.508,0,0,0-.483-.322l-1.561.015a.519.519,0,0,1-.521-.518Z" fill="#efc7a4" fill-rule="evenodd"/>
        <path id="Path_1263065" data-name="Path 1263065" d="M11.358,29.1l-1.772,0a.7.7,0,0,1-.7-.7q-.012-3.6-.025-7.205a.7.7,0,0,1,.7-.7l1.771,0a.7.7,0,0,1,.7.7q.012,3.6.024,7.205a.7.7,0,0,1-.7.7Z" fill="#e4e8eb"/>
        <path id="Path_1263066" data-name="Path 1263066" d="M38.6,27.456a2.988,2.988,0,0,1,2.79-1.581,2.928,2.928,0,0,1,3.078,2.747c0,2.679-2.928,5.358-5.928,8.036a.342.342,0,0,1-.457,0c-3-2.678-5.928-5.357-5.928-8.036a2.928,2.928,0,0,1,3.078-2.747,2.99,2.99,0,0,1,2.791,1.581.343.343,0,0,0,.576,0Z" fill="#f76c82"/>
        <path id="Path_1263067" data-name="Path 1263067" d="M47.859,15.73a24.524,24.524,0,0,0-36.1-8.861l-.278.2a.737.737,0,1,1-.873-1.187q.147-.108.295-.214A26,26,0,0,1,49.141,15l.679-1.681a.737.737,0,1,1,1.367.552L49.8,17.308a.737.737,0,0,1-.959.407L45.4,16.327a.737.737,0,0,1,.552-1.366ZM5.463,42.791l-.135,1.865a.737.737,0,1,1-1.47-.107l.251-3.45a.737.737,0,0,1,.788-.682l3.45.251a.737.737,0,0,1-.107,1.47l-1.5-.109a24.522,24.522,0,0,0,31.209,6.228q.307-.172.609-.353a.737.737,0,0,1,.757,1.265q-.32.192-.646.374a26,26,0,0,1-33.2-6.753Zm18.683-8.444a.737.737,0,1,1,1.474,0V37.71a1.458,1.458,0,0,0,1.454,1.454H37.921a.737.737,0,0,1,.607.319l2.727,3.964,1.193-3.769a.737.737,0,0,1,.7-.515h3.462a1.457,1.457,0,0,0,1.454-1.454V24.815a1.458,1.458,0,0,0-1.454-1.454H30.962a.737.737,0,0,1,0-1.474H46.612a2.935,2.935,0,0,1,2.928,2.928V37.71a2.934,2.934,0,0,1-2.928,2.928H43.69L42.2,45.33a.737.737,0,0,1-1.31.2l-3.362-4.887H27.074a2.934,2.934,0,0,1-2.928-2.928ZM13.853,32.979,10.025,37.7a.737.737,0,0,1-1.275-.241L7.324,32.979H5.294a2.856,2.856,0,0,1-2.85-2.85V13.372a2.856,2.856,0,0,1,2.85-2.85H26.63a2.856,2.856,0,0,1,2.85,2.85V30.129a2.856,2.856,0,0,1-2.85,2.85ZM13.5,31.506H26.63a1.379,1.379,0,0,0,1.376-1.376V13.372A1.379,1.379,0,0,0,26.63,12H5.294a1.379,1.379,0,0,0-1.376,1.376V30.129a1.379,1.379,0,0,0,1.376,1.376H7.863a.737.737,0,0,1,.7.514l1.175,3.7,3.189-3.936a.737.737,0,0,1,.573-.273Zm-1.082-2.141-.046.049h0a1.388,1.388,0,0,1-1.012.421h0l-1.77,0A1.437,1.437,0,0,1,8.15,28.41q-.012-3.6-.025-7.207h0a1.436,1.436,0,0,1,1.431-1.438l1.77,0a1.421,1.421,0,0,1,.539.1c.154-.249.324-.5.493-.733a5.043,5.043,0,0,0,.694-1.047l.78-3.21a2.28,2.28,0,0,1,4.432,1.072L17.5,19.195c.172,0,.415.007.7.009l3.793-.005.066,0a1.874,1.874,0,0,1,1.337.622,1.894,1.894,0,0,1,.409,1.266h0a1.887,1.887,0,0,1-.647,1.418,2.075,2.075,0,0,1,.176.888,1.772,1.772,0,0,1-.859,1.533,1.813,1.813,0,0,1-.675,2.3,1.7,1.7,0,0,1,.185.781h0a1.94,1.94,0,0,1-1.88,1.9h-.014l-6.433.016h0a1.64,1.64,0,0,1-1.23-.558Zm.347-8.059.021,6.347a1.237,1.237,0,0,1,.714.7h0a.158.158,0,0,0,.147.1l6.425-.016A.447.447,0,0,0,20.5,28a.416.416,0,0,0-.176-.308,1.635,1.635,0,0,0-.3-.2.737.737,0,0,1,.36-1.381c.451,0,.774-.121.775-.414h0a.551.551,0,0,0-.381-.472.737.737,0,0,1,.281-1.419c.462,0,.788-.119.789-.414h0a.418.418,0,0,0-.366-.434A.737.737,0,0,1,21.7,21.5c.361.03.619-.157.621-.417a.463.463,0,0,0-.061-.307.443.443,0,0,0-.309-.1l-3.762.005h-.006c-.688,0-1,0-1.182-.031a1.012,1.012,0,0,1-.608-.283h0A1.259,1.259,0,0,1,16,19.109l.826-3.5v0a.808.808,0,0,0-.593-.974h0a.808.808,0,0,0-.973.593l-.78,3.211a4.545,4.545,0,0,1-.7,1.243,7.655,7.655,0,0,0-1.014,1.632ZM9.6,21.238q.012,3.564.025,7.129l1.693,0-.024-7.128-1.694,0Zm28.71,5.351a3.523,3.523,0,0,1,3.078-1.451A3.664,3.664,0,0,1,45.2,28.623a6.43,6.43,0,0,1-1.357,3.639,32.338,32.338,0,0,1-4.817,4.947,1.076,1.076,0,0,1-1.439,0,32.344,32.344,0,0,1-4.817-4.947,6.431,6.431,0,0,1-1.357-3.639,3.664,3.664,0,0,1,3.815-3.484,3.524,3.524,0,0,1,3.079,1.451Zm0,9.286a29.107,29.107,0,0,0,4.332-4.462,4.985,4.985,0,0,0,1.088-2.791,2.193,2.193,0,0,0-2.341-2.01,2.333,2.333,0,0,0-2.172,1.245h0a1.08,1.08,0,0,1-1.811,0,2.335,2.335,0,0,0-2.173-1.246,2.193,2.193,0,0,0-2.341,2.01,4.985,4.985,0,0,0,1.088,2.791,29.1,29.1,0,0,0,4.332,4.462Z" fill-rule="evenodd"/>
      </g>
    </g>
  </g>
</svg>
