<svg xmlns="http://www.w3.org/2000/svg" xmlns:xlink="http://www.w3.org/1999/xlink" width="98" height="97.999" viewBox="0 0 98 97.999">
  <defs>
    <clipPath id="clip-path">
      <rect id="Rectangle_411080" data-name="Rectangle 411080" width="55" height="52" transform="translate(825.051 2027)" fill="#fff"/>
    </clipPath>
  </defs>
  <g id="Group_1206675" data-name="Group 1206675" transform="translate(-803.781 -2003.55)">
    <g id="Group_1204447" data-name="Group 1204447" transform="translate(0 -541.412)">
      <g id="Group_1204142" data-name="Group 1204142" transform="translate(-67.331 2267.798)">
        <g id="Group_1188789" data-name="Group 1188789" transform="translate(871.113 277.164)">
          <path id="Path_1243039" data-name="Path 1243039" d="M41.05,0h0a41.05,41.05,0,0,1,0,82.1h0a41.05,41.05,0,0,1,0-82.1Z" transform="translate(7.951 7.949)" fill="#ffa724"/>
          <rect id="Rectangle_400907" data-name="Rectangle 400907" width="88.438" height="88.437" rx="44.218" transform="translate(4.782 4.781)" fill="none"/>
          <g id="Group_1098742" data-name="Group 1098742" transform="translate(0)">
            <g id="Rectangle_400898" data-name="Rectangle 400898" transform="translate(0)" fill="none" stroke="#fff" stroke-width="2" opacity="0.859">
              <rect width="98" height="97.999" rx="48.999" stroke="none"/>
              <rect x="1" y="1" width="96" height="95.999" rx="47.999" fill="none"/>
            </g>
            <g id="Rectangle_400907-2" data-name="Rectangle 400907" transform="translate(0)" fill="none" stroke="#0f1f33" stroke-linecap="round" stroke-width="2">
              <rect width="98" height="97.999" rx="48.999" stroke="none"/>
              <rect x="1" y="1" width="96" height="95.999" rx="47.999" fill="none"/>
            </g>
          </g>
        </g>
      </g>
    </g>
    <g id="Mask_Group_1099589" data-name="Mask Group 1099589" clip-path="url(#clip-path)">
      <g id="Layer_x0020_1" transform="translate(825.051 2025.516)">
        <path id="Path_1263035" data-name="Path 1263035" d="M54.356,15.82H.644a.645.645,0,0,1,0-1.289H54.356A.645.645,0,0,1,54.356,15.82Z" fill-rule="evenodd"/>
        <path id="Path_1263036" data-name="Path 1263036" d="M49.716,9.731H37.6a.645.645,0,0,1,0-1.289H49.716A.644.644,0,1,1,49.716,9.731Z" fill-rule="evenodd"/>
        <path id="Path_1263037" data-name="Path 1263037" d="M50.876,13.081h-14.4a1.65,1.65,0,0,1-1.643-1.643v-4.7a1.65,1.65,0,0,1,1.643-1.643h14.4a1.623,1.623,0,0,1,1.611,1.643v4.7A1.623,1.623,0,0,1,50.876,13.081Zm-14.4-6.7a.358.358,0,0,0-.354.354v4.7a.358.358,0,0,0,.354.354h14.4a.353.353,0,0,0,.322-.354v-4.7a.353.353,0,0,0-.322-.354Z" fill-rule="evenodd"/>
        <path id="Path_1263038" data-name="Path 1263038" d="M22.006,15.82a.657.657,0,0,1-.58-.967,11.3,11.3,0,0,0,.032-11.5.639.639,0,0,1,1.063-.709A12.576,12.576,0,0,1,22.554,15.5.711.711,0,0,1,22.006,15.82Z" fill-rule="evenodd"/>
        <path id="Path_1263039" data-name="Path 1263039" d="M26.678,15.82a.657.657,0,0,1-.58-.967,11.3,11.3,0,0,0,.032-11.5.639.639,0,0,1,1.063-.709A12.576,12.576,0,0,1,27.226,15.5.711.711,0,0,1,26.678,15.82Z" fill-rule="evenodd"/>
        <path id="Path_1263040" data-name="Path 1263040" d="M31.318,15.82a.654.654,0,0,1-.548-.967,11.3,11.3,0,0,0,.032-11.5.639.639,0,0,1,1.063-.709A12.576,12.576,0,0,1,31.9,15.5.72.72,0,0,1,31.318,15.82Z" fill-rule="evenodd"/>
        <path id="Path_1263041" data-name="Path 1263041" d="M50.94,52.616H4.028A4.029,4.029,0,0,1,0,48.588V6.412a4.057,4.057,0,0,1,4.028-4.06H50.94A4.084,4.084,0,0,1,55,6.412V48.588A4.057,4.057,0,0,1,50.94,52.616ZM4.028,3.641A2.764,2.764,0,0,0,1.289,6.412V48.588a2.736,2.736,0,0,0,2.739,2.739H50.94a2.764,2.764,0,0,0,2.771-2.739V6.412A2.792,2.792,0,0,0,50.94,3.641Z" fill-rule="evenodd"/>
        <path id="Path_1263042" data-name="Path 1263042" d="M7.733,9.731H5.252a.644.644,0,1,1,0-1.289H7.733A.645.645,0,0,1,7.733,9.731Z" fill-rule="evenodd"/>
        <path id="Path_1263043" data-name="Path 1263043" d="M13.4,9.731H10.923a.644.644,0,1,1,0-1.289H13.4A.645.645,0,0,1,13.4,9.731Z" fill-rule="evenodd"/>
        <path id="Path_1263044" data-name="Path 1263044" d="M19.074,9.731H16.593a.644.644,0,1,1,0-1.289h2.481A.645.645,0,0,1,19.074,9.731Z" fill-rule="evenodd"/>
        <path id="Path_1263045" data-name="Path 1263045" d="M27.484,46.333a18.062,18.062,0,0,1-15.53-8.957.752.752,0,0,1,0-.644,17.946,17.946,0,0,1,31.06,0,.585.585,0,0,1,0,.644A17.954,17.954,0,0,1,27.484,46.333ZM13.275,37.053a16.675,16.675,0,0,0,28.45,0A16.675,16.675,0,0,0,13.275,37.053Z" fill-rule="evenodd"/>
        <path id="Path_1263046" data-name="Path 1263046" d="M27.484,26.517a.646.646,0,0,1-.644-.644V21.459a.644.644,0,0,1,1.289,0v4.414A.646.646,0,0,1,27.484,26.517Z" fill-rule="evenodd"/>
        <path id="Path_1263047" data-name="Path 1263047" d="M32.639,27a.638.638,0,0,1-.612-.806l1.128-4.253a.649.649,0,0,1,1.257.322l-1.128,4.253A.687.687,0,0,1,32.639,27Z" fill-rule="evenodd"/>
        <path id="Path_1263048" data-name="Path 1263048" d="M37.5,28.837a.657.657,0,0,1-.58-.967l2.223-3.834a.635.635,0,1,1,1.1.644l-2.191,3.834A.665.665,0,0,1,37.5,28.837Z" fill-rule="evenodd"/>
        <path id="Path_1263049" data-name="Path 1263049" d="M22.329,27a.621.621,0,0,1-.612-.483l-1.128-4.253a.633.633,0,0,1,1.224-.322l1.16,4.253A.659.659,0,0,1,22.329,27Z" fill-rule="evenodd"/>
        <path id="Path_1263050" data-name="Path 1263050" d="M17.5,28.837a.624.624,0,0,1-.548-.322l-2.223-3.834a.65.65,0,0,1,1.128-.644l2.191,3.834A.633.633,0,0,1,17.5,28.837Z" fill-rule="evenodd"/>
        <path id="Path_1263051" data-name="Path 1263051" d="M27.484,42.531a5.477,5.477,0,1,1,5.477-5.477A5.466,5.466,0,0,1,27.484,42.531Zm0-9.666a4.189,4.189,0,1,0,4.189,4.189A4.2,4.2,0,0,0,27.484,32.865Z" fill-rule="evenodd"/>
        <path id="Path_1263052" data-name="Path 1263052" d="M27.484,39.405c-3.093,0-3.093-4.7,0-4.7A2.352,2.352,0,0,1,27.484,39.405Zm0-3.415a1.064,1.064,0,0,0,0,2.127A1.064,1.064,0,1,0,27.484,35.99Z" fill-rule="evenodd"/>
        <path id="Path_1263053" data-name="Path 1263053" d="M27.484,35.99a1.064,1.064,0,0,0,0,2.127A1.064,1.064,0,1,0,27.484,35.99Z" fill="#4b4b4d" fill-rule="evenodd"/>
        <path id="Path_1263054" data-name="Path 1263054" d="M27.484,34.7a2.352,2.352,0,0,1,0,4.7C24.391,39.405,24.391,34.7,27.484,34.7ZM23.3,37.053a4.189,4.189,0,1,0,4.189-4.189A4.2,4.2,0,0,0,23.3,37.053Z" fill="#4682bf" fill-rule="evenodd"/>
        <path id="Path_1263055" data-name="Path 1263055" d="M32.961,37.053a5.461,5.461,0,1,1-5.477-5.477A5.473,5.473,0,0,1,32.961,37.053Zm-19.687,0a16.675,16.675,0,0,0,28.45,0A16.675,16.675,0,0,0,13.275,37.053Z" fill="#89d3e5" fill-rule="evenodd"/>
        <path id="Path_1263056" data-name="Path 1263056" d="M43.014,37.376a17.942,17.942,0,0,1-31.06,0,.752.752,0,0,1,0-.644,17.946,17.946,0,0,1,31.06,0A.585.585,0,0,1,43.014,37.376ZM4.028,51.327H50.94a2.764,2.764,0,0,0,2.771-2.739V15.82H1.289V48.588A2.736,2.736,0,0,0,4.028,51.327ZM15.852,24.036l2.191,3.834a.633.633,0,0,1-.548.967.624.624,0,0,1-.548-.322l-2.223-3.834A.65.65,0,0,1,15.852,24.036Zm5.961-2.094,1.16,4.253a.659.659,0,0,1-.644.806.621.621,0,0,1-.612-.483l-1.128-4.253A.633.633,0,0,1,21.813,21.942Zm18.43,2.739-2.191,3.834a.665.665,0,0,1-.548.322.657.657,0,0,1-.58-.967l2.223-3.834A.635.635,0,1,1,40.243,24.681Zm-5.832-2.417-1.128,4.253a.687.687,0,0,1-.644.483.638.638,0,0,1-.612-.806l1.128-4.253A.649.649,0,0,1,34.411,22.264Zm-6.283-.806v4.414a.644.644,0,0,1-1.289,0V21.459A.644.644,0,0,1,28.128,21.459Z" fill="#c6dcf2" fill-rule="evenodd"/>
        <path id="Path_1263057" data-name="Path 1263057" d="M32.414,14.531h21.3V6.412A2.792,2.792,0,0,0,50.94,3.641H32.414A12.64,12.64,0,0,1,32.414,14.531Zm18.462-1.45h-14.4a1.65,1.65,0,0,1-1.643-1.643v-4.7a1.65,1.65,0,0,1,1.643-1.643h14.4a1.623,1.623,0,0,1,1.611,1.643v4.7A1.623,1.623,0,0,1,50.876,13.081Z" fill="#055870" fill-rule="evenodd"/>
        <path id="Path_1263058" data-name="Path 1263058" d="M36.473,11.793h14.4a.353.353,0,0,0,.322-.354v-4.7a.353.353,0,0,0-.322-.354h-14.4a.358.358,0,0,0-.354.354v4.7A.358.358,0,0,0,36.473,11.793ZM49.716,9.731H37.6a.645.645,0,0,1,0-1.289H49.716A.644.644,0,1,1,49.716,9.731Z" fill="#057998" fill-rule="evenodd"/>
        <path id="Path_1263059" data-name="Path 1263059" d="M30.964,14.531a11.254,11.254,0,0,0,0-10.89H27.742a12.64,12.64,0,0,1,0,10.89Z" fill="#057998" fill-rule="evenodd"/>
        <path id="Path_1263060" data-name="Path 1263060" d="M26.292,14.531a11.254,11.254,0,0,0,0-10.89H23.07a12.64,12.64,0,0,1,0,10.89Z" fill="#055870" fill-rule="evenodd"/>
        <path id="Path_1263061" data-name="Path 1263061" d="M21.62,14.531a11.254,11.254,0,0,0,0-10.89H4.028A2.764,2.764,0,0,0,1.289,6.412v8.12Zm-2.545-4.8H16.593a.644.644,0,1,1,0-1.289h2.481A.645.645,0,0,1,19.074,9.731Zm-5.671,0H10.923a.644.644,0,1,1,0-1.289H13.4A.645.645,0,0,1,13.4,9.731Zm-5.671,0H5.252a.644.644,0,1,1,0-1.289H7.733A.645.645,0,0,1,7.733,9.731Z" fill="#057998" fill-rule="evenodd"/>
      </g>
    </g>
  </g>
</svg>
