<svg xmlns="http://www.w3.org/2000/svg" xmlns:xlink="http://www.w3.org/1999/xlink" width="98" height="97.998" viewBox="0 0 98 97.998">
  <defs>
    <clipPath id="clip-path">
      <rect id="Rectangle_411080" data-name="Rectangle 411080" width="55" height="52" transform="translate(825.051 2027)" fill="#fff"/>
    </clipPath>
  </defs>
  <g id="Group_1206462" data-name="Group 1206462" transform="translate(-803.781 -2003.55)">
    <g id="Group_1204447" data-name="Group 1204447" transform="translate(0 -541.412)">
      <g id="Group_1204142" data-name="Group 1204142" transform="translate(-67.331 2267.798)">
        <g id="Group_1188789" data-name="Group 1188789" transform="translate(871.113 277.164)">
          <path id="Path_1243039" data-name="Path 1243039" d="M41.05,0h0a41.05,41.05,0,0,1,0,82.1h0a41.05,41.05,0,0,1,0-82.1Z" transform="translate(7.951 7.949)" fill="#ffa724"/>
          <rect id="Rectangle_400907" data-name="Rectangle 400907" width="88.438" height="88.437" rx="44.218" transform="translate(4.782 4.781)" fill="none"/>
          <g id="Group_1098742" data-name="Group 1098742" transform="translate(0)">
            <g id="Rectangle_400898" data-name="Rectangle 400898" transform="translate(0)" fill="none" stroke="#fff" stroke-width="2" opacity="0.859">
              <rect width="98" height="97.999" rx="48.999" stroke="none"/>
              <rect x="1" y="1" width="96" height="95.999" rx="47.999" fill="none"/>
            </g>
            <g id="Rectangle_400907-2" data-name="Rectangle 400907" transform="translate(0)" fill="none" stroke="#0f1f33" stroke-linecap="round" stroke-width="2">
              <rect width="98" height="97.999" rx="48.999" stroke="none"/>
              <rect x="1" y="1" width="96" height="95.999" rx="47.999" fill="none"/>
            </g>
          </g>
        </g>
      </g>
    </g>
    <g id="Mask_Group_1099594" data-name="Mask Group 1099594" clip-path="url(#clip-path)">
      <g id="presentation_17359728" transform="translate(826.372 2026.821)">
        <g id="Group_1206862" data-name="Group 1206862">
          <g id="Group_1206860" data-name="Group 1206860">
            <path id="Path_1263131" data-name="Path 1263131" d="M.818,1H51.54V3.471H.818Z" fill="#007ad0"/>
            <path id="Path_1263132" data-name="Path 1263132" d="M1.849,3.471h48.66V35.431H1.849Z" fill="#d8eeeb"/>
            <path id="Path_1263133" data-name="Path 1263133" d="M1.849,7.615V3.471h48.66V19.887Z" fill="#b8d8eb"/>
            <path id="Path_1263134" data-name="Path 1263134" d="M.818,35.431H51.54V37.9H.818Z" fill="#007ad0"/>
            <path id="Path_1263135" data-name="Path 1263135" d="M13.67,10.973V6.692A7.912,7.912,0,0,0,5.758,14.6h4.281A3.631,3.631,0,0,1,13.67,10.973Z" fill="#ff902b"/>
            <path id="Path_1263136" data-name="Path 1263136" d="M12.493,17.058H8.212a7.912,7.912,0,0,0,7.912,7.912V20.689a3.631,3.631,0,0,1-3.631-3.631Z" fill="#00e1c6"/>
            <path id="Path_1263137" data-name="Path 1263137" d="M16.125,20.689V24.97a7.912,7.912,0,0,0,7.912-7.912H19.756A3.631,3.631,0,0,1,16.125,20.689Z" fill="#0b0"/>
            <path id="Path_1263138" data-name="Path 1263138" d="M16.125,9.146v4.281a3.62,3.62,0,0,1,2.568,1.064l3.027-3.027a7.887,7.887,0,0,0-5.595-2.317Z" fill="#9d7aff"/>
            <path id="Path_1263139" data-name="Path 1263139" d="M18.692,14.49a3.62,3.62,0,0,1,1.064,2.568h4.281a7.888,7.888,0,0,0-2.317-5.595L18.692,14.49Z" fill="#2050ff"/>
          </g>
          <g id="Group_1206861" data-name="Group 1206861">
            <path id="Path_1263140" data-name="Path 1263140" d="M18.489,32.517s-.878-1.466-1.607-1.44-5.463,0-5.463,0-1.391.882,0,1.64A32.9,32.9,0,0,0,16.761,34.4l2.054,2.231,1.672-1.746-2-2.367Z" fill="#dcab9b"/>
            <path id="Path_1263141" data-name="Path 1263141" d="M35.116,10.217h0a7.848,7.848,0,0,0-7.848,7.848v6.586a5.339,5.339,0,0,0,5.339,5.339h5.017a5.339,5.339,0,0,0,5.339-5.339V18.065a7.848,7.848,0,0,0-7.848-7.848Z" fill="#a3303a"/>
            <path id="Path_1263142" data-name="Path 1263142" d="M28.045,36.849l-3.017,3.326c-2.4,2.217-4.948-.825-4.948-.825l-3.936-4.322L18.9,32.22l3.655,3.214,3.406-4.746a4.907,4.907,0,0,1,1.01-1.1,5.131,5.131,0,0,1,1.442-.784,6.046,6.046,0,0,1,1.779-.351l9.851.009a4.673,4.673,0,0,1,3.4,1.515,5.885,5.885,0,0,1,1.378,2.772c.267,1.347,1.223,11.437,1.223,11.437H28.288l-.243-7.34Z" fill="#3c3e6c"/>
            <path id="Path_1263143" data-name="Path 1263143" d="M32.993,30.536h4.244V44.189H32.993Z" fill="#fff"/>
            <path id="Path_1263144" data-name="Path 1263144" d="M41.345,23.493c-5.63,0-10.195-4.009-10.195-8.955a8.009,8.009,0,0,1,.923-3.708,7.849,7.849,0,0,0-4.805,7.236v6.586a5.339,5.339,0,0,0,5.339,5.339h5.017a5.339,5.339,0,0,0,5.339-5.339V23.369a11.6,11.6,0,0,1-1.618.123Z" fill="#8b2637"/>
            <path id="Path_1263145" data-name="Path 1263145" d="M35.115,34.906c-1.172,0-2.122-3.4-2.122-4.576V23.244h4.244v7.085C37.237,31.5,36.287,34.906,35.115,34.906Z" fill="#dcab9b"/>
            <path id="Path_1263146" data-name="Path 1263146" d="M36.367,15.354,30.144,18v3.108a4.972,4.972,0,0,0,4.972,4.972h0a4.972,4.972,0,0,0,4.972-4.972V17.843l-3.721-2.489Z" fill="#fdc"/>
            <path id="Path_1263147" data-name="Path 1263147" d="M28.793,28.844l2.2,2.37-1.519,1.936,3.513,11.04V26.405Z" fill="#4d6c98"/>
            <path id="Path_1263148" data-name="Path 1263148" d="M41.436,28.844l-2.2,2.37,1.519,1.936-3.513,11.04V26.405Z" fill="#4d6c98"/>
            <path id="Path_1263149" data-name="Path 1263149" d="M22.351,42.392H48.64v8.969H22.351Z" fill="#935138"/>
            <path id="Path_1263150" data-name="Path 1263150" d="M22.351,42.392H48.64v3.272H22.351Z" fill="#aa7800"/>
            <path id="Path_1263151" data-name="Path 1263151" d="M32.357,21.356v-4.3L30.144,18v3.108a4.972,4.972,0,0,0,4.972,4.972h0c.147,0,.291-.009.434-.022-2.508-.232-3.193-4.7-3.193-4.7Z" fill="#f2c8b6"/>
          </g>
        </g>
        <path id="Path_1263152" data-name="Path 1263152" d="M51.54,4.29a.818.818,0,0,0,.818-.818V1A.818.818,0,0,0,51.54.179H.818A.818.818,0,0,0,0,1V3.472a.818.818,0,0,0,.818.818h.213V8.328a.818.818,0,1,0,1.636,0V4.29H37.032a.818.818,0,0,0,0-1.636H1.636V1.815H50.722v.838H40.5a.818.818,0,0,0,0,1.636h9.192V34.612h-3.8c-.112-.976-.206-1.709-.268-2.02a6.729,6.729,0,0,0-1.6-3.19,6.411,6.411,0,0,0-1.448-1.1,6.171,6.171,0,0,0,1.209-3.656V18.065a8.669,8.669,0,0,0-13.1-7.447.818.818,0,0,0,.839,1.405,7.032,7.032,0,0,1,10.626,6.041v6.586a4.533,4.533,0,0,1-1.138,3l-2.825-1.64a5.786,5.786,0,0,0,2.723-4.9V17.843a.816.816,0,0,0-.364-.68l-1.174-.785a.818.818,0,1,0-.909,1.36l.81.542v2.826a4.154,4.154,0,1,1-8.307,0V18.54L36.28,16.28l.3.2a.818.818,0,1,0,.909-1.36l-.665-.444a.813.813,0,0,0-.774-.073l-6.223,2.644a.816.816,0,0,0-.5.753v3.107a5.786,5.786,0,0,0,2.721,4.9l-2.824,1.64a4.531,4.531,0,0,1-1.137-3V18.065A6.961,6.961,0,0,1,29.6,13.707a.818.818,0,1,0-1.283-1.015,8.581,8.581,0,0,0-1.866,5.373v6.586a6.173,6.173,0,0,0,1.164,3.6,6.518,6.518,0,0,0-1.116.673,5.518,5.518,0,0,0-1.2,1.287l-2.88,4.012-2.977-2.617a.8.8,0,0,0-.706-.172,2.511,2.511,0,0,0-1.879-1.173c-.705.025-5.382,0-5.429,0a.8.8,0,0,0-.443.127,2.034,2.034,0,0,0-1,1.615,1.7,1.7,0,0,0,1.044,1.434,18.991,18.991,0,0,0,3.3,1.178H2.667V11.6a.818.818,0,1,0-1.636,0V34.612H.818A.818.818,0,0,0,0,35.431V37.9a.818.818,0,0,0,.818.818H18.4l1.05,1.154a6.217,6.217,0,0,0,2.613,1.755.813.813,0,0,0-.532.76v8.97a.818.818,0,0,0,.818.818H48.64a.818.818,0,0,0,.818-.818v-8.97a.818.818,0,0,0-.818-.818H46.614c-.092-.935-.188-1.905-.284-2.851h5.21a.818.818,0,0,0,.818-.818V35.431a.818.818,0,0,0-.818-.818h-.213V4.29ZM38.587,31.718l1.252,1.6-1.785,5.608v-11.1l2.084,1.21-1.507,1.619a.819.819,0,0,0-.045,1.063ZM33.81,41.573V35.047a1.6,1.6,0,0,0,2.608,0v6.526Zm2.608-14.83v3.586a7.307,7.307,0,0,1-1.3,3.733,7.307,7.307,0,0,1-1.3-3.733V26.743a5.613,5.613,0,0,0,2.608,0Zm-4.244,1.083V38.92L30.39,33.314l1.251-1.6a.818.818,0,0,0-.045-1.062L30.09,29.037l2.084-1.21ZM11.681,31.919,11.7,31.9c1.048,0,4.559.02,5.148-.007a2.088,2.088,0,0,1,.627.608l-.977,1A27.944,27.944,0,0,1,11.81,32c-.054-.03-.1-.057-.129-.079ZM1.636,37.087v-.838H16.148l.763.838ZM20.683,38.8l-3.415-3.751,1.671-1.7,3.073,2.7a.8.8,0,0,0,.633.2.817.817,0,0,0,.572-.336l3.423-4.77a3.973,3.973,0,0,1,.8-.882,4.555,4.555,0,0,1,1-.586l1.475,1.586-1.087,1.386a.819.819,0,0,0-.136.753l2.6,8.175H29.019l-.157-4.752a.818.818,0,0,0-1.423-.522l-2.967,3.276a1.927,1.927,0,0,1-1.457.588A4.036,4.036,0,0,1,20.683,38.8Zm6.7,2.773H24.327a4.171,4.171,0,0,0,1.306-.848l1.661-1.831Zm-4.214,8.97V46.482H47.822v4.061Zm24.653-5.7H23.169V43.21H47.822Zm-5.057-3.272V36.65a.818.818,0,1,0-1.636,0v4.924h-2.2l2.6-8.175a.819.819,0,0,0-.136-.753l-1.087-1.386,1.435-1.542a4.7,4.7,0,0,1,1.123.843,5.06,5.06,0,0,1,1.154,2.352c.128.641.471,3.78.951,8.662Zm7.957-4.487H46.161q-.045-.43-.089-.838h4.649ZM13.67,5.874A8.74,8.74,0,0,0,4.94,14.6a.818.818,0,0,0,.818.818h4.281a.818.818,0,0,0,.818-.818,2.816,2.816,0,0,1,2.813-2.813.818.818,0,0,0,.818-.818V6.692A.818.818,0,0,0,13.67,5.874Zm-.818,4.357A4.463,4.463,0,0,0,9.3,13.785H6.623a7.108,7.108,0,0,1,6.229-6.229V10.23Zm3.272,9.641a2.817,2.817,0,0,1-2.813-2.814.818.818,0,0,0-.818-.818H8.212a.818.818,0,0,0-.818.818,8.731,8.731,0,1,0,8.731-8.73.818.818,0,0,0-.818.818v4.281a.818.818,0,0,0,.818.818,2.813,2.813,0,0,1,0,5.626Zm-7.047-2h2.673a4.461,4.461,0,0,0,3.556,3.555V24.1a7.1,7.1,0,0,1-6.229-6.224ZM20.5,16.24a4.394,4.394,0,0,0-.709-1.69l1.892-1.893a7.025,7.025,0,0,1,1.49,3.583H20.5ZM16.943,10.01A7.027,7.027,0,0,1,20.53,11.5l-1.89,1.891a4.4,4.4,0,0,0-1.7-.7V10.01ZM20.5,17.876h2.67A7.1,7.1,0,0,1,16.943,24.1V21.433A4.462,4.462,0,0,0,20.5,17.876Z"/>
      </g>
    </g>
  </g>
</svg>
