<svg xmlns="http://www.w3.org/2000/svg" xmlns:xlink="http://www.w3.org/1999/xlink" width="98" height="97.999" viewBox="0 0 98 97.999">
  <defs>
    <clipPath id="clip-path">
      <rect id="Rectangle_411080" data-name="Rectangle 411080" width="55" height="52" transform="translate(825.051 2027)" fill="#fff"/>
    </clipPath>
  </defs>
  <g id="Group_1206405" data-name="Group 1206405" transform="translate(-803.781 -2003.55)">
    <g id="Group_1204447" data-name="Group 1204447" transform="translate(0 -541.412)">
      <g id="Group_1204142" data-name="Group 1204142" transform="translate(-67.331 2267.798)">
        <g id="Group_1188789" data-name="Group 1188789" transform="translate(871.113 277.164)">
          <path id="Path_1243039" data-name="Path 1243039" d="M41.05,0h0a41.05,41.05,0,0,1,0,82.1h0a41.05,41.05,0,0,1,0-82.1Z" transform="translate(7.951 7.949)" fill="#ffa724"/>
          <rect id="Rectangle_400907" data-name="Rectangle 400907" width="88.438" height="88.437" rx="44.218" transform="translate(4.782 4.781)" fill="none"/>
          <g id="Group_1098742" data-name="Group 1098742" transform="translate(0)">
            <g id="Rectangle_400898" data-name="Rectangle 400898" transform="translate(0)" fill="none" stroke="#fff" stroke-width="2" opacity="0.859">
              <rect width="98" height="97.999" rx="48.999" stroke="none"/>
              <rect x="1" y="1" width="96" height="95.999" rx="47.999" fill="none"/>
            </g>
            <g id="Rectangle_400907-2" data-name="Rectangle 400907" transform="translate(0)" fill="none" stroke="#0f1f33" stroke-linecap="round" stroke-width="2">
              <rect width="98" height="97.999" rx="48.999" stroke="none"/>
              <rect x="1" y="1" width="96" height="95.999" rx="47.999" fill="none"/>
            </g>
          </g>
        </g>
      </g>
    </g>
    <g id="Mask_Group_1099599" data-name="Mask Group 1099599" clip-path="url(#clip-path)">
      <g id="customer-segment_18575583" transform="translate(824.819 2025.854)">
        <path id="Path_1263215" data-name="Path 1263215" d="M4.656,30.712H15.428a9.177,9.177,0,0,1,8.285-8.285V11.648a20.652,20.652,0,0,0-3,.354,2.21,2.21,0,0,1-.187,1.013,2.175,2.175,0,0,1-2.009,1.308H16.578V21.9a3.759,3.759,0,0,1-7.519,0V19.03a19.718,19.718,0,0,0-4.4,11.682Z" fill="#45dea6"/>
        <path id="Path_1263216" data-name="Path 1263216" d="M10.736,13.485V21.9a2.085,2.085,0,0,0,4.169,0V13.485a.837.837,0,0,1,.835-.841h2.782A.5.5,0,0,0,19,12.335a.5.5,0,0,0-.089-.559l-5.7-6.3a.516.516,0,0,0-.773,0l-5.7,6.306a.5.5,0,0,0-.089.562.51.51,0,0,0,.481.306H9.9A.837.837,0,0,1,10.736,13.485Z" fill="#827582"/>
        <path id="Path_1263217" data-name="Path 1263217" d="M44.451,32.388H33.675a9.174,9.174,0,0,1-8.282,8.285V51.449A19.939,19.939,0,0,0,44.451,32.388Z" fill="#6ac8eb"/>
        <path id="Path_1263218" data-name="Path 1263218" d="M4.656,32.388A19.942,19.942,0,0,0,23.714,51.449V40.676a9.183,9.183,0,0,1-8.285-8.288H4.656Z" fill="#ffe177"/>
        <path id="Path_1263219" data-name="Path 1263219" d="M41.919,13.714a8.919,8.919,0,0,0-8.871,8.068H50.783a8.918,8.918,0,0,0-8.865-8.068Z" fill="#20a5d5"/>
        <path id="Path_1263220" data-name="Path 1263220" d="M32.168,23.458a.84.84,0,0,1-.838-.841A10.6,10.6,0,0,1,38.4,12.638a6.327,6.327,0,0,1-2.36-2.972,19.745,19.745,0,0,0-7.055-1.611V27.119H48.047a19.621,19.621,0,0,0-.493-3.661H32.168Z" fill="#f14b4e"/>
        <path id="Path_1263221" data-name="Path 1263221" d="M41.919,12.038a4.608,4.608,0,1,0-4.609-4.606A4.61,4.61,0,0,0,41.919,12.038Z" fill="#ffddcf"/>
        <g id="Group_1206885" data-name="Group 1206885">
          <path id="Path_1263222" data-name="Path 1263222" d="M12.819,25.663A3.766,3.766,0,0,0,16.578,21.9V14.323h1.944a2.175,2.175,0,0,0,2.009-1.308A2.21,2.21,0,0,0,20.718,12a20.652,20.652,0,0,1,3-.354V22.427a9.177,9.177,0,0,0-8.285,8.285H4.656A19.719,19.719,0,0,1,9.06,19.03V21.9a3.764,3.764,0,0,0,3.759,3.759ZM7.125,12.644a.51.51,0,0,1-.481-.306.5.5,0,0,1,.089-.562l5.7-6.306a.513.513,0,0,1,.383-.172.518.518,0,0,1,.389.175l5.7,6.3a.5.5,0,0,1,.089.559.5.5,0,0,1-.475.309H15.74a.837.837,0,0,0-.835.841V21.9a2.085,2.085,0,0,1-4.169,0V13.485a.837.837,0,0,0-.835-.841ZM23.714,40.676V51.449A19.942,19.942,0,0,1,4.656,32.388H15.428a9.183,9.183,0,0,0,8.285,8.288Zm1.679,0a9.174,9.174,0,0,0,8.282-8.285H44.451A19.939,19.939,0,0,1,25.393,51.449Zm-.841,12.473a21.618,21.618,0,0,0,21.593-21.6.835.835,0,0,0-.835-.838H32.876a.835.835,0,0,0-.835.838,7.487,7.487,0,1,1-7.489-7.486.842.842,0,0,0,.841-.838V10.8a.833.833,0,0,0-.841-.838,21.607,21.607,0,0,0-4.588.49l-5.51-6.1a2.191,2.191,0,0,0-3.26,0l-5.7,6.3a2.194,2.194,0,0,0,1.631,3.67H9.06V16.51A21.6,21.6,0,0,0,24.552,53.146Z" fill="#030403"/>
          <path id="Path_1263223" data-name="Path 1263223" d="M33.048,21.782a8.907,8.907,0,0,1,17.736,0Zm-4.059,5.337V8.055a19.745,19.745,0,0,1,7.055,1.611,6.327,6.327,0,0,0,2.36,2.972,10.6,10.6,0,0,0-7.073,9.979.84.84,0,0,0,.838.841H47.553a19.621,19.621,0,0,1,.493,3.661H28.988Zm12.93-24.3a4.608,4.608,0,1,1-4.609,4.609,4.608,4.608,0,0,1,4.609-4.609ZM52.5,22.617a10.6,10.6,0,0,0-7.073-9.979,6.283,6.283,0,1,0-9.8-5.207c0,.089.006.178.009.267a21.469,21.469,0,0,0-7.492-1.334.837.837,0,0,0-.838.838V27.957a.839.839,0,0,0,.838.838H48.905a.836.836,0,0,0,.835-.838,21.691,21.691,0,0,0-.47-4.5H51.66a.842.842,0,0,0,.841-.841Z" fill="#030403"/>
        </g>
      </g>
    </g>
  </g>
</svg>
