<svg xmlns="http://www.w3.org/2000/svg" xmlns:xlink="http://www.w3.org/1999/xlink" width="98" height="97.999" viewBox="0 0 98 97.999">
  <defs>
    <clipPath id="clip-path">
      <rect id="Rectangle_411080" data-name="Rectangle 411080" width="55" height="52" transform="translate(825.051 2027)" fill="#fff"/>
    </clipPath>
  </defs>
  <g id="Group_1206519" data-name="Group 1206519" transform="translate(-803.781 -2003.55)">
    <g id="Group_1204447" data-name="Group 1204447" transform="translate(0 -541.412)">
      <g id="Group_1204142" data-name="Group 1204142" transform="translate(-67.331 2267.798)">
        <g id="Group_1188789" data-name="Group 1188789" transform="translate(871.113 277.164)">
          <path id="Path_1243039" data-name="Path 1243039" d="M41.05,0h0a41.05,41.05,0,0,1,0,82.1h0a41.05,41.05,0,0,1,0-82.1Z" transform="translate(7.951 7.949)" fill="#ffa724"/>
          <rect id="Rectangle_400907" data-name="Rectangle 400907" width="88.438" height="88.437" rx="44.218" transform="translate(4.782 4.781)" fill="none"/>
          <g id="Group_1098742" data-name="Group 1098742" transform="translate(0)">
            <g id="Rectangle_400898" data-name="Rectangle 400898" transform="translate(0)" fill="none" stroke="#fff" stroke-width="2" opacity="0.859">
              <rect width="98" height="97.999" rx="48.999" stroke="none"/>
              <rect x="1" y="1" width="96" height="95.999" rx="47.999" fill="none"/>
            </g>
            <g id="Rectangle_400907-2" data-name="Rectangle 400907" transform="translate(0)" fill="none" stroke="#0f1f33" stroke-linecap="round" stroke-width="2">
              <rect width="98" height="97.999" rx="48.999" stroke="none"/>
              <rect x="1" y="1" width="96" height="95.999" rx="47.999" fill="none"/>
            </g>
          </g>
        </g>
      </g>
    </g>
    <g id="Mask_Group_1099598" data-name="Mask Group 1099598" clip-path="url(#clip-path)">
      <g id="movie_5862273" transform="translate(826.551 2027)">
        <g id="Group_1206883" data-name="Group 1206883">
          <g id="Group_1206869" data-name="Group 1206869">
            <path id="Path_1263198" data-name="Path 1263198" d="M43.613,47.806v1.677a1.682,1.682,0,0,1-1.677,1.677H18.452a1.682,1.682,0,0,1-1.677-1.677V47.806Z" fill="#838f9b"/>
          </g>
          <g id="Group_1206870" data-name="Group 1206870">
            <path id="Path_1263199" data-name="Path 1263199" d="M43.613,44.452v3.355H16.774V44.452a1.682,1.682,0,0,1,1.677-1.677H41.935A1.682,1.682,0,0,1,43.613,44.452Z" fill="#969faa"/>
          </g>
          <g id="Group_1206871" data-name="Group 1206871">
            <path id="Path_1263200" data-name="Path 1263200" d="M23.484,37.742H36.9v5.032H23.484Z" fill="#aab2bd"/>
          </g>
          <g id="Group_1206872" data-name="Group 1206872">
            <path id="Path_1263201" data-name="Path 1263201" d="M23.484,37.742H15.5a7.38,7.38,0,0,0,.436-2.516,7.5,7.5,0,0,0-1.275-4.194H46.968a.841.841,0,0,0,.839-.839V9.226a3.354,3.354,0,0,1,3.355,3.355V34.387a3.354,3.354,0,0,1-3.355,3.355H23.484Z" fill="#ccd1d9"/>
          </g>
          <g id="Group_1206873" data-name="Group 1206873">
            <path id="Path_1263202" data-name="Path 1263202" d="M26,9.226v3.355H13.419a.841.841,0,0,0-.839.839V28.952a7.5,7.5,0,0,0-3.355-1.225V12.581a3.354,3.354,0,0,1,3.355-3.355Z" fill="#ccd1d9"/>
          </g>
          <g id="Group_1206874" data-name="Group 1206874">
            <path id="Path_1263203" data-name="Path 1263203" d="M12.581,28.952V13.419a.841.841,0,0,1,.839-.839H26v1.677a1.682,1.682,0,0,0,1.677,1.677H37.742a1.682,1.682,0,0,0,1.677-1.677v-.839l5.032,2.516v.839a.841.841,0,0,0,.839.839h1.677a.841.841,0,0,0,.839-.839V30.194a.841.841,0,0,1-.839.839H14.661A7.442,7.442,0,0,0,12.581,28.952Z" fill="#75b1f2"/>
          </g>
          <g id="Group_1206875" data-name="Group 1206875">
            <path id="Path_1263204" data-name="Path 1263204" d="M35.226.839a3.355,3.355,0,1,1-3.338,3.682c-.008-.109-.017-.218-.017-.327A3.354,3.354,0,0,1,35.226.839Z" fill="#fcd770"/>
          </g>
          <g id="Group_1206876" data-name="Group 1206876">
            <path id="Path_1263205" data-name="Path 1263205" d="M31.821,4.521a2.581,2.581,0,0,1,.05.512,2.5,2.5,0,1,1-.05-.512Z" fill="#fcd770"/>
          </g>
          <g id="Group_1206877" data-name="Group 1206877">
            <path id="Path_1263206" data-name="Path 1263206" d="M44.452,7.548v8.387l-5.032-2.516V10.065Z" fill="#ccd1d9"/>
          </g>
          <g id="Group_1206878" data-name="Group 1206878">
            <path id="Path_1263207" data-name="Path 1263207" d="M47.806,9.226v7.548a.841.841,0,0,1-.839.839H45.29a.841.841,0,0,1-.839-.839V6.71a.841.841,0,0,1,.839-.839h1.677a.841.841,0,0,1,.839.839Z" fill="#aab2bd"/>
          </g>
          <g id="Group_1206879" data-name="Group 1206879">
            <path id="Path_1263208" data-name="Path 1263208" d="M37.742,7.548a1.682,1.682,0,0,1,1.677,1.677v5.032a1.682,1.682,0,0,1-1.677,1.677H27.677A1.682,1.682,0,0,1,26,14.258V9.226a1.682,1.682,0,0,1,1.677-1.677H37.742Z" fill="#aab2bd"/>
          </g>
          <g id="Group_1206880" data-name="Group 1206880">
            <path id="Path_1263209" data-name="Path 1263209" d="M15.935,35.226a7.38,7.38,0,0,1-.436,2.516A7.547,7.547,0,1,1,8.387,27.677a6.929,6.929,0,0,1,.839.05,7.549,7.549,0,0,1,6.71,7.5Z" fill="#ffeaa7"/>
          </g>
          <g id="Group_1206881" data-name="Group 1206881">
            <circle id="Ellipse_12736" data-name="Ellipse 12736" cx="2.516" cy="2.516" r="2.516" transform="translate(19.29 20.968)" fill="#ff826e"/>
          </g>
          <g id="Group_1206882" data-name="Group 1206882">
            <path id="Path_1263210" data-name="Path 1263210" d="M5.871,32.71H10.9v5.032H5.871Z" fill="#ff826e"/>
          </g>
        </g>
        <g id="Group_1206884" data-name="Group 1206884">
          <path id="Path_1263211" data-name="Path 1263211" d="M48.645,8.472V6.71a1.679,1.679,0,0,0-1.677-1.677H45.29A1.679,1.679,0,0,0,43.613,6.71v.32l-3.4,1.7a2.514,2.514,0,0,0-1.746-1.9,4.179,4.179,0,1,0-7.024-4.4,3.342,3.342,0,0,0-4.825,4.532,2.519,2.519,0,0,0-1.3,1.433H12.581a4.2,4.2,0,0,0-4.194,4.194V26.839a8.387,8.387,0,1,0,7.682,11.742h6.576v3.355H18.452a2.519,2.519,0,0,0-2.516,2.516v5.032A2.519,2.519,0,0,0,18.452,52H41.935a2.519,2.519,0,0,0,2.516-2.516V44.452a2.519,2.519,0,0,0-2.516-2.516H37.742V38.581H47.806A4.2,4.2,0,0,0,52,34.387V12.581A4.2,4.2,0,0,0,48.645,8.472ZM45.29,6.71h1.677V16.774H45.29Zm1.677,11.742V30.194H15.081a8.428,8.428,0,0,0-1.661-1.661V13.419H25.161v.839a2.519,2.519,0,0,0,2.516,2.516H37.742a2.52,2.52,0,0,0,2.467-2.023l3.4,1.7v.32a1.679,1.679,0,0,0,1.677,1.677Zm-3.355-3.873L40.258,12.9V10.583l3.355-1.677Zm-5.032-.32a.84.84,0,0,1-.839.839H27.677a.84.84,0,0,1-.839-.839V9.226a.84.84,0,0,1,.839-.839H37.742a.84.84,0,0,1,.839.839ZM35.226,1.677A2.516,2.516,0,1,1,32.71,4.194,2.519,2.519,0,0,1,35.226,1.677ZM29.355,3.355a1.677,1.677,0,1,1-1.677,1.677A1.679,1.679,0,0,1,29.355,3.355Zm-19.29,9.226a2.519,2.519,0,0,1,2.516-2.516H25.161v1.677H13.419a1.679,1.679,0,0,0-1.677,1.677V27.544a8.308,8.308,0,0,0-1.677-.536ZM8.387,41.935a6.71,6.71,0,1,1,6.71-6.71A6.718,6.718,0,0,1,8.387,41.935Zm33.548,8.387H18.452a.84.84,0,0,1-.839-.839v-.839H42.774v.839A.84.84,0,0,1,41.935,50.323Zm.839-5.871v2.516H17.613V44.452a.84.84,0,0,1,.839-.839H41.935A.84.84,0,0,1,42.774,44.452Zm-6.71-2.516H24.323V38.581H36.065Zm14.258-7.548A2.519,2.519,0,0,1,47.806,36.9H16.6a8.35,8.35,0,0,0-.536-5.032h30.9a1.679,1.679,0,0,0,1.677-1.677V10.219a2.513,2.513,0,0,1,1.677,2.362Z"/>
          <path id="Path_1263212" data-name="Path 1263212" d="M5.032,38.581h6.71v-6.71H5.032ZM6.71,33.548h3.355V36.9H6.71Z"/>
          <circle id="Ellipse_12737" data-name="Ellipse 12737" cx="0.839" cy="0.839" r="0.839" transform="translate(46.968 33.548)"/>
          <circle id="Ellipse_12738" data-name="Ellipse 12738" cx="0.839" cy="0.839" r="0.839" transform="translate(43.613 33.548)"/>
          <circle id="Ellipse_12739" data-name="Ellipse 12739" cx="0.839" cy="0.839" r="0.839" transform="translate(40.258 33.548)"/>
          <path id="Path_1263213" data-name="Path 1263213" d="M28.516,11.742h6.71v1.677h-6.71Z"/>
          <path id="Path_1263214" data-name="Path 1263214" d="M21.806,20.129a3.351,3.351,0,0,0-3.236,2.516H15.1v1.677h3.474a3.339,3.339,0,0,0,6.471,0H39.419V22.645H25.042A3.351,3.351,0,0,0,21.806,20.129Zm0,5.032a1.677,1.677,0,1,1,1.677-1.677A1.679,1.679,0,0,1,21.806,25.161Z"/>
        </g>
      </g>
    </g>
  </g>
</svg>
