<svg xmlns="http://www.w3.org/2000/svg" width="76.345" height="76.344" viewBox="0 0 76.345 76.344">
  <g id="Group_1204455" data-name="Group 1204455" transform="translate(-1021.691 -3144)">
    <g id="Group_1200255" data-name="Group 1200255" transform="translate(-0.275 51.345)">
      <g id="Group_1187152" data-name="Group 1187152">
        <g id="Group_1185946" data-name="Group 1185946" transform="translate(-3.07)">
          <g id="Group_1184280" data-name="Group 1184280">
            <g id="Group_1182168" data-name="Group 1182168">
              <g id="Group_1178877" data-name="Group 1178877">
                <g id="Group_1111311" data-name="Group 1111311">
                  <g id="Group_1098742" data-name="Group 1098742" transform="translate(1025.482 3093.101)">
                    <g id="Rectangle_400898" data-name="Rectangle 400898" transform="translate(-0.445 -0.445)" fill="#fdcae3" stroke="#af8c9d" stroke-width="1" opacity="0.859">
                      <rect width="76.345" height="76.345" rx="38.172" stroke="none"/>
                      <rect x="0.5" y="0.5" width="75.345" height="75.345" rx="37.672" fill="none"/>
                    </g>
                    <g id="Rectangle_400907" data-name="Rectangle 400907" transform="translate(-0.446 -0.445)" fill="none" stroke="#af8c9d" stroke-width="1">
                      <rect width="76.345" height="76.345" rx="38.172" stroke="none"/>
                      <rect x="0.5" y="0.5" width="75.345" height="75.345" rx="37.672" fill="none"/>
                    </g>
                  </g>
                </g>
              </g>
            </g>
          </g>
        </g>
      </g>
    </g>
    <g id="_FILLED_OUTLINE" data-name="/ FILLED_OUTLINE" transform="translate(1025.35 3142)">
      <rect id="Rectangle_410776" data-name="Rectangle 410776" width="23.136" height="39.662" rx="3" transform="translate(18.364 16.826)" fill="#46c89d"/>
      <path id="Path_1260791" data-name="Path 1260791" d="M25.089,235.831a1.653,1.653,0,0,1-1.653-1.653v-10.2a1.653,1.653,0,0,1,.484-1.169l2.821-2.821a2.337,2.337,0,0,0,0-3.305h0a2.337,2.337,0,0,0-3.305,0l-4.474,4.474a1.653,1.653,0,0,0-.484,1.169v7.036a3.305,3.305,0,0,1-.968,2.337L16,233.21l2.479,11.71,4.816-4.816a3.305,3.305,0,0,1,2.337-.968h1.393a3.305,3.305,0,0,0,2.337-.968l2.337-2.337Z" transform="translate(-5.073 -179.343)" fill="#e8bb85"/>
      <path id="Path_1260792" data-name="Path 1260792" d="M136,152h19a17.352,17.352,0,0,1,17.352,17.352h0A17.352,17.352,0,0,1,155,186.7h-1.653A17.352,17.352,0,0,1,136,169.352V152Z" transform="translate(-112.678 -121.953)" fill="#f9d6b4"/>
      <path id="Path_1260793" data-name="Path 1260793" d="M136,24l.513,2.053a1.653,1.653,0,0,0,1.6,1.252H147.1a1.653,1.653,0,0,0,1.6-1.252L149.221,24Z" transform="translate(-112.679 -7.174)" fill="#00b378"/>
      <g id="Group_1204171" data-name="Group 1204171" transform="translate(21.669 16.826)">
        <rect id="Rectangle_410777" data-name="Rectangle 410777" width="3.305" height="3.305" rx="1.653" transform="translate(0 6.61)" fill="#bdecdc"/>
        <rect id="Rectangle_410778" data-name="Rectangle 410778" width="3.305" height="3.305" rx="1.653" transform="translate(6.61 6.61)" fill="#bdecdc"/>
        <rect id="Rectangle_410779" data-name="Rectangle 410779" width="3.305" height="3.305" rx="1.653" transform="translate(13.221 6.61)" fill="#bdecdc"/>
        <path id="Path_1260794" data-name="Path 1260794" d="M464,112h2.479v1.653H464Z" transform="translate(-428.47 -102.911)" fill="#bdecdc"/>
        <path id="Path_1260795" data-name="Path 1260795" d="M376,24h1.653v2.479H376Z" transform="translate(-349.559 -24)" fill="#bdecdc"/>
        <path id="Path_1260796" data-name="Path 1260796" d="M352,48h2.479v1.653H352Z" transform="translate(-328.038 -45.521)" fill="#bdecdc"/>
        <path id="Path_1260797" data-name="Path 1260797" d="M376,64h1.653v2.479H376Z" transform="translate(-349.559 -59.869)" fill="#bdecdc"/>
        <path id="Path_1260798" data-name="Path 1260798" d="M392,48h2.479v1.653H392Z" transform="translate(-363.906 -45.521)" fill="#bdecdc"/>
        <path id="Path_1260799" data-name="Path 1260799" d="M448,88h1.653v2.479H448Z" transform="translate(-414.122 -81.39)" fill="#bdecdc"/>
        <path id="Path_1260800" data-name="Path 1260800" d="M424,112h2.479v1.653H424Z" transform="translate(-392.601 -102.911)" fill="#bdecdc"/>
        <path id="Path_1260801" data-name="Path 1260801" d="M448,128h1.653v2.479H448Z" transform="translate(-414.122 -117.258)" fill="#bdecdc"/>
      </g>
      <path id="Path_1260802" data-name="Path 1260802" d="M241.421,274.169a17.3,17.3,0,0,0,6.464,1.245h1.653a17.352,17.352,0,0,0,17.352-17.352h0a17.29,17.29,0,0,0-1.53-7.134,34.775,34.775,0,0,1-23.938,23.241Z" transform="translate(-207.211 -210.662)" fill="#d4b699"/>
      <circle id="Ellipse_12421" data-name="Ellipse 12421" cx="5.784" cy="5.784" r="5.784" transform="translate(35.716 33.352)" fill="#00b378"/>
      <path id="Path_1260803" data-name="Path 1260803" d="M296,215.774V219.3a.826.826,0,0,0,1.285.688l2.642-1.761a.826.826,0,0,0,0-1.375l-2.642-1.761a.826.826,0,0,0-1.285.688Z" transform="translate(-256.153 -178.399)" fill="#bdecdc"/>
      <path id="Path_1260804" data-name="Path 1260804" d="M225.653,262.481H224v-1.653h1.653c3.331,0,7.873-.519,10.595-2.991a5.356,5.356,0,0,0,1.807-2.9l1.639.213a6.893,6.893,0,0,1-2.216,3.8c-2.489,2.342-6.467,3.53-11.825,3.53Z" transform="translate(-191.589 -214.256)" fill="#59cea7"/>
      <path id="Path_1260805" data-name="Path 1260805" d="M227,329.915V320H223.7v9.915h-3.305v-7.437h-3.305v7.437h-3.305v-4.958h-3.305v4.958H208v1.653h21.484v-1.653Z" transform="translate(-177.242 -272.601)" fill="#00b378"/>
      <path id="Path_1260806" data-name="Path 1260806" d="M340.054,390.085v.014h-.018q-1.1.871-2.28,1.653h8.081V390.1h-2.479v-2.983A34.9,34.9,0,0,1,340.054,390.085Z" transform="translate(-293.596 -332.785)" fill="#009866"/>
      <path id="Path_1260807" data-name="Path 1260807" d="M115.305,84.958a1.654,1.654,0,0,0,1.653-1.653V81.653A1.654,1.654,0,0,0,115.305,80h-1.653A1.654,1.654,0,0,0,112,81.653v1.653a1.654,1.654,0,0,0,1.653,1.653Zm-1.653-3.305h1.653v1.653h-1.654Z" transform="translate(-91.157 -57.39)"/>
      <path id="Path_1260808" data-name="Path 1260808" d="M177.653,84.958h1.653a1.654,1.654,0,0,0,1.653-1.653V81.653A1.654,1.654,0,0,0,179.305,80h-1.653A1.654,1.654,0,0,0,176,81.653v1.653A1.654,1.654,0,0,0,177.653,84.958Zm0-3.305h1.653v1.653h-1.654Z" transform="translate(-148.547 -57.39)"/>
      <path id="Path_1260809" data-name="Path 1260809" d="M241.653,84.958h1.653a1.654,1.654,0,0,0,1.653-1.653V81.653A1.654,1.654,0,0,0,243.305,80h-1.653A1.654,1.654,0,0,0,240,81.653v1.653A1.654,1.654,0,0,0,241.653,84.958Zm0-3.305h1.653v1.653h-1.654Z" transform="translate(-205.937 -57.39)"/>
      <path id="Path_1260810" data-name="Path 1260810" d="M42.326,29.221V18.479A2.482,2.482,0,0,0,39.847,16H20.016a2.482,2.482,0,0,0-2.479,2.479V37l-4.232,4.232a2.463,2.463,0,0,0-.726,1.753V50.02a2.462,2.462,0,0,1-.726,1.753l-1.511,1.511,1.169,1.169,1.511-1.511a4.1,4.1,0,0,0,1.21-2.921V42.984a.82.82,0,0,1,.242-.584l4.474-4.474a1.511,1.511,0,0,1,2.137,2.137l-2.821,2.821a2.463,2.463,0,0,0-.726,1.753v10.2a2.482,2.482,0,0,0,2.479,2.479h4.615l-.926.926a2.463,2.463,0,0,1-1.753.726H20.559a4.1,4.1,0,0,0-2.921,1.21l-4.816,4.816,1.169,1.169,4.816-4.816a2.463,2.463,0,0,1,1.753-.726h1.393a4.1,4.1,0,0,0,2.921-1.21l1.2-1.2a18.163,18.163,0,0,0,14.6,7.365h1.653a18.178,18.178,0,1,0,0-36.357ZM35.484,17.653l-.257,1.027a.825.825,0,0,1-.8.626H25.438a.825.825,0,0,1-.8-.626l-.257-1.027ZM19.19,35.942V18.479a.827.827,0,0,1,.826-.826h2.66l.357,1.428a2.475,2.475,0,0,0,2.4,1.878h8.988a2.475,2.475,0,0,0,2.4-1.878l.357-1.428h2.66a.827.827,0,0,1,.826.826V29.221H22.5V37.03a3.216,3.216,0,0,0-.242-.272,3.165,3.165,0,0,0-3.063-.815Zm.826,19.72a.827.827,0,0,1-.826-.826v-10.2a.821.821,0,0,1,.242-.584l2.821-2.821a3.212,3.212,0,0,0,.242-.272V47.4a18.068,18.068,0,0,0,1.989,8.263Zm22.31,8.263H40.674A16.544,16.544,0,0,1,24.148,47.4V30.873H42.326a16.526,16.526,0,0,1,0,33.052Z"/>
      <path id="Path_1260811" data-name="Path 1260811" d="M376,24h1.653v2.479H376Z" transform="translate(-327.89 -7.174)"/>
      <path id="Path_1260812" data-name="Path 1260812" d="M352,48h2.479v1.653H352Z" transform="translate(-306.369 -28.695)"/>
      <path id="Path_1260813" data-name="Path 1260813" d="M376,64h1.653v2.479H376Z" transform="translate(-327.89 -43.042)"/>
      <path id="Path_1260814" data-name="Path 1260814" d="M392,48h2.479v1.653H392Z" transform="translate(-342.237 -28.695)"/>
      <path id="Path_1260815" data-name="Path 1260815" d="M448,88h1.653v2.479H448Z" transform="translate(-392.453 -64.563)"/>
      <path id="Path_1260816" data-name="Path 1260816" d="M424,112h2.479v1.653H424Z" transform="translate(-370.932 -86.085)"/>
      <path id="Path_1260817" data-name="Path 1260817" d="M448,128h1.653v2.479H448Z" transform="translate(-392.453 -100.432)"/>
      <path id="Path_1260818" data-name="Path 1260818" d="M464,112h2.479v1.653H464Z" transform="translate(-406.801 -86.085)"/>
      <path id="Path_1260819" data-name="Path 1260819" d="M290.569,207.226A1.653,1.653,0,0,0,288,208.6v3.522a1.652,1.652,0,0,0,2.569,1.375l2.642-1.761a1.652,1.652,0,0,0,0-2.75Zm-.917,4.9V208.6l2.642,1.761Z" transform="translate(-248.979 -171.226)"/>
      <path id="Path_1260820" data-name="Path 1260820" d="M251.768,188.594l.709-1.493a4.958,4.958,0,1,1,7.082-4.481h1.653a6.61,6.61,0,1,0-9.444,5.974Z" transform="translate(-213.102 -143.484)"/>
      <path id="Path_1260821" data-name="Path 1260821" d="M227.831,312h-4.958v10.742h-1.653v-8.263h-4.958v8.263H214.61v-5.784h-4.958v5.784H208v1.653h21.484v-1.653h-1.653Zm-14.873,10.742h-1.653V318.61h1.653Zm6.61,0h-1.653v-6.61h1.653Zm6.61,0h-1.653v-9.089h1.653Z" transform="translate(-177.242 -265.427)"/>
      <path id="Path_1260822" data-name="Path 1260822" d="M237.477,258.951a6.893,6.893,0,0,0,2.216-3.8l-1.639-.213a5.356,5.356,0,0,1-1.807,2.9c-2.722,2.472-7.264,2.991-10.595,2.991H224v1.653h1.653c5.358,0,9.336-1.188,11.825-3.53Z" transform="translate(-191.589 -214.256)"/>
    </g>
  </g>
</svg>
