<svg xmlns="http://www.w3.org/2000/svg" xmlns:xlink="http://www.w3.org/1999/xlink" width="98" height="97.998" viewBox="0 0 98 97.998">
  <defs>
    <clipPath id="clip-path">
      <rect id="Rectangle_411080" data-name="Rectangle 411080" width="55" height="52" transform="translate(825.051 2027)" fill="#fff"/>
    </clipPath>
  </defs>
  <g id="Group_1204452" data-name="Group 1204452" transform="translate(-803.781 -2003.55)">
    <g id="Group_1204447" data-name="Group 1204447" transform="translate(0 -541.412)">
      <g id="Group_1204142" data-name="Group 1204142" transform="translate(-67.331 2267.798)">
        <g id="Group_1188789" data-name="Group 1188789" transform="translate(871.113 277.164)">
          <path id="Path_1243039" data-name="Path 1243039" d="M41.05,0h0a41.05,41.05,0,0,1,0,82.1h0a41.05,41.05,0,0,1,0-82.1Z" transform="translate(7.951 7.949)" fill="#ffa724"/>
          <rect id="Rectangle_400907" data-name="Rectangle 400907" width="88.438" height="88.437" rx="44.218" transform="translate(4.782 4.781)" fill="none"/>
          <g id="Group_1098742" data-name="Group 1098742" transform="translate(0)">
            <g id="Rectangle_400898" data-name="Rectangle 400898" transform="translate(0)" fill="none" stroke="#fff" stroke-width="2" opacity="0.859">
              <rect width="98" height="97.999" rx="48.999" stroke="none"/>
              <rect x="1" y="1" width="96" height="95.999" rx="47.999" fill="none"/>
            </g>
            <g id="Rectangle_400907-2" data-name="Rectangle 400907" transform="translate(0)" fill="none" stroke="#0f1f33" stroke-linecap="round" stroke-width="2">
              <rect width="98" height="97.999" rx="48.999" stroke="none"/>
              <rect x="1" y="1" width="96" height="95.999" rx="47.999" fill="none"/>
            </g>
          </g>
        </g>
      </g>
    </g>
    <g id="Mask_Group_1099555" data-name="Mask Group 1099555" clip-path="url(#clip-path)">
      <g id="training_7521583" transform="translate(825.712 2026.161)">
        <rect id="Rectangle_412796" data-name="Rectangle 412796" width="50.323" height="45.29" rx="1.677" transform="translate(1.677 1.677)" fill="#f2f2f2"/>
        <path id="Path_1262417" data-name="Path 1262417" d="M52,6.71V3.355a1.677,1.677,0,0,0-1.677-1.677H3.355A1.677,1.677,0,0,0,1.677,3.355V6.71Z" fill="#8ea0b3"/>
        <path id="Path_1262418" data-name="Path 1262418" d="M28.516,24.725V15.1H25.161V25.648C26.277,25.371,27.4,25.069,28.516,24.725Z" fill="#ff6668"/>
        <path id="Path_1262419" data-name="Path 1262419" d="M36.065,21.538V10.9H32.71V23.19a32.759,32.759,0,0,0,3.355-1.652Z" fill="#ff6668"/>
        <circle id="Ellipse_12680" data-name="Ellipse 12680" cx="3.355" cy="3.355" r="3.355" transform="translate(23.484 32.71)" fill="#ffc173"/>
        <path id="Path_1262420" data-name="Path 1262420" d="M20.968,52V44.452a4.194,4.194,0,0,1,4.194-4.194h3.355a4.194,4.194,0,0,1,4.194,4.194V52Z" fill="#4992f2"/>
        <circle id="Ellipse_12681" data-name="Ellipse 12681" cx="2.516" cy="2.516" r="2.516" transform="translate(34.387 36.903)" fill="#ffc173"/>
        <path id="Path_1262421" data-name="Path 1262421" d="M32.71,51.161V46.129a3.355,3.355,0,0,1,3.355-3.355h1.677A3.355,3.355,0,0,1,41.1,46.129v5.032Z" fill="#4183d9"/>
        <circle id="Ellipse_12682" data-name="Ellipse 12682" cx="2.516" cy="2.516" r="2.516" transform="translate(14.258 36.903)" fill="#ffc173"/>
        <path id="Path_1262422" data-name="Path 1262422" d="M12.581,51.161V46.129a3.355,3.355,0,0,1,3.355-3.355h1.677a3.355,3.355,0,0,1,3.355,3.355v5.032Z" fill="#4183d9"/>
        <path id="Path_1262423" data-name="Path 1262423" d="M20.968,26.512V19.29H17.613v7.741C18.678,26.889,19.8,26.721,20.968,26.512Z" fill="#ff6668"/>
        <path id="Path_1262424" data-name="Path 1262424" d="M38.883,42.112a3.355,3.355,0,1,0-3.959,0,4.269,4.269,0,0,0-1.594.839,5.032,5.032,0,0,0-4.076-3.5,4.194,4.194,0,1,0-4.831,0,5.032,5.032,0,0,0-4.076,3.5,4.269,4.269,0,0,0-1.594-.839,3.355,3.355,0,1,0-3.959,0,4.194,4.194,0,0,0-3.053,4.017v5.032a.839.839,0,0,0,.839.839h7.548a.839.839,0,0,0,.839.839H32.71A.839.839,0,0,0,33.548,52H41.1a.839.839,0,0,0,.839-.839V46.129a4.194,4.194,0,0,0-3.053-4.017Zm-22.108-4.37A1.677,1.677,0,1,1,15.1,39.419,1.677,1.677,0,0,1,16.774,37.742Zm3.355,12.581h-6.71V46.129a2.516,2.516,0,0,1,2.516-2.516h1.677a2.516,2.516,0,0,1,2.516,2.516Zm4.194-14.258a2.516,2.516,0,1,1,2.516,2.516A2.516,2.516,0,0,1,24.323,36.065Zm7.548,15.1H21.806v-6.71A3.355,3.355,0,0,1,25.161,41.1h3.355a3.355,3.355,0,0,1,3.355,3.355ZM36.9,37.742a1.677,1.677,0,1,1-1.677,1.677A1.677,1.677,0,0,1,36.9,37.742Zm3.355,12.581h-6.71V46.129a2.516,2.516,0,0,1,2.516-2.516h1.677a2.516,2.516,0,0,1,2.516,2.516Z"/>
        <path id="Path_1262425" data-name="Path 1262425" d="M50.323.839H3.355A2.516,2.516,0,0,0,.839,3.355V45.29a2.516,2.516,0,0,0,2.516,2.516H9.226V46.129H3.355a.839.839,0,0,1-.839-.839V7.548H51.161V45.29a.839.839,0,0,1-.839.839H44.452v1.677h5.871a2.516,2.516,0,0,0,2.516-2.516V3.355A2.516,2.516,0,0,0,50.323.839Zm.839,5.032H2.516V3.355a.839.839,0,0,1,.839-.839H50.323a.839.839,0,0,1,.839.839Z"/>
        <path id="Path_1262426" data-name="Path 1262426" d="M48.645,3.355h1.677V5.032H48.645Z"/>
        <path id="Path_1262427" data-name="Path 1262427" d="M45.29,3.355h1.677V5.032H45.29Z"/>
        <path id="Path_1262428" data-name="Path 1262428" d="M41.935,3.355h1.677V5.032H41.935Z"/>
        <path id="Path_1262429" data-name="Path 1262429" d="M21.806,26.361V19.29a.839.839,0,0,0-.839-.839H17.613a.839.839,0,0,0-.839.839v7.842c.545-.067,1.1-.134,1.677-.218V20.129h1.677v6.534Z"/>
        <path id="Path_1262430" data-name="Path 1262430" d="M44.854,21.874l.436-4.194a.843.843,0,0,0-.99-.906l-4.126.755.3,1.677,1.812-.335C32.374,29.212,9.469,29.355,9.226,29.355v1.677c1.015,0,23.66-.134,34.119-10.836l-.159,1.5Z"/>
        <path id="Path_1262431" data-name="Path 1262431" d="M29.355,24.457V15.1a.839.839,0,0,0-.839-.839H25.161a.839.839,0,0,0-.839.839V25.841c.554-.126,1.115-.26,1.677-.411V15.935h1.677v9.033c.562-.159,1.124-.335,1.677-.512Z"/>
        <path id="Path_1262432" data-name="Path 1262432" d="M36.9,21.035V10.9a.839.839,0,0,0-.839-.839H32.71a.839.839,0,0,0-.839.839V23.534c.57-.226,1.124-.461,1.677-.713V11.742h1.677V22C35.8,21.7,36.358,21.37,36.9,21.035Z"/>
      </g>
    </g>
  </g>
</svg>
