<svg xmlns="http://www.w3.org/2000/svg" xmlns:xlink="http://www.w3.org/1999/xlink" width="98" height="97.998" viewBox="0 0 98 97.998">
  <defs>
    <clipPath id="clip-path">
      <rect id="Rectangle_411080" data-name="Rectangle 411080" width="55" height="52" transform="translate(825.051 2027)" fill="#fff"/>
    </clipPath>
  </defs>
  <g id="Group_1204453" data-name="Group 1204453" transform="translate(-803.781 -2003.55)">
    <g id="Group_1204447" data-name="Group 1204447" transform="translate(0 -541.412)">
      <g id="Group_1204142" data-name="Group 1204142" transform="translate(-67.331 2267.798)">
        <g id="Group_1188789" data-name="Group 1188789" transform="translate(871.113 277.164)">
          <path id="Path_1243039" data-name="Path 1243039" d="M41.05,0h0a41.05,41.05,0,0,1,0,82.1h0a41.05,41.05,0,0,1,0-82.1Z" transform="translate(7.951 7.949)" fill="#ffa724"/>
          <rect id="Rectangle_400907" data-name="Rectangle 400907" width="88.438" height="88.437" rx="44.218" transform="translate(4.782 4.781)" fill="none"/>
          <g id="Group_1098742" data-name="Group 1098742" transform="translate(0)">
            <g id="Rectangle_400898" data-name="Rectangle 400898" transform="translate(0)" fill="none" stroke="#fff" stroke-width="2" opacity="0.859">
              <rect width="98" height="97.999" rx="48.999" stroke="none"/>
              <rect x="1" y="1" width="96" height="95.999" rx="47.999" fill="none"/>
            </g>
            <g id="Rectangle_400907-2" data-name="Rectangle 400907" transform="translate(0)" fill="none" stroke="#0f1f33" stroke-linecap="round" stroke-width="2">
              <rect width="98" height="97.999" rx="48.999" stroke="none"/>
              <rect x="1" y="1" width="96" height="95.999" rx="47.999" fill="none"/>
            </g>
          </g>
        </g>
      </g>
    </g>
    <g id="Mask_Group_1099560" data-name="Mask Group 1099560" clip-path="url(#clip-path)">
      <g id="retention_16136996" transform="translate(826.449 2026.898)">
        <g id="Group_1206725" data-name="Group 1206725">
          <g id="Group_1206722" data-name="Group 1206722">
            <path id="Path_1262532" data-name="Path 1262532" d="M8.988,41.428,11.3,50.05a14.637,14.637,0,0,1,1.522-1.131,4.746,4.746,0,0,1,1.692-.736,4.37,4.37,0,0,1,1.96.051h0l4.689,1.075a4.012,4.012,0,0,0,3.02-.4l11.725-6.77a2.2,2.2,0,0,0-2.2-3.805l-8.166,4.715c.006-.02.012-.041.017-.062a2.44,2.44,0,0,0-1.707-2.983l-8.186-2.228a3.842,3.842,0,0,0-2.943.786Z" fill="#ffd6bd" fill-rule="evenodd"/>
            <path id="Path_1262533" data-name="Path 1262533" d="M22.868,43.62a2.441,2.441,0,0,0,2.778-1.194,2.394,2.394,0,0,1-.084.563A2.437,2.437,0,0,1,22.58,44.7c-1.594-.435-3.189-.854-4.785-1.282a.559.559,0,1,1,.29-1.08c1.593.426,3.184.85,4.784,1.286Z" fill="#f9c6aa" fill-rule="evenodd"/>
            <path id="Path_1262534" data-name="Path 1262534" d="M10.951,48.758,11.3,50.05a14.637,14.637,0,0,1,1.522-1.131,4.746,4.746,0,0,1,1.692-.736,4.37,4.37,0,0,1,1.96.051h0l4.689,1.075a4.012,4.012,0,0,0,3.02-.4l11.725-6.77a2.2,2.2,0,0,0,.8-3c-.018-.032-.037-.062-.056-.092a2.2,2.2,0,0,1-1.094,1.8L23.836,47.62a4.012,4.012,0,0,1-3.02.4l-4.689-1.075h0a4.37,4.37,0,0,0-1.96-.051,4.746,4.746,0,0,0-1.692.736,14.245,14.245,0,0,0-1.522,1.131Z" fill="#f9c6aa" fill-rule="evenodd"/>
            <path id="Path_1262535" data-name="Path 1262535" d="M9.577,39.6,12.4,50.141a.484.484,0,0,1-.342.592l-1.947.522a.484.484,0,0,1-.592-.343L6.7,40.374a.484.484,0,0,1,.342-.592l1.947-.522a.486.486,0,0,1,.592.343Z" fill="#72d561" fill-rule="evenodd"/>
            <path id="Path_1262536" data-name="Path 1262536" d="M9.577,39.6l.033.122-1.824.488a.485.485,0,0,0-.342.592l2.791,10.416-.123.034a.484.484,0,0,1-.592-.343L6.695,40.374a.484.484,0,0,1,.342-.592l1.947-.522a.486.486,0,0,1,.593.343Z" fill="#57ca5a" fill-rule="evenodd"/>
          </g>
          <g id="Group_1206723" data-name="Group 1206723">
            <path id="Path_1262537" data-name="Path 1262537" d="M43.216,10.775,40.906,2.153a14.637,14.637,0,0,1-1.522,1.131,4.746,4.746,0,0,1-1.692.736,4.37,4.37,0,0,1-1.96-.051h0L31.042,2.894a4.012,4.012,0,0,0-3.02.4L16.3,10.06a2.2,2.2,0,0,0,2.2,3.805l8.166-4.715c-.006.02-.012.041-.017.062A2.44,2.44,0,0,0,28.349,12.2l8.186,2.228a3.842,3.842,0,0,0,2.943-.786Z" fill="#ffd6bd" fill-rule="evenodd"/>
            <path id="Path_1262538" data-name="Path 1262538" d="M29.335,8.583a2.441,2.441,0,0,0-2.778,1.194,2.394,2.394,0,0,1,.084-.563,2.437,2.437,0,0,1,2.983-1.707c1.594.435,3.189.854,4.785,1.282a.559.559,0,0,1-.289,1.08c-1.594-.426-3.184-.85-4.785-1.286Z" fill="#f9c6aa" fill-rule="evenodd"/>
            <path id="Path_1262539" data-name="Path 1262539" d="M41.252,3.445l-.347-1.292a14.637,14.637,0,0,1-1.522,1.131,4.746,4.746,0,0,1-1.692.736,4.37,4.37,0,0,1-1.96-.051h0L31.041,2.894a4.012,4.012,0,0,0-3.02.4L16.3,10.06a2.2,2.2,0,0,0-.8,3c.018.032.037.062.056.092a2.2,2.2,0,0,1,1.094-1.8L28.367,4.583a4.012,4.012,0,0,1,3.02-.4L36.076,5.26h0a4.37,4.37,0,0,0,1.96.051,4.746,4.746,0,0,0,1.692-.736,14.245,14.245,0,0,0,1.522-1.131Z" fill="#f9c6aa" fill-rule="evenodd"/>
            <path id="Path_1262540" data-name="Path 1262540" d="M42.626,12.6,39.8,2.063a.484.484,0,0,1,.342-.592L42.091.948a.484.484,0,0,1,.592.343l2.824,10.539a.484.484,0,0,1-.342.592l-1.947.522A.486.486,0,0,1,42.626,12.6Z" fill="#72d561" fill-rule="evenodd"/>
            <path id="Path_1262541" data-name="Path 1262541" d="M42.626,12.6l-.033-.122,1.824-.488a.485.485,0,0,0,.342-.592L41.969.981l.123-.034a.484.484,0,0,1,.592.343l2.824,10.539a.484.484,0,0,1-.342.592l-1.947.522a.485.485,0,0,1-.593-.342Z" fill="#57ca5a" fill-rule="evenodd"/>
          </g>
          <g id="Group_1206724" data-name="Group 1206724">
            <path id="Path_1262542" data-name="Path 1262542" d="M20.34,31.845a5.778,5.778,0,0,1,11.523,0,.4.4,0,0,1-.4.433H20.742a.4.4,0,0,1-.4-.433Z" fill="#64b5f6" fill-rule="evenodd"/>
            <path id="Path_1262543" data-name="Path 1262543" d="M25.457,26.537A5.863,5.863,0,0,1,26.1,26.5a5.8,5.8,0,0,1,5.762,5.345.4.4,0,0,1-.4.433h-1.29a.4.4,0,0,0,.4-.433,5.8,5.8,0,0,0-5.116-5.308Z" fill="#42a5f5" fill-rule="evenodd"/>
            <circle id="Ellipse_12693" data-name="Ellipse 12693" cx="3.123" cy="3.123" r="3.123" transform="translate(22.979 19.952)" fill="#ffd6bd"/>
            <path id="Path_1262544" data-name="Path 1262544" d="M23.734,25.112a3.123,3.123,0,1,0,4.045-4.671,3.123,3.123,0,0,1-4.045,4.671Z" fill="#f9c6aa" fill-rule="evenodd"/>
          </g>
        </g>
        <path id="Path_1262545" data-name="Path 1262545" d="M44.634,11.706l-2.654-9.9-1.3.35,2.649,9.9Zm-1.221.671Zm-2.02-1.246-2.413,1.846a2.567,2.567,0,0,1-2.231.646L28.56,11.4a1.61,1.61,0,0,1-.375-2.957,1.6,1.6,0,0,1,1.221-.159l4.375,1.19A.816.816,0,0,0,34.209,7.9l-4.371-1.19a3.253,3.253,0,0,0-3.846,1.873l-7.909,4.567A1.38,1.38,0,0,1,16.7,10.755l11.722-6.77a3.183,3.183,0,0,1,2.433-.309L35.546,4.75a5.176,5.176,0,0,0,3.971-.607Zm4.77,1.459a1.285,1.285,0,0,1-.788.606l-1.947.522a1.244,1.244,0,0,1-.336.044,1.3,1.3,0,0,1-1.241-.927l-1.88,1.438a4.542,4.542,0,0,1-2.746,1.046,3.464,3.464,0,0,1-.908-.121l-8.183-2.228a3.259,3.259,0,0,1-2.312-2.407l-6.919,4a2.98,2.98,0,0,1-1.5.4,3.116,3.116,0,0,1-.793-.1,2.981,2.981,0,0,1-1.827-1.4,3.015,3.015,0,0,1,1.1-4.115L27.613,2.571a4.839,4.839,0,0,1,3.611-.486L35.912,3.16a3.613,3.613,0,0,0,3.164-.67l-.062-.23A1.3,1.3,0,0,1,39.932.668L41.88.146a1.3,1.3,0,0,1,1.592.919L46.3,11.6a1.3,1.3,0,0,1-.137.987ZM36.007,39.562a1.392,1.392,0,0,0-.841-.64,1.377,1.377,0,0,0-1.048.135l-7.909,4.567A3.236,3.236,0,0,1,22.367,45.5l-4.375-1.19a.816.816,0,0,1,.428-1.574L22.8,43.923a1.6,1.6,0,0,0,1.221-.159,1.584,1.584,0,0,0,.76-.975,1.621,1.621,0,0,0-1.135-1.982l-8.183-2.228a2.567,2.567,0,0,0-2.236.646l-2.409,1.846,1.87,6.987a5.181,5.181,0,0,1,3.971-.607l4.688,1.075a3.183,3.183,0,0,0,2.433-.309L35.5,41.45a1.385,1.385,0,0,0,.51-1.887ZM11.524,50.045l-1.3.351L7.567,40.5l1.308-.35Zm25.892-11.3a3.015,3.015,0,0,1-1.1,4.115l-11.727,6.77a4.655,4.655,0,0,1-2.36.633,5.611,5.611,0,0,1-1.25-.147l-4.688-1.076a3.616,3.616,0,0,0-3.164.671l.062.23a1.3,1.3,0,0,1-.919,1.592l-1.947.521a1.272,1.272,0,0,1-.336.045,1.3,1.3,0,0,1-.649-.174,1.275,1.275,0,0,1-.606-.788L5.909,40.6a1.3,1.3,0,0,1,.919-1.592l1.947-.522a1.294,1.294,0,0,1,1.577.883l1.88-1.439a4.148,4.148,0,0,1,3.654-.925l8.183,2.228a3.28,3.28,0,0,1,2.312,2.408l6.924-4a3.012,3.012,0,0,1,4.11,1.1ZM26.1,27.3a4.993,4.993,0,0,0-4.9,4.147H31A4.99,4.99,0,0,0,26.1,27.3Zm-2.308-4.239A2.306,2.306,0,1,0,26.1,20.755,2.31,2.31,0,0,0,23.794,23.062Zm6.246,0a3.931,3.931,0,0,1-1.5,3.083,6.624,6.624,0,0,1,4.13,5.624,1.219,1.219,0,0,1-1.216,1.31H20.742a1.219,1.219,0,0,1-1.216-1.31,6.624,6.624,0,0,1,4.13-5.624,3.937,3.937,0,1,1,6.385-3.083ZM14.559,26.843a11.892,11.892,0,0,0,.149,1.843.816.816,0,0,0,.8.686.9.9,0,0,0,.135-.01.815.815,0,0,0,.673-.935,10.344,10.344,0,0,1-.125-1.585A9.923,9.923,0,0,1,24.954,17a.817.817,0,0,0,1.136,1.156l1.74-1.316a.823.823,0,0,0,.322-.592.8.8,0,0,0-.236-.632L26.383,14.06a.815.815,0,1,0-1.159,1.146l.115.119a11.562,11.562,0,0,0-10.78,11.517ZM35.55,20.219a11.536,11.536,0,0,1,.9,11.722l.159-.042a.816.816,0,0,1,.413,1.578l-2.111.553a.847.847,0,0,1-.207.027.814.814,0,0,1-.808-.716l-.269-2.167a.815.815,0,0,1,1.567-.4,9.859,9.859,0,0,0,.813-3.932,9.97,9.97,0,0,0-6.39-9.265.815.815,0,1,1,.577-1.525,11.531,11.531,0,0,1,5.352,4.166ZM18.15,32.757a.816.816,0,0,0,.437-1.558l-2.015-.851a.818.818,0,0,0-1.105.535l-.577,2.105a.818.818,0,0,0,.572,1,.829.829,0,0,0,.216.029.813.813,0,0,0,.784-.6l.048-.162A11.537,11.537,0,0,0,33.4,35.785a.816.816,0,1,0-1.034-1.263A9.907,9.907,0,0,1,18.15,32.757Z" fill-rule="evenodd"/>
      </g>
    </g>
  </g>
</svg>
