<svg xmlns="http://www.w3.org/2000/svg" xmlns:xlink="http://www.w3.org/1999/xlink" width="98" height="97.999" viewBox="0 0 98 97.999">
  <defs>
    <clipPath id="clip-path">
      <rect id="Rectangle_411080" data-name="Rectangle 411080" width="55" height="52" transform="translate(825.051 2027)" fill="#fff"/>
    </clipPath>
  </defs>
  <g id="Group_1206220" data-name="Group 1206220" transform="translate(-803.781 -2003.55)">
    <g id="Group_1204447" data-name="Group 1204447" transform="translate(0 -541.412)">
      <g id="Group_1204142" data-name="Group 1204142" transform="translate(-67.331 2267.798)">
        <g id="Group_1188789" data-name="Group 1188789" transform="translate(871.113 277.164)">
          <path id="Path_1243039" data-name="Path 1243039" d="M41.05,0h0a41.05,41.05,0,0,1,0,82.1h0a41.05,41.05,0,0,1,0-82.1Z" transform="translate(7.951 7.949)" fill="#ffa724"/>
          <rect id="Rectangle_400907" data-name="Rectangle 400907" width="88.438" height="88.437" rx="44.218" transform="translate(4.782 4.781)" fill="none"/>
          <g id="Group_1098742" data-name="Group 1098742" transform="translate(0)">
            <g id="Rectangle_400898" data-name="Rectangle 400898" transform="translate(0)" fill="none" stroke="#fff" stroke-width="2" opacity="0.859">
              <rect width="98" height="97.999" rx="48.999" stroke="none"/>
              <rect x="1" y="1" width="96" height="95.999" rx="47.999" fill="none"/>
            </g>
            <g id="Rectangle_400907-2" data-name="Rectangle 400907" transform="translate(0)" fill="none" stroke="#0f1f33" stroke-linecap="round" stroke-width="2">
              <rect width="98" height="97.999" rx="48.999" stroke="none"/>
              <rect x="1" y="1" width="96" height="95.999" rx="47.999" fill="none"/>
            </g>
          </g>
        </g>
      </g>
    </g>
    <g id="Mask_Group_1099561" data-name="Mask Group 1099561" clip-path="url(#clip-path)">
      <g id="target_1935867" transform="translate(825.712 2026.161)">
        <path id="Path_1262546" data-name="Path 1262546" d="M35.461,40.912,32.71,47.806l-1.174,2.935A2,2,0,0,1,27.677,50v-.117a2,2,0,0,1,.151-.763l3.866-9.368A13.661,13.661,0,0,0,35.461,40.912Z" fill="#dfb28b"/>
        <path id="Path_1262547" data-name="Path 1262547" d="M47.806,49.878V50a2,2,0,0,1-3.858.746l-1.174-2.935-2.751-6.894a13.661,13.661,0,0,0,3.766-1.166l3.866,9.368a2,2,0,0,1,.151.763Z" fill="#dfb28b"/>
        <circle id="Ellipse_12694" data-name="Ellipse 12694" cx="14.258" cy="14.258" r="14.258" transform="translate(23.484 12.581)" fill="#ff826e"/>
        <circle id="Ellipse_12695" data-name="Ellipse 12695" cx="10.903" cy="10.903" r="10.903" transform="translate(26.839 15.935)" fill="#ffeaa7"/>
        <path id="Path_1262548" data-name="Path 1262548" d="M33.985,22.335a5.8,5.8,0,0,1,3.757-1.367,5.871,5.871,0,1,1,0,11.742,5.866,5.866,0,0,1-3.757-10.375Z" fill="#ff826e"/>
        <g id="Group_1206726" data-name="Group 1206726">
          <circle id="Ellipse_12696" data-name="Ellipse 12696" cx="7.548" cy="7.548" r="7.548" transform="translate(1.677 19.29)" fill="#e6e9ed"/>
          <circle id="Ellipse_12697" data-name="Ellipse 12697" cx="7.548" cy="7.548" r="7.548" transform="translate(1.677 36.903)" fill="#e6e9ed"/>
          <circle id="Ellipse_12698" data-name="Ellipse 12698" cx="7.548" cy="7.548" r="7.548" transform="translate(1.677 1.677)" fill="#e6e9ed"/>
        </g>
        <path id="Path_1262549" data-name="Path 1262549" d="M12.245,12.572a5.883,5.883,0,0,1,2.114,2.189,7.551,7.551,0,0,1-10.266,0,5.883,5.883,0,0,1,8.152-2.189Z" fill="#fcd770"/>
        <path id="Path_1262550" data-name="Path 1262550" d="M12.245,30.185a5.883,5.883,0,0,1,2.114,2.189,7.551,7.551,0,0,1-10.266,0,5.883,5.883,0,0,1,8.152-2.189Z" fill="#ff826e"/>
        <path id="Path_1262551" data-name="Path 1262551" d="M12.245,47.8a5.883,5.883,0,0,1,2.114,2.189,7.551,7.551,0,0,1-10.266,0A5.883,5.883,0,0,1,12.245,47.8Z" fill="#4fc1e9"/>
        <circle id="Ellipse_12699" data-name="Ellipse 12699" cx="3.355" cy="3.355" r="3.355" transform="translate(5.871 5.032)" fill="#f0d0b4"/>
        <circle id="Ellipse_12700" data-name="Ellipse 12700" cx="3.355" cy="3.355" r="3.355" transform="translate(5.871 22.645)" fill="#f0d0b4"/>
        <circle id="Ellipse_12701" data-name="Ellipse 12701" cx="3.355" cy="3.355" r="3.355" transform="translate(5.871 40.258)" fill="#f0d0b4"/>
        <path id="Path_1262552" data-name="Path 1262552" d="M44.867,40.142A15.092,15.092,0,1,0,26.117,17.22L16.99,12.387a8.4,8.4,0,1,0-.785,1.482l8.911,4.718A14.991,14.991,0,0,0,22.688,26H17.571a8.391,8.391,0,1,0,0,1.677h5.117a14.991,14.991,0,0,0,2.428,7.413L16.2,39.809a8.4,8.4,0,1,0,.786,1.482l9.128-4.833a15.2,15.2,0,0,0,4.5,3.684L27.053,48.8a2.81,2.81,0,0,0-.215,1.082V50a2.84,2.84,0,0,0,5.476,1.054l.963-2.409h8.929l.964,2.409A2.839,2.839,0,0,0,48.645,50v-.121a2.818,2.818,0,0,0-.214-1.081ZM5.207,14.586a5.03,5.03,0,0,1,8.038,0,6.66,6.66,0,0,1-8.038,0Zm1.5-6.2A2.516,2.516,0,1,1,9.226,10.9,2.519,2.519,0,0,1,6.71,8.387Zm7.743,5.036a6.707,6.707,0,0,0-2.458-1.911,4.194,4.194,0,1,0-5.537,0A6.716,6.716,0,0,0,4,13.423a6.71,6.71,0,1,1,10.454,0ZM5.207,49.812a5.03,5.03,0,0,1,8.038,0,6.66,6.66,0,0,1-8.038,0Zm1.5-6.2a2.516,2.516,0,1,1,2.516,2.516A2.519,2.519,0,0,1,6.71,43.613Zm7.743,5.036a6.707,6.707,0,0,0-2.458-1.911,4.194,4.194,0,1,0-5.537,0A6.715,6.715,0,0,0,4,48.649a6.71,6.71,0,1,1,10.454,0ZM26.6,19.373l1.5.792A11.658,11.658,0,0,0,26.043,26H24.365A13.325,13.325,0,0,1,26.6,19.373Zm4.491,8.3a6.677,6.677,0,0,0,1.5,3.455l-3,1.589a10,10,0,0,1-1.872-5.043ZM32.785,26a5.016,5.016,0,0,1,1.334-2.646l3.23,1.71.785-1.483-2.483-1.314a5.032,5.032,0,1,1,0,9.144L38.134,30.1l-.785-1.483-3.23,1.71a5.016,5.016,0,0,1-1.334-2.646h4.957V26Zm1.12,6.335a6.71,6.71,0,1,0,0-10.992L30.71,19.651a10.065,10.065,0,1,1,0,14.375Zm-1.313-9.789A6.68,6.68,0,0,0,31.091,26H27.72a10,10,0,0,1,1.872-5.043ZM5.207,32.2a5.03,5.03,0,0,1,8.038,0,6.66,6.66,0,0,1-8.038,0ZM6.71,26a2.516,2.516,0,1,1,2.516,2.516A2.519,2.519,0,0,1,6.71,26Zm7.743,5.036a6.707,6.707,0,0,0-2.458-1.911,4.194,4.194,0,1,0-5.537,0A6.715,6.715,0,0,0,4,31.036a6.71,6.71,0,1,1,10.454,0Zm9.913-3.358h1.677a11.658,11.658,0,0,0,2.051,5.837l-1.5.792A13.331,13.331,0,0,1,24.365,27.677Zm3.279,7.972,1.528-.809a11.742,11.742,0,1,0,0-16l-1.528-.809a13.419,13.419,0,1,1,0,17.62Zm3.112,14.782A1.162,1.162,0,0,1,28.516,50v-.121a1.154,1.154,0,0,1,.087-.442l3.538-8.591a15.034,15.034,0,0,0,2.176.683Zm3.192-3.464L36,41.827a14,14,0,0,0,3.475,0l2.057,5.14ZM46.968,50a1.162,1.162,0,0,1-2.24.432l-3.561-8.9a14.867,14.867,0,0,0,2.176-.683l3.539,8.592a1.151,1.151,0,0,1,.087.442Z"/>
      </g>
    </g>
  </g>
</svg>
