<svg xmlns="http://www.w3.org/2000/svg" xmlns:xlink="http://www.w3.org/1999/xlink" width="98" height="97.999" viewBox="0 0 98 97.999">
  <defs>
    <clipPath id="clip-path">
      <rect id="Rectangle_411080" data-name="Rectangle 411080" width="55" height="52" transform="translate(825.051 2027)" fill="#fff"/>
    </clipPath>
  </defs>
  <g id="Group_1206225" data-name="Group 1206225" transform="translate(-803.781 -2003.55)">
    <g id="Group_1204447" data-name="Group 1204447" transform="translate(0 -541.412)">
      <g id="Group_1204142" data-name="Group 1204142" transform="translate(-67.331 2267.798)">
        <g id="Group_1188789" data-name="Group 1188789" transform="translate(871.113 277.164)">
          <path id="Path_1243039" data-name="Path 1243039" d="M41.05,0h0a41.05,41.05,0,0,1,0,82.1h0a41.05,41.05,0,0,1,0-82.1Z" transform="translate(7.951 7.949)" fill="#ffa724"/>
          <rect id="Rectangle_400907" data-name="Rectangle 400907" width="88.438" height="88.437" rx="44.218" transform="translate(4.782 4.781)" fill="none"/>
          <g id="Group_1098742" data-name="Group 1098742" transform="translate(0)">
            <g id="Rectangle_400898" data-name="Rectangle 400898" transform="translate(0)" fill="none" stroke="#fff" stroke-width="2" opacity="0.859">
              <rect width="98" height="97.999" rx="48.999" stroke="none"/>
              <rect x="1" y="1" width="96" height="95.999" rx="47.999" fill="none"/>
            </g>
            <g id="Rectangle_400907-2" data-name="Rectangle 400907" transform="translate(0)" fill="none" stroke="#0f1f33" stroke-linecap="round" stroke-width="2">
              <rect width="98" height="97.999" rx="48.999" stroke="none"/>
              <rect x="1" y="1" width="96" height="95.999" rx="47.999" fill="none"/>
            </g>
          </g>
        </g>
      </g>
    </g>
    <g id="Mask_Group_1099564" data-name="Mask Group 1099564" clip-path="url(#clip-path)">
      <g id="influencer_10242829" transform="translate(826.551 2027)">
        <rect id="Rectangle_412801" data-name="Rectangle 412801" width="22.75" height="42.25" rx="1.625" transform="translate(14.625 4.875)" fill="#8394a6"/>
        <path id="Path_1262576" data-name="Path 1262576" d="M14.625,8.125h22.75v35.75H14.625Z" fill="#cce1ff"/>
        <circle id="Ellipse_12707" data-name="Ellipse 12707" cx="2.438" cy="2.438" r="2.438" transform="translate(23.563 24.375)" fill="#ffd199"/>
        <path id="Path_1262577" data-name="Path 1262577" d="M30.063,37.375V32.5a2.434,2.434,0,0,0-2.437-2.437h-3.25A2.434,2.434,0,0,0,21.938,32.5v4.875Z" fill="#67cc6d"/>
        <rect id="Rectangle_412802" data-name="Rectangle 412802" width="17.875" height="16.25" rx="0.813" transform="translate(0.813 0.813)" fill="#f2f2f2"/>
        <rect id="Rectangle_412803" data-name="Rectangle 412803" width="16.25" height="14.625" rx="0.813" transform="translate(34.938 36.563)" fill="#f2f2f2"/>
        <path id="Path_1262578" data-name="Path 1262578" d="M43.063,41.307l-.666-.739a2.16,2.16,0,0,0-3.283,0,2.8,2.8,0,0,0-.292,3.25,9.884,9.884,0,0,0,2.5,2.8l1.739,1.316L44.8,46.621a10.008,10.008,0,0,0,2.5-2.8,2.775,2.775,0,0,0-.292-3.25,2.16,2.16,0,0,0-3.283,0Z" fill="#ff8081"/>
        <path id="Path_1262579" data-name="Path 1262579" d="M4.063,7.313h3.25v6.5H4.063Z" fill="#8ea0b3"/>
        <path id="Path_1262580" data-name="Path 1262580" d="M7.313,13h.813l1.219.813h4.477a1.273,1.273,0,0,0,1.259-1.129l.349-3.169A1.268,1.268,0,0,0,14.17,8.109H12.293l.682-2.73A1.062,1.062,0,0,0,12.309,4.1a1.046,1.046,0,0,0-1.276.617l-.8,2.153A1.9,1.9,0,0,1,8.45,8.109H7.321v4.883Z" fill="#ffd199"/>
        <path id="Path_1262581" data-name="Path 1262581" d="M21.125,32.5v4.875a.815.815,0,0,0,.813.813h8.125a.815.815,0,0,0,.813-.812V32.5a3.241,3.241,0,0,0-2.8-3.2,3.25,3.25,0,1,0-4.144,0A3.247,3.247,0,0,0,21.125,32.5ZM26,25.188a1.625,1.625,0,1,1-1.625,1.625A1.63,1.63,0,0,1,26,25.188ZM22.75,32.5a1.63,1.63,0,0,1,1.625-1.625h3.25A1.63,1.63,0,0,1,29.25,32.5v4.063h-6.5Z"/>
        <path id="Path_1262582" data-name="Path 1262582" d="M32.719,14.739a.83.83,0,0,0-.228-.691.805.805,0,0,0-.691-.228l-4.022.577.227,1.609,1.609-.228-2.876,2.876-1.722-1.722a.8.8,0,0,0-.577-.236.839.839,0,0,0-.577.236l-4.6,4.6,1.146,1.146,4.022-4.022,1.722,1.722a.8.8,0,0,0,.577.236.839.839,0,0,0,.577-.236l3.445-3.445-.227,1.609,1.609.228.577-4.022Z"/>
        <path id="Path_1262583" data-name="Path 1262583" d="M14.17,7.3h-.837l.431-1.714a1.863,1.863,0,0,0-1.219-2.251A1.842,1.842,0,0,0,10.27,4.444L9.466,6.6A1.09,1.09,0,0,1,8.45,7.3H8.125a.808.808,0,0,0-.812-.8H4.063a.815.815,0,0,0-.813.813v6.5a.815.815,0,0,0,.813.813h3.25a.8.8,0,0,0,.78-.666l.8.528a.8.8,0,0,0,.447.138h4.477a2.07,2.07,0,0,0,2.064-1.852L16.226,9.6A2.081,2.081,0,0,0,14.154,7.3ZM6.5,13H4.875V8.125H6.5Zm7.767-.406a.458.458,0,0,1-.455.406H9.579l-1.016-.674a.8.8,0,0,0-.447-.138V8.929h.317a2.734,2.734,0,0,0,2.543-1.763l.8-2.153a.214.214,0,0,1,.276-.13.255.255,0,0,1,.122.3L11.5,7.914a.853.853,0,0,0,.146.7.817.817,0,0,0,.642.309h1.877a.464.464,0,0,1,.341.154.437.437,0,0,1,.114.349Z"/>
        <path id="Path_1262584" data-name="Path 1262584" d="M19.5,16.25V8.938H36.563V34.125h1.625V6.5A2.445,2.445,0,0,0,35.75,4.063H19.5V1.625A1.63,1.63,0,0,0,17.875,0H1.625A1.63,1.63,0,0,0,0,1.625V16.25a1.63,1.63,0,0,0,1.625,1.625h16.25A1.63,1.63,0,0,0,19.5,16.25Zm0-10.562H35.75a.815.815,0,0,1,.813.813v.813H19.5ZM1.625,1.625h16.25V16.25H1.625Z"/>
        <path id="Path_1262585" data-name="Path 1262585" d="M50.375,35.75H35.75a1.63,1.63,0,0,0-1.625,1.625v5.688H15.438V19.5H13.813v26a2.445,2.445,0,0,0,2.438,2.438H34.125v2.438A1.63,1.63,0,0,0,35.75,52H50.375A1.63,1.63,0,0,0,52,50.375v-13A1.63,1.63,0,0,0,50.375,35.75ZM34.125,46.313H16.25a.815.815,0,0,1-.812-.812v-.812H34.125Zm1.625,4.063v-13H50.375v13Z"/>
        <path id="Path_1262586" data-name="Path 1262586" d="M45.37,39a3,3,0,0,0-2.242,1.024l-.065.065L43,40.024a2.968,2.968,0,0,0-4.485,0,3.583,3.583,0,0,0-.382,4.217,10.892,10.892,0,0,0,2.706,3.031l1.739,1.316a.783.783,0,0,0,.487.162.817.817,0,0,0,.487-.162l1.739-1.316a10.669,10.669,0,0,0,2.706-3.031,3.583,3.583,0,0,0-.382-4.217A3,3,0,0,0,45.37,39ZM46.6,43.4a9.324,9.324,0,0,1-2.291,2.576l-1.251.943-1.251-.943A8.964,8.964,0,0,1,39.52,43.4a1.98,1.98,0,0,1,.195-2.291,1.353,1.353,0,0,1,2.08,0l.666.739a.844.844,0,0,0,1.211,0l.666-.739a1.387,1.387,0,0,1,2.08,0,1.967,1.967,0,0,1,.2,2.291Z"/>
      </g>
    </g>
  </g>
</svg>
