<svg xmlns="http://www.w3.org/2000/svg" xmlns:xlink="http://www.w3.org/1999/xlink" width="98" height="97.999" viewBox="0 0 98 97.999">
  <defs>
    <clipPath id="clip-path">
      <rect id="Rectangle_411080" data-name="Rectangle 411080" width="55" height="52" transform="translate(825.051 2027)" fill="#fff"/>
    </clipPath>
  </defs>
  <g id="Group_1204448" data-name="Group 1204448" transform="translate(-803.781 -2003.55)">
    <g id="Group_1204447" data-name="Group 1204447" transform="translate(0 -541.412)">
      <g id="Group_1204142" data-name="Group 1204142" transform="translate(-67.331 2267.798)">
        <g id="Group_1188789" data-name="Group 1188789" transform="translate(871.113 277.164)">
          <path id="Path_1243039" data-name="Path 1243039" d="M41.05,0h0a41.05,41.05,0,0,1,0,82.1h0a41.05,41.05,0,0,1,0-82.1Z" transform="translate(7.951 7.949)" fill="#ffa724"/>
          <rect id="Rectangle_400907" data-name="Rectangle 400907" width="88.438" height="88.437" rx="44.218" transform="translate(4.782 4.781)" fill="none"/>
          <g id="Group_1098742" data-name="Group 1098742" transform="translate(0)">
            <g id="Rectangle_400898" data-name="Rectangle 400898" transform="translate(0)" fill="none" stroke="#fff" stroke-width="2" opacity="0.859">
              <rect width="98" height="97.999" rx="48.999" stroke="none"/>
              <rect x="1" y="1" width="96" height="95.999" rx="47.999" fill="none"/>
            </g>
            <g id="Rectangle_400907-2" data-name="Rectangle 400907" transform="translate(0)" fill="none" stroke="#0f1f33" stroke-linecap="round" stroke-width="2">
              <rect width="98" height="97.999" rx="48.999" stroke="none"/>
              <rect x="1" y="1" width="96" height="95.999" rx="47.999" fill="none"/>
            </g>
          </g>
        </g>
      </g>
    </g>
    <g id="Mask_Group_1099559" data-name="Mask Group 1099559" clip-path="url(#clip-path)">
      <g id="viral-marketing_10306690" transform="translate(825.051 2025.5)">
        <g id="Group_1206709" data-name="Group 1206709">
          <g id="Group_1206701" data-name="Group 1206701">
            <path id="Path_1262505" data-name="Path 1262505" d="M38.842,27.507c0,13.261-12.35,13.316-12.843,13.261a13.346,13.346,0,0,1,.136-26.536C26.584,14.186,38.842,14.13,38.842,27.507Z" fill="#d6edff"/>
          </g>
          <path id="Path_1262506" data-name="Path 1262506" d="M25.888,14.259a13.346,13.346,0,0,1,0,26.5,13.345,13.345,0,1,0,0-26.5Z" fill="#b9def9"/>
          <g id="Group_1206703" data-name="Group 1206703">
            <path id="Path_1262507" data-name="Path 1262507" d="M52.27,14.13c0,6-5.845,6.606-6.361,6.478a6.676,6.676,0,0,1,0-12.957A6.08,6.08,0,0,1,52.27,14.13Z" fill="#ffe177"/>
            <path id="Path_1262508" data-name="Path 1262508" d="M45.909,7.652a6.676,6.676,0,0,1,0,12.957,6.675,6.675,0,1,0,0-12.957Z" fill="#f9d45d"/>
            <g id="Group_1206702" data-name="Group 1206702">
              <path id="Path_1262509" data-name="Path 1262509" d="M48.948,16.632H46.092a1.074,1.074,0,0,1-1.074-1.074V12.7a1.074,1.074,0,0,1,1.074-1.074h2.857A1.074,1.074,0,0,1,50.023,12.7v2.857A1.074,1.074,0,0,1,48.948,16.632Z" fill="#808b95"/>
            </g>
          </g>
          <g id="Group_1206704" data-name="Group 1206704">
            <path id="Path_1262510" data-name="Path 1262510" d="M52.2,40.844a6.206,6.206,0,0,1-6.3,6.478,6.676,6.676,0,0,1,0-12.957C46.425,34.237,52.2,34.272,52.2,40.844Z" fill="#f0fcff"/>
            <path id="Path_1262511" data-name="Path 1262511" d="M47.52,34.17a6.688,6.688,0,0,0-1.611.2,6.676,6.676,0,0,1,0,12.957A6.675,6.675,0,1,0,47.52,34.17Z" fill="#d7ecfe"/>
            <path id="Path_1262512" data-name="Path 1262512" d="M46.316,38.677a1.3,1.3,0,0,0-.925,2.209l.961.96.05-.016a1.793,1.793,0,0,0,1.118-2.34h0A1.3,1.3,0,0,0,46.316,38.677Z" fill="#fd8087"/>
            <path id="Path_1262513" data-name="Path 1262513" d="M48.724,38.677a1.3,1.3,0,0,0-1.2.812v0q.011.116.011.235a2.5,2.5,0,0,1-1.178,2.124l1.168,1.166,2.129-2.125A1.3,1.3,0,0,0,48.724,38.677Z" fill="#fe646f"/>
          </g>
          <g id="Group_1206705" data-name="Group 1206705">
            <path id="Path_1262514" data-name="Path 1262514" d="M12.025,40.844c0,6.268-5.641,6.606-6.156,6.478a6.676,6.676,0,0,1,0-12.957C6.385,34.237,12.025,34.611,12.025,40.844Z" fill="#abdc94"/>
            <path id="Path_1262515" data-name="Path 1262515" d="M5.869,34.365a6.676,6.676,0,0,1,0,12.957,6.675,6.675,0,1,0,0-12.957Z" fill="#8ccf75"/>
            <path id="Path_1262516" data-name="Path 1262516" d="M7.48,38.464l-.773,1.567-1.729.251L6.229,41.5l.354.022a1.574,1.574,0,0,0,1.671-1.493h0Z" fill="#ffe177"/>
            <path id="Path_1262517" data-name="Path 1262517" d="M9.982,40.282l-1.729-.251,0-.007a2.739,2.739,0,0,1-2.022,1.483l-.295,1.717,1.547-.813,1.547.813-.3-1.722Z" fill="#ffce71"/>
          </g>
          <g id="Group_1206706" data-name="Group 1206706">
            <path id="Path_1262518" data-name="Path 1262518" d="M12.025,14.131A6.134,6.134,0,0,1,5.869,20.61a6.676,6.676,0,0,1,0-12.957C6.385,7.525,12.025,7.649,12.025,14.131Z" fill="#ffc344"/>
          </g>
          <path id="Path_1262519" data-name="Path 1262519" d="M5.869,7.653a6.676,6.676,0,0,1,0,12.957,6.675,6.675,0,1,0,0-12.957Z" fill="#feb137"/>
          <g id="Group_1206707" data-name="Group 1206707">
            <circle id="Ellipse_12686" data-name="Ellipse 12686" cx="1.681" cy="1.681" r="1.681" transform="translate(25.818 4.143)" fill="#808b95"/>
          </g>
          <g id="Group_1206708" data-name="Group 1206708">
            <circle id="Ellipse_12687" data-name="Ellipse 12687" cx="1.681" cy="1.681" r="1.681" transform="translate(25.831 47.494)" fill="#808b95"/>
          </g>
        </g>
        <g id="Group_1206721" data-name="Group 1206721">
          <line id="Line_4611" data-name="Line 4611" x2="3.198" y2="2.398" transform="translate(38.288 35.591)" fill="none" stroke="#000" stroke-linecap="round" stroke-linejoin="round" stroke-miterlimit="10" stroke-width="1.611"/>
          <line id="Line_4612" data-name="Line 4612" x2="3.116" y2="2.337" transform="translate(13.506 17.004)" fill="none" stroke="#000" stroke-linecap="round" stroke-linejoin="round" stroke-miterlimit="10" stroke-width="1.611"/>
          <line id="Line_4613" data-name="Line 4613" x1="3.146" y2="2.359" transform="translate(13.506 35.63)" fill="none" stroke="#000" stroke-linecap="round" stroke-linejoin="round" stroke-miterlimit="10" stroke-width="1.611"/>
          <line id="Line_4614" data-name="Line 4614" x1="3.116" y2="2.337" transform="translate(38.37 17.004)" fill="none" stroke="#000" stroke-linecap="round" stroke-linejoin="round" stroke-miterlimit="10" stroke-width="1.611"/>
          <g id="Group_1206710" data-name="Group 1206710">
            <circle id="Ellipse_12688" data-name="Ellipse 12688" cx="13.344" cy="13.344" r="13.344" transform="translate(14.155 14.163)" fill="none" stroke="#000" stroke-linecap="round" stroke-linejoin="round" stroke-miterlimit="10" stroke-width="1.611"/>
            <path id="Path_1262520" data-name="Path 1262520" d="M27.5,14.139a16.7,16.7,0,0,1,.02,26.722" fill="none" stroke="#000" stroke-linecap="round" stroke-linejoin="round" stroke-miterlimit="10" stroke-width="1.611"/>
            <path id="Path_1262521" data-name="Path 1262521" d="M22.246,34.3a16.755,16.755,0,0,0,5.234,6.56" fill="none" stroke="#000" stroke-linecap="round" stroke-linejoin="round" stroke-miterlimit="10" stroke-width="1.611"/>
            <path id="Path_1262522" data-name="Path 1262522" d="M27.5,14.139a16.723,16.723,0,0,0-6.336,16.82" fill="none" stroke="#000" stroke-linecap="round" stroke-linejoin="round" stroke-miterlimit="10" stroke-width="1.611"/>
            <path id="Path_1262523" data-name="Path 1262523" d="M19.725,16.66a13.35,13.35,0,0,0,15.549,0" fill="none" stroke="#000" stroke-linecap="round" stroke-linejoin="round" stroke-miterlimit="10" stroke-width="1.611"/>
            <path id="Path_1262524" data-name="Path 1262524" d="M35.275,38.354a13.35,13.35,0,0,0-15.549,0" fill="none" stroke="#000" stroke-linecap="round" stroke-linejoin="round" stroke-miterlimit="10" stroke-width="1.611"/>
            <line id="Line_4615" data-name="Line 4615" y2="26.69" transform="translate(27.5 14.163)" fill="none" stroke="#000" stroke-linecap="round" stroke-linejoin="round" stroke-miterlimit="10" stroke-width="1.611"/>
            <line id="Line_4616" data-name="Line 4616" x2="26.689" transform="translate(14.155 27.507)" fill="none" stroke="#000" stroke-linecap="round" stroke-linejoin="round" stroke-miterlimit="10" stroke-width="1.611"/>
          </g>
          <g id="Group_1206712" data-name="Group 1206712">
            <g id="Group_1206711" data-name="Group 1206711">
              <path id="Path_1262525" data-name="Path 1262525" d="M48.948,16.632H46.092a1.074,1.074,0,0,1-1.074-1.074V12.7a1.074,1.074,0,0,1,1.074-1.074h2.857A1.074,1.074,0,0,1,50.023,12.7v2.857A1.074,1.074,0,0,1,48.948,16.632Z" fill="none" stroke="#000" stroke-linecap="round" stroke-linejoin="round" stroke-miterlimit="10" stroke-width="1.611"/>
              <line id="Line_4617" data-name="Line 4617" transform="translate(47.52 14.13)" fill="none" stroke="#000" stroke-linecap="round" stroke-linejoin="round" stroke-miterlimit="10" stroke-width="1.611"/>
            </g>
            <circle id="Ellipse_12689" data-name="Ellipse 12689" cx="6.674" cy="6.674" r="6.674" transform="translate(40.846 7.456)" fill="none" stroke="#000" stroke-linecap="round" stroke-linejoin="round" stroke-miterlimit="10" stroke-width="1.611"/>
          </g>
          <g id="Group_1206713" data-name="Group 1206713">
            <path id="Path_1262526" data-name="Path 1262526" d="M49.649,40.886a1.3,1.3,0,1,0-2.129-1.4,1.3,1.3,0,1,0-2.129,1.4l2.129,2.125Z" fill="none" stroke="#000" stroke-linecap="round" stroke-linejoin="round" stroke-miterlimit="10" stroke-width="1.611"/>
            <path id="Path_1262527" data-name="Path 1262527" d="M41.606,43.94a6.673,6.673,0,1,1,2.412,2.587" fill="none" stroke="#000" stroke-linecap="round" stroke-linejoin="round" stroke-miterlimit="10" stroke-width="1.611"/>
          </g>
          <g id="Group_1206714" data-name="Group 1206714">
            <circle id="Ellipse_12690" data-name="Ellipse 12690" cx="6.674" cy="6.674" r="6.674" transform="translate(0.806 34.17)" fill="none" stroke="#000" stroke-linecap="round" stroke-linejoin="round" stroke-miterlimit="10" stroke-width="1.611"/>
            <path id="Path_1262528" data-name="Path 1262528" d="M7.48,38.464l-.773,1.567-1.729.251L6.229,41.5l-.3,1.722,1.547-.813,1.547.813-.3-1.722,1.251-1.22-1.729-.251Z" fill="none" stroke="#000" stroke-linecap="round" stroke-linejoin="round" stroke-miterlimit="10" stroke-width="1.611"/>
          </g>
          <g id="Group_1206718" data-name="Group 1206718">
            <path id="Path_1262529" data-name="Path 1262529" d="M3.659,8.658A6.664,6.664,0,1,1,1.4,11.368" fill="none" stroke="#000" stroke-linecap="round" stroke-linejoin="round" stroke-miterlimit="10" stroke-width="1.611"/>
            <g id="Group_1206717" data-name="Group 1206717">
              <g id="Group_1206715" data-name="Group 1206715">
                <line id="Line_4618" data-name="Line 4618" y2="3.907" transform="translate(8.431 12.178)" fill="none" stroke="#000" stroke-linecap="round" stroke-linejoin="round" stroke-miterlimit="10" stroke-width="1.611"/>
                <path id="Path_1262530" data-name="Path 1262530" d="M10.533,12.227,8.556,14.044l2.115,2.041" fill="none" stroke="#000" stroke-linecap="round" stroke-linejoin="round" stroke-miterlimit="10" stroke-width="1.611"/>
              </g>
              <g id="Group_1206716" data-name="Group 1206716">
                <path id="Path_1262531" data-name="Path 1262531" d="M4.288,12.227H5.1v3.806" fill="none" stroke="#000" stroke-linecap="round" stroke-linejoin="round" stroke-miterlimit="10" stroke-width="1.611"/>
              </g>
            </g>
          </g>
          <g id="Group_1206719" data-name="Group 1206719">
            <line id="Line_4619" data-name="Line 4619" y1="6.676" transform="translate(27.487 7.48)" fill="none" stroke="#000" stroke-linecap="round" stroke-linejoin="round" stroke-miterlimit="10" stroke-width="1.611"/>
            <circle id="Ellipse_12691" data-name="Ellipse 12691" cx="1.681" cy="1.681" r="1.681" transform="translate(25.818 4.143)" fill="none" stroke="#000" stroke-linecap="round" stroke-linejoin="round" stroke-miterlimit="10" stroke-width="1.611"/>
          </g>
          <g id="Group_1206720" data-name="Group 1206720">
            <line id="Line_4620" data-name="Line 4620" y2="6.676" transform="translate(27.5 40.845)" fill="none" stroke="#000" stroke-linecap="round" stroke-linejoin="round" stroke-miterlimit="10" stroke-width="1.611"/>
            <circle id="Ellipse_12692" data-name="Ellipse 12692" cx="1.681" cy="1.681" r="1.681" transform="translate(25.831 47.494)" fill="none" stroke="#000" stroke-linecap="round" stroke-linejoin="round" stroke-miterlimit="10" stroke-width="1.611"/>
          </g>
        </g>
      </g>
    </g>
  </g>
</svg>
