<svg xmlns="http://www.w3.org/2000/svg" xmlns:xlink="http://www.w3.org/1999/xlink" width="98" height="97.999" viewBox="0 0 98 97.999">
  <defs>
    <clipPath id="clip-path">
      <rect id="Rectangle_411080" data-name="Rectangle 411080" width="55" height="52" transform="translate(825.051 2027)" fill="#fff"/>
    </clipPath>
  </defs>
  <g id="Group_1204449" data-name="Group 1204449" transform="translate(-803.781 -2003.55)">
    <g id="Group_1204447" data-name="Group 1204447" transform="translate(0 -541.412)">
      <g id="Group_1204142" data-name="Group 1204142" transform="translate(-67.331 2267.798)">
        <g id="Group_1188789" data-name="Group 1188789" transform="translate(871.113 277.164)">
          <path id="Path_1243039" data-name="Path 1243039" d="M41.05,0h0a41.05,41.05,0,0,1,0,82.1h0a41.05,41.05,0,0,1,0-82.1Z" transform="translate(7.951 7.949)" fill="#ffa724"/>
          <rect id="Rectangle_400907" data-name="Rectangle 400907" width="88.438" height="88.437" rx="44.218" transform="translate(4.782 4.781)" fill="none"/>
          <g id="Group_1098742" data-name="Group 1098742" transform="translate(0)">
            <g id="Rectangle_400898" data-name="Rectangle 400898" transform="translate(0)" fill="none" stroke="#fff" stroke-width="2" opacity="0.859">
              <rect width="98" height="97.999" rx="48.999" stroke="none"/>
              <rect x="1" y="1" width="96" height="95.999" rx="47.999" fill="none"/>
            </g>
            <g id="Rectangle_400907-2" data-name="Rectangle 400907" transform="translate(0)" fill="none" stroke="#0f1f33" stroke-linecap="round" stroke-width="2">
              <rect width="98" height="97.999" rx="48.999" stroke="none"/>
              <rect x="1" y="1" width="96" height="95.999" rx="47.999" fill="none"/>
            </g>
          </g>
        </g>
      </g>
    </g>
    <g id="Mask_Group_1099558" data-name="Mask Group 1099558" clip-path="url(#clip-path)">
      <g id="Filled_outline" data-name="Filled outline" transform="translate(824.817 2025.267)">
        <path id="Path_1262476" data-name="Path 1262476" d="M40.733,45.933V49.4c0,.03,0,.061,0,.091a3.467,3.467,0,0,1-3.466,3.376H18.2A3.464,3.464,0,0,1,14.733,49.4V45.933Z" fill="#e0e0de"/>
        <path id="Path_1262477" data-name="Path 1262477" d="M40.733,9.533v1.733h-26V9.533A3.467,3.467,0,0,1,18.2,6.067H37.267c.092,0,.184,0,.274.011A3.467,3.467,0,0,1,40.733,9.533Z" fill="#e0e0de"/>
        <path id="Path_1262478" data-name="Path 1262478" d="M14.733,11.267h26V45.933h-26Z" fill="#d3669a"/>
        <path id="Path_1262479" data-name="Path 1262479" d="M40.733,45.933V49.4c0,.03,0,.061,0,.091a3.467,3.467,0,0,1-3.466,3.376H18.2a3.461,3.461,0,0,1-.84-.1.123.123,0,0,0-.045-.026l2.93-6.8Z" fill="#d6d6d4"/>
        <path id="Path_1262480" data-name="Path 1262480" d="M40.733,9.533V15.6H33.44l1.865-4.333,2.235-5.189A3.467,3.467,0,0,1,40.733,9.533Z" fill="#d6d6d4"/>
        <path id="Path_1262481" data-name="Path 1262481" d="M20.245,45.933H40.733V11.267h-5.56Z" fill="#cc5e93"/>
        <path id="Path_1262482" data-name="Path 1262482" d="M20.8,45.933v4.333H14.843a3.467,3.467,0,0,1-.109-.867V45.933Z" fill="#d6d6d4"/>
        <path id="Path_1262483" data-name="Path 1262483" d="M14.733,9.533v1.733H26.867V6.933a2.575,2.575,0,0,0-.159-.867H18.2A3.467,3.467,0,0,0,14.733,9.533Z" fill="#d6d6d4"/>
        <path id="Path_1262484" data-name="Path 1262484" d="M19.933,23.4h4.333a2.6,2.6,0,0,0,2.6-2.6V11.267H14.733V23.4l5.2,3.467Z" fill="#cc5e93"/>
        <path id="Path_1262485" data-name="Path 1262485" d="M46.39,30.732,40.733,23.4V37.267L37.7,34.233a3.064,3.064,0,0,0-4.333,4.333l4.767,4.767-.388.583a7.589,7.589,0,0,0,.388,8.951h10.4V36.439a8.667,8.667,0,0,0-2.144-5.706Z" fill="#fec9a3"/>
        <path id="Path_1262486" data-name="Path 1262486" d="M25.133,5.2V19.067a2.6,2.6,0,0,1-2.6,2.6H18.2v3.467L13,21.667H5.2a2.6,2.6,0,0,1-2.6-2.6V5.2A2.6,2.6,0,0,1,5.2,2.6H22.533A2.6,2.6,0,0,1,25.133,5.2Z" fill="#4db7e5"/>
        <path id="Path_1262487" data-name="Path 1262487" d="M25.133,5.2V19.067a2.6,2.6,0,0,1-2.6,2.6H18.2v3.467L13,21.667H6.458c6.654-3.443,14.061-9.117,18-18.216a2.594,2.594,0,0,1,.677,1.75Z" fill="#48add9"/>
        <path id="Path_1262488" data-name="Path 1262488" d="M18.72,11.267H16.467v-2.6a2.6,2.6,0,0,0-2.6-2.6A.867.867,0,0,0,13,6.933v2.6l-1.733,1.733V18.2H18.72a1.213,1.213,0,0,0,1.213-1.213V12.48a1.213,1.213,0,0,0-1.213-1.213Z" fill="#fec9a3"/>
        <path id="Path_1262489" data-name="Path 1262489" d="M7.8,11.267h3.467V18.2H7.8Z" fill="#348fd9"/>
        <path id="Path_1262490" data-name="Path 1262490" d="M52.867,12.133V24.267a2.6,2.6,0,0,1-2.6,2.6H40.733l-5.2,3.467V26.867h-.867a2.6,2.6,0,0,1-2.6-2.6V12.133a2.6,2.6,0,0,1,2.6-2.6h15.6a2.512,2.512,0,0,1,.6.071,2.6,2.6,0,0,1,2,2.529Z" fill="#4db7e5"/>
        <path id="Path_1262491" data-name="Path 1262491" d="M52.867,12.133V24.267a2.6,2.6,0,0,1-2.6,2.6H40.733l-5.2,3.467V26.867h-.867a2.583,2.583,0,0,1-1.579-.536A57.812,57.812,0,0,0,50.869,9.6a2.6,2.6,0,0,1,2,2.529Z" fill="#48add9"/>
        <path id="Path_1262492" data-name="Path 1262492" d="M42.467,23.4l-4.861-3.807a3.354,3.354,0,0,1-.8-4.193,2.736,2.736,0,0,1,4.2-.9l1.459,1.2,1.459-1.2a2.736,2.736,0,0,1,4.2.9,3.354,3.354,0,0,1-.8,4.193Z" fill="#f35244"/>
        <path id="Path_1262493" data-name="Path 1262493" d="M25.133,39v6.933a2.6,2.6,0,0,1-2.6,2.6H5.2a2.6,2.6,0,0,1-2.6-2.6V39a2.6,2.6,0,0,1,2.6-2.6H13l5.2-3.467V36.4h4.333A2.6,2.6,0,0,1,25.133,39Z" fill="#4db7e5"/>
        <path id="Path_1262494" data-name="Path 1262494" d="M25.133,39v6.933a2.6,2.6,0,0,1-2.6,2.6H6.015A42.594,42.594,0,0,0,23.761,36.709,2.6,2.6,0,0,1,25.133,39Z" fill="#48add9"/>
        <path id="Path_1262495" data-name="Path 1262495" d="M19.933,36.4V34.667L18.2,35.822V36.4Z" fill="#cc5e93"/>
        <path id="Path_1262496" data-name="Path 1262496" d="M26.867,48.533H28.6v1.733H26.867Z"/>
        <path id="Path_1262497" data-name="Path 1262497" d="M5.2,22.533h7.538l4.982,3.321a.867.867,0,0,0,1.347-.721v-2.6h3.467A3.47,3.47,0,0,0,26,19.067V5.2a3.47,3.47,0,0,0-3.467-3.467H5.2A3.47,3.47,0,0,0,1.733,5.2V19.067A3.47,3.47,0,0,0,5.2,22.533ZM3.467,5.2A1.736,1.736,0,0,1,5.2,3.467H22.533A1.736,1.736,0,0,1,24.267,5.2V19.067A1.736,1.736,0,0,1,22.533,20.8H18.2a.867.867,0,0,0-.867.867v1.848l-3.853-2.569A.868.868,0,0,0,13,20.8H5.2a1.736,1.736,0,0,1-1.733-1.733Z"/>
        <path id="Path_1262498" data-name="Path 1262498" d="M7.8,19.067H18.72a2.083,2.083,0,0,0,2.08-2.08V12.48a2.083,2.083,0,0,0-2.08-2.08H17.333V8.667A3.47,3.47,0,0,0,13.867,5.2a1.736,1.736,0,0,0-1.733,1.733V9.175L10.908,10.4H7.8a.867.867,0,0,0-.867.867V18.2A.867.867,0,0,0,7.8,19.067Zm5.813-8.921a.866.866,0,0,0,.254-.613v-2.6A1.736,1.736,0,0,1,15.6,8.667V10.4h-.867v1.733H18.72a.348.348,0,0,1,.347.347v4.507a.348.348,0,0,1-.347.347H12.133V11.625ZM8.667,12.133H10.4v5.2H8.667Z"/>
        <path id="Path_1262499" data-name="Path 1262499" d="M50.267,8.667H41.512A4.341,4.341,0,0,0,37.267,5.2H27.733V6.933h9.533a2.6,2.6,0,0,1,2.44,1.733h-5.04A3.455,3.455,0,0,0,31.682,10.4H27.733v1.733H31.2V24.267a3.47,3.47,0,0,0,3.467,3.467v2.6a.867.867,0,0,0,1.347.721l3.853-2.568v6.689l-1.554-1.554a3.931,3.931,0,0,0-5.559,5.559l4.262,4.262a8.487,8.487,0,0,0-.834,1.625H28.6V46.8h7.117a8.458,8.458,0,0,0,.836,5.2H18.2a2.6,2.6,0,0,1-2.6-2.6h6.933A3.47,3.47,0,0,0,26,45.933V39a3.47,3.47,0,0,0-3.467-3.467H19.067v-2.6a.867.867,0,0,0-1.347-.721L15.6,33.625V26H13.867v8.781l-1.129.753H5.2A3.47,3.47,0,0,0,1.733,39v6.933A3.47,3.47,0,0,0,5.2,49.4h8.667A4.338,4.338,0,0,0,18.2,53.733H48.533a.867.867,0,0,0,.867-.867V36.435A9.489,9.489,0,0,0,47.079,30.2l-1.905-2.47h5.092a3.47,3.47,0,0,0,3.467-3.467V12.133a3.47,3.47,0,0,0-3.467-3.467ZM5.2,47.667a1.736,1.736,0,0,1-1.733-1.733V39A1.736,1.736,0,0,1,5.2,37.267H13a.868.868,0,0,0,.481-.146l3.853-2.569V36.4a.867.867,0,0,0,.867.867h4.333A1.736,1.736,0,0,1,24.267,39v6.933a1.736,1.736,0,0,1-1.733,1.733ZM45.74,31.3a7.8,7.8,0,0,1,1.926,5.132V52H38.572a6.733,6.733,0,0,1-.109-7.6l.39-.581a.867.867,0,0,0-.107-1.1l-4.767-4.767a2.2,2.2,0,0,1,3.108-3.108l6.5,6.5,1.225-1.225L41.6,36.908V27.733h1.385ZM52,24.267A1.736,1.736,0,0,1,50.267,26H40.733a.868.868,0,0,0-.481.146L36.4,28.714V26.867A.867.867,0,0,0,35.533,26h-.867a1.736,1.736,0,0,1-1.733-1.733V12.133A1.736,1.736,0,0,1,34.667,10.4h15.6A1.736,1.736,0,0,1,52,12.133Z"/>
        <path id="Path_1262500" data-name="Path 1262500" d="M46.317,13.064a3.557,3.557,0,0,0-2.941.765l-.909.748-.908-.748a3.549,3.549,0,0,0-2.942-.765,3.75,3.75,0,0,0-2.566,1.92,4.2,4.2,0,0,0,1.022,5.291l4.861,3.807a.865.865,0,0,0,1.068,0l4.861-3.807a4.2,4.2,0,0,0,1.022-5.291,3.751,3.751,0,0,0-2.567-1.919Zm.477,5.847L42.467,22.3,38.14,18.911a2.487,2.487,0,0,1-.57-3.094,2.03,2.03,0,0,1,1.374-1.051,1.8,1.8,0,0,1,1.512.4l1.459,1.2a.867.867,0,0,0,1.1,0l1.46-1.2a1.81,1.81,0,0,1,1.512-.4,2.032,2.032,0,0,1,1.374,1.05,2.488,2.488,0,0,1-.57,3.095Z"/>
        <path id="Path_1262501" data-name="Path 1262501" d="M5.2,39.867H17.333V41.6H5.2Z"/>
        <path id="Path_1262502" data-name="Path 1262502" d="M19.067,39.867h3.467V41.6H19.067Z"/>
        <path id="Path_1262503" data-name="Path 1262503" d="M5.2,43.333h5.2v1.733H5.2Z"/>
        <path id="Path_1262504" data-name="Path 1262504" d="M12.133,43.333h10.4v1.733h-10.4Z"/>
      </g>
    </g>
  </g>
</svg>
