<svg xmlns="http://www.w3.org/2000/svg" width="59.873" height="59.873" viewBox="0 0 59.873 59.873">
  <g id="Group_1206307" data-name="Group 1206307" transform="translate(-1021.691 -3144)">
    <g id="Group_1200255" data-name="Group 1200255" transform="translate(1021.691 3144)">
      <g id="Group_1187152" data-name="Group 1187152" transform="translate(0 0)">
        <g id="Group_1185946" data-name="Group 1185946">
          <g id="Group_1184280" data-name="Group 1184280">
            <g id="Group_1182168" data-name="Group 1182168">
              <g id="Group_1178877" data-name="Group 1178877">
                <g id="Group_1111311" data-name="Group 1111311">
                  <g id="Group_1098742" data-name="Group 1098742" transform="translate(0 0)">
                    <g id="Rectangle_400898" data-name="Rectangle 400898" transform="translate(0 0)" fill="#fdcae3" stroke="#af8c9d" stroke-width="1" opacity="0.859">
                      <rect width="59.873" height="59.873" rx="29.936" stroke="none"/>
                      <rect x="0.5" y="0.5" width="58.873" height="58.873" rx="29.436" fill="none"/>
                    </g>
                    <g id="Rectangle_400907" data-name="Rectangle 400907" transform="translate(0 0)" fill="none" stroke="#af8c9d" stroke-width="1">
                      <rect width="59.873" height="59.873" rx="29.936" stroke="none"/>
                      <rect x="0.5" y="0.5" width="58.873" height="58.873" rx="29.436" fill="none"/>
                    </g>
                  </g>
                </g>
              </g>
            </g>
          </g>
        </g>
      </g>
    </g>
    <g id="_FILLED_OUTLINE" data-name="/ FILLED_OUTLINE" transform="translate(1032.672 3154.979)">
      <rect id="Rectangle_410776" data-name="Rectangle 410776" width="18.144" height="31.105" rx="3" transform="translate(6.29 0.648)" fill="#46c89d"/>
      <path id="Path_1260791" data-name="Path 1260791" d="M23.128,231.552a1.3,1.3,0,0,1-1.3-1.3v-8a1.3,1.3,0,0,1,.38-.916l2.212-2.212a1.833,1.833,0,0,0,0-2.592h0a1.833,1.833,0,0,0-2.592,0l-3.508,3.508a1.3,1.3,0,0,0-.38.916v5.518a2.592,2.592,0,0,1-.759,1.833L16,229.5l1.944,9.183,3.777-3.777a2.592,2.592,0,0,1,1.833-.759h1.093a2.592,2.592,0,0,0,1.833-.759l1.833-1.833Z" transform="translate(-15.542 -199.8)" fill="#e8bb85"/>
      <path id="Path_1260792" data-name="Path 1260792" d="M136,152h14.9a13.608,13.608,0,0,1,13.608,13.608h0A13.608,13.608,0,0,1,150.9,179.217h-1.3A13.608,13.608,0,0,1,136,165.608V152Z" transform="translate(-125.821 -140.984)" fill="#f9d6b4"/>
      <path id="Path_1260793" data-name="Path 1260793" d="M136,24l.4,1.61a1.3,1.3,0,0,0,1.257.982h7.048a1.3,1.3,0,0,0,1.257-.982l.4-1.61Z" transform="translate(-125.822 -23.352)" fill="#00b378"/>
      <g id="Group_1204171" data-name="Group 1204171" transform="translate(8.882 0.648)">
        <rect id="Rectangle_410777" data-name="Rectangle 410777" width="2.592" height="2.592" rx="1.296" transform="translate(0 5.184)" fill="#bdecdc"/>
        <rect id="Rectangle_410778" data-name="Rectangle 410778" width="2.592" height="2.592" rx="1.296" transform="translate(5.184 5.184)" fill="#bdecdc"/>
        <rect id="Rectangle_410779" data-name="Rectangle 410779" width="2.592" height="2.592" rx="1.296" transform="translate(10.368 5.184)" fill="#bdecdc"/>
        <path id="Path_1260794" data-name="Path 1260794" d="M464,112h1.944v1.3H464Z" transform="translate(-436.135 -104.872)" fill="#bdecdc"/>
        <path id="Path_1260795" data-name="Path 1260795" d="M376,24h1.3v1.944H376Z" transform="translate(-355.263 -24)" fill="#bdecdc"/>
        <path id="Path_1260796" data-name="Path 1260796" d="M352,48h1.944v1.3H352Z" transform="translate(-333.208 -46.056)" fill="#bdecdc"/>
        <path id="Path_1260797" data-name="Path 1260797" d="M376,64h1.3v1.944H376Z" transform="translate(-355.263 -60.76)" fill="#bdecdc"/>
        <path id="Path_1260798" data-name="Path 1260798" d="M392,48h1.944v1.3H392Z" transform="translate(-369.967 -46.056)" fill="#bdecdc"/>
        <path id="Path_1260799" data-name="Path 1260799" d="M448,88h1.3v1.944H448Z" transform="translate(-421.431 -82.816)" fill="#bdecdc"/>
        <path id="Path_1260800" data-name="Path 1260800" d="M424,112h1.944v1.3H424Z" transform="translate(-399.375 -104.872)" fill="#bdecdc"/>
        <path id="Path_1260801" data-name="Path 1260801" d="M448,128h1.3v1.944H448Z" transform="translate(-421.431 -119.576)" fill="#bdecdc"/>
      </g>
      <path id="Path_1260802" data-name="Path 1260802" d="M241.421,269.154a13.569,13.569,0,0,0,5.069.976h1.3a13.608,13.608,0,0,0,13.608-13.608h0a13.559,13.559,0,0,0-1.2-5.595,27.272,27.272,0,0,1-18.774,18.227Z" transform="translate(-222.703 -231.898)" fill="#d4b699"/>
      <circle id="Ellipse_12421" data-name="Ellipse 12421" cx="4.536" cy="4.536" r="4.536" transform="translate(19.899 13.608)" fill="#00b378"/>
      <path id="Path_1260803" data-name="Path 1260803" d="M296,215.6v2.762a.648.648,0,0,0,1.007.539l2.072-1.381a.648.648,0,0,0,0-1.078l-2.072-1.381A.648.648,0,0,0,296,215.6Z" transform="translate(-272.861 -198.833)" fill="#bdecdc"/>
      <path id="Path_1260804" data-name="Path 1260804" d="M225.3,260.853H224v-1.3h1.3c2.612,0,6.174-.407,8.309-2.345a4.2,4.2,0,0,0,1.417-2.277l1.285.167a5.406,5.406,0,0,1-1.738,2.984C232.618,259.922,229.5,260.853,225.3,260.853Z" transform="translate(-206.693 -235.58)" fill="#59cea7"/>
      <path id="Path_1260805" data-name="Path 1260805" d="M222.9,327.776V320h-2.592v7.776H217.72v-5.832h-2.592v5.832h-2.592v-3.888h-2.592v3.888H208v1.3h16.848v-1.3Z" transform="translate(-191.989 -295.375)" fill="#00b378"/>
      <path id="Path_1260806" data-name="Path 1260806" d="M339.558,389.445v.011h-.014q-.866.683-1.788,1.3h6.338v-1.3H342.15v-2.34A27.367,27.367,0,0,1,339.558,389.445Z" transform="translate(-311.235 -357.055)" fill="#009866"/>
      <path id="Path_1260807" data-name="Path 1260807" d="M114.592,83.888a1.3,1.3,0,0,0,1.3-1.3V81.3a1.3,1.3,0,0,0-1.3-1.3h-1.3a1.3,1.3,0,0,0-1.3,1.3v1.3a1.3,1.3,0,0,0,1.3,1.3ZM113.3,81.3h1.3v1.3h-1.3Z" transform="translate(-103.766 -74.816)"/>
      <path id="Path_1260808" data-name="Path 1260808" d="M177.3,83.888h1.3a1.3,1.3,0,0,0,1.3-1.3V81.3a1.3,1.3,0,0,0-1.3-1.3h-1.3a1.3,1.3,0,0,0-1.3,1.3v1.3A1.3,1.3,0,0,0,177.3,83.888Zm0-2.592h1.3v1.3h-1.3Z" transform="translate(-162.581 -74.816)"/>
      <path id="Path_1260809" data-name="Path 1260809" d="M241.3,83.888h1.3a1.3,1.3,0,0,0,1.3-1.3V81.3a1.3,1.3,0,0,0-1.3-1.3h-1.3a1.3,1.3,0,0,0-1.3,1.3v1.3A1.3,1.3,0,0,0,241.3,83.888Zm0-2.592h1.3v1.3h-1.3Z" transform="translate(-221.397 -74.816)"/>
      <path id="Path_1260810" data-name="Path 1260810" d="M35.426,26.368V17.944A1.946,1.946,0,0,0,33.482,16H17.929a1.946,1.946,0,0,0-1.944,1.944V32.469l-3.319,3.319a1.931,1.931,0,0,0-.569,1.375V42.68a1.931,1.931,0,0,1-.569,1.375l-1.185,1.185.916.916,1.185-1.185a3.219,3.219,0,0,0,.949-2.291V37.162a.643.643,0,0,1,.19-.458L17.091,33.2a1.185,1.185,0,0,1,1.676,1.676l-2.212,2.212a1.931,1.931,0,0,0-.569,1.375v8A1.946,1.946,0,0,0,17.929,48.4h3.62l-.727.727a1.931,1.931,0,0,1-1.375.569H18.355a3.219,3.219,0,0,0-2.291.949l-3.777,3.777.916.916,3.777-3.777a1.931,1.931,0,0,1,1.375-.569h1.093a3.219,3.219,0,0,0,2.291-.949l.939-.939A14.244,14.244,0,0,0,34.13,54.881h1.3a14.256,14.256,0,1,0,0-28.513ZM30.06,17.3l-.2.805a.647.647,0,0,1-.629.491H22.181a.647.647,0,0,1-.629-.491l-.2-.805ZM17.281,31.64v-13.7a.649.649,0,0,1,.648-.648h2.086l.28,1.12a1.941,1.941,0,0,0,1.886,1.472H29.23a1.941,1.941,0,0,0,1.886-1.473l.28-1.12h2.086a.649.649,0,0,1,.648.648v8.424H19.873v6.124a2.522,2.522,0,0,0-.19-.214,2.482,2.482,0,0,0-2.4-.639ZM17.929,47.1a.649.649,0,0,1-.648-.648v-8a.644.644,0,0,1,.19-.458l2.212-2.212a2.518,2.518,0,0,0,.19-.214v5.051a14.17,14.17,0,0,0,1.56,6.48Zm17.5,6.48h-1.3a12.975,12.975,0,0,1-12.96-12.96V27.664H35.426a12.96,12.96,0,1,1,0,25.921Z" transform="translate(-10.343 -16)"/>
      <path id="Path_1260811" data-name="Path 1260811" d="M376,24h1.3v1.944H376Z" transform="translate(-346.381 -23.352)"/>
      <path id="Path_1260812" data-name="Path 1260812" d="M352,48h1.944v1.3H352Z" transform="translate(-324.325 -45.408)"/>
      <path id="Path_1260813" data-name="Path 1260813" d="M376,64h1.3v1.944H376Z" transform="translate(-346.381 -60.112)"/>
      <path id="Path_1260814" data-name="Path 1260814" d="M392,48h1.944v1.3H392Z" transform="translate(-361.085 -45.408)"/>
      <path id="Path_1260815" data-name="Path 1260815" d="M448,88h1.3v1.944H448Z" transform="translate(-412.549 -82.168)"/>
      <path id="Path_1260816" data-name="Path 1260816" d="M424,112h1.944v1.3H424Z" transform="translate(-390.493 -104.224)"/>
      <path id="Path_1260817" data-name="Path 1260817" d="M448,128h1.3v1.944H448Z" transform="translate(-412.549 -118.928)"/>
      <path id="Path_1260818" data-name="Path 1260818" d="M464,112h1.944v1.3H464Z" transform="translate(-427.253 -104.224)"/>
      <path id="Path_1260819" data-name="Path 1260819" d="M290.015,207.166A1.3,1.3,0,0,0,288,208.244v2.762a1.3,1.3,0,0,0,2.015,1.078l2.072-1.381a1.3,1.3,0,0,0,0-2.157Zm-.719,3.841v-2.762l2.072,1.381Z" transform="translate(-265.509 -191.481)"/>
      <path id="Path_1260820" data-name="Path 1260820" d="M250.953,185.879l.556-1.171a3.889,3.889,0,1,1,5.554-3.514h1.3a5.184,5.184,0,1,0-7.406,4.685Z" transform="translate(-228.74 -163.049)"/>
      <path id="Path_1260821" data-name="Path 1260821" d="M223.552,312h-3.888v8.424h-1.3v-6.48H214.48v6.48h-1.3v-4.536H209.3v4.536H208v1.3h16.848v-1.3h-1.3Zm-11.664,8.424h-1.3v-3.24h1.3Zm5.184,0h-1.3V315.24h1.3Zm5.184,0h-1.3V313.3h1.3Z" transform="translate(-191.989 -288.023)"/>
      <path id="Path_1260822" data-name="Path 1260822" d="M234.569,258.085a5.406,5.406,0,0,0,1.738-2.984l-1.285-.167a4.2,4.2,0,0,1-1.417,2.277c-2.134,1.939-5.7,2.346-8.309,2.346H224v1.3h1.3C229.5,260.853,232.618,259.921,234.569,258.085Z" transform="translate(-206.693 -235.58)"/>
    </g>
  </g>
</svg>
