<svg xmlns="http://www.w3.org/2000/svg" xmlns:xlink="http://www.w3.org/1999/xlink" width="98" height="97.999" viewBox="0 0 98 97.999">
  <defs>
    <clipPath id="clip-path">
      <rect id="Rectangle_411080" data-name="Rectangle 411080" width="55" height="52" transform="translate(825.051 2027)" fill="#fff"/>
    </clipPath>
  </defs>
  <g id="Group_1206411" data-name="Group 1206411" transform="translate(-803.782 -2003.55)">
    <g id="Group_1204447" data-name="Group 1204447" transform="translate(0 -541.412)">
      <g id="Group_1204142" data-name="Group 1204142" transform="translate(-67.331 2267.798)">
        <g id="Group_1188789" data-name="Group 1188789" transform="translate(871.113 277.164)">
          <path id="Path_1243039" data-name="Path 1243039" d="M41.05,0h0a41.05,41.05,0,0,1,0,82.1h0a41.05,41.05,0,0,1,0-82.1Z" transform="translate(7.951 7.949)" fill="#ffa724"/>
          <rect id="Rectangle_400907" data-name="Rectangle 400907" width="88.438" height="88.437" rx="44.218" transform="translate(4.782 4.781)" fill="none"/>
          <g id="Group_1098742" data-name="Group 1098742" transform="translate(0)">
            <g id="Rectangle_400898" data-name="Rectangle 400898" transform="translate(0)" fill="none" stroke="#fff" stroke-width="2" opacity="0.859">
              <rect width="98" height="97.999" rx="48.999" stroke="none"/>
              <rect x="1" y="1" width="96" height="95.999" rx="47.999" fill="none"/>
            </g>
            <g id="Rectangle_400907-2" data-name="Rectangle 400907" transform="translate(0)" fill="none" stroke="#0f1f33" stroke-linecap="round" stroke-width="2">
              <rect width="98" height="97.999" rx="48.999" stroke="none"/>
              <rect x="1" y="1" width="96" height="95.999" rx="47.999" fill="none"/>
            </g>
          </g>
        </g>
      </g>
    </g>
    <g id="Mask_Group_1099584" data-name="Mask Group 1099584" clip-path="url(#clip-path)">
      <g id="cash-flow_6159271" transform="translate(826.551 2027)">
        <circle id="Ellipse_12733" data-name="Ellipse 12733" cx="15.423" cy="15.423" r="15.423" transform="translate(10.577 10.577)" fill="#fdb441"/>
        <path id="Path_1262959" data-name="Path 1262959" d="M30.784,11.333a15.428,15.428,0,0,1-13.63,27.3,15.426,15.426,0,1,0,13.63-27.3Z" fill="#fea713"/>
        <path id="Path_1262960" data-name="Path 1262960" d="M31.609,29.739A5.615,5.615,0,0,0,26,24.131a1.87,1.87,0,1,1,1.674-2.7l3.343-1.675a5.583,5.583,0,0,0-3.147-2.782V14.783H24.131v2.19A5.609,5.609,0,0,0,26,27.87a1.87,1.87,0,1,1-1.674,2.7l-3.343,1.675a5.583,5.583,0,0,0,3.147,2.782v2.186H27.87v-2.19A5.618,5.618,0,0,0,31.609,29.739Z" fill="#6fd7a3"/>
        <path id="Path_1262961" data-name="Path 1262961" d="M38.729,44.476A22.44,22.44,0,0,1,5.937,15.951a.1.1,0,0,1,.146-.043l2.136,1.237a.1.1,0,0,0,.156-.09l.011-8.029a.1.1,0,0,0-.156-.09l-6.959,4a.1.1,0,0,0,0,.18l2.2,1.276a.1.1,0,0,1,.04.136,25.243,25.243,0,0,0,36.81,32.252l1.068-.738a.1.1,0,0,0,.027-.144l-1.475-2.137a.1.1,0,0,0-.144-.026Z" fill="#8ac9fe"/>
        <path id="Path_1262962" data-name="Path 1262962" d="M51.238,26A25.241,25.241,0,0,0,11.678,5.216l-1.068.738a.1.1,0,0,0-.027.144l1.475,2.137a.1.1,0,0,0,.144.027l1.068-.738a22.44,22.44,0,0,1,32.8,28.506.1.1,0,0,1-.146.043L43.79,34.839a.1.1,0,0,0-.156.09l0,8.029a.1.1,0,0,0,.156.09l6.956-4.011a.1.1,0,0,0,0-.18l-2.2-1.274a.1.1,0,0,1-.04-.136A25.256,25.256,0,0,0,51.238,26Z" fill="#8ac9fe"/>
        <path id="Path_1262963" data-name="Path 1262963" d="M24.131,37.979H27.87a.762.762,0,0,0,.762-.762V35.54A6.37,6.37,0,0,0,26,23.369a1.108,1.108,0,1,1,.992-1.6.762.762,0,0,0,1.022.34l3.343-1.674a.762.762,0,0,0,.34-1.022,6.334,6.334,0,0,0-3.066-2.956V14.783a.762.762,0,0,0-.762-.762H24.131a.762.762,0,0,0-.762.762V16.46A6.37,6.37,0,0,0,26,28.631a1.108,1.108,0,1,1-.992,1.6.762.762,0,0,0-1.022-.34l-3.343,1.674a.762.762,0,0,0-.34,1.022,6.334,6.334,0,0,0,3.067,2.956v1.671A.762.762,0,0,0,24.131,37.979Zm-2.073-5.417,2.028-1.016A2.632,2.632,0,1,0,26,27.108a4.847,4.847,0,0,1-1.615-9.417.762.762,0,0,0,.507-.718V15.545h2.215v1.424a.762.762,0,0,0,.51.719,4.794,4.794,0,0,1,2.325,1.75l-2.028,1.016A2.632,2.632,0,1,0,26,24.892a4.847,4.847,0,0,1,1.615,9.417.762.762,0,0,0-.507.718v1.428H24.892V35.031a.762.762,0,0,0-.51-.719A4.792,4.792,0,0,1,22.058,32.562Z"/>
        <path id="Path_1262964" data-name="Path 1262964" d="M36.757,16.037A.762.762,0,0,0,37.874,15a16.144,16.144,0,1,0,2.219,3.033.762.762,0,1,0-1.326.751,14.681,14.681,0,1,1-2.01-2.749Z"/>
        <path id="Path_1262965" data-name="Path 1262965" d="M40.569,43.333a.866.866,0,0,0-1.2-.221l-1.068.738A21.679,21.679,0,0,1,17.486,45.93a.762.762,0,0,0-.6,1.4A23.2,23.2,0,0,0,39.162,45.1l.527-.364.728,1.054-.527.364a24.483,24.483,0,0,1-35.7-31.278.865.865,0,0,0-.336-1.142l-1.216-.7,4.984-2.868-.008,5.75-1.15-.666a.866.866,0,0,0-1.208.361A23.2,23.2,0,0,0,13.609,45.6a.762.762,0,1,0,.816-1.286,21.677,21.677,0,0,1-8.11-27.393l1.521.881a.866.866,0,0,0,1.3-.748l.011-8.029a.866.866,0,0,0-1.3-.751l-6.959,4a.866.866,0,0,0,0,1.5l1.669.967A26.129,26.129,0,0,0,0,26a26,26,0,0,0,40.755,21.41l1.069-.738a.865.865,0,0,0,.22-1.2Z"/>
        <path id="Path_1262966" data-name="Path 1262966" d="M51.123,38.2l-1.67-.965A26.02,26.02,0,0,0,19.641.783a.762.762,0,0,0,.371,1.478A24.6,24.6,0,0,1,26,1.524,24.477,24.477,0,0,1,50.477,26a24.581,24.581,0,0,1-2.658,11.1.865.865,0,0,0,.339,1.14l1.217.7-4.981,2.872,0-5.75,1.149.664a.866.866,0,0,0,1.209-.362A23.2,23.2,0,0,0,26,2.8,23.062,23.062,0,0,0,12.838,6.9l-.527.364-.728-1.054.527-.364a24.48,24.48,0,0,1,4.606-2.5.762.762,0,1,0-.578-1.409A26.008,26.008,0,0,0,11.245,4.59l-1.069.738a.867.867,0,0,0-.22,1.2l1.475,2.137a.866.866,0,0,0,1.2.221L13.7,8.151A21.675,21.675,0,0,1,47.673,26a21.8,21.8,0,0,1-1.979,9.059l-1.522-.88a.866.866,0,0,0-1.3.749l0,8.029a.866.866,0,0,0,1.3.75L51.123,39.7a.866.866,0,0,0,0-1.5Z"/>
      </g>
    </g>
  </g>
</svg>
