<svg xmlns="http://www.w3.org/2000/svg" xmlns:xlink="http://www.w3.org/1999/xlink" width="98" height="97.999" viewBox="0 0 98 97.999">
  <defs>
    <clipPath id="clip-path">
      <rect id="Rectangle_411080" data-name="Rectangle 411080" width="55" height="52" transform="translate(825.051 2027)" fill="#fff"/>
    </clipPath>
  </defs>
  <g id="Group_1206334" data-name="Group 1206334" transform="translate(-803.781 -2003.55)">
    <g id="Group_1204447" data-name="Group 1204447" transform="translate(0 -541.412)">
      <g id="Group_1204142" data-name="Group 1204142" transform="translate(-67.331 2267.798)">
        <g id="Group_1188789" data-name="Group 1188789" transform="translate(871.113 277.164)">
          <path id="Path_1243039" data-name="Path 1243039" d="M41.05,0h0a41.05,41.05,0,0,1,0,82.1h0a41.05,41.05,0,0,1,0-82.1Z" transform="translate(7.951 7.949)" fill="#ffa724"/>
          <rect id="Rectangle_400907" data-name="Rectangle 400907" width="88.438" height="88.437" rx="44.218" transform="translate(4.782 4.781)" fill="none"/>
          <g id="Group_1098742" data-name="Group 1098742" transform="translate(0)">
            <g id="Rectangle_400898" data-name="Rectangle 400898" transform="translate(0)" fill="none" stroke="#fff" stroke-width="2" opacity="0.859">
              <rect width="98" height="97.999" rx="48.999" stroke="none"/>
              <rect x="1" y="1" width="96" height="95.999" rx="47.999" fill="none"/>
            </g>
            <g id="Rectangle_400907-2" data-name="Rectangle 400907" transform="translate(0)" fill="none" stroke="#0f1f33" stroke-linecap="round" stroke-width="2">
              <rect width="98" height="97.999" rx="48.999" stroke="none"/>
              <rect x="1" y="1" width="96" height="95.999" rx="47.999" fill="none"/>
            </g>
          </g>
        </g>
      </g>
    </g>
    <g id="Mask_Group_1099579" data-name="Mask Group 1099579" clip-path="url(#clip-path)">
      <g id="disadvantage_10963647" transform="translate(825.573 2026.022)">
        <g id="Group_1206823" data-name="Group 1206823">
          <g id="Group_1206818" data-name="Group 1206818">
            <path id="Path_1262877" data-name="Path 1262877" d="M50.367,11.173A1.881,1.881,0,0,0,52.242,9.3V7.922a1.881,1.881,0,0,0-1.875-1.875H38.581a1.881,1.881,0,0,0-1.875,1.875V9.3a1.88,1.88,0,0,0,1.875,1.875,1.881,1.881,0,0,0-1.875,1.875v1.377A1.88,1.88,0,0,0,38.581,16.3a1.881,1.881,0,0,0-1.875,1.875v1.377a1.88,1.88,0,0,0,1.875,1.875A1.881,1.881,0,0,0,36.706,23.3v1.377a1.88,1.88,0,0,0,1.875,1.875H50.367a1.881,1.881,0,0,0,1.875-1.875V23.3a1.881,1.881,0,0,0-1.875-1.875,1.881,1.881,0,0,0,1.875-1.875V18.175A1.881,1.881,0,0,0,50.367,16.3a1.881,1.881,0,0,0,1.875-1.875V13.048a1.881,1.881,0,0,0-1.875-1.875Z" fill="#ffe177" fill-rule="evenodd"/>
            <path id="Path_1262878" data-name="Path 1262878" d="M50.367,11.173A1.881,1.881,0,0,0,52.242,9.3V7.922a1.881,1.881,0,0,0-1.875-1.875H48.851a1.881,1.881,0,0,1,1.875,1.875V9.3a1.88,1.88,0,0,1-1.875,1.875,1.881,1.881,0,0,1,1.875,1.875v1.377A1.88,1.88,0,0,1,48.851,16.3a1.881,1.881,0,0,1,1.875,1.875v1.377a1.88,1.88,0,0,1-1.875,1.875A1.881,1.881,0,0,1,50.726,23.3v1.377a1.88,1.88,0,0,1-1.875,1.875h1.516a1.881,1.881,0,0,0,1.875-1.875V23.3a1.881,1.881,0,0,0-1.875-1.875,1.881,1.881,0,0,0,1.875-1.875V18.175A1.881,1.881,0,0,0,50.367,16.3a1.881,1.881,0,0,0,1.875-1.875V13.048a1.881,1.881,0,0,0-1.875-1.875Z" fill="#ffd064" fill-rule="evenodd"/>
            <path id="Path_1262879" data-name="Path 1262879" d="M50.367,21.427H38.581A1.881,1.881,0,0,0,36.706,23.3v1.377a1.88,1.88,0,0,0,1.875,1.875H50.367a1.881,1.881,0,0,0,1.875-1.875V23.3a1.881,1.881,0,0,0-1.875-1.875Zm0-10.253H38.581a1.881,1.881,0,0,0-1.875,1.875v1.377A1.88,1.88,0,0,0,38.581,16.3H50.367a1.881,1.881,0,0,0,1.875-1.875V13.049a1.881,1.881,0,0,0-1.875-1.875Z" fill="#ffd064" fill-rule="evenodd"/>
            <path id="Path_1262880" data-name="Path 1262880" d="M50.367,21.427H48.851A1.881,1.881,0,0,1,50.726,23.3v1.377a1.88,1.88,0,0,1-1.875,1.875h1.516a1.881,1.881,0,0,0,1.875-1.875V23.3A1.881,1.881,0,0,0,50.367,21.427Zm0-10.253H48.854a1.881,1.881,0,0,1,1.873,1.875v1.377A1.88,1.88,0,0,1,48.851,16.3h1.516a1.881,1.881,0,0,0,1.875-1.875V13.049A1.881,1.881,0,0,0,50.367,11.174Z" fill="#ffc338" fill-rule="evenodd"/>
          </g>
          <g id="Group_1206819" data-name="Group 1206819">
            <circle id="Ellipse_12729" data-name="Ellipse 12729" cx="7.745" cy="7.745" r="7.745" transform="translate(30.124 1.834)" fill="#ffc338"/>
            <path id="Path_1262881" data-name="Path 1262881" d="M37.87,1.834a7.745,7.745,0,0,1,0,15.491c-.223,0-.444-.01-.663-.029a7.745,7.745,0,0,0,0-15.434c.219-.019.44-.029.663-.029Z" fill="#f5b829" fill-rule="evenodd"/>
          </g>
          <g id="Group_1206821" data-name="Group 1206821">
            <path id="Path_1262882" data-name="Path 1262882" d="M7.927,30.253q.016-16.151,0-16.125H2.56a.849.849,0,0,0-.847.847v14.43a.849.849,0,0,0,.847.847H7.927Z" fill="#d1d1d6" fill-rule="evenodd"/>
            <path id="Path_1262883" data-name="Path 1262883" d="M1.713,14.976a.849.849,0,0,1,.847-.847H7.933V30.253H7.085V14.976Z" fill="#b1b1b5" fill-rule="evenodd"/>
            <path id="Path_1262884" data-name="Path 1262884" d="M21.316,12.511c-6.25-1.076-9.883-1.862-13.516,1.617V30.253c2.864,2.151,6.645,3.994,6.645,8.062v4.9a5.888,5.888,0,0,0,5.871-5.871v-3.8a5.649,5.649,0,0,0-1.628-2.989C27.78,28.216,23.91,12.4,21.316,12.511Z" fill="#f6dccd" fill-rule="evenodd"/>
            <path id="Path_1262885" data-name="Path 1262885" d="M9.226,12.977A10.221,10.221,0,0,0,7.8,14.128V30.253c2.864,2.151,6.645,3.994,6.645,8.062v4.9a5.852,5.852,0,0,0,4.1-1.681,5.824,5.824,0,0,1-3.005.833v-4.9c0-4.068-3.782-5.911-6.645-8.062V13.281q.165-.158.33-.3Z" fill="#f1cbbc" fill-rule="evenodd"/>
            <path id="Path_1262886" data-name="Path 1262886" d="M22.027,12.4h3.766a2.333,2.333,0,1,1,0,4.666h1.391a2.333,2.333,0,0,1,0,4.666h1.637a2.333,2.333,0,1,1,0,4.666h-.983a2.333,2.333,0,0,1,0,4.666H22.027a2.333,2.333,0,0,1,0-4.666h-.983a2.333,2.333,0,1,1,0-4.666h.983a2.333,2.333,0,1,1,0-4.666,2.333,2.333,0,1,1,0-4.666Z" fill="#f6dccd" fill-rule="evenodd"/>
            <g id="Group_1206820" data-name="Group 1206820">
              <path id="Path_1262887" data-name="Path 1262887" d="M22.027,12.4h3.766a2.339,2.339,0,0,1,2.333,2.333H19.694A2.34,2.34,0,0,1,22.027,12.4Z" fill="#f1cbbc" fill-rule="evenodd"/>
              <path id="Path_1262888" data-name="Path 1262888" d="M25.793,17.065h1.391A2.34,2.34,0,0,1,29.517,19.4H19.694a2.34,2.34,0,0,1,2.333-2.333Z" fill="#f1cbbc" fill-rule="evenodd"/>
              <path id="Path_1262889" data-name="Path 1262889" d="M27.184,21.731h1.637a2.34,2.34,0,0,1,2.333,2.333H18.711a2.34,2.34,0,0,1,2.333-2.333h6.14Z" fill="#f1cbbc" fill-rule="evenodd"/>
              <path id="Path_1262890" data-name="Path 1262890" d="M27.839,26.4a2.34,2.34,0,0,1,2.333,2.333H19.694A2.34,2.34,0,0,1,22.027,26.4Z" fill="#f1cbbc" fill-rule="evenodd"/>
            </g>
          </g>
          <g id="Group_1206822" data-name="Group 1206822">
            <path id="Path_1262891" data-name="Path 1262891" d="M44.155,51.972l-5.771-6.8a.419.419,0,0,1,.32-.691h2.688V31.615a.842.842,0,0,1,.838-.838h4.49a.841.841,0,0,1,.838.838V44.484h2.688a.419.419,0,0,1,.32.691l-5.771,6.8a.419.419,0,0,1-.639,0Z" fill="#fe646f" fill-rule="evenodd"/>
            <path id="Path_1262892" data-name="Path 1262892" d="M44.155,51.972l-.207-.244,5.564-6.553a.419.419,0,0,0-.32-.691h1.054a.419.419,0,0,1,.32.691l-5.771,6.8A.419.419,0,0,1,44.155,51.972Zm1.511-21.2a.841.841,0,0,1,.838.838V44.484h1.054V31.615a.841.841,0,0,0-.838-.838Z" fill="#fd4755" fill-rule="evenodd"/>
          </g>
        </g>
        <path id="Path_1262893" data-name="Path 1262893" d="M44.5,51.06l-4.856-5.719h1.772a.843.843,0,0,0,.843-.843l0-12.865,4.485,0V44.5a.843.843,0,0,0,.843.843h1.772Zm.323.38h0Zm5.448-7.785H48.421V31.63a1.684,1.684,0,0,0-1.681-1.683H42.25a1.684,1.684,0,0,0-1.681,1.683V43.655H38.723a1.262,1.262,0,0,0-.962,2.079l5.771,6.8a1.259,1.259,0,0,0,.962.446h0a1.259,1.259,0,0,0,.962-.446l5.771-6.8a1.262,1.262,0,0,0-.962-2.079ZM37.89,15.355a.843.843,0,0,1-.843-.843v-.346a3.136,3.136,0,0,1-2.469-2.279.843.843,0,0,1,1.636-.408,1.651,1.651,0,0,0,1.757,1.09,2.044,2.044,0,0,0,1.415-.513.645.645,0,0,0,.147-.542c-.048-.393-.292-.874-1.773-1.118-2.351-.386-2.9-1.621-2.947-2.591a2.736,2.736,0,0,1,2.234-2.771V4.674a.843.843,0,1,1,1.686,0v.354a3.125,3.125,0,0,1,2.223,1.878.843.843,0,1,1-1.555.653,1.613,1.613,0,0,0-1.914-.895c-.172.039-1.028.274-.99,1.061.01.209.037.763,1.536,1.009,1.937.318,3,1.185,3.173,2.578a2.32,2.32,0,0,1-.546,1.847,3.35,3.35,0,0,1-1.928,1.021v.332a.842.842,0,0,1-.843.843Zm13.535,4.213A1.034,1.034,0,0,1,50.392,20.6H38.6a1.034,1.034,0,0,1-1.033-1.033V18.2c.108,0,.217.009.326.009a8.561,8.561,0,0,0,4.124-1.053h8.378a1.034,1.034,0,0,1,1.033,1.033Zm0,5.13a1.034,1.034,0,0,1-1.033,1.034H38.6A1.035,1.035,0,0,1,37.564,24.7V23.321A1.035,1.035,0,0,1,38.6,22.287H50.392a1.035,1.035,0,0,1,1.033,1.034ZM30.96,9.593a6.931,6.931,0,1,0,6.931-6.93A6.938,6.938,0,0,0,30.96,9.593Zm13.223,5.878a8.617,8.617,0,0,0,1.972-3.445h4.237a1.035,1.035,0,0,1,1.033,1.034v1.377a1.035,1.035,0,0,1-1.033,1.034ZM50.392,6.9a1.034,1.034,0,0,1,1.033,1.033V9.307A1.034,1.034,0,0,1,50.4,10.34H46.473c.021-.247.034-.5.034-.747a8.575,8.575,0,0,0-.435-2.7Zm2.72,11.294a2.71,2.71,0,0,0-.753-1.876,2.711,2.711,0,0,0,.753-1.876V13.06a2.712,2.712,0,0,0-.753-1.877,2.709,2.709,0,0,0,.753-1.876V7.929a2.722,2.722,0,0,0-2.72-2.719H45.3a8.615,8.615,0,1,0-9.416,12.762c-.006.073-.01.144-.01.217v1.378a2.707,2.707,0,0,0,.753,1.876,2.71,2.71,0,0,0-.753,1.877V24.7a2.723,2.723,0,0,0,2.719,2.72H50.392a2.723,2.723,0,0,0,2.72-2.72V23.321a2.71,2.71,0,0,0-.753-1.877,2.707,2.707,0,0,0,.753-1.876Zm-24.23,7.375h-7.8a1.5,1.5,0,0,1,0-2.995h7.8a1.5,1.5,0,0,1,0,2.995Zm-.986,4.68h-5.83a1.5,1.5,0,1,1,0-2.994H27.9a1.5,1.5,0,1,1,0,2.994Zm-8.389,7.142V33.639a4.888,4.888,0,0,0-1.387-2.465.843.843,0,0,1-.1-1.073,3.754,3.754,0,0,0,.751-3.032c-.425-1.86-2.49-3.221-3.357-3.719a.843.843,0,1,1,.84-1.462,12.082,12.082,0,0,1,1.784,1.245,3.2,3.2,0,0,1,1.48-1.84,3.177,3.177,0,0,1,.393-4.248l-.094-.091a3.173,3.173,0,0,1-.432-3.962c-4.839-.825-7.726-1.121-10.617,1.471,0,.163,0,.377,0,.646q0,1.013,0,3.035,0,3.937-.007,11.707c.322.235.653.468,1,.711,2.6,1.831,5.54,3.906,5.54,7.8v4a5.055,5.055,0,0,0,4.2-4.976ZM2.529,14.942H7.084c0,1.5,0,5.413,0,14.491H2.529V14.942Zm23.315-1.734a1.5,1.5,0,1,1,0,2.994h0l-3,0-.778,0h0a1.5,1.5,0,0,1,0-2.994Zm2.893,6.177a1.5,1.5,0,0,1-1.5,1.5H22.066a1.5,1.5,0,1,1,0-2.994l.779,0,3,0h1.4A1.5,1.5,0,0,1,28.737,19.386Zm1.206,1.68a3.183,3.183,0,0,1,.5,5.775,3.181,3.181,0,0,1-2.547,5.09h-5.83a3.152,3.152,0,0,1-1.592-.428,5.691,5.691,0,0,1,.712,1.958.858.858,0,0,1,.008.116v3.809a6.74,6.74,0,0,1-6.733,6.731.843.843,0,0,1-.843-.843V38.364c0-3.02-2.344-4.672-4.825-6.422-.38-.267-.769-.544-1.149-.823H1.686a.843.843,0,0,1-.843-.843V14.1a.843.843,0,0,1,.843-.843h5.9c3.718-3.375,7.492-2.722,13.14-1.742l.578.1a3.19,3.19,0,0,1,.758-.091h3.778A3.182,3.182,0,0,1,28.5,16.462a3.183,3.183,0,0,1,1.446,4.6Z" fill="#242222" fill-rule="evenodd"/>
      </g>
    </g>
  </g>
</svg>
