<svg xmlns="http://www.w3.org/2000/svg" xmlns:xlink="http://www.w3.org/1999/xlink" width="98" height="97.998" viewBox="0 0 98 97.998">
  <defs>
    <clipPath id="clip-path">
      <rect id="Rectangle_411080" data-name="Rectangle 411080" width="55" height="52" transform="translate(825.051 2027)" fill="#fff"/>
    </clipPath>
  </defs>
  <g id="Group_1204451" data-name="Group 1204451" transform="translate(-803.781 -2003.55)">
    <g id="Group_1204447" data-name="Group 1204447" transform="translate(0 -541.412)">
      <g id="Group_1204142" data-name="Group 1204142" transform="translate(-67.331 2267.798)">
        <g id="Group_1188789" data-name="Group 1188789" transform="translate(871.113 277.164)">
          <path id="Path_1243039" data-name="Path 1243039" d="M41.05,0h0a41.05,41.05,0,0,1,0,82.1h0a41.05,41.05,0,0,1,0-82.1Z" transform="translate(7.951 7.949)" fill="#ffa724"/>
          <rect id="Rectangle_400907" data-name="Rectangle 400907" width="88.438" height="88.437" rx="44.218" transform="translate(4.782 4.781)" fill="none"/>
          <g id="Group_1098742" data-name="Group 1098742" transform="translate(0)">
            <g id="Rectangle_400898" data-name="Rectangle 400898" transform="translate(0)" fill="none" stroke="#fff" stroke-width="2" opacity="0.859">
              <rect width="98" height="97.999" rx="48.999" stroke="none"/>
              <rect x="1" y="1" width="96" height="95.999" rx="47.999" fill="none"/>
            </g>
            <g id="Rectangle_400907-2" data-name="Rectangle 400907" transform="translate(0)" fill="none" stroke="#0f1f33" stroke-linecap="round" stroke-width="2">
              <rect width="98" height="97.999" rx="48.999" stroke="none"/>
              <rect x="1" y="1" width="96" height="95.999" rx="47.999" fill="none"/>
            </g>
          </g>
        </g>
      </g>
    </g>
    <g id="Mask_Group_1099556" data-name="Mask Group 1099556" clip-path="url(#clip-path)">
      <g id="positive-feedback_12056036" transform="translate(826.551 2027)">
        <g id="Group_1206688" data-name="Group 1206688">
          <g id="Group_1206687" data-name="Group 1206687">
            <g id="Group_1206681" data-name="Group 1206681">
              <path id="Path_1262433" data-name="Path 1262433" d="M49.295,1.035,47.129.762H15.738A1.618,1.618,0,0,0,14.12,2.38V27.826a1.617,1.617,0,0,0,1.617,1.617H40.261a.809.809,0,0,1,.522.191l3.783,3.192.6.353a.847.847,0,0,0,1.08-.165.446.446,0,0,0,.118-.28V29.979a.809.809,0,0,1,.809-.809h2.126a1.618,1.618,0,0,0,1.618-1.618V2.652A1.618,1.618,0,0,0,49.295,1.035Z" fill="#7bacdf"/>
              <path id="Path_1262434" data-name="Path 1262434" d="M49.568.762H46.992A1.618,1.618,0,0,1,48.61,2.379V26.2a1.617,1.617,0,0,1-1.617,1.6H45.375a.809.809,0,0,0-.809.809v4.214l.872.736a.727.727,0,0,0,.469.171h0a.726.726,0,0,0,.727-.726V30.252a.809.809,0,0,1,.809-.809h2.126a1.618,1.618,0,0,0,1.618-1.617V2.379A1.618,1.618,0,0,0,49.568.762Z" fill="#5f99d7"/>
            </g>
            <g id="Group_1206682" data-name="Group 1206682">
              <path id="Path_1262435" data-name="Path 1262435" d="M40.721,14.8h2.993a.2.2,0,0,0,.2-.2V4.464a.2.2,0,0,0-.2-.2H40.721a.2.2,0,0,0-.2.2V14.6A.2.2,0,0,0,40.721,14.8Z" fill="#eaf6ff"/>
              <path id="Path_1262436" data-name="Path 1262436" d="M27.968,14.8h2.993a.2.2,0,0,0,.2-.2V8.712a.2.2,0,0,0-.2-.2H27.968a.2.2,0,0,0-.2.2V14.6A.2.2,0,0,0,27.968,14.8Z" fill="#eaf6ff"/>
              <path id="Path_1262437" data-name="Path 1262437" d="M21.592,14.8h2.993a.2.2,0,0,0,.2-.2V10.835a.2.2,0,0,0-.2-.2H21.592a.2.2,0,0,0-.2.2V14.6A.2.2,0,0,0,21.592,14.8Z" fill="#eaf6ff"/>
              <path id="Path_1262438" data-name="Path 1262438" d="M34.344,14.8h2.993a.2.2,0,0,0,.2-.2V6.588a.2.2,0,0,0-.2-.2H34.344a.2.2,0,0,0-.2.2V14.6A.2.2,0,0,0,34.344,14.8Z" fill="#eaf6ff"/>
            </g>
            <g id="Group_1206683" data-name="Group 1206683">
              <path id="Path_1262439" data-name="Path 1262439" d="M35.726,18.49l-1.853-.306H2.421A1.71,1.71,0,0,0,.71,19.894v25.1A1.711,1.711,0,0,0,2.421,46.7H4.132a.855.855,0,0,1,.855.855V50.47a.768.768,0,0,0,.768.768h0a.769.769,0,0,0,.5-.181L11.173,46.9a.856.856,0,0,1,.552-.2H33.92l1.969-.131a1.71,1.71,0,0,0,1.711-1.71L37.437,20.2A1.71,1.71,0,0,0,35.726,18.49Z" fill="#ffe177"/>
              <path id="Path_1262440" data-name="Path 1262440" d="M37.8,19.894v25.1a1.711,1.711,0,0,1-1.71,1.71H33.652a1.711,1.711,0,0,0,1.71-1.71v-25.1a1.711,1.711,0,0,0-1.71-1.71h2.437A1.711,1.711,0,0,1,37.8,19.894Z" fill="#ffd15b"/>
            </g>
            <g id="Group_1206686" data-name="Group 1206686">
              <g id="Group_1206684" data-name="Group 1206684">
                <path id="Path_1262441" data-name="Path 1262441" d="M28.271,30.778a2.335,2.335,0,0,0-.612-.875,1.645,1.645,0,0,0-1.167-.483l-4.917.02a1.693,1.693,0,0,1-1.615-1.827,1.51,1.51,0,0,1,.026-.285l.467-2.5c0-.005,0-.011,0-.016a2.36,2.36,0,0,0-1.994-2.755,1.227,1.227,0,0,0-.148-.01,1.06,1.06,0,0,0-1,.715l-1.342,3.886a7.144,7.144,0,0,1-3.153,4.014l-.947,4.7.947,4.358c0,1.139,1.012,2.077,3.438,2.2l7.3.013h2.089A1.469,1.469,0,0,0,27.1,40.687c.01-.071-.108-.117-.108-.191a1.457,1.457,0,0,0-.487-1.013c-.265-.266-.453-.483-.858-.483h.977a1.649,1.649,0,0,0,1.65-1.612c0-.012-.087-.069-.087-.081a1.6,1.6,0,0,0-.64-1.072c-.3-.3-.467-.533-.923-.533h.432A1.649,1.649,0,0,0,28.7,34.089s-.089-.033-.089-.046a1.317,1.317,0,0,0-.48-1.018,1.645,1.645,0,0,0-1.166-.483l-.345-.139A1.63,1.63,0,0,0,28.271,30.778Z" fill="#c59191"/>
              </g>
              <path id="Path_1262442" data-name="Path 1262442" d="M9.032,30.257A1.153,1.153,0,0,1,10.185,29.1h.74l.431.189a1.153,1.153,0,0,1,1.153,1.152L12.572,40.6a1.153,1.153,0,0,1-1.153,1.152l-.494.192h-.74a1.153,1.153,0,0,1-1.153-1.152Z" fill="#7bacdf"/>
              <path id="Path_1262443" data-name="Path 1262443" d="M12.818,40.787V30.257A1.153,1.153,0,0,0,11.664,29.1h-.739V41.939h.739A1.153,1.153,0,0,0,12.818,40.787Z" fill="#5f99d7"/>
              <g id="Group_1206685" data-name="Group 1206685">
                <path id="Path_1262444" data-name="Path 1262444" d="M27.053,32.4H24.4a.843.843,0,0,0-.843.843h0a.843.843,0,0,0,.843.843H28.7A1.649,1.649,0,0,0,27.053,32.4Z" fill="#b98080"/>
                <path id="Path_1262445" data-name="Path 1262445" d="M26.621,35.7H24.4a.843.843,0,0,0-.843.843h0a.843.843,0,0,0,.843.843h3.876a1.65,1.65,0,0,0-1.65-1.686Z" fill="#b98080"/>
                <path id="Path_1262446" data-name="Path 1262446" d="M28.27,30.779h0a1.65,1.65,0,0,0-1.65-1.673H21.463a1.5,1.5,0,0,1-1.5-1.594l-.052.425a2.535,2.535,0,0,0,2.517,2.843Z" fill="#b98080"/>
                <path id="Path_1262447" data-name="Path 1262447" d="M25.644,39H24.4a.843.843,0,0,0-.843.843h0a.843.843,0,0,0,.843.843h2.7a1.39,1.39,0,0,0,.016-.216A1.47,1.47,0,0,0,25.644,39Z" fill="#b98080"/>
              </g>
            </g>
          </g>
        </g>
        <g id="Group_1206692" data-name="Group 1206692">
          <g id="Group_1206689" data-name="Group 1206689">
            <path id="Path_1262448" data-name="Path 1262448" d="M51.238,22.761v4.7a1.715,1.715,0,0,1-1.714,1.714H47.81a.858.858,0,0,0-.858.857v2.921a.77.77,0,0,1-1.266.588l-4.932-4.164a.86.86,0,0,0-.554-.2H37.965" fill="none" stroke="#000" stroke-linecap="round" stroke-linejoin="round" stroke-miterlimit="10" stroke-width="1.523"/>
            <path id="Path_1262449" data-name="Path 1262449" d="M14.173,18.017V2.476A1.715,1.715,0,0,1,15.887.762h4.84" fill="none" stroke="#000" stroke-linecap="round" stroke-linejoin="round" stroke-miterlimit="10" stroke-width="1.523"/>
            <path id="Path_1262450" data-name="Path 1262450" d="M24.283.762H49.524a1.715,1.715,0,0,1,1.714,1.714v16.73" fill="none" stroke="#000" stroke-linecap="round" stroke-linejoin="round" stroke-miterlimit="10" stroke-width="1.523"/>
          </g>
          <rect id="Rectangle_412797" data-name="Rectangle 412797" width="3.4" height="10.548" transform="translate(43.97 14.784) rotate(180)" fill="none" stroke="#000" stroke-linecap="round" stroke-linejoin="round" stroke-miterlimit="10" stroke-width="1.523"/>
          <rect id="Rectangle_412798" data-name="Rectangle 412798" width="3.4" height="6.299" transform="translate(31.217 14.784) rotate(180)" fill="none" stroke="#000" stroke-linecap="round" stroke-linejoin="round" stroke-miterlimit="10" stroke-width="1.523"/>
          <rect id="Rectangle_412799" data-name="Rectangle 412799" width="3.4" height="4.174" transform="translate(24.841 14.784) rotate(180)" fill="none" stroke="#000" stroke-linecap="round" stroke-linejoin="round" stroke-miterlimit="10" stroke-width="1.523"/>
          <rect id="Rectangle_412800" data-name="Rectangle 412800" width="3.4" height="8.423" transform="translate(37.593 14.784) rotate(180)" fill="none" stroke="#000" stroke-linecap="round" stroke-linejoin="round" stroke-miterlimit="10" stroke-width="1.523"/>
          <g id="Group_1206690" data-name="Group 1206690">
            <path id="Path_1262451" data-name="Path 1262451" d="M37.827,40.879v4.1a1.715,1.715,0,0,1-1.714,1.715H11.8a.854.854,0,0,0-.552.2L6.314,51.056a.77.77,0,0,1-1.266-.588v-2.92a.857.857,0,0,0-.857-.857H2.476A1.715,1.715,0,0,1,.762,44.976V19.991a1.715,1.715,0,0,1,1.714-1.714H6.188" fill="none" stroke="#000" stroke-linecap="round" stroke-linejoin="round" stroke-miterlimit="10" stroke-width="1.523"/>
            <path id="Path_1262452" data-name="Path 1262452" d="M9.743,18.276h26.37a1.715,1.715,0,0,1,1.714,1.714V37.324" fill="none" stroke="#000" stroke-linecap="round" stroke-linejoin="round" stroke-miterlimit="10" stroke-width="1.523"/>
          </g>
          <g id="Group_1206691" data-name="Group 1206691">
            <path id="Path_1262453" data-name="Path 1262453" d="M26.673,32.394a1.651,1.651,0,1,0,0-3.3H21.515a1.5,1.5,0,0,1-1.476-1.777l.467-2.5,0-.017a2.361,2.361,0,0,0-1.994-2.756,1.142,1.142,0,0,0-.148-.01,1.06,1.06,0,0,0-1,.714l-1.341,3.888a7.255,7.255,0,0,1-3.006,3.935" fill="none" stroke="#000" stroke-linecap="round" stroke-linejoin="round" stroke-miterlimit="10" stroke-width="1.523"/>
            <path id="Path_1262454" data-name="Path 1262454" d="M24.412,32.394H27.1a1.65,1.65,0,0,1,0,3.3h-.432" fill="none" stroke="#000" stroke-linecap="round" stroke-linejoin="round" stroke-miterlimit="10" stroke-width="1.523"/>
            <path id="Path_1262455" data-name="Path 1262455" d="M24.412,35.694h2.261a1.65,1.65,0,1,1,0,3.3H25.7" fill="none" stroke="#000" stroke-linecap="round" stroke-linejoin="round" stroke-miterlimit="10" stroke-width="1.523"/>
            <path id="Path_1262456" data-name="Path 1262456" d="M24.412,38.994H25.7a1.47,1.47,0,0,1,0,2.941H23.608l-7.3-.014c-2.426-.126-3.438-1.064-3.438-2.2" fill="none" stroke="#000" stroke-linecap="round" stroke-linejoin="round" stroke-miterlimit="10" stroke-width="1.523"/>
            <path id="Path_1262457" data-name="Path 1262457" d="M9.084,30.246a1.153,1.153,0,0,1,1.153-1.153h1.48a1.153,1.153,0,0,1,1.153,1.153V40.782a1.153,1.153,0,0,1-1.153,1.153h-1.48a1.153,1.153,0,0,1-1.153-1.153Z" fill="none" stroke="#000" stroke-linecap="round" stroke-linejoin="round" stroke-miterlimit="10" stroke-width="1.523"/>
          </g>
          <line id="Line_4609" data-name="Line 4609" x2="6.19" transform="translate(37.928 20.774)" fill="none" stroke="#000" stroke-linecap="round" stroke-linejoin="round" stroke-miterlimit="10" stroke-width="1.523"/>
          <line id="Line_4610" data-name="Line 4610" x2="6.19" transform="translate(37.928 24.836)" fill="none" stroke="#000" stroke-linecap="round" stroke-linejoin="round" stroke-miterlimit="10" stroke-width="1.523"/>
        </g>
      </g>
    </g>
  </g>
</svg>
