<svg xmlns="http://www.w3.org/2000/svg" xmlns:xlink="http://www.w3.org/1999/xlink" width="98" height="97.999" viewBox="0 0 98 97.999">
  <defs>
    <clipPath id="clip-path">
      <rect id="Rectangle_411080" data-name="Rectangle 411080" width="55" height="52" transform="translate(825.051 2027)" fill="#fff"/>
    </clipPath>
  </defs>
  <g id="Group_1206333" data-name="Group 1206333" transform="translate(-803.781 -2003.55)">
    <g id="Group_1204447" data-name="Group 1204447" transform="translate(0 -541.412)">
      <g id="Group_1204142" data-name="Group 1204142" transform="translate(-67.331 2267.798)">
        <g id="Group_1188789" data-name="Group 1188789" transform="translate(871.113 277.164)">
          <path id="Path_1243039" data-name="Path 1243039" d="M41.05,0h0a41.05,41.05,0,0,1,0,82.1h0a41.05,41.05,0,0,1,0-82.1Z" transform="translate(7.951 7.949)" fill="#ffa724"/>
          <rect id="Rectangle_400907" data-name="Rectangle 400907" width="88.438" height="88.437" rx="44.218" transform="translate(4.782 4.781)" fill="none"/>
          <g id="Group_1098742" data-name="Group 1098742" transform="translate(0)">
            <g id="Rectangle_400898" data-name="Rectangle 400898" transform="translate(0)" fill="none" stroke="#fff" stroke-width="2" opacity="0.859">
              <rect width="98" height="97.999" rx="48.999" stroke="none"/>
              <rect x="1" y="1" width="96" height="95.999" rx="47.999" fill="none"/>
            </g>
            <g id="Rectangle_400907-2" data-name="Rectangle 400907" transform="translate(0)" fill="none" stroke="#0f1f33" stroke-linecap="round" stroke-width="2">
              <rect width="98" height="97.999" rx="48.999" stroke="none"/>
              <rect x="1" y="1" width="96" height="95.999" rx="47.999" fill="none"/>
            </g>
          </g>
        </g>
      </g>
    </g>
    <g id="Mask_Group_1099580" data-name="Mask Group 1099580" clip-path="url(#clip-path)">
      <g id="competitive_12140317" transform="translate(826.138 2026.588)">
        <path id="Path_1262894" data-name="Path 1262894" d="M43.239,11.325h4.524V26.054l-2.052.192c-2.773.217-6.271.757-8.978.264-2.009-.366-2.525-.967-5.4-.967l-1.134,0V12.6c7.655-.5,9.158-3.831,8.589-10.585a.786.786,0,0,1,.695-.846c5.136-.577,4.073,7.7,3.756,10.159Z" fill="#ffcec0" fill-rule="evenodd"/>
        <path id="Path_1262895" data-name="Path 1262895" d="M30.2,13.966V12.6c7.655-.5,9.158-3.831,8.589-10.585a.786.786,0,0,1,.695-.846,3.786,3.786,0,0,1,1.23.047.786.786,0,0,0-.5.8c.371,4.406.8,11.75-10.013,11.953Z" fill="#ffc0b1" fill-rule="evenodd"/>
        <path id="Path_1262896" data-name="Path 1262896" d="M47.763,11.325c-.053,1.54-.413,4.436-4.233,4.472a6.224,6.224,0,0,1-3.6,3.034c-1.185.317-1.6-1.124-.622-1.448a4.869,4.869,0,0,0,2.817-2.374,8.373,8.373,0,0,0,1.125-3.683h4.514Z" fill="#fdb0a0" fill-rule="evenodd"/>
        <rect id="Rectangle_412810" data-name="Rectangle 412810" width="7.608" height="3.82" rx="1.91" transform="translate(43.568 11.325)" fill="#fdb0a0"/>
        <path id="Path_1262897" data-name="Path 1262897" d="M45.478,11.325h3.788a1.915,1.915,0,0,1,1.91,1.91H43.568a1.915,1.915,0,0,1,1.91-1.91Z" fill="#ffcec0" fill-rule="evenodd"/>
        <path id="Path_1262898" data-name="Path 1262898" d="M29.453,26.581h1.561a1.064,1.064,0,0,0,1.061-1.061v-12.9a1.064,1.064,0,0,0-1.061-1.061H27.892a1.064,1.064,0,0,0-1.061,1.061v12.9a1.064,1.064,0,0,0,1.061,1.061Z" fill="#4eb1fc" fill-rule="evenodd"/>
        <path id="Path_1262899" data-name="Path 1262899" d="M27.892,11.556h.91a1.061,1.061,0,0,1,1.061,1.061v12.9A1.061,1.061,0,0,1,28.8,26.581h-.91a1.061,1.061,0,0,1-1.061-1.061v-12.9a1.061,1.061,0,0,1,1.061-1.061Z" fill="#85caff"/>
        <g id="Group_1206824" data-name="Group 1206824">
          <path id="Path_1262900" data-name="Path 1262900" d="M44.737,15.145h5.05a1.91,1.91,0,1,1,0,3.82h-5.05a1.91,1.91,0,1,1,0-3.82Z" fill="#fdb0a0" fill-rule="evenodd"/>
          <path id="Path_1262901" data-name="Path 1262901" d="M44.737,15.145h5.05a1.915,1.915,0,0,1,1.91,1.91H42.827a1.915,1.915,0,0,1,1.91-1.91Z" fill="#ffcec0" fill-rule="evenodd"/>
          <path id="Path_1262902" data-name="Path 1262902" d="M44.889,18.965h4.35a1.91,1.91,0,0,1,0,3.82h-4.35a1.91,1.91,0,1,1,0-3.82Z" fill="#fdb0a0" fill-rule="evenodd"/>
          <path id="Path_1262903" data-name="Path 1262903" d="M44.889,18.965h4.35a1.915,1.915,0,0,1,1.91,1.91H42.979a1.915,1.915,0,0,1,1.91-1.91Z" fill="#ffcec0" fill-rule="evenodd"/>
          <path id="Path_1262904" data-name="Path 1262904" d="M45.711,22.784H48.4a1.731,1.731,0,1,1,0,3.462h-2.69a1.731,1.731,0,1,1,0-3.462Z" fill="#fdb0a0" fill-rule="evenodd"/>
          <path id="Path_1262905" data-name="Path 1262905" d="M45.711,22.784H48.4a1.736,1.736,0,0,1,1.731,1.731H43.98a1.736,1.736,0,0,1,1.731-1.731Z" fill="#ffcec0" fill-rule="evenodd"/>
          <path id="Path_1262906" data-name="Path 1262906" d="M7.6,40.3V51.1a.6.6,0,0,1-.6.6H3.835a.6.6,0,0,1-.6-.6V40.3H1.623a.486.486,0,0,1-.361-.81l3.792-4.215a.486.486,0,0,1,.722,0l3.792,4.215a.486.486,0,0,1-.361.81Z" fill="#2dd62d" fill-rule="evenodd"/>
          <path id="Path_1262907" data-name="Path 1262907" d="M5.447,51.7H3.835a.6.6,0,0,1-.6-.6V40.3H1.623a.486.486,0,0,1-.361-.81l3.379-3.756L8.02,39.491a.486.486,0,0,1-.361.81H6.048V51.1a.6.6,0,0,1-.6.6Z" fill="#43f043" fill-rule="evenodd"/>
          <path id="Path_1262908" data-name="Path 1262908" d="M37.009,40.3V51.1a.6.6,0,0,1-.6.6h-3.16a.6.6,0,0,1-.6-.6V40.3H31.036a.486.486,0,0,1-.361-.81l3.792-4.215a.486.486,0,0,1,.722,0l3.792,4.215a.486.486,0,0,1-.361.81H37.009Z" fill="#2dd62d" fill-rule="evenodd"/>
          <path id="Path_1262909" data-name="Path 1262909" d="M34.861,51.7H33.248a.6.6,0,0,1-.6-.6V40.3H31.036a.486.486,0,0,1-.361-.81l3.379-3.756,3.379,3.756a.486.486,0,0,1-.361.81H35.461V51.1a.6.6,0,0,1-.6.6Z" fill="#43f043" fill-rule="evenodd"/>
        </g>
        <rect id="Rectangle_412811" data-name="Rectangle 412811" width="15.992" height="4.491" rx="1.679" transform="translate(12.222 47.156)" fill="#f19a00"/>
        <path id="Path_1262910" data-name="Path 1262910" d="M13.9,47.156H25.272a1.074,1.074,0,0,1,1.072,1.072v1.15a1.074,1.074,0,0,1-1.072,1.072H13.294a1.074,1.074,0,0,1-1.072-1.072v-.543A1.684,1.684,0,0,1,13.9,47.156Z" fill="#f9ac00" fill-rule="evenodd"/>
        <rect id="Rectangle_412812" data-name="Rectangle 412812" width="15.992" height="4.491" rx="1.679" transform="translate(12.222 42.664)" fill="#fdc72e"/>
        <circle id="Ellipse_12730" data-name="Ellipse 12730" cx="7.983" cy="7.983" r="7.983" transform="translate(11.787 37.544) rotate(-86.846)" fill="#f9ac00"/>
        <path id="Path_1262911" data-name="Path 1262911" d="M19.968,37.994a7.987,7.987,0,0,1,0-15.966,7.987,7.987,0,0,1,0,15.966Z" fill="#fcdb35" fill-rule="evenodd"/>
        <circle id="Ellipse_12731" data-name="Ellipse 12731" cx="5.825" cy="5.825" r="5.825" transform="matrix(1, -0.025, 0.025, 1, 14.257, 24.343)" fill="#f19a00"/>
        <path id="Path_1262912" data-name="Path 1262912" d="M20.546,24.2a5.823,5.823,0,0,1,0,11.627,5.823,5.823,0,0,1,0-11.627Z" fill="#f9ac00" fill-rule="evenodd"/>
        <rect id="Rectangle_412813" data-name="Rectangle 412813" width="15.992" height="4.491" rx="1.679" transform="translate(12.222 38.173)" fill="#f19a00"/>
        <path id="Path_1262913" data-name="Path 1262913" d="M13.9,42.664H25.272a1.074,1.074,0,0,1,1.072,1.072v1.15a1.074,1.074,0,0,1-1.072,1.072H13.294a1.074,1.074,0,0,1-1.072-1.072v-.543A1.684,1.684,0,0,1,13.9,42.664Z" fill="#fcdb35" fill-rule="evenodd"/>
        <path id="Path_1262914" data-name="Path 1262914" d="M13.9,38.173H25.272a1.074,1.074,0,0,1,1.072,1.072v1.15a1.074,1.074,0,0,1-1.072,1.072H13.294a1.074,1.074,0,0,1-1.072-1.072v-.543A1.683,1.683,0,0,1,13.9,38.173Z" fill="#f9ac00" fill-rule="evenodd"/>
        <path id="Path_1262915" data-name="Path 1262915" d="M37.009,39.571a.722.722,0,0,0-.722.722V50.968H33.37V40.293a.722.722,0,0,0-.722-.722h-1.08l3.26-3.624,3.261,3.624Zm-1.283-4.786a1.21,1.21,0,0,0-1.8,0L30.139,39a1.207,1.207,0,0,0,.9,2.016h.89V51.09a1.324,1.324,0,0,0,1.322,1.323h3.16a1.324,1.324,0,0,0,1.323-1.323V41.016h.89a1.208,1.208,0,0,0,.9-2.016ZM7.6,39.571a.722.722,0,0,0-.722.722V50.968H3.956V40.293a.722.722,0,0,0-.722-.722H2.154l3.261-3.624,3.261,3.624ZM6.312,34.785a1.21,1.21,0,0,0-1.8,0L.725,39a1.208,1.208,0,0,0,.9,2.016h.89V51.09a1.324,1.324,0,0,0,1.323,1.323h3.16A1.325,1.325,0,0,0,8.318,51.09V41.016h.889a1.208,1.208,0,0,0,.9-2.016L6.312,34.785ZM22.747,31.6a1.894,1.894,0,0,1-1.041,1.422,2.869,2.869,0,0,1-.765.246v.41a.722.722,0,1,1-1.445,0v-.44a2.53,2.53,0,0,1-1.737-1.143.722.722,0,0,1,1.267-.693,1.915,1.915,0,0,0,2.036.328.442.442,0,0,0,.255-.332.307.307,0,0,0-.1-.279,1.893,1.893,0,0,0-.759-.358c-.13-.036-.275-.071-.43-.107a4.08,4.08,0,0,1-1.583-.62,1.825,1.825,0,0,1-.734-1.3,1.749,1.749,0,0,1,.506-1.345,2.4,2.4,0,0,1,1.276-.657V26.3a.722.722,0,0,1,1.445,0v.43a2.329,2.329,0,0,1,1.626,1.093.722.722,0,1,1-1.272.685,1.1,1.1,0,0,0-.8-.389,1.584,1.584,0,0,0-1.234.263.322.322,0,0,0-.106.239.406.406,0,0,0,.179.266,3.15,3.15,0,0,0,1.03.356c.163.039.331.078.492.125a3.283,3.283,0,0,1,1.343.685,1.735,1.735,0,0,1,.547,1.545Zm-2.528,3.519a5.129,5.129,0,1,0-5.13-5.129,5.135,5.135,0,0,0,5.13,5.129Zm0-11.7a6.573,6.573,0,1,0,6.573,6.574,6.582,6.582,0,0,0-6.573-6.574ZM48.4,25.51H45.708a1.008,1.008,0,1,1,0-2.016H48.4a1.008,1.008,0,1,1,0,2.016Zm-11.533.275a14.141,14.141,0,0,1-1.618-.407,11.465,11.465,0,0,0-2.446-.51V13c2.828-.531,4.652-1.641,5.71-3.466.99-1.707,1.3-4.047,1-7.587a.063.063,0,0,1,.056-.068,2.318,2.318,0,0,1,2.038.607c1.807,1.836,1.137,7.03.918,8.737v.008a.443.443,0,0,0,0,.051c0,.008,0,.017,0,.025s0,.031,0,.047a.274.274,0,0,0,0,.029s0,.007,0,.01c.381,3.481-.5,5.241-3.035,6.076a.722.722,0,0,0,.226,1.408.708.708,0,0,0,.226-.037,6.58,6.58,0,0,0,2.236-1.2,2.634,2.634,0,0,0,.833,1.386,2.628,2.628,0,0,0,.638,4.155,2.446,2.446,0,0,0-.071,2.522,26.288,26.288,0,0,1-6.709.082Zm-5.509-.279a.342.342,0,0,1-.337.338h-3.1c-.11-.2-.231-.4-.357-.6V12.609a.342.342,0,0,1,.338-.338h3.12a.342.342,0,0,1,.337.338v12.9ZM20.219,37.285a7.3,7.3,0,1,0-7.3-7.3,7.306,7.306,0,0,0,7.3,7.3ZM49.262,12.04a1.187,1.187,0,0,1,0,2.374H45.475a1.187,1.187,0,0,1,0-2.374Zm-4.527,6.192h5.047a1.187,1.187,0,0,0,0-2.374H44.735a1.187,1.187,0,1,0,0,2.374Zm4.5,3.818H44.887a1.187,1.187,0,1,1,0-2.374h4.346a1.187,1.187,0,1,1,0,2.374ZM27.517,39.857v1.138a.962.962,0,0,1-.962.962H13.881a.962.962,0,0,1-.962-.962V39.857a.963.963,0,0,1,.962-.962H26.555a.963.963,0,0,1,.962.962Zm0,10.149a.962.962,0,0,1-.962.962H13.881a.962.962,0,0,1-.962-.962V48.868a.963.963,0,0,1,.962-.962H26.555a.963.963,0,0,1,.962.962Zm0-5.643V45.5a.962.962,0,0,1-.962.962H13.881a.962.962,0,0,1-.962-.962V44.362a.962.962,0,0,1,.962-.962H26.555a.962.962,0,0,1,.962.962Zm24.9-27.318a2.628,2.628,0,0,0-1.117-2.15,2.63,2.63,0,0,0-2.033-4.3H44.054c.288-2.455.622-7.044-1.422-9.12A3.719,3.719,0,0,0,39.4.446,1.5,1.5,0,0,0,38.069,2.07c.272,3.227.022,5.307-.81,6.742s-2.365,2.336-4.78,2.781a1.78,1.78,0,0,0-1.462-.766H27.9a1.784,1.784,0,0,0-1.783,1.782V23.537A8.74,8.74,0,1,0,15.67,37.451H13.88a2.408,2.408,0,0,0-2.406,2.406v1.138a2.4,2.4,0,0,0,.69,1.684,2.4,2.4,0,0,0-.69,1.684V45.5a2.4,2.4,0,0,0,.69,1.684,2.4,2.4,0,0,0-.69,1.684v1.138a2.409,2.409,0,0,0,2.406,2.406H26.555a2.408,2.408,0,0,0,2.406-2.406V48.868a2.4,2.4,0,0,0-.689-1.684,2.4,2.4,0,0,0,.689-1.684V44.362a2.4,2.4,0,0,0-.689-1.684,2.4,2.4,0,0,0,.689-1.684V39.857a2.408,2.408,0,0,0-2.406-2.406h-1.79a8.738,8.738,0,0,0,3.769-10.162h2.483a1.782,1.782,0,0,0,1.592-.987,9.9,9.9,0,0,1,2.223.46,13.592,13.592,0,0,0,4.476.656c1.548,0,3.163-.157,4.655-.3.623-.061,1.211-.118,1.774-.163H48.4a2.452,2.452,0,0,0,2.07-3.767,2.628,2.628,0,0,0,.812-3.98,2.629,2.629,0,0,0,1.135-2.163Z" fill-rule="evenodd"/>
      </g>
    </g>
  </g>
</svg>
