<svg xmlns="http://www.w3.org/2000/svg" xmlns:xlink="http://www.w3.org/1999/xlink" width="98" height="97.999" viewBox="0 0 98 97.999">
  <defs>
    <clipPath id="clip-path">
      <rect id="Rectangle_411080" data-name="Rectangle 411080" width="55" height="52" transform="translate(825.051 2027)" fill="#fff"/>
    </clipPath>
  </defs>
  <g id="Group_1206405" data-name="Group 1206405" transform="translate(-803.781 -2003.55)">
    <g id="Group_1204447" data-name="Group 1204447" transform="translate(0 -541.412)">
      <g id="Group_1204142" data-name="Group 1204142" transform="translate(-67.331 2267.798)">
        <g id="Group_1188789" data-name="Group 1188789" transform="translate(871.113 277.164)">
          <path id="Path_1243039" data-name="Path 1243039" d="M41.05,0h0a41.05,41.05,0,0,1,0,82.1h0a41.05,41.05,0,0,1,0-82.1Z" transform="translate(7.951 7.949)" fill="#ffa724"/>
          <rect id="Rectangle_400907" data-name="Rectangle 400907" width="88.438" height="88.437" rx="44.218" transform="translate(4.782 4.781)" fill="none"/>
          <g id="Group_1098742" data-name="Group 1098742" transform="translate(0)">
            <g id="Rectangle_400898" data-name="Rectangle 400898" transform="translate(0)" fill="none" stroke="#fff" stroke-width="2" opacity="0.859">
              <rect width="98" height="97.999" rx="48.999" stroke="none"/>
              <rect x="1" y="1" width="96" height="95.999" rx="47.999" fill="none"/>
            </g>
            <g id="Rectangle_400907-2" data-name="Rectangle 400907" transform="translate(0)" fill="none" stroke="#0f1f33" stroke-linecap="round" stroke-width="2">
              <rect width="98" height="97.999" rx="48.999" stroke="none"/>
              <rect x="1" y="1" width="96" height="95.999" rx="47.999" fill="none"/>
            </g>
          </g>
        </g>
      </g>
    </g>
    <g id="Mask_Group_1099588" data-name="Mask Group 1099588" clip-path="url(#clip-path)">
      <g id="_x30_7_Presentation" transform="translate(825.927 2026.376)">
        <g id="Group_1206851" data-name="Group 1206851">
          <path id="Path_1263016" data-name="Path 1263016" d="M5.044,7.644v29.64a3.644,3.644,0,0,0,3.64,3.64h35.88a3.644,3.644,0,0,0,3.64-3.64V7.644Z" fill="#c0f6ff"/>
          <path id="Path_1263017" data-name="Path 1263017" d="M8.684,37.284h24.44a9.31,9.31,0,0,0,6.188-2.34v-.926l1.414-.634A8.912,8.912,0,0,0,41.85,31.3l-.957-.926,1.4-.634a9.557,9.557,0,0,0,.177-1.82V7.644H5.034v26a3.66,3.66,0,0,0,3.65,3.64Z" fill="#e0f4ff"/>
          <path id="Path_1263018" data-name="Path 1263018" d="M50.024,8.684H3.224A1.815,1.815,0,0,1,1.4,6.864V3.224A1.815,1.815,0,0,1,3.224,1.4h46.8a1.815,1.815,0,0,1,1.82,1.82v3.64A1.815,1.815,0,0,1,50.024,8.684Z" fill="#27aae1"/>
          <path id="Path_1263019" data-name="Path 1263019" d="M44.356,5.824H1.4v-2.6A1.815,1.815,0,0,1,3.224,1.4H45.916v2.86A1.558,1.558,0,0,1,44.356,5.824Z" fill="#0cf"/>
          <g id="Group_1206850" data-name="Group 1206850">
            <path id="Path_1263020" data-name="Path 1263020" d="M21.715,20.363l-7.623,8.954a1.1,1.1,0,0,0,.1.125,6.705,6.705,0,0,1,1.6,4.285V36.14h5.99V33.79A6.831,6.831,0,0,1,23.4,29.432a6,6,0,0,0-1.685-9.069Z" fill="#f4b594"/>
            <path id="Path_1263021" data-name="Path 1263021" d="M18.013,29.713l.78.811.78-1.4a6.116,6.116,0,0,0,2.142-8.757,5.939,5.939,0,0,0-3.2-.749,6,6,0,0,0-4.42,9.714,6.123,6.123,0,0,0,2.548.551,6.526,6.526,0,0,0,1.373-.166Z" fill="#f8d3bf"/>
            <path id="Path_1263022" data-name="Path 1263022" d="M21.393,37.284h-5.2a1.82,1.82,0,1,1,0-3.64h5.2a1.82,1.82,0,1,1,0,3.64Z" fill="#38c714"/>
            <path id="Path_1263023" data-name="Path 1263023" d="M19.978,35.464h-5.6a1.815,1.815,0,0,1,1.82-1.82h5.6A1.822,1.822,0,0,1,19.978,35.464Z" fill="#60d243"/>
            <circle id="Ellipse_12735" data-name="Ellipse 12735" cx="1.82" cy="1.82" r="1.82" transform="translate(16.973 23.244)" fill="#f26522"/>
          </g>
        </g>
        <g id="Presentation">
          <path id="Path_1263024" data-name="Path 1263024" d="M50.024.624h-37.7a.78.78,0,0,0,0,1.56h37.7a1.043,1.043,0,0,1,1.04,1.04v3.64a1.043,1.043,0,0,1-1.04,1.04h-5.46a.78.78,0,0,0,0,1.56h2.86v27.82a2.858,2.858,0,0,1-2.86,2.86H32.6a.78.78,0,0,0,0,1.56h11.96a4.43,4.43,0,0,0,4.42-4.42V9.464h1.04a2.6,2.6,0,0,0,2.6-2.6V3.224A2.6,2.6,0,0,0,50.024.624Z"/>
          <path id="Path_1263025" data-name="Path 1263025" d="M40.924,7.9H3.224a1.043,1.043,0,0,1-1.04-1.04V3.224a1.043,1.043,0,0,1,1.04-1.04h5.46a.78.78,0,0,0,0-1.56H3.224a2.6,2.6,0,0,0-2.6,2.6v3.64a2.6,2.6,0,0,0,2.6,2.6h1.04v27.82a4.423,4.423,0,0,0,4.42,4.42h17.16v5.845a2.6,2.6,0,1,0,1.56,0V41.7h1.56a.78.78,0,1,0,0-1.56H8.684a2.858,2.858,0,0,1-2.86-2.86V9.464h35.1a.78.78,0,1,0,0-1.56Zm-14.3,41.08a1.04,1.04,0,1,1-1.04,1.04A1.043,1.043,0,0,1,26.624,48.984Z"/>
          <path id="Path_1263026" data-name="Path 1263026" d="M25.574,25.6a6.79,6.79,0,0,0-7.1-6.77,6.8,6.8,0,0,0-6.458,6.614,6.721,6.721,0,0,0,1.581,4.5,5.917,5.917,0,0,1,1.414,3.786v.031a2.594,2.594,0,0,0,1.955,4.306H20.6a2.6,2.6,0,0,0,2.6-2.6,2.55,2.55,0,0,0-.645-1.706,6.109,6.109,0,0,1,1.435-3.827A6.787,6.787,0,0,0,25.574,25.6ZM20.613,36.5h-3.64a1.04,1.04,0,0,1,0-2.08h3.64a1.04,1.04,0,0,1,0,2.08Zm-1.82-10.4a1.04,1.04,0,1,1,1.04-1.04A1.043,1.043,0,0,1,18.793,26.1Zm2.278,6.8a2.2,2.2,0,0,0-.458-.042h-1.04V27.539a2.6,2.6,0,1,0-1.56,0v5.325h-1.04a2.1,2.1,0,0,0-.447.042,7.567,7.567,0,0,0-1.737-3.962,5.214,5.214,0,0,1,7.6-7.114,5.211,5.211,0,0,1,.406,7.1A7.8,7.8,0,0,0,21.07,32.906Z"/>
          <path id="Path_1263027" data-name="Path 1263027" d="M18.793,16.744a.786.786,0,0,1-.78-.78v-3.64a.78.78,0,1,1,1.56,0v3.64A.772.772,0,0,1,18.793,16.744Z"/>
          <path id="Path_1263028" data-name="Path 1263028" d="M26.333,19.874a.771.771,0,0,1-.551-.229.785.785,0,0,1,0-1.1l2.569-2.569a.78.78,0,0,1,1.1,1.1l-2.569,2.569A.817.817,0,0,1,26.333,19.874Z"/>
          <path id="Path_1263029" data-name="Path 1263029" d="M11.253,19.864a.771.771,0,0,1-.551-.229L8.133,17.066a.78.78,0,1,1,1.1-1.1L11.8,18.533a.785.785,0,0,1,0,1.1A.754.754,0,0,1,11.253,19.864Z"/>
          <path id="Path_1263030" data-name="Path 1263030" d="M44.564,34.944H30a.78.78,0,0,1,0-1.56h14.56a.78.78,0,1,1,0,1.56Z"/>
          <path id="Path_1263031" data-name="Path 1263031" d="M44.564,31.3H30a.78.78,0,0,1,0-1.56h14.56a.78.78,0,1,1,0,1.56Z"/>
          <path id="Path_1263032" data-name="Path 1263032" d="M44.564,24.024H30a.78.78,0,0,1,0-1.56h14.56a.78.78,0,1,1,0,1.56Z"/>
          <path id="Path_1263033" data-name="Path 1263033" d="M44.564,27.664H30a.78.78,0,0,1,0-1.56h14.56a.78.78,0,1,1,0,1.56Z"/>
          <path id="Path_1263034" data-name="Path 1263034" d="M48.2,5.824H5.044a.78.78,0,0,1,0-1.56H48.2a.78.78,0,0,1,0,1.56Z"/>
        </g>
      </g>
    </g>
  </g>
</svg>
