<svg xmlns="http://www.w3.org/2000/svg" xmlns:xlink="http://www.w3.org/1999/xlink" width="98" height="97.999" viewBox="0 0 98 97.999">
  <defs>
    <clipPath id="clip-path">
      <rect id="Rectangle_411080" data-name="Rectangle 411080" width="55" height="52" transform="translate(825.051 2027)" fill="#fff"/>
    </clipPath>
  </defs>
  <g id="Group_1206410" data-name="Group 1206410" transform="translate(-803.782 -2003.55)">
    <g id="Group_1204447" data-name="Group 1204447" transform="translate(0 -541.412)">
      <g id="Group_1204142" data-name="Group 1204142" transform="translate(-67.331 2267.798)">
        <g id="Group_1188789" data-name="Group 1188789" transform="translate(871.113 277.164)">
          <path id="Path_1243039" data-name="Path 1243039" d="M41.05,0h0a41.05,41.05,0,0,1,0,82.1h0a41.05,41.05,0,0,1,0-82.1Z" transform="translate(7.951 7.949)" fill="#ffa724"/>
          <rect id="Rectangle_400907" data-name="Rectangle 400907" width="88.438" height="88.437" rx="44.218" transform="translate(4.782 4.781)" fill="none"/>
          <g id="Group_1098742" data-name="Group 1098742" transform="translate(0)">
            <g id="Rectangle_400898" data-name="Rectangle 400898" transform="translate(0)" fill="none" stroke="#fff" stroke-width="2" opacity="0.859">
              <rect width="98" height="97.999" rx="48.999" stroke="none"/>
              <rect x="1" y="1" width="96" height="95.999" rx="47.999" fill="none"/>
            </g>
            <g id="Rectangle_400907-2" data-name="Rectangle 400907" transform="translate(0)" fill="none" stroke="#0f1f33" stroke-linecap="round" stroke-width="2">
              <rect width="98" height="97.999" rx="48.999" stroke="none"/>
              <rect x="1" y="1" width="96" height="95.999" rx="47.999" fill="none"/>
            </g>
          </g>
        </g>
      </g>
    </g>
    <g id="Mask_Group_1099583" data-name="Mask Group 1099583" clip-path="url(#clip-path)">
      <g id="analyze_3212086" transform="translate(825.712 2026.161)">
        <g id="Group_1206839" data-name="Group 1206839">
          <g id="Group_1206826" data-name="Group 1206826">
            <path id="Path_1262936" data-name="Path 1262936" d="M10.065,45.29H23.484a6.71,6.71,0,1,1-13.419,0Z" fill="#aab2bd"/>
          </g>
          <g id="Group_1206827" data-name="Group 1206827">
            <path id="Path_1262937" data-name="Path 1262937" d="M23.484,38.581v6.71H10.065v-6.71H23.484Z" fill="#ccd1d9"/>
          </g>
          <g id="Group_1206828" data-name="Group 1206828">
            <path id="Path_1262938" data-name="Path 1262938" d="M31.871,20.129a15.326,15.326,0,0,0-.772-4.772,14.68,14.68,0,0,0-1.677-3.464c-.176-.277-.369-.554-.57-.822A15.1,15.1,0,0,0,16.774,5.032v5.032A1.682,1.682,0,0,1,15.1,11.742h-.839v2.315a1.037,1.037,0,0,1-1.963.47L10.9,11.742H4.21v.017a14.976,14.976,0,0,0-1.879,3.992,14.8,14.8,0,0,0-.654,4.378,20.961,20.961,0,0,0,3.9,12.17l4.487,6.282H23.484L27.971,32.3c.21-.294.411-.6.6-.9a11.421,11.421,0,0,1-.059-1.208,11.711,11.711,0,0,1,3.263-8.119c.059-.646.092-1.292.092-1.946Z" fill="#ffeaa7"/>
          </g>
          <g id="Group_1206829" data-name="Group 1206829">
            <path id="Path_1262939" data-name="Path 1262939" d="M16.774,5.032v5.032A1.682,1.682,0,0,1,15.1,11.742h-.839v2.315a1.037,1.037,0,0,1-1.963.47L10.9,11.742H3.355a1.682,1.682,0,0,1-1.677-1.677V3.355A1.682,1.682,0,0,1,3.355,1.677H15.1a1.682,1.682,0,0,1,1.677,1.677Z" fill="#e6e9ed"/>
          </g>
          <g id="Group_1206830" data-name="Group 1206830">
            <path id="Path_1262940" data-name="Path 1262940" d="M21.806,15.1h3.355v15.1H21.806Z" fill="#ff826e"/>
          </g>
          <g id="Group_1206831" data-name="Group 1206831">
            <path id="Path_1262941" data-name="Path 1262941" d="M15.1,18.452h3.355V30.194H15.1Z" fill="#ff826e"/>
          </g>
          <g id="Group_1206832" data-name="Group 1206832">
            <path id="Path_1262942" data-name="Path 1262942" d="M8.387,21.806h3.355v8.387H8.387Z" fill="#ff826e"/>
          </g>
          <g id="Group_1206833" data-name="Group 1206833">
            <path id="Path_1262943" data-name="Path 1262943" d="M47.806,1.677a4.2,4.2,0,1,1-4.194,4.194A4.2,4.2,0,0,1,47.806,1.677Z" fill="#ff826e"/>
          </g>
          <g id="Group_1206834" data-name="Group 1206834">
            <path id="Path_1262944" data-name="Path 1262944" d="M41.441,12.237a1.64,1.64,0,0,1,.495,1.183,1.677,1.677,0,1,1-3.355,0,1.672,1.672,0,0,1,2.86-1.183Z" fill="#ff826e"/>
          </g>
          <g id="Group_1206835" data-name="Group 1206835">
            <path id="Path_1262945" data-name="Path 1262945" d="M34.387,5.032a2.516,2.516,0,1,1-1.9,4.168,2.484,2.484,0,0,1-.621-1.652A2.513,2.513,0,0,1,34.387,5.032Z" fill="#ff826e"/>
          </g>
          <g id="Group_1206836" data-name="Group 1206836">
            <path id="Path_1262946" data-name="Path 1262946" d="M43.613,41.449v8.035A2.513,2.513,0,0,1,41.1,52H39.419A2.513,2.513,0,0,1,36.9,49.484V41.449a11.812,11.812,0,0,0,6.71,0Z" fill="#969faa"/>
          </g>
          <g id="Group_1206837" data-name="Group 1206837">
            <path id="Path_1262947" data-name="Path 1262947" d="M36.9,41.449A11.766,11.766,0,0,1,28.575,31.4a11.421,11.421,0,0,1-.059-1.208A11.73,11.73,0,1,1,36.9,41.449Z" fill="#e6e9ed"/>
          </g>
          <g id="Group_1206838" data-name="Group 1206838">
            <circle id="Ellipse_12732" data-name="Ellipse 12732" cx="8.387" cy="8.387" r="8.387" transform="translate(31.871 21.806)" fill="#69d6f4"/>
          </g>
        </g>
        <g id="Group_1206840" data-name="Group 1206840">
          <path id="Path_1262948" data-name="Path 1262948" d="M40.258,17.613a12.5,12.5,0,0,0-7.549,2.54c0-.008,0-.016,0-.024A16.041,16.041,0,0,0,30.5,12.063l2-1.746a3.3,3.3,0,0,0,3.583.111l1.913,1.913a2.493,2.493,0,0,0-.252,1.079,2.516,2.516,0,0,0,5.032,0,2.475,2.475,0,0,0-.252-1.078L44.9,9.968a5.048,5.048,0,1,0-1.186-1.186l-2.374,2.374a2.427,2.427,0,0,0-2.155,0L37.267,9.243a3.323,3.323,0,0,0,.475-1.694,3.355,3.355,0,1,0-6.71,0,3.315,3.315,0,0,0,.369,1.5l-1.826,1.6c-.018-.025-.034-.051-.052-.076A16.017,16.017,0,0,0,17.613,4.219V3.355A2.519,2.519,0,0,0,15.1.839H3.355A2.519,2.519,0,0,0,.839,3.355v6.71A2.517,2.517,0,0,0,2.785,12.51,15.866,15.866,0,0,0,.839,20.129,21.655,21.655,0,0,0,4.895,32.786l4.331,6.063V45.29a7.548,7.548,0,0,0,15.1,0V38.849l3.814-5.338a12.617,12.617,0,0,0,7.928,8.53v7.444a3.358,3.358,0,0,0,3.355,3.355H41.1a3.358,3.358,0,0,0,3.355-3.355V42.04a12.572,12.572,0,0,0-4.194-24.427Zm7.548-15.1a3.355,3.355,0,1,1-3.355,3.355A3.358,3.358,0,0,1,47.806,2.516ZM40.258,12.581a.839.839,0,1,1-.839.839A.839.839,0,0,1,40.258,12.581Zm-5.871-6.71A1.677,1.677,0,1,1,32.71,7.548,1.679,1.679,0,0,1,34.387,5.871ZM2.516,10.065V3.355a.839.839,0,0,1,.839-.839H15.1a.839.839,0,0,1,.839.839v6.71a.839.839,0,0,1-.839.839H13.419V14.06a.2.2,0,0,1-.375.088L11.422,10.9H3.355A.839.839,0,0,1,2.516,10.065ZM10.9,39.419H22.645V41.1H10.9Zm0,3.355H22.645v1.677H10.9Zm5.871,8.387a5.876,5.876,0,0,1-5.8-5.032H22.578A5.876,5.876,0,0,1,16.774,51.161Zm10.515-19.35-4.236,5.931H19.29v-6.71H26V14.258H20.968V27.677h1.677V15.935h1.677V29.355h-6.71v8.387H15.935V29.355H9.226v-6.71H10.9v5.032h1.677v-6.71H7.548V31.032h6.71v6.71H10.5L6.258,31.811A20,20,0,0,1,2.516,20.129a14.2,14.2,0,0,1,2.173-7.548h5.7l1.16,2.319a1.875,1.875,0,0,0,3.552-.84V12.581a2.519,2.519,0,0,0,2.516-2.516V5.9a14.335,14.335,0,0,1,10.569,5.678c.044.059.081.122.124.181l-1.18,1.032,1.1,1.263.985-.862a14.345,14.345,0,0,1,1.817,6.94c0,.539-.032,1.084-.075,1.623a12.516,12.516,0,0,0-3.279,8.442c0,.327.024.648.049.97-.143.218-.286.435-.438.648ZM42.774,49.484A1.679,1.679,0,0,1,41.1,51.161H39.419a1.679,1.679,0,0,1-1.677-1.677V42.521a12.624,12.624,0,0,0,5.032,0ZM40.258,41.1a10.9,10.9,0,1,1,10.9-10.9A10.916,10.916,0,0,1,40.258,41.1Z"/>
          <path id="Path_1262949" data-name="Path 1262949" d="M40.258,20.968a9.226,9.226,0,1,0,9.226,9.226A9.237,9.237,0,0,0,40.258,20.968Zm0,16.774a7.548,7.548,0,1,1,7.548-7.548A7.557,7.557,0,0,1,40.258,37.742Z"/>
          <path id="Path_1262950" data-name="Path 1262950" d="M36.065,29.355h1.677v1.677H36.065Z"/>
          <path id="Path_1262951" data-name="Path 1262951" d="M39.419,29.355H41.1v1.677H39.419Z"/>
          <path id="Path_1262952" data-name="Path 1262952" d="M42.774,29.355h1.677v1.677H42.774Z"/>
          <path id="Path_1262953" data-name="Path 1262953" d="M14.258,27.677h1.677V19.29h1.677v8.387H19.29V17.613H14.258Z"/>
          <path id="Path_1262954" data-name="Path 1262954" d="M4.194,4.194H7.548V5.871H4.194Z"/>
          <path id="Path_1262955" data-name="Path 1262955" d="M4.194,7.548H7.548V9.226H4.194Z"/>
          <path id="Path_1262956" data-name="Path 1262956" d="M9.226,4.194h5.032V5.871H9.226Z"/>
          <path id="Path_1262957" data-name="Path 1262957" d="M9.226,7.548H10.9V9.226H9.226Z"/>
          <path id="Path_1262958" data-name="Path 1262958" d="M12.581,7.548h1.677V9.226H12.581Z"/>
        </g>
      </g>
    </g>
  </g>
</svg>
