<svg xmlns="http://www.w3.org/2000/svg" xmlns:xlink="http://www.w3.org/1999/xlink" width="98" height="97.999" viewBox="0 0 98 97.999">
  <defs>
    <clipPath id="clip-path">
      <rect id="Rectangle_411080" data-name="Rectangle 411080" width="55" height="52" transform="translate(825.051 2027)" fill="#fff"/>
    </clipPath>
  </defs>
  <g id="Group_1206412" data-name="Group 1206412" transform="translate(-803.782 -2003.55)">
    <g id="Group_1204447" data-name="Group 1204447" transform="translate(0 -541.412)">
      <g id="Group_1204142" data-name="Group 1204142" transform="translate(-67.331 2267.798)">
        <g id="Group_1188789" data-name="Group 1188789" transform="translate(871.113 277.164)">
          <path id="Path_1243039" data-name="Path 1243039" d="M41.05,0h0a41.05,41.05,0,0,1,0,82.1h0a41.05,41.05,0,0,1,0-82.1Z" transform="translate(7.951 7.949)" fill="#ffa724"/>
          <rect id="Rectangle_400907" data-name="Rectangle 400907" width="88.438" height="88.437" rx="44.218" transform="translate(4.782 4.781)" fill="none"/>
          <g id="Group_1098742" data-name="Group 1098742" transform="translate(0)">
            <g id="Rectangle_400898" data-name="Rectangle 400898" transform="translate(0)" fill="none" stroke="#fff" stroke-width="2" opacity="0.859">
              <rect width="98" height="97.999" rx="48.999" stroke="none"/>
              <rect x="1" y="1" width="96" height="95.999" rx="47.999" fill="none"/>
            </g>
            <g id="Rectangle_400907-2" data-name="Rectangle 400907" transform="translate(0)" fill="none" stroke="#0f1f33" stroke-linecap="round" stroke-width="2">
              <rect width="98" height="97.999" rx="48.999" stroke="none"/>
              <rect x="1" y="1" width="96" height="95.999" rx="47.999" fill="none"/>
            </g>
          </g>
        </g>
      </g>
    </g>
    <g id="Mask_Group_1099582" data-name="Mask Group 1099582" clip-path="url(#clip-path)">
      <g id="advice_17817902" transform="translate(825.827 2026.275)">
        <g id="Group_1206825" data-name="Group 1206825">
          <path id="Path_1262926" data-name="Path 1262926" d="M43.876,11.1H27.225a3.181,3.181,0,0,0-3.172,3.172v12.29a3.181,3.181,0,0,0,3.172,3.172h6.9l5.352,5.352V29.73h4.4a3.181,3.181,0,0,0,3.171-3.172V14.269A3.181,3.181,0,0,0,43.876,11.1Z" fill="#fcdb35" fill-rule="evenodd"/>
          <path id="Path_1262927" data-name="Path 1262927" d="M42.571,11.1H27.225a3.181,3.181,0,0,0-3.172,3.172v12.29a3.181,3.181,0,0,0,3.172,3.172h6.9l4.047,4.047V29.73h4.4a3.181,3.181,0,0,0,3.171-3.172V14.269A3.181,3.181,0,0,0,42.571,11.1Z" fill="#ffeb87" fill-rule="evenodd"/>
          <path id="Path_1262928" data-name="Path 1262928" d="M11.176,1.768h16.65A3.181,3.181,0,0,1,31,4.94v12.29A3.181,3.181,0,0,1,27.827,20.4h-6.9L15.58,25.752V20.4h-4.4A3.181,3.181,0,0,1,8,17.229V4.94a3.181,3.181,0,0,1,3.171-3.171Z" fill="#90ef90" fill-rule="evenodd"/>
          <path id="Path_1262929" data-name="Path 1262929" d="M11.176,1.768H26.522A3.181,3.181,0,0,1,29.693,4.94v12.29A3.181,3.181,0,0,1,26.522,20.4h-6.9l-4.047,4.047V20.4h-4.4A3.181,3.181,0,0,1,8,17.229V4.94a3.181,3.181,0,0,1,3.171-3.171Z" fill="#adffad" fill-rule="evenodd"/>
          <path id="Path_1262930" data-name="Path 1262930" d="M8.753,49.209a84.446,84.446,0,0,1,10.365,1.382c5.191.946,7.93,1.288,13.883-.982a131.353,131.353,0,0,0,13.938-6.427,19.129,19.129,0,0,0,3.854-2.454A2.484,2.484,0,0,0,51.48,37.6c-.645-1.154-2.088-1.828-5.744-.463a79.007,79.007,0,0,1-10.358,3.116,2.715,2.715,0,0,0,.206-1.246c-.077-1.363-1.155-2.311-3.572-2.375-3.847-.1-7.3-.468-11.169-.941-3.157-.387-7.941.365-12.091.618q0,.021,0,.041V49.209Z" fill="#f0e3df" fill-rule="evenodd"/>
          <path id="Path_1262931" data-name="Path 1262931" d="M38.041,39.615a4.128,4.128,0,0,1-1.373,2.554c-1.915,1.76-6.286,2.936-15,2.218a1.132,1.132,0,0,1,.186-2.257c7.972.657,11.775-.239,13.283-1.625a2.492,2.492,0,0,0,.24-.252c.89-.165,1.79-.4,2.664-.638Z" fill="#d9c5bf" fill-rule="evenodd"/>
        </g>
        <rect id="Rectangle_412826" data-name="Rectangle 412826" width="7.084" height="17.78" rx="2.45" transform="translate(1.668 33.901)" fill="#6cbfff"/>
        <path id="Path_1262932" data-name="Path 1262932" d="M4.119,51.681a2.457,2.457,0,0,1-2.45-2.45V36.351a2.45,2.45,0,1,1,4.9,0V49.23A2.457,2.457,0,0,1,4.119,51.681Z" fill="#85caff" fill-rule="evenodd"/>
        <path id="Path_1262933" data-name="Path 1262933" d="M19.916,5.815l1.493,3.179,3.485.438a.458.458,0,0,1,.256.788l-2.561,2.4.66,3.449a.458.458,0,0,1-.67.487L19.5,14.865l-3.076,1.694a.458.458,0,0,1-.67-.487l.66-3.449-2.562-2.4a.458.458,0,0,1,.256-.788l3.485-.438,1.493-3.179a.458.458,0,0,1,.828,0Z" fill="#fcdb35" fill-rule="evenodd"/>
        <path id="Path_1262934" data-name="Path 1262934" d="M22.088,16.288,18.836,14.5l-3.088,1.7a.477.477,0,0,1,.007-.127l.66-3.449-2.562-2.4a.458.458,0,0,1,.256-.788l3.485-.438,1.4-2.975,1.334,2.839L23.81,9.3a.458.458,0,0,1,.256.788l-2.562,2.4.66,3.449a.448.448,0,0,1-.077.353Z" fill="#ffeb87" fill-rule="evenodd"/>
        <path id="Path_1262935" data-name="Path 1262935" d="M27.592,24.9a1.043,1.043,0,0,0,1.044,1.044H42.468a1.044,1.044,0,0,0,0-2.088H28.636A1.043,1.043,0,0,0,27.592,24.9Zm7.673-7.934h7.2a1.044,1.044,0,0,0,0-2.088h-7.2a1.044,1.044,0,1,0,0,2.088Zm0,4.488h7.2a1.044,1.044,0,0,0,0-2.087h-7.2a1.044,1.044,0,1,0,0,2.087ZM15.5,10.318l1.638,1.536a1.042,1.042,0,0,1,.311.958l-.422,2.206L19,13.934a1.046,1.046,0,0,1,1.007,0l1.967,1.084-.422-2.206a1.043,1.043,0,0,1,.311-.958L23.5,10.318l-2.227-.28a1.046,1.046,0,0,1-.815-.592L19.5,7.414l-.955,2.033a1.045,1.045,0,0,1-.814.592l-2.229.28Zm-2.341.667A1.5,1.5,0,0,1,14,8.4l2.9-.364,1.242-2.645a1.5,1.5,0,0,1,2.715,0L22.1,8.038,25,8.4a1.5,1.5,0,0,1,.839,2.582l-2.131,2,.549,2.87a1.5,1.5,0,0,1-2.2,1.6L19.5,16.041,16.942,17.45a1.5,1.5,0,0,1-2.2-1.6l.55-2.87-2.132-2ZM50.57,38.111a1.246,1.246,0,0,0-.995-.655,7.293,7.293,0,0,0-3.473.66,85.5,85.5,0,0,1-10.039,3.065,3.824,3.824,0,0,1-.507.634c-1.816,1.849-5.534,2.259-9.112,2.259-.811,0-1.614-.021-2.386-.051l-.14-.005A1.044,1.044,0,1,1,24,41.931l.141.006c1.994.077,8.063.314,9.929-1.585a1.594,1.594,0,0,0,.475-1.285c-.05-.878-.91-1.346-2.558-1.389-3.749-.1-7.09-.437-11.268-.949a42.2,42.2,0,0,0-7.921.293c-.991.093-2.006.188-3,.263v4.876a1.044,1.044,0,1,1-2.088,0V36.352A1.407,1.407,0,0,0,6.3,34.946H4.12a1.407,1.407,0,0,0-1.407,1.406V49.23A1.408,1.408,0,0,0,4.12,50.637H6.3A1.407,1.407,0,0,0,7.709,49.23V46.058a1.044,1.044,0,0,1,2.088,0v2.177a90.565,90.565,0,0,1,9.509,1.33c5.107.93,7.605,1.25,13.323-.931a131.434,131.434,0,0,0,13.823-6.374,17,17,0,0,0,3.61-2.276C50.729,39.331,50.9,38.7,50.57,38.111Zm.954,3.364a18.8,18.8,0,0,1-4.1,2.631,133.633,133.633,0,0,1-14.054,6.479,22.392,22.392,0,0,1-8.253,1.773,34.334,34.334,0,0,1-6.188-.74,88.557,88.557,0,0,0-9.308-1.3A3.5,3.5,0,0,1,6.3,52.724H4.12A3.5,3.5,0,0,1,.626,49.23V36.352A3.5,3.5,0,0,1,4.12,32.858H6.3a3.5,3.5,0,0,1,3.3,2.348c.987-.074,2-.169,3-.262a42.716,42.716,0,0,1,8.37-.287c4.117.5,7.4.836,11.07.933,3.919.1,4.515,2.321,4.584,3.318a89.151,89.151,0,0,0,8.748-2.747,9.273,9.273,0,0,1,4.528-.766,3.3,3.3,0,0,1,2.492,1.7,3.528,3.528,0,0,1-.869,4.383ZM9.05,17.229V4.94a2.13,2.13,0,0,1,2.127-2.128H27.828A2.13,2.13,0,0,1,29.955,4.94V17.229a2.13,2.13,0,0,1-2.127,2.128h-6.9a1.05,1.05,0,0,0-.739.305l-3.569,3.571V20.4a1.044,1.044,0,0,0-1.044-1.044h-4.4A2.13,2.13,0,0,1,9.05,17.229Zm-2.088,0V4.94A4.22,4.22,0,0,1,11.177.724H27.828A4.22,4.22,0,0,1,32.043,4.94V17.229a4.22,4.22,0,0,1-4.215,4.215H21.366l-5.047,5.047a1.044,1.044,0,0,1-1.782-.738V21.444h-3.36a4.219,4.219,0,0,1-4.215-4.215ZM33.4,11.1a1.043,1.043,0,0,1,1.044-1.044h9.433a4.221,4.221,0,0,1,4.216,4.215v12.29a4.22,4.22,0,0,1-4.216,4.215H40.518v4.308a1.044,1.044,0,0,1-1.782.738L33.69,30.774H27.227a4.219,4.219,0,0,1-4.215-4.215V23.532a1.044,1.044,0,0,1,2.087,0v3.027a2.13,2.13,0,0,0,2.128,2.128h6.9a1.041,1.041,0,0,1,.738.305l3.57,3.571V29.73a1.044,1.044,0,0,1,1.044-1.044h4.4A2.13,2.13,0,0,0,46,26.559V14.268a2.13,2.13,0,0,0-2.128-2.127H34.444A1.043,1.043,0,0,1,33.4,11.1Z" fill-rule="evenodd"/>
      </g>
    </g>
  </g>
</svg>
