<svg xmlns="http://www.w3.org/2000/svg" xmlns:xlink="http://www.w3.org/1999/xlink" width="98" height="97.999" viewBox="0 0 98 97.999">
  <defs>
    <clipPath id="clip-path">
      <rect id="Rectangle_411080" data-name="Rectangle 411080" width="55" height="52" transform="translate(825.051 2027)" fill="#fff"/>
    </clipPath>
  </defs>
  <g id="Group_1206405" data-name="Group 1206405" transform="translate(-803.781 -2003.55)">
    <g id="Group_1204447" data-name="Group 1204447" transform="translate(0 -541.412)">
      <g id="Group_1204142" data-name="Group 1204142" transform="translate(-67.331 2267.798)">
        <g id="Group_1188789" data-name="Group 1188789" transform="translate(871.113 277.164)">
          <path id="Path_1243039" data-name="Path 1243039" d="M41.05,0h0a41.05,41.05,0,0,1,0,82.1h0a41.05,41.05,0,0,1,0-82.1Z" transform="translate(7.951 7.949)" fill="#ffa724"/>
          <rect id="Rectangle_400907" data-name="Rectangle 400907" width="88.438" height="88.437" rx="44.218" transform="translate(4.782 4.781)" fill="none"/>
          <g id="Group_1098742" data-name="Group 1098742" transform="translate(0)">
            <g id="Rectangle_400898" data-name="Rectangle 400898" transform="translate(0)" fill="none" stroke="#fff" stroke-width="2" opacity="0.859">
              <rect width="98" height="97.999" rx="48.999" stroke="none"/>
              <rect x="1" y="1" width="96" height="95.999" rx="47.999" fill="none"/>
            </g>
            <g id="Rectangle_400907-2" data-name="Rectangle 400907" transform="translate(0)" fill="none" stroke="#0f1f33" stroke-linecap="round" stroke-width="2">
              <rect width="98" height="97.999" rx="48.999" stroke="none"/>
              <rect x="1" y="1" width="96" height="95.999" rx="47.999" fill="none"/>
            </g>
          </g>
        </g>
      </g>
    </g>
    <g id="Mask_Group_1099600" data-name="Mask Group 1099600" clip-path="url(#clip-path)">
      <g id="phone_1191674" transform="translate(831.354 2027)">
        <path id="Path_1263224" data-name="Path 1263224" d="M30.632,37V42.72H1.016V7.858H30.632V15" fill="#5fccf5"/>
        <path id="Path_1263225" data-name="Path 1263225" d="M30.632,7.858H1.016V2.732A1.717,1.717,0,0,1,2.732,1.016H28.915a1.717,1.717,0,0,1,1.717,1.717Zm0,0" fill="#eaecf0"/>
        <path id="Path_1263226" data-name="Path 1263226" d="M1.016,42.72H30.632v6.548a1.717,1.717,0,0,1-1.717,1.717H2.732a1.717,1.717,0,0,1-1.717-1.717Zm0,0" fill="#bbb8c7"/>
        <path id="Path_1263227" data-name="Path 1263227" d="M25.111,5.453a.982.982,0,0,1-.2-.021,1.021,1.021,0,0,1-.365-.151.985.985,0,0,1-.154-.126A.968.968,0,0,1,24.266,5a1,1,0,0,1-.093-.175,1.021,1.021,0,0,1-.058-.19,1.01,1.01,0,0,1-.02-.2,1.026,1.026,0,0,1,.078-.389,1.038,1.038,0,0,1,.093-.175.965.965,0,0,1,.126-.154,1,1,0,0,1,.33-.221,1.047,1.047,0,0,1,.19-.058,1.014,1.014,0,0,1,.4,0,1.091,1.091,0,0,1,.19.058,1.024,1.024,0,0,1,.329.221,1.007,1.007,0,0,1,.22.329,1.015,1.015,0,0,1-.221,1.107.967.967,0,0,1-.154.126,1.025,1.025,0,0,1-.175.094,1.067,1.067,0,0,1-.19.058A1,1,0,0,1,25.111,5.453Zm0,0"/>
        <path id="Path_1263228" data-name="Path 1263228" d="M20.894,5.453H6.537a1.016,1.016,0,0,1,0-2.031H20.894a1.016,1.016,0,0,1,0,2.031Zm0,0"/>
        <path id="Path_1263229" data-name="Path 1263229" d="M17.753,47.969H13.894a1.016,1.016,0,0,1,0-2.031h3.859a1.016,1.016,0,1,1,0,2.031Zm0,0"/>
        <path id="Path_1263230" data-name="Path 1263230" d="M10.582,13.254,4.73,22.729H7.337V42.72h6.489V22.729h2.607Zm0,0" fill="#f26a5b"/>
        <path id="Path_1263231" data-name="Path 1263231" d="M30.632,36.747A10.747,10.747,0,1,1,41.379,26,10.759,10.759,0,0,1,30.632,36.747Zm0,0" fill="#ffd36c"/>
        <path id="Path_1263232" data-name="Path 1263232" d="M42.394,26A11.779,11.779,0,0,0,31.648,14.281V2.732A2.735,2.735,0,0,0,28.915,0H2.732A2.735,2.735,0,0,0,0,2.732V49.268A2.735,2.735,0,0,0,2.732,52H28.915a2.735,2.735,0,0,0,2.732-2.732V37.719A11.779,11.779,0,0,0,42.394,26ZM29.616,41.7H14.842V23.745h1.592a1.016,1.016,0,0,0,.864-1.55L11.446,12.72a1.016,1.016,0,0,0-1.728,0L3.866,22.195a1.016,1.016,0,0,0,.864,1.55H6.322V41.7H2.031V8.874H29.616v5.407a11.763,11.763,0,0,0,0,23.439ZM8.353,23.745H9.572a1.016,1.016,0,1,0,0-2.031H6.551l4.031-6.526,4.031,6.526h-.786a1.016,1.016,0,0,0-1.016,1.016V41.7H8.354V23.745ZM2.031,2.732a.7.7,0,0,1,.7-.7H28.915a.7.7,0,0,1,.7.7V6.843H2.031ZM29.616,49.268a.7.7,0,0,1-.7.7H2.732a.7.7,0,0,1-.7-.7V43.735H29.616Zm1.016-13.536A9.731,9.731,0,1,1,40.363,26,9.742,9.742,0,0,1,30.632,35.731Zm0,0"/>
        <path id="Path_1263233" data-name="Path 1263233" d="M37.558,26a6.926,6.926,0,1,1-6.926-6.926A6.926,6.926,0,0,1,37.558,26Zm0,0" fill="#f4b74a"/>
        <path id="Path_1263234" data-name="Path 1263234" d="M30.632,33.942A7.942,7.942,0,1,1,38.573,26a7.951,7.951,0,0,1-7.942,7.942Zm0-13.853A5.911,5.911,0,1,0,36.542,26,5.918,5.918,0,0,0,30.632,20.089Zm0,0"/>
        <path id="Path_1263235" data-name="Path 1263235" d="M30.474,29.532c-1.219-.04-2.214-.67-2.214-1.32,0-.345.3-.853.691-.853.426,0,.772.6,1.523.731V26.445c-.934-.355-2.031-.792-2.031-2.092a2.077,2.077,0,0,1,2.031-2.062v-.284c0-.142.163-.274.386-.274.193,0,.386.132.386.274v.254c.63.02,1.818.183,1.818.884,0,.274-.183.833-.63.833-.335,0-.528-.325-1.188-.376v1.483c.924.345,2,.823,2,2.194a2.159,2.159,0,0,1-2,2.214v.294c0,.142-.193.274-.386.274-.223,0-.386-.132-.386-.274Zm.1-4.693V23.632c-.457.091-.65.325-.65.569,0,.295.264.478.65.64Zm.569,1.879V28.08c.345-.081.619-.274.619-.64,0-.335-.254-.549-.619-.721Zm0,0"/>
      </g>
    </g>
  </g>
</svg>
