<svg xmlns="http://www.w3.org/2000/svg" xmlns:xlink="http://www.w3.org/1999/xlink" width="98" height="97.999" viewBox="0 0 98 97.999">
  <defs>
    <clipPath id="clip-path">
      <rect id="Rectangle_411080" data-name="Rectangle 411080" width="55" height="52" transform="translate(825.051 2027)" fill="#fff"/>
    </clipPath>
  </defs>
  <g id="Group_1206221" data-name="Group 1206221" transform="translate(-803.781 -2003.55)">
    <g id="Group_1204447" data-name="Group 1204447" transform="translate(0 -541.412)">
      <g id="Group_1204142" data-name="Group 1204142" transform="translate(-67.331 2267.798)">
        <g id="Group_1188789" data-name="Group 1188789" transform="translate(871.113 277.164)">
          <path id="Path_1243039" data-name="Path 1243039" d="M41.05,0h0a41.05,41.05,0,0,1,0,82.1h0a41.05,41.05,0,0,1,0-82.1Z" transform="translate(7.951 7.949)" fill="#ffa724"/>
          <rect id="Rectangle_400907" data-name="Rectangle 400907" width="88.438" height="88.437" rx="44.218" transform="translate(4.782 4.781)" fill="none"/>
          <g id="Group_1098742" data-name="Group 1098742" transform="translate(0)">
            <g id="Rectangle_400898" data-name="Rectangle 400898" transform="translate(0)" fill="none" stroke="#fff" stroke-width="2" opacity="0.859">
              <rect width="98" height="97.999" rx="48.999" stroke="none"/>
              <rect x="1" y="1" width="96" height="95.999" rx="47.999" fill="none"/>
            </g>
            <g id="Rectangle_400907-2" data-name="Rectangle 400907" transform="translate(0)" fill="none" stroke="#0f1f33" stroke-linecap="round" stroke-width="2">
              <rect width="98" height="97.999" rx="48.999" stroke="none"/>
              <rect x="1" y="1" width="96" height="95.999" rx="47.999" fill="none"/>
            </g>
          </g>
        </g>
      </g>
    </g>
    <g id="Mask_Group_1099568" data-name="Mask Group 1099568" clip-path="url(#clip-path)">
      <g id="website_909869" transform="translate(825.051 2025.5)">
        <g id="Group_1206762" data-name="Group 1206762" transform="translate(0.107 0.107)">
          <g id="Group_1206757" data-name="Group 1206757">
            <rect id="Rectangle_412806" data-name="Rectangle 412806" width="25.666" height="19.25" transform="translate(14.56 20.059)" fill="#00838f"/>
            <rect id="Rectangle_412807" data-name="Rectangle 412807" width="22.916" height="19.25" transform="translate(14.56 20.059)" fill="#00bcd4"/>
          </g>
          <g id="Group_1206758" data-name="Group 1206758">
            <path id="Path_1262658" data-name="Path 1262658" d="M40.226,7.226V21.893H14.56V7.226a1.839,1.839,0,0,1,1.833-1.833h22A1.839,1.839,0,0,1,40.226,7.226Z" fill="#00695c"/>
            <path id="Path_1262659" data-name="Path 1262659" d="M40.226,37.476V47.559a1.839,1.839,0,0,1-1.833,1.833h-22a1.839,1.839,0,0,1-1.833-1.833V37.476Z" fill="#00695c"/>
          </g>
          <g id="Group_1206759" data-name="Group 1206759">
            <path id="Path_1262660" data-name="Path 1262660" d="M37.476,7.226V21.893H14.56V7.226a1.839,1.839,0,0,1,1.833-1.833h19.25A1.839,1.839,0,0,1,37.476,7.226Z" fill="#009688"/>
            <path id="Path_1262661" data-name="Path 1262661" d="M37.476,37.476V47.559a1.839,1.839,0,0,1-1.833,1.833H16.393a1.839,1.839,0,0,1-1.833-1.833V37.476Z" fill="#009688"/>
          </g>
          <g id="Group_1206760" data-name="Group 1206760">
            <circle id="Ellipse_12713" data-name="Ellipse 12713" cx="2.292" cy="2.292" r="2.292" transform="translate(18.226 13.643)" fill="#ffeb3a"/>
            <rect id="Rectangle_412808" data-name="Rectangle 412808" width="5.5" height="3.667" transform="translate(31.059 41.143)" fill="#ffeb3a"/>
          </g>
          <path id="Path_1262662" data-name="Path 1262662" d="M10.893,19.143v11L7.024,25.5l-.064.055H1.726a.919.919,0,0,1-.917-.917v-5.5a.919.919,0,0,1,.917-.917h8.25A.919.919,0,0,1,10.893,19.143Z" fill="#607d8b"/>
          <path id="Path_1262663" data-name="Path 1262663" d="M53.976,30.143v5.5a.919.919,0,0,1-.917.917H47.825l-.064-.055-3.868,4.638v-11a.919.919,0,0,1,.917-.917h8.25A.919.919,0,0,1,53.976,30.143Z" fill="#4caf50"/>
          <path id="Path_1262664" data-name="Path 1262664" d="M11.81,41.143a5.486,5.486,0,0,1-1.228,3.465,5.387,5.387,0,0,1-1.448,1.247,5.45,5.45,0,0,1-5.647,0,5.389,5.389,0,0,1-1.448-1.247,5.5,5.5,0,1,1,9.772-3.465Z" fill="#e91e63"/>
          <path id="Path_1262665" data-name="Path 1262665" d="M53.976,15.476v3.667a1.839,1.839,0,0,1-1.833,1.833h-5.5a2.746,2.746,0,0,1-2.75-2.75V9.976a1.833,1.833,0,1,1,3.667,0v3.667h4.583A1.839,1.839,0,0,1,53.976,15.476Z" fill="#2296f3"/>
          <g id="Group_1206761" data-name="Group 1206761">
            <path id="Path_1262666" data-name="Path 1262666" d="M32.893,37.476H14.56V33.809l7.333-7.333Z" fill="#4caf50"/>
            <path id="Path_1262667" data-name="Path 1262667" d="M40.226,37.476H32.893l-6.417-6.417,3.667-3.667Z" fill="#4caf50"/>
          </g>
        </g>
        <g id="Group_1206763" data-name="Group 1206763">
          <path id="Path_1262668" data-name="Path 1262668" d="M22.917,8.25H18.334a.917.917,0,0,0,0,1.833h4.583a.917.917,0,0,0,0-1.833Z"/>
          <path id="Path_1262669" data-name="Path 1262669" d="M20.625,12.833a3.208,3.208,0,1,0,3.208,3.208A3.208,3.208,0,0,0,20.625,12.833Zm0,4.583A1.375,1.375,0,1,1,22,16.042,1.375,1.375,0,0,1,20.625,17.417Z"/>
          <path id="Path_1262670" data-name="Path 1262670" d="M34.833,12.833H25.667a.917.917,0,1,0,0,1.833h9.167a.917.917,0,0,0,0-1.833Z"/>
          <path id="Path_1262671" data-name="Path 1262671" d="M34.833,16.5h-8.25a.917.917,0,0,0,0,1.833h8.25a.917.917,0,0,0,0-1.833Z"/>
          <path id="Path_1262672" data-name="Path 1262672" d="M18.334,42.167h8.25a.917.917,0,1,0,0-1.833h-8.25a.917.917,0,1,0,0,1.833Z"/>
          <path id="Path_1262673" data-name="Path 1262673" d="M31.167,45.833h5.5a.916.916,0,0,0,.917-.917V41.25a.916.916,0,0,0-.917-.917h-5.5a.916.916,0,0,0-.917.917v3.667a.916.916,0,0,0,.917.917Zm.917-3.667H35.75V44H32.083Z"/>
          <path id="Path_1262674" data-name="Path 1262674" d="M18.334,45.833h.917a.917.917,0,1,0,0-1.833h-.917a.917.917,0,1,0,0,1.833Z"/>
          <path id="Path_1262675" data-name="Path 1262675" d="M22.917,44H22a.917.917,0,1,0,0,1.833h.917a.917.917,0,1,0,0-1.833Z"/>
          <path id="Path_1262676" data-name="Path 1262676" d="M26.584,44h-.917a.917.917,0,1,0,0,1.833h.917a.917.917,0,0,0,0-1.833Z"/>
          <path id="Path_1262677" data-name="Path 1262677" d="M30.819,10.01a.863.863,0,0,0,.7,0,1.066,1.066,0,0,0,.3-.192.911.911,0,0,0,.266-.651.964.964,0,0,0-.266-.651.9.9,0,0,0-.147-.11.5.5,0,0,0-.156-.082.57.57,0,0,0-.175-.056.915.915,0,0,0-.825.248.961.961,0,0,0-.266.651.907.907,0,0,0,.266.651A1.052,1.052,0,0,0,30.819,10.01Z"/>
          <path id="Path_1262678" data-name="Path 1262678" d="M33.569,10.01a.917.917,0,1,0-.3-1.494A.942.942,0,0,0,33,9.167a.872.872,0,0,0,.266.642A.919.919,0,0,0,33.569,10.01Z"/>
          <path id="Path_1262679" data-name="Path 1262679" d="M37.318,8.516a.952.952,0,0,0-.834-.248.591.591,0,0,0-.165.056.68.68,0,0,0-.166.082,1.481,1.481,0,0,0-.137.11,1.052,1.052,0,0,0-.193.3.863.863,0,0,0,0,.7,1.066,1.066,0,0,0,.193.3.929.929,0,0,0,1.3,0,1.065,1.065,0,0,0,.192-.3.863.863,0,0,0,0-.7A1.05,1.05,0,0,0,37.318,8.516Z"/>
          <path id="Path_1262680" data-name="Path 1262680" d="M38.5,4.583h-22a2.753,2.753,0,0,0-2.75,2.75V47.667a2.753,2.753,0,0,0,2.75,2.75h22a2.753,2.753,0,0,0,2.75-2.75V7.333A2.753,2.753,0,0,0,38.5,4.583ZM15.584,34.3,22,27.88l6.685,6.685a.917.917,0,0,0,1.3-1.3l-2.1-2.1,2.37-2.37,7.87,7.87H15.584V34.3Zm23.833,13.37a.917.917,0,0,1-.917.917h-22a.917.917,0,0,1-.917-.917V38.5H39.417v9.167Zm0-12.3L30.9,26.852a.916.916,0,0,0-1.3,0L26.584,29.87l-3.935-3.935a.916.916,0,0,0-1.3,0L15.584,31.7V22.917H39.417V35.37Zm0-14.287H15.584V7.333a.917.917,0,0,1,.917-.917h22a.917.917,0,0,1,.917.917v13.75Z"/>
          <path id="Path_1262681" data-name="Path 1262681" d="M1.834,26.583H6.751L10.3,30.837a.917.917,0,0,0,1.621-.587v-11a1.836,1.836,0,0,0-1.833-1.833H1.834A1.836,1.836,0,0,0,0,19.25v5.5A1.836,1.836,0,0,0,1.834,26.583Zm0-7.333h8.25v8.468L7.121,24.163a.918.918,0,0,0-1.292-.117.9.9,0,0,0-.317.7H1.834Z"/>
          <path id="Path_1262682" data-name="Path 1262682" d="M53.167,28.417h-8.25a1.836,1.836,0,0,0-1.833,1.833v11a.917.917,0,0,0,1.621.587l3.545-4.254h4.917A1.836,1.836,0,0,0,55,35.75v-5.5A1.836,1.836,0,0,0,53.167,28.417Zm0,7.333H49.488a.9.9,0,0,0-.317-.7.919.919,0,0,0-1.292.117l-2.962,3.556V30.25h8.25Z"/>
          <path id="Path_1262683" data-name="Path 1262683" d="M6.417,34.833A6.414,6.414,0,0,0,2.336,46.2c.012.011.026.019.039.029a6.4,6.4,0,0,0,8.084,0c.013-.011.027-.018.039-.03A6.414,6.414,0,0,0,6.417,34.833Zm0,11a4.528,4.528,0,0,1-2.266-.624,2.728,2.728,0,0,1,4.533,0A4.528,4.528,0,0,1,6.417,45.833Zm3.653-1.845a4.575,4.575,0,0,0-7.306,0A4.576,4.576,0,1,1,11,41.25,4.541,4.541,0,0,1,10.07,43.988Z"/>
          <path id="Path_1262684" data-name="Path 1262684" d="M4.584,38.5a.916.916,0,0,0-.917.917v.917a.917.917,0,1,0,1.833,0v-.917a.916.916,0,0,0-.917-.917Z"/>
          <path id="Path_1262685" data-name="Path 1262685" d="M8.25,38.5a.916.916,0,0,0-.917.917v.917a.917.917,0,1,0,1.833,0v-.917A.916.916,0,0,0,8.25,38.5Z"/>
          <path id="Path_1262686" data-name="Path 1262686" d="M52.25,12.833H48.583v-2.75a2.75,2.75,0,0,0-5.5,0v8.25A3.67,3.67,0,0,0,46.75,22h5.5A2.753,2.753,0,0,0,55,19.25V15.583A2.753,2.753,0,0,0,52.25,12.833Zm.917,6.417a.917.917,0,0,1-.917.917h-5.5a1.836,1.836,0,0,1-1.833-1.833v-8.25a.917.917,0,1,1,1.833,0V13.75a.916.916,0,0,0,.917.917H52.25a.917.917,0,0,1,.917.917V19.25Z"/>
        </g>
      </g>
    </g>
  </g>
</svg>
