<svg xmlns="http://www.w3.org/2000/svg" xmlns:xlink="http://www.w3.org/1999/xlink" width="98" height="97.999" viewBox="0 0 98 97.999">
  <defs>
    <clipPath id="clip-path">
      <rect id="Rectangle_411080" data-name="Rectangle 411080" width="55" height="52" transform="translate(825.051 2027)" fill="#fff"/>
    </clipPath>
  </defs>
  <g id="Group_1206226" data-name="Group 1206226" transform="translate(-803.781 -2003.55)">
    <g id="Group_1204447" data-name="Group 1204447" transform="translate(0 -541.412)">
      <g id="Group_1204142" data-name="Group 1204142" transform="translate(-67.331 2267.798)">
        <g id="Group_1188789" data-name="Group 1188789" transform="translate(871.113 277.164)">
          <path id="Path_1243039" data-name="Path 1243039" d="M41.05,0h0a41.05,41.05,0,0,1,0,82.1h0a41.05,41.05,0,0,1,0-82.1Z" transform="translate(7.951 7.949)" fill="#ffa724"/>
          <rect id="Rectangle_400907" data-name="Rectangle 400907" width="88.438" height="88.437" rx="44.218" transform="translate(4.782 4.781)" fill="none"/>
          <g id="Group_1098742" data-name="Group 1098742" transform="translate(0)">
            <g id="Rectangle_400898" data-name="Rectangle 400898" transform="translate(0)" fill="none" stroke="#fff" stroke-width="2" opacity="0.859">
              <rect width="98" height="97.999" rx="48.999" stroke="none"/>
              <rect x="1" y="1" width="96" height="95.999" rx="47.999" fill="none"/>
            </g>
            <g id="Rectangle_400907-2" data-name="Rectangle 400907" transform="translate(0)" fill="none" stroke="#0f1f33" stroke-linecap="round" stroke-width="2">
              <rect width="98" height="97.999" rx="48.999" stroke="none"/>
              <rect x="1" y="1" width="96" height="95.999" rx="47.999" fill="none"/>
            </g>
          </g>
        </g>
      </g>
    </g>
    <g id="Mask_Group_1099567" data-name="Mask Group 1099567" clip-path="url(#clip-path)">
      <g id="mobile_9516875" transform="translate(826.032 2026.482)">
        <rect id="Rectangle_412805" data-name="Rectangle 412805" width="28.902" height="50.757" rx="3.453" transform="translate(5.033 1.139)" fill="#d6d8eb"/>
        <g id="Group_1206756" data-name="Group 1206756">
          <path id="Path_1262643" data-name="Path 1262643" d="M9.335,1.139H30.482a3.463,3.463,0,0,1,3.453,3.453V48.443A3.463,3.463,0,0,1,30.482,51.9H9.335A3.534,3.534,0,0,1,7.7,48.923V4.112A3.534,3.534,0,0,1,9.335,1.139Z" fill="#e1e3fa" fill-rule="evenodd"/>
          <path id="Path_1262644" data-name="Path 1262644" d="M5.033,6.253h28.9V4.592a3.46,3.46,0,0,0-3.453-3.453h-22A3.46,3.46,0,0,0,5.033,4.592Z" fill="#a1a2b3" fill-rule="evenodd"/>
          <path id="Path_1262645" data-name="Path 1262645" d="M7.7,6.253H33.935V4.592a3.46,3.46,0,0,0-3.453-3.453H9.335A3.534,3.534,0,0,0,7.7,4.112v2.14Z" fill="#b1b2c4" fill-rule="evenodd"/>
          <path id="Path_1262646" data-name="Path 1262646" d="M5.033,46.782h28.9v1.661A3.46,3.46,0,0,1,30.482,51.9h-22a3.46,3.46,0,0,1-3.453-3.453Z" fill="#a1a2b3" fill-rule="evenodd"/>
          <path id="Path_1262647" data-name="Path 1262647" d="M7.7,46.782H33.935v1.661A3.46,3.46,0,0,1,30.482,51.9H9.335A3.534,3.534,0,0,1,7.7,48.923v-2.14Z" fill="#b1b2c4" fill-rule="evenodd"/>
          <path id="Path_1262648" data-name="Path 1262648" d="M29.132,1.139H45.149A2.862,2.862,0,0,1,48,3.992V20.01a2.862,2.862,0,0,1-2.853,2.853h-5.9L33.935,28.79V22.863h-4.8a2.862,2.862,0,0,1-2.853-2.853V3.992a2.862,2.862,0,0,1,2.853-2.853Z" fill="#2ab52d" fill-rule="evenodd"/>
          <path id="Path_1262649" data-name="Path 1262649" d="M29.6,1.139H45.149A2.862,2.862,0,0,1,48,3.992V19.537a2.616,2.616,0,0,1-1.971.9H31.325a2.628,2.628,0,0,1-2.62-2.62V3.11a2.616,2.616,0,0,1,.9-1.971Z" fill="#32d736" fill-rule="evenodd"/>
          <path id="Path_1262650" data-name="Path 1262650" d="M24.236,33.6a3.794,3.794,0,0,1,3.783,3.783v4.207H20.453V37.378A3.794,3.794,0,0,1,24.236,33.6Z" fill="#fd481e" fill-rule="evenodd"/>
        </g>
        <circle id="Ellipse_12710" data-name="Ellipse 12710" cx="2.848" cy="2.848" r="2.848" transform="translate(21.388 25.988)" fill="#fd481e"/>
        <path id="Path_1262651" data-name="Path 1262651" d="M14.732,33.6a3.794,3.794,0,0,1,3.783,3.783v4.207H10.949V37.378A3.794,3.794,0,0,1,14.732,33.6Z" fill="#d6b93a" fill-rule="evenodd"/>
        <circle id="Ellipse_12711" data-name="Ellipse 12711" cx="2.848" cy="2.848" r="2.848" transform="translate(11.884 25.988)" fill="#d6b93a"/>
        <path id="Path_1262652" data-name="Path 1262652" d="M15.229,33.628a3.8,3.8,0,0,1,3.286,3.75v4.207H11.944V37.378a3.8,3.8,0,0,1,3.286-3.75Z" fill="#ffdc45" fill-rule="evenodd"/>
        <path id="Path_1262653" data-name="Path 1262653" d="M15.229,26.031a2.848,2.848,0,0,1,0,5.609,2.848,2.848,0,0,1,0-5.609Z" fill="#ffdc45" fill-rule="evenodd"/>
        <path id="Path_1262654" data-name="Path 1262654" d="M19.484,33.059A4.049,4.049,0,0,1,23.52,37.1v4.489H15.447V37.1a4.049,4.049,0,0,1,4.037-4.037Z" fill="#1391c4" fill-rule="evenodd"/>
        <path id="Path_1262655" data-name="Path 1262655" d="M20.136,33.113A4.052,4.052,0,0,1,23.52,37.1v4.489H16.752V37.1a4.052,4.052,0,0,1,3.384-3.983Z" fill="#17ace8" fill-rule="evenodd"/>
        <circle id="Ellipse_12712" data-name="Ellipse 12712" cx="3.039" cy="3.039" r="3.039" transform="matrix(0.29, -0.957, 0.957, 0.29, 15.696, 30.015)" fill="#1391c4"/>
        <path id="Path_1262656" data-name="Path 1262656" d="M20.136,25.012a3.039,3.039,0,0,1,0,5.937,3.039,3.039,0,0,1,0-5.937Z" fill="#17ace8" fill-rule="evenodd"/>
        <path id="Path_1262657" data-name="Path 1262657" d="M27.4,40.963H24.142V37.1a4.627,4.627,0,0,0-.882-2.722,3.153,3.153,0,0,1,4.137,3Zm-4.5,0H16.068V37.1a3.415,3.415,0,0,1,6.831,0v3.867ZM11.571,37.378a3.153,3.153,0,0,1,4.137-3,4.631,4.631,0,0,0-.883,2.722v3.867H11.571Zm12.665-4.4a4.375,4.375,0,0,0-1.906.439,4.643,4.643,0,0,0-5.692,0,4.4,4.4,0,0,0-6.31,3.965v4.207a.621.621,0,0,0,.621.622h17.07a.621.621,0,0,0,.621-.622V37.378a4.409,4.409,0,0,0-4.4-4.4Zm-9.5-6.364a2.212,2.212,0,0,1,1.231.373,3.652,3.652,0,0,0,.571,3.161,2.226,2.226,0,1,1-1.8-3.534Zm4.752-1.046a2.418,2.418,0,1,1-2.417,2.418A2.42,2.42,0,0,1,19.484,25.563Zm4.753,1.046a2.227,2.227,0,1,1-1.8,3.534,3.642,3.642,0,0,0,.709-2.163,3.6,3.6,0,0,0-.14-1,2.219,2.219,0,0,1,1.232-.373Zm-9.5,5.7a3.443,3.443,0,0,0,2.7-1.293,3.652,3.652,0,0,0,4.1,0,3.471,3.471,0,1,0,.928-5.158,3.654,3.654,0,0,0-5.954,0,3.469,3.469,0,1,0-1.775,6.45ZM40.806,14.98a3.372,3.372,0,0,1-2.94,2.8v1.53a.725.725,0,1,1-1.45,0V17.773a3.806,3.806,0,0,1-2.608-1.451.725.725,0,0,1,1.206-.806,2.689,2.689,0,0,0,2.057.868,2.1,2.1,0,0,0,2.293-1.564c.137-1.229-.932-1.657-2.577-2.169-.153-.048-.3-.093-.444-.14C33.9,11.718,33.273,10.1,33.5,8.85a3.417,3.417,0,0,1,2.919-2.627V4.69a.725.725,0,0,1,1.45,0V6.228A3.817,3.817,0,0,1,40.484,7.68a.725.725,0,0,1-1.205.806,2.691,2.691,0,0,0-2.058-.867,2.108,2.108,0,0,0-2.3,1.487c-.15.839.547,1.6,1.867,2.025.138.045.28.089.427.135,1.539.478,3.866,1.2,3.588,3.713Zm6.576,5.03a2.235,2.235,0,0,1-2.232,2.232h-5.9a.621.621,0,0,0-.463.206l-4.227,4.717v-4.3a.622.622,0,0,0-.622-.621h-4.8A2.234,2.234,0,0,1,26.9,20.01V3.992a2.233,2.233,0,0,1,2.231-2.231H45.149a2.234,2.234,0,0,1,2.232,2.231V20.01Zm-16.9,31.265h-22a2.835,2.835,0,0,1-2.831-2.832V47.4H33.313v1.039A2.835,2.835,0,0,1,30.482,51.275ZM8.341,1.764c.048,0,.1,0,.145,0H26.471a3.458,3.458,0,0,0-.814,2.231V5.631h-20V4.592A2.835,2.835,0,0,1,8.341,1.764Zm24.972,44.4V23.485H29.132a3.478,3.478,0,0,1-3.474-3.475V6.874h-20V46.161H33.313ZM45.149.518H8.486A4.063,4.063,0,0,0,7.666.6,4.108,4.108,0,0,0,6.9.838c-.061.026-.121.053-.181.082A4.079,4.079,0,0,0,4.412,4.592V48.443a4.079,4.079,0,0,0,4.074,4.075h22a4.079,4.079,0,0,0,4.074-4.075V29.028l4.968-5.543h5.625a3.48,3.48,0,0,0,3.476-3.475V3.992A3.479,3.479,0,0,0,45.149.518Z" fill-rule="evenodd"/>
      </g>
    </g>
  </g>
</svg>
