<svg xmlns="http://www.w3.org/2000/svg" xmlns:xlink="http://www.w3.org/1999/xlink" width="98" height="97.998" viewBox="0 0 98 97.998">
  <defs>
    <clipPath id="clip-path">
      <rect id="Rectangle_411080" data-name="Rectangle 411080" width="55" height="52" transform="translate(825.051 2027)" fill="#fff"/>
    </clipPath>
  </defs>
  <g id="Group_1206232" data-name="Group 1206232" transform="translate(-803.781 -2003.55)">
    <g id="Group_1204447" data-name="Group 1204447" transform="translate(0 -541.412)">
      <g id="Group_1204142" data-name="Group 1204142" transform="translate(-67.331 2267.798)">
        <g id="Group_1188789" data-name="Group 1188789" transform="translate(871.113 277.164)">
          <path id="Path_1243039" data-name="Path 1243039" d="M41.05,0h0a41.05,41.05,0,0,1,0,82.1h0a41.05,41.05,0,0,1,0-82.1Z" transform="translate(7.951 7.949)" fill="#ffa724"/>
          <rect id="Rectangle_400907" data-name="Rectangle 400907" width="88.438" height="88.437" rx="44.218" transform="translate(4.782 4.781)" fill="none"/>
          <g id="Group_1098742" data-name="Group 1098742" transform="translate(0)">
            <g id="Rectangle_400898" data-name="Rectangle 400898" transform="translate(0)" fill="none" stroke="#fff" stroke-width="2" opacity="0.859">
              <rect width="98" height="97.999" rx="48.999" stroke="none"/>
              <rect x="1" y="1" width="96" height="95.999" rx="47.999" fill="none"/>
            </g>
            <g id="Rectangle_400907-2" data-name="Rectangle 400907" transform="translate(0)" fill="none" stroke="#0f1f33" stroke-linecap="round" stroke-width="2">
              <rect width="98" height="97.999" rx="48.999" stroke="none"/>
              <rect x="1" y="1" width="96" height="95.999" rx="47.999" fill="none"/>
            </g>
          </g>
        </g>
      </g>
    </g>
    <g id="Mask_Group_1099570" data-name="Mask Group 1099570" clip-path="url(#clip-path)">
      <g id="self-worth_10242864" transform="translate(825.712 2026.161)">
        <path id="Path_1262705" data-name="Path 1262705" d="M51.161,8.387H32.71a.841.841,0,0,0-.839.839v15.1a.841.841,0,0,0,.839.839h7.548l1.677,4.194,1.677-4.194h7.548A.841.841,0,0,0,52,24.323V9.226A.841.841,0,0,0,51.161,8.387Z" fill="#cce0ff"/>
        <rect id="Rectangle_412809" data-name="Rectangle 412809" width="23.484" height="42.774" rx="1.677" transform="translate(1.677 1.677)" fill="#8394a6"/>
        <path id="Path_1262706" data-name="Path 1262706" d="M1.677,5.032H25.161V41.1H1.677Z" fill="#f2f2f2"/>
        <circle id="Ellipse_12715" data-name="Ellipse 12715" cx="3.355" cy="3.355" r="3.355" transform="translate(38.581 33.548)" fill="#ffd199"/>
        <path id="Path_1262707" data-name="Path 1262707" d="M47.806,52V44.452A3.354,3.354,0,0,0,44.452,41.1H39.419a3.354,3.354,0,0,0-3.355,3.355V52Z" fill="#4d9aff"/>
        <circle id="Ellipse_12716" data-name="Ellipse 12716" cx="2.935" cy="2.935" r="2.935" transform="translate(10.484 21.806)" fill="#ffd199"/>
        <path id="Path_1262708" data-name="Path 1262708" d="M18.452,37.742V31.871A3.354,3.354,0,0,0,15.1,28.516H11.742a3.354,3.354,0,0,0-3.355,3.355v5.871Z" fill="#67cc6d"/>
        <path id="Path_1262709" data-name="Path 1262709" d="M7.548,11.742H10.9v6.71H7.548Z" fill="#67cc6d"/>
        <path id="Path_1262710" data-name="Path 1262710" d="M10.9,17.613h.839L13,18.452h4.621a1.314,1.314,0,0,0,1.3-1.166l.361-3.271a1.309,1.309,0,0,0-1.3-1.451H16.045l.7-2.818a1.1,1.1,0,0,0-.688-1.317,1.08,1.08,0,0,0-1.317.637l-.83,2.223a1.961,1.961,0,0,1-1.837,1.275H10.912V17.6Z" fill="#ffd199"/>
        <path id="Path_1262711" data-name="Path 1262711" d="M44.452,11.742h3.355v6.71H44.452Z" transform="translate(92.258 30.194) rotate(180)" fill="#4d9aff"/>
        <path id="Path_1262712" data-name="Path 1262712" d="M44.452,12.581h-.839l-1.258-.839H37.734a1.314,1.314,0,0,0-1.3,1.166l-.361,3.271a1.309,1.309,0,0,0,1.3,1.451H39.31l-.7,2.818a1.1,1.1,0,0,0,.688,1.317,1.08,1.08,0,0,0,1.317-.637l.83-2.223a1.961,1.961,0,0,1,1.837-1.275h1.166V12.589Z" fill="#ffd199"/>
        <path id="Path_1262713" data-name="Path 1262713" d="M44.452,40.258h-.025a4.194,4.194,0,1,0-4.982,0h-.025a4.2,4.2,0,0,0-4.194,4.194V52a.841.841,0,0,0,.839.839H47.806A.841.841,0,0,0,48.645,52V44.452A4.2,4.2,0,0,0,44.452,40.258ZM39.419,36.9a2.516,2.516,0,1,1,2.516,2.516A2.524,2.524,0,0,1,39.419,36.9Zm7.548,14.258H36.9v-6.71a2.524,2.524,0,0,1,2.516-2.516h5.032a2.524,2.524,0,0,1,2.516,2.516Z"/>
        <path id="Path_1262714" data-name="Path 1262714" d="M7.548,31.871v5.871a.841.841,0,0,0,.839.839H18.452a.841.841,0,0,0,.839-.839V31.871a4.191,4.191,0,0,0-3.6-4.135,3.774,3.774,0,1,0-4.546,0A4.185,4.185,0,0,0,7.548,31.871Zm5.871-9.226a2.1,2.1,0,1,1-2.1,2.1A2.1,2.1,0,0,1,13.419,22.645ZM9.226,31.871a2.524,2.524,0,0,1,2.516-2.516H15.1a2.524,2.524,0,0,1,2.516,2.516V36.9H9.226Z"/>
        <path id="Path_1262715" data-name="Path 1262715" d="M20.112,14.115a2.148,2.148,0,0,0-2.139-2.382H17.11l.445-1.77A1.923,1.923,0,0,0,16.3,7.641a1.9,1.9,0,0,0-2.348,1.141L13.117,11a1.125,1.125,0,0,1-1.048.73h-.335a.834.834,0,0,0-.839-.83H7.54a.841.841,0,0,0-.839.839v6.71a.841.841,0,0,0,.839.839h3.355A.82.82,0,0,0,11.7,18.6l.822.545a.831.831,0,0,0,.461.143H17.6a2.137,2.137,0,0,0,2.13-1.912l.361-3.271Zm-10.048,3.5H8.387V12.581h1.677Zm8.018-.419a.473.473,0,0,1-.47.419h-4.37l-1.048-.7a.831.831,0,0,0-.461-.143V13.411h.327a2.822,2.822,0,0,0,2.625-1.82l.83-2.223a.221.221,0,0,1,.285-.134.264.264,0,0,1,.126.31l-.7,2.818a.88.88,0,0,0,.151.721.843.843,0,0,0,.663.319h1.937a.479.479,0,0,1,.352.159.451.451,0,0,1,.117.361Z"/>
        <path id="Path_1262716" data-name="Path 1262716" d="M37.373,18.46h.864l-.445,1.77A1.9,1.9,0,0,0,41.407,21.4l.83-2.223a1.125,1.125,0,0,1,1.048-.73h.335a.834.834,0,0,0,.839.83h3.355a.841.841,0,0,0,.839-.839v-6.71a.841.841,0,0,0-.839-.839H44.46a.82.82,0,0,0-.805.688l-.822-.545a.831.831,0,0,0-.461-.143H37.75a2.137,2.137,0,0,0-2.13,1.912l-.361,3.271A2.148,2.148,0,0,0,37.4,18.46Zm7.917-5.879h1.677v5.032H45.29ZM37.272,13a.473.473,0,0,1,.47-.419h4.37l1.048.7a.831.831,0,0,0,.461.143v3.363h-.327a2.822,2.822,0,0,0-2.625,1.82l-.83,2.223a.221.221,0,0,1-.285.134.264.264,0,0,1-.126-.31l.7-2.818a.88.88,0,0,0-.151-.721.843.843,0,0,0-.663-.319H37.381a.479.479,0,0,1-.352-.159.451.451,0,0,1-.117-.361Z"/>
        <path id="Path_1262717" data-name="Path 1262717" d="M51.161,7.548H32.71a1.682,1.682,0,0,0-1.677,1.677v15.1A1.682,1.682,0,0,0,32.71,26h6.978l1.468,3.665a.84.84,0,0,0,1.56,0L44.183,26h6.978a1.682,1.682,0,0,0,1.677-1.677V9.226A1.682,1.682,0,0,0,51.161,7.548Zm0,16.774H43.613a.839.839,0,0,0-.78.528l-.9,2.248-.9-2.248a.839.839,0,0,0-.78-.528H32.71V9.226H51.161Z"/>
        <path id="Path_1262718" data-name="Path 1262718" d="M33.619,38.12H35.3v1.71H33.619Z" transform="matrix(0.49, -0.872, 0.872, 0.49, -16.422, 49.92)"/>
        <path id="Path_1262719" data-name="Path 1262719" d="M21.4,32.6l2.927,1.644v6.014H2.516V5.871H24.323V30.194H26V3.355A2.524,2.524,0,0,0,23.484.839H3.355A2.524,2.524,0,0,0,.839,3.355V42.774A2.524,2.524,0,0,0,3.355,45.29H23.484A2.524,2.524,0,0,0,26,42.774V35.192l5.829,3.279.822-1.459L22.217,31.141ZM2.516,3.355a.841.841,0,0,1,.839-.839H23.484a.841.841,0,0,1,.839.839v.839H2.516ZM24.323,42.774a.841.841,0,0,1-.839.839H3.355a.841.841,0,0,1-.839-.839v-.839H24.323Z"/>
      </g>
    </g>
  </g>
</svg>
