<svg xmlns="http://www.w3.org/2000/svg" xmlns:xlink="http://www.w3.org/1999/xlink" width="98" height="97.998" viewBox="0 0 98 97.998">
  <defs>
    <clipPath id="clip-path">
      <rect id="Rectangle_411080" data-name="Rectangle 411080" width="55" height="52" transform="translate(825.051 2027)" fill="#fff"/>
    </clipPath>
  </defs>
  <g id="Group_1206229" data-name="Group 1206229" transform="translate(-803.781 -2003.55)">
    <g id="Group_1204447" data-name="Group 1204447" transform="translate(0 -541.412)">
      <g id="Group_1204142" data-name="Group 1204142" transform="translate(-67.331 2267.798)">
        <g id="Group_1188789" data-name="Group 1188789" transform="translate(871.113 277.164)">
          <path id="Path_1243039" data-name="Path 1243039" d="M41.05,0h0a41.05,41.05,0,0,1,0,82.1h0a41.05,41.05,0,0,1,0-82.1Z" transform="translate(7.951 7.949)" fill="#ffa724"/>
          <rect id="Rectangle_400907" data-name="Rectangle 400907" width="88.438" height="88.437" rx="44.218" transform="translate(4.782 4.781)" fill="none"/>
          <g id="Group_1098742" data-name="Group 1098742" transform="translate(0)">
            <g id="Rectangle_400898" data-name="Rectangle 400898" transform="translate(0)" fill="none" stroke="#fff" stroke-width="2" opacity="0.859">
              <rect width="98" height="97.999" rx="48.999" stroke="none"/>
              <rect x="1" y="1" width="96" height="95.999" rx="47.999" fill="none"/>
            </g>
            <g id="Rectangle_400907-2" data-name="Rectangle 400907" transform="translate(0)" fill="none" stroke="#0f1f33" stroke-linecap="round" stroke-width="2">
              <rect width="98" height="97.999" rx="48.999" stroke="none"/>
              <rect x="1" y="1" width="96" height="95.999" rx="47.999" fill="none"/>
            </g>
          </g>
        </g>
      </g>
    </g>
    <g id="Mask_Group_1099569" data-name="Mask Group 1099569" clip-path="url(#clip-path)">
      <g id="monitoring" transform="translate(826.539 2027)">
        <path id="Path_1262687" data-name="Path 1262687" d="M50.939,3.251V7.587H1.084V3.251A2.168,2.168,0,0,1,3.251,1.084h45.52A2.168,2.168,0,0,1,50.939,3.251Z" fill="#c6c3d8"/>
        <path id="Path_1262688" data-name="Path 1262688" d="M50.939,3.251V5.419H8.67A4.335,4.335,0,0,1,4.335,1.084H48.772A2.168,2.168,0,0,1,50.939,3.251Z" fill="#dad7e5"/>
        <path id="Path_1262689" data-name="Path 1262689" d="M50.939,7.587v36.85A2.168,2.168,0,0,1,48.772,46.6H3.251a2.168,2.168,0,0,1-2.168-2.168V7.587Z" fill="#dad7e5"/>
        <path id="Path_1262690" data-name="Path 1262690" d="M50.939,7.587v36.85H41.185A36.958,36.958,0,0,1,4.335,7.587Z" fill="#edebf2"/>
        <path id="Path_1262691" data-name="Path 1262691" d="M35.766,45.52a7.843,7.843,0,0,1-.585.889,11.575,11.575,0,0,1-9.169,4.53,11.445,11.445,0,0,1-9.754-5.419,10.135,10.135,0,0,1,2.753-3.056,11.716,11.716,0,0,1,7-2.363A11.444,11.444,0,0,1,35.766,45.52Z" fill="#dad7e5"/>
        <path id="Path_1262692" data-name="Path 1262692" d="M35.766,45.52a7.843,7.843,0,0,1-.585.889,11.716,11.716,0,0,1-7,2.363,11.445,11.445,0,0,1-9.754-5.419,7.842,7.842,0,0,1,.585-.889,11.716,11.716,0,0,1,7-2.363A11.445,11.445,0,0,1,35.766,45.52Z" fill="#edebf2"/>
        <path id="Path_1262693" data-name="Path 1262693" d="M16.257,23.844h4.335V34.682H16.257Z" fill="#db5669"/>
        <path id="Path_1262694" data-name="Path 1262694" d="M20.592,23.844v8.67a2.168,2.168,0,0,1-2.168-2.168v-6.5Z" fill="#f26674"/>
        <path id="Path_1262695" data-name="Path 1262695" d="M22.76,15.173H27.1V34.682H22.76Z" fill="#9dcc6b"/>
        <path id="Path_1262696" data-name="Path 1262696" d="M27.1,15.173V32.514a2.168,2.168,0,0,1-2.168-2.168V15.173Z" fill="#b5e08c"/>
        <path id="Path_1262697" data-name="Path 1262697" d="M32.413,19.509h4.335V34.682H32.413Z" fill="#fc6"/>
        <path id="Path_1262698" data-name="Path 1262698" d="M33.6,19.509V32.514a2.168,2.168,0,0,1-2.168-2.168V19.509Z" fill="#ffde76"/>
        <circle id="Ellipse_12714" data-name="Ellipse 12714" cx="3.793" cy="3.793" r="3.793" transform="translate(22.218 40.101)" fill="#6fabe6"/>
        <g id="monitoring_1_">
          <path id="Path_1262699" data-name="Path 1262699" d="M48.772,0H3.251A3.251,3.251,0,0,0,0,3.251V44.436a3.251,3.251,0,0,0,3.251,3.251h9.754a1.084,1.084,0,1,0,0-2.168H3.251a1.084,1.084,0,0,1-1.084-1.084V8.67H49.855V44.436a1.084,1.084,0,0,1-1.084,1.084H39.017a1.084,1.084,0,0,0,0,2.168h9.754a3.251,3.251,0,0,0,3.251-3.251V3.251A3.251,3.251,0,0,0,48.772,0ZM2.168,6.5V3.251A1.084,1.084,0,0,1,3.251,2.168h45.52a1.084,1.084,0,0,1,1.084,1.084V6.5Z"/>
          <path id="Path_1262700" data-name="Path 1262700" d="M15.314,44.978a1.084,1.084,0,0,0,0,1.084c4.585,7.923,16.81,7.912,21.394,0a1.084,1.084,0,0,0,0-1.084C32.124,37.055,19.9,37.066,15.314,44.978Zm13.407-1.084a2.71,2.71,0,1,1-2.71-2.71A2.71,2.71,0,0,1,28.721,43.894ZM17.536,45.52a10,10,0,0,1,3.9-3.251,4.866,4.866,0,1,0,9.147,0,10,10,0,0,1,3.9,3.251,10.481,10.481,0,0,1-16.951,0Z"/>
          <path id="Path_1262701" data-name="Path 1262701" d="M40.415,36.08a1.084,1.084,0,0,0,.769,1.853c.585,0,.618-.163,2.937-2.482,1.03-1.03-.574-2.113-2.168-3.707a1.088,1.088,0,0,0-1.539,1.539l.325.314H37.933V19.509a1.084,1.084,0,0,0-1.084-1.084H32.514a1.084,1.084,0,0,0-1.084,1.084V33.6H29.263V15.173a1.084,1.084,0,0,0-1.084-1.084H23.844a1.084,1.084,0,0,0-1.084,1.084V33.6H20.592V23.844a1.084,1.084,0,0,0-1.084-1.084H15.173a1.084,1.084,0,0,0-1.084,1.084V33.6H11.922c0-20.69-.13-18.1.314-17.655A1.088,1.088,0,1,0,13.775,14.4c-3.338-3.327-2.536-3.338-5.874,0a1.084,1.084,0,0,0,.77,1.853,1.452,1.452,0,0,0,1.084-.639V34.682a1.084,1.084,0,0,0,1.084,1.084c33.295,0,30.087-.2,29.577.314ZM16.257,33.6v-8.67h2.168V33.6Zm8.67,0V16.257H27.1V33.6Zm8.671,0V20.592h2.168V33.6Z"/>
          <path id="Path_1262702" data-name="Path 1262702" d="M5.419,3.251A1.084,1.084,0,1,0,6.5,4.335,1.084,1.084,0,0,0,5.419,3.251Z"/>
          <path id="Path_1262703" data-name="Path 1262703" d="M9.754,3.251a1.084,1.084,0,1,0,1.084,1.084A1.084,1.084,0,0,0,9.754,3.251Z"/>
          <path id="Path_1262704" data-name="Path 1262704" d="M14.09,3.251a1.084,1.084,0,1,0,1.084,1.084A1.084,1.084,0,0,0,14.09,3.251Z"/>
        </g>
      </g>
    </g>
  </g>
</svg>
