<svg xmlns="http://www.w3.org/2000/svg" xmlns:xlink="http://www.w3.org/1999/xlink" width="98" height="97.999" viewBox="0 0 98 97.999">
  <defs>
    <clipPath id="clip-path">
      <rect id="Rectangle_411080" data-name="Rectangle 411080" width="55" height="52" transform="translate(825.051 2027)" fill="#fff"/>
    </clipPath>
  </defs>
  <g id="Group_1206222" data-name="Group 1206222" transform="translate(-803.781 -2003.55)">
    <g id="Group_1204447" data-name="Group 1204447" transform="translate(0 -541.412)">
      <g id="Group_1204142" data-name="Group 1204142" transform="translate(-67.331 2267.798)">
        <g id="Group_1188789" data-name="Group 1188789" transform="translate(871.113 277.164)">
          <path id="Path_1243039" data-name="Path 1243039" d="M41.05,0h0a41.05,41.05,0,0,1,0,82.1h0a41.05,41.05,0,0,1,0-82.1Z" transform="translate(7.951 7.949)" fill="#ffa724"/>
          <rect id="Rectangle_400907" data-name="Rectangle 400907" width="88.438" height="88.437" rx="44.218" transform="translate(4.782 4.781)" fill="none"/>
          <g id="Group_1098742" data-name="Group 1098742" transform="translate(0)">
            <g id="Rectangle_400898" data-name="Rectangle 400898" transform="translate(0)" fill="none" stroke="#fff" stroke-width="2" opacity="0.859">
              <rect width="98" height="97.999" rx="48.999" stroke="none"/>
              <rect x="1" y="1" width="96" height="95.999" rx="47.999" fill="none"/>
            </g>
            <g id="Rectangle_400907-2" data-name="Rectangle 400907" transform="translate(0)" fill="none" stroke="#0f1f33" stroke-linecap="round" stroke-width="2">
              <rect width="98" height="97.999" rx="48.999" stroke="none"/>
              <rect x="1" y="1" width="96" height="95.999" rx="47.999" fill="none"/>
            </g>
          </g>
        </g>
      </g>
    </g>
    <g id="Mask_Group_1099566" data-name="Mask Group 1099566" clip-path="url(#clip-path)">
      <g id="Layer_31" data-name="Layer 31" transform="translate(824.164 2024.613)">
        <path id="Path_1262613" data-name="Path 1262613" d="M34.6,48.79l-.887-5.323H23.065l-.887,5.323Z" fill="#b3b3b3"/>
        <path id="Path_1262614" data-name="Path 1262614" d="M4.435,7.984a2.661,2.661,0,0,0-2.661,2.661V40.806a2.661,2.661,0,0,0,2.661,2.661h47.9A2.661,2.661,0,0,0,55,40.806V10.645a2.661,2.661,0,0,0-2.661-2.661Z" fill="#b3b3b3"/>
        <rect id="Rectangle_412804" data-name="Rectangle 412804" width="49.677" height="35.484" rx="2.661" transform="translate(5.323 7.984)" fill="#ccc"/>
        <path id="Path_1262615" data-name="Path 1262615" d="M1.774,11.532H55V38.145H1.774Z" fill="#66c3e9"/>
        <path id="Path_1262616" data-name="Path 1262616" d="M5.323,11.532H55V38.145H5.323Z" fill="#8adef9"/>
        <path id="Path_1262617" data-name="Path 1262617" d="M35.484,48.79H21.29a2.661,2.661,0,0,0-2.661,2.661v.887H38.145v-.887A2.661,2.661,0,0,0,35.484,48.79Z" fill="#ccc"/>
        <path id="Path_1262618" data-name="Path 1262618" d="M35.484,48.79H21.29a2.628,2.628,0,0,0-.871.158,1.768,1.768,0,0,0,1.758,1.616h15.8a2.652,2.652,0,0,0-2.5-1.774Z" fill="#e6e6e6"/>
        <path id="Path_1262619" data-name="Path 1262619" d="M25.371,17.821a8.894,8.894,0,1,0-3.115,3.115l4.357,1.242Z" fill="#e73844"/>
        <path id="Path_1262620" data-name="Path 1262620" d="M17.742,4.435a8.819,8.819,0,0,0-5.316,1.782A8.859,8.859,0,0,0,25.452,18.112l-.083-.291A8.858,8.858,0,0,0,17.742,4.435Z" fill="#ff4d55"/>
        <path id="Path_1262621" data-name="Path 1262621" d="M11.468,12.417H24.011v1.774H11.468Z" transform="translate(-4.213 16.443) rotate(-45)" fill="#fce694"/>
        <circle id="Ellipse_12708" data-name="Ellipse 12708" cx="1.774" cy="1.774" r="1.774" transform="translate(19.516 14.194)" fill="#fce694"/>
        <circle id="Ellipse_12709" data-name="Ellipse 12709" cx="1.774" cy="1.774" r="1.774" transform="translate(12.419 8.871)" fill="#fce694"/>
        <path id="Path_1262622" data-name="Path 1262622" d="M31.606,41.339a7.427,7.427,0,0,0,6.539,3.9l3.454.006a6.277,6.277,0,0,0,5.959-4.293l.017-.051a6.35,6.35,0,0,0,.328-2.02c0-2.337,0-9.611,0-9.611v-.041A1.725,1.725,0,0,0,46.178,27.5h-.044a1.774,1.774,0,0,0-1.779,1.774v-.887a1.774,1.774,0,0,0-3.548,0v-.936a1.725,1.725,0,0,0-1.725-1.725h-.044A1.774,1.774,0,0,0,37.258,27.5V22.177a1.774,1.774,0,1,0-3.548,0V33.71l-3.016-2.262a2,2,0,0,0-3.194,1.6,2.642,2.642,0,0,0,.316,1.251Z" fill="#fec99c"/>
        <path id="Path_1262623" data-name="Path 1262623" d="M47.9,29.274v-.042A1.725,1.725,0,0,0,46.178,27.5h-.044a1.774,1.774,0,0,0-1.779,1.774v-.887a1.774,1.774,0,0,0-3.548,0v-.936a1.725,1.725,0,0,0-1.725-1.725h-.044A1.774,1.774,0,0,0,37.258,27.5V22.177a1.774,1.774,0,1,0-3.548,0V33.71l-3.016-2.262a2,2,0,0,0-1.2-.4,1.87,1.87,0,0,0-.2.02,1.887,1.887,0,0,0-.021.2,2.631,2.631,0,0,0,.316,1.251l3.791,7.044a7.425,7.425,0,0,0,6.538,3.9l3.453.006a6.235,6.235,0,0,0,3.449-1.048,6.234,6.234,0,0,0,.735-1.471l.017-.051a6.352,6.352,0,0,0,.329-2.021v-9.61Z" fill="#fedab6"/>
        <path id="Path_1262624" data-name="Path 1262624" d="M36.37,27.5h1.774v5.323H36.37Z" fill="#fec99c"/>
        <path id="Path_1262625" data-name="Path 1262625" d="M39.918,28.387h1.774v4.435H39.918Z" fill="#fec99c"/>
        <path id="Path_1262626" data-name="Path 1262626" d="M43.467,29.274h1.774v3.548H43.467Z" fill="#fec99c"/>
        <g id="Group_1206755" data-name="Group 1206755">
          <path id="Path_1262627" data-name="Path 1262627" d="M34.6,14.194h1.774v3.548H34.6Z" fill="#fff"/>
          <path id="Path_1262628" data-name="Path 1262628" d="M36.7,16.409h3.763v1.774H36.7Z" transform="translate(-0.93 32.353) rotate(-45)" fill="#fff"/>
          <path id="Path_1262629" data-name="Path 1262629" d="M31.487,15.415h1.774v3.763H31.487Z" transform="translate(-2.748 27.962) rotate(-45)" fill="#fff"/>
          <path id="Path_1262630" data-name="Path 1262630" d="M4.435,30.161H16.855v1.774H4.435Z" fill="#fff"/>
          <path id="Path_1262631" data-name="Path 1262631" d="M4.435,33.71H22.177v1.774H4.435Z" fill="#fff"/>
          <path id="Path_1262632" data-name="Path 1262632" d="M4.435,26.613H23.952v1.774H4.435Z" fill="#fff"/>
        </g>
        <path id="Path_1262633" data-name="Path 1262633" d="M52.339,7.1H25.264a9.747,9.747,0,0,0-15.043,0H4.435A3.548,3.548,0,0,0,.887,10.645V40.806a3.548,3.548,0,0,0,3.548,3.548H22.018L21.426,47.9H21.29a3.548,3.548,0,0,0-3.548,3.548v.887a.887.887,0,0,0,.887.887H38.145a.887.887,0,0,0,.887-.887v-.887A3.548,3.548,0,0,0,35.484,47.9h-.136l-.4-2.418a8.3,8.3,0,0,0,3.2.644l3.454.006H41.6a7.1,7.1,0,0,0,4.689-1.78h6.045a3.548,3.548,0,0,0,3.548-3.548V10.645A3.548,3.548,0,0,0,52.339,7.1Zm0,1.774a1.774,1.774,0,0,1,1.774,1.774H27.122a9.735,9.735,0,0,0-.7-1.774ZM48.03,27.382a2.624,2.624,0,0,0-1.9-.769,2.655,2.655,0,0,0-1.31.344,2.661,2.661,0,0,0-3.531-.9,2.69,2.69,0,0,0-3.147-1.066V22.177a2.661,2.661,0,0,0-5.323,0v9.758l-1.6-1.2a2.884,2.884,0,0,0-4.613,2.306,3.536,3.536,0,0,0,.422,1.671L28.4,37.258H2.661V12.419H8.029c-.027.293-.045.587-.045.887a9.746,9.746,0,0,0,14.387,8.582l4,1.142a.87.87,0,0,0,.243.035.887.887,0,0,0,.853-1.131l-1.143-4A9.737,9.737,0,0,0,27.5,13.306c0-.3-.019-.594-.045-.887H54.113V37.258H48.79V29.237a2.6,2.6,0,0,0-.76-1.855ZM17.742,5.323A7.97,7.97,0,0,1,24.6,17.368a.894.894,0,0,0-.089.7l.806,2.821L22.5,20.08a.887.887,0,0,0-.7.089A7.984,7.984,0,1,1,17.742,5.323ZM4.435,8.871H9.061a9.735,9.735,0,0,0-.7,1.774h-5.7A1.774,1.774,0,0,1,4.435,8.871ZM2.661,40.806V39.032h26.7l1.467,2.725a8.408,8.408,0,0,0,.518.823H4.435A1.774,1.774,0,0,1,2.661,40.806Zm34.6,10.645H19.516a1.774,1.774,0,0,1,1.774-1.774H35.484A1.774,1.774,0,0,1,37.258,51.452ZM23.224,47.9l.592-3.548h9.142L33.55,47.9ZM41.6,44.361l-3.46-.006a6.528,6.528,0,0,1-5.756-3.438L28.6,33.875a1.766,1.766,0,0,1-.209-.83,1.11,1.11,0,0,1,1.774-.887l3.016,2.262a.887.887,0,0,0,1.419-.71V22.177a.887.887,0,1,1,1.774,0V32.823h1.774V27.5a.9.9,0,0,1,.938-.887.831.831,0,0,1,.592.245.868.868,0,0,1,.245.642v5.323h1.774V28.387a.887.887,0,0,1,1.774,0v4.435h1.774V29.274a.9.9,0,0,1,.938-.887.834.834,0,0,1,.593.247.864.864,0,0,1,.243.64v9.61a5.589,5.589,0,0,1-.3,1.791A5.378,5.378,0,0,1,41.6,44.361Zm10.734-1.78H47.762a6.879,6.879,0,0,0,1.016-3.548h5.335v1.774A1.774,1.774,0,0,1,52.339,42.581Z"/>
        <path id="Path_1262634" data-name="Path 1262634" d="M11.468,12.417H24.011v1.774H11.468Z" transform="translate(-4.213 16.443) rotate(-45)"/>
        <path id="Path_1262635" data-name="Path 1262635" d="M18.629,15.968a2.661,2.661,0,1,0,2.661-2.661A2.661,2.661,0,0,0,18.629,15.968Zm3.548,0a.887.887,0,1,1-.887-.887A.887.887,0,0,1,22.177,15.968Z"/>
        <path id="Path_1262636" data-name="Path 1262636" d="M14.194,13.306a2.661,2.661,0,1,0-2.661-2.661A2.661,2.661,0,0,0,14.194,13.306Zm0-3.548a.887.887,0,1,1-.887.887A.887.887,0,0,1,14.194,9.758Z"/>
        <path id="Path_1262637" data-name="Path 1262637" d="M34.6,14.194h1.774v3.548H34.6Z"/>
        <path id="Path_1262638" data-name="Path 1262638" d="M36.7,16.409h3.763v1.774H36.7Z" transform="translate(-0.93 32.353) rotate(-45)"/>
        <path id="Path_1262639" data-name="Path 1262639" d="M31.487,15.415h1.774v3.763H31.487Z" transform="translate(-2.748 27.962) rotate(-45)"/>
        <path id="Path_1262640" data-name="Path 1262640" d="M4.435,30.161H16.855v1.774H4.435Z"/>
        <path id="Path_1262641" data-name="Path 1262641" d="M4.435,33.71H22.177v1.774H4.435Z"/>
        <path id="Path_1262642" data-name="Path 1262642" d="M4.435,26.613H23.952v1.774H4.435Z"/>
      </g>
    </g>
  </g>
</svg>
