<svg xmlns="http://www.w3.org/2000/svg" xmlns:xlink="http://www.w3.org/1999/xlink" width="98" height="97.999" viewBox="0 0 98 97.999">
  <defs>
    <clipPath id="clip-path">
      <rect id="Rectangle_411080" data-name="Rectangle 411080" width="55" height="52" transform="translate(825.051 2027)" fill="#fff"/>
    </clipPath>
  </defs>
  <g id="Group_1206224" data-name="Group 1206224" transform="translate(-803.781 -2003.55)">
    <g id="Group_1204447" data-name="Group 1204447" transform="translate(0 -541.412)">
      <g id="Group_1204142" data-name="Group 1204142" transform="translate(-67.331 2267.798)">
        <g id="Group_1188789" data-name="Group 1188789" transform="translate(871.113 277.164)">
          <path id="Path_1243039" data-name="Path 1243039" d="M41.05,0h0a41.05,41.05,0,0,1,0,82.1h0a41.05,41.05,0,0,1,0-82.1Z" transform="translate(7.951 7.949)" fill="#ffa724"/>
          <rect id="Rectangle_400907" data-name="Rectangle 400907" width="88.438" height="88.437" rx="44.218" transform="translate(4.782 4.781)" fill="none"/>
          <g id="Group_1098742" data-name="Group 1098742" transform="translate(0)">
            <g id="Rectangle_400898" data-name="Rectangle 400898" transform="translate(0)" fill="none" stroke="#fff" stroke-width="2" opacity="0.859">
              <rect width="98" height="97.999" rx="48.999" stroke="none"/>
              <rect x="1" y="1" width="96" height="95.999" rx="47.999" fill="none"/>
            </g>
            <g id="Rectangle_400907-2" data-name="Rectangle 400907" transform="translate(0)" fill="none" stroke="#0f1f33" stroke-linecap="round" stroke-width="2">
              <rect width="98" height="97.999" rx="48.999" stroke="none"/>
              <rect x="1" y="1" width="96" height="95.999" rx="47.999" fill="none"/>
            </g>
          </g>
        </g>
      </g>
    </g>
    <g id="Mask_Group_1099563" data-name="Mask Group 1099563" clip-path="url(#clip-path)">
      <g id="social-media_2327640" transform="translate(825.712 2026.161)">
        <g id="Group_1206753" data-name="Group 1206753">
          <g id="Group_1206741" data-name="Group 1206741">
            <path id="Path_1262563" data-name="Path 1262563" d="M20.129,46.968v3.892a1.143,1.143,0,0,1-2.021.73l-3.85-4.621H5.032A1.682,1.682,0,0,1,3.355,45.29V28.516a1.682,1.682,0,0,1,1.677-1.677H13.7l1.057,1.266a1.143,1.143,0,0,0,2.021-.73v-.537h6.71v1.677a1.682,1.682,0,0,0,1.677,1.677h6.71v15.1a1.682,1.682,0,0,1-1.677,1.677Z" fill="#e6e9ed"/>
          </g>
          <g id="Group_1206742" data-name="Group 1206742">
            <path id="Path_1262564" data-name="Path 1262564" d="M25.161,23.484a1.682,1.682,0,0,0,1.677-1.677V8.387H50.323A1.682,1.682,0,0,1,52,10.065V28.516a1.682,1.682,0,0,1-1.677,1.677H41.1l-3.85,4.621a1.143,1.143,0,0,1-2.021-.73V30.194H25.161a1.682,1.682,0,0,1-1.677-1.677V23.484Z" fill="#ffeaa7"/>
          </g>
          <g id="Group_1206743" data-name="Group 1206743">
            <path id="Path_1262565" data-name="Path 1262565" d="M26.839,8.387V21.806a1.682,1.682,0,0,1-1.677,1.677H16.774v3.892a1.143,1.143,0,0,1-2.021.73L13.7,26.839,10.9,23.484H3.355a1.682,1.682,0,0,1-1.677-1.677V3.355A1.682,1.682,0,0,1,3.355,1.677H25.161a1.682,1.682,0,0,1,1.677,1.677Z" fill="#f0d0b4"/>
          </g>
          <g id="Group_1206744" data-name="Group 1206744">
            <path id="Path_1262566" data-name="Path 1262566" d="M13.445,39.445a4.642,4.642,0,0,0-.486,1.627l-.377,3.38H6.71V42.774A4.2,4.2,0,0,1,10.9,38.581a4.132,4.132,0,0,1,2.541.864Z" fill="#b4dd7f"/>
          </g>
          <g id="Group_1206745" data-name="Group 1206745">
            <path id="Path_1262567" data-name="Path 1262567" d="M28.516,42.774v1.677H22.645l-.377-3.38a4.642,4.642,0,0,0-.486-1.627,4.132,4.132,0,0,1,2.541-.864,4.181,4.181,0,0,1,4.194,4.194Z" fill="#b4dd7f"/>
          </g>
          <g id="Group_1206746" data-name="Group 1206746">
            <path id="Path_1262568" data-name="Path 1262568" d="M22.268,41.072l.377,3.38H12.581l.377-3.38A4.67,4.67,0,0,1,17.613,36.9a4.718,4.718,0,0,1,3.128,1.191,4.968,4.968,0,0,1,1.04,1.35A4.642,4.642,0,0,1,22.268,41.072Z" fill="#fcd770"/>
          </g>
          <g id="Group_1206747" data-name="Group 1206747">
            <circle id="Ellipse_12704" data-name="Ellipse 12704" cx="2.516" cy="2.516" r="2.516" transform="translate(21.806 33.548)" fill="#f0d0b4"/>
          </g>
          <g id="Group_1206748" data-name="Group 1206748">
            <circle id="Ellipse_12705" data-name="Ellipse 12705" cx="2.516" cy="2.516" r="2.516" transform="translate(15.097 31.871)" fill="#f0d0b4"/>
          </g>
          <g id="Group_1206749" data-name="Group 1206749">
            <circle id="Ellipse_12706" data-name="Ellipse 12706" cx="2.516" cy="2.516" r="2.516" transform="translate(8.387 33.548)" fill="#f0d0b4"/>
          </g>
          <g id="Group_1206750" data-name="Group 1206750">
            <path id="Path_1262569" data-name="Path 1262569" d="M21.806,11.1v.134a4.883,4.883,0,0,1-1.627,3.632l-5.921,5.259L8.337,14.87A4.883,4.883,0,0,1,6.71,11.239V11.1A4.547,4.547,0,0,1,8.043,7.892a4.05,4.05,0,0,1,5.72,0l.495.495.495-.495a4.05,4.05,0,0,1,5.72,0A4.547,4.547,0,0,1,21.806,11.1Z" fill="#ff826e"/>
          </g>
          <g id="Group_1206751" data-name="Group 1206751">
            <path id="Path_1262570" data-name="Path 1262570" d="M35.226,25.161V26a.841.841,0,0,1-.839.839H31.032A.841.841,0,0,1,30.194,26V17.613a.841.841,0,0,1,.839-.839h3.355a.841.841,0,0,1,.839.839Z" fill="#b4dd7f"/>
          </g>
          <g id="Group_1206752" data-name="Group 1206752">
            <path id="Path_1262571" data-name="Path 1262571" d="M46.968,19.29v5.032a2.513,2.513,0,0,1-2.516,2.516H40.77a10.017,10.017,0,0,1-5.544-1.677V17.613l1-1a7.788,7.788,0,0,0,2.038-3.606,1.67,1.67,0,0,1,1.627-1.266A2.44,2.44,0,0,1,42.3,14.585l-.361,2.189h2.516A2.513,2.513,0,0,1,46.968,19.29Z" fill="#f0d0b4"/>
          </g>
        </g>
        <g id="Group_1206754" data-name="Group 1206754">
          <path id="Path_1262572" data-name="Path 1262572" d="M22.645,11.238v-.132a5.343,5.343,0,0,0-1.576-3.8,4.888,4.888,0,0,0-6.811-.1,4.888,4.888,0,0,0-6.811.1,5.343,5.343,0,0,0-1.576,3.8v.132a5.7,5.7,0,0,0,1.911,4.256l6.476,5.757L20.733,15.5a5.7,5.7,0,0,0,1.912-4.257Zm-8.387,7.769L8.9,14.241a4.02,4.02,0,0,1-1.349-3v-.132A3.677,3.677,0,0,1,8.633,8.489a3.211,3.211,0,0,1,4.541,0l1.084,1.084,1.084-1.084a3.29,3.29,0,0,1,4.541,0,3.677,3.677,0,0,1,1.084,2.618v.132a4.021,4.021,0,0,1-1.349,3Z"/>
          <path id="Path_1262573" data-name="Path 1262573" d="M50.323,7.548H27.677V3.355A2.519,2.519,0,0,0,25.161.839H3.355A2.519,2.519,0,0,0,.839,3.355V21.806a2.519,2.519,0,0,0,2.516,2.516h7.156L11.909,26H5.032a2.519,2.519,0,0,0-2.516,2.516V45.29a2.519,2.519,0,0,0,2.516,2.516h8.833l3.6,4.319a1.981,1.981,0,0,0,3.5-1.268V47.806h9.226A2.519,2.519,0,0,0,32.71,45.29V31.032h1.677v3.051a1.981,1.981,0,0,0,3.5,1.268l3.6-4.319h8.833a2.519,2.519,0,0,0,2.516-2.516V10.065a2.519,2.519,0,0,0-2.516-2.516ZM11.3,22.645H3.355a.84.84,0,0,1-.839-.839V3.355a.84.84,0,0,1,.839-.839H25.161A.84.84,0,0,1,26,3.355V21.806a.84.84,0,0,1-.839.839H15.935v4.729a.314.314,0,0,1-.537.194Zm11.349,1.677V26H17.613V24.323ZM31.032,45.29a.84.84,0,0,1-.839.839H19.29v4.729a.314.314,0,0,1-.537.194l-4.1-4.922H5.032a.84.84,0,0,1-.839-.839V28.516a.84.84,0,0,1,.839-.839h8.274l.8.965a1.975,1.975,0,0,0,3.471-.965h5.063v.839a2.519,2.519,0,0,0,2.516,2.516h5.871ZM51.161,28.516a.84.84,0,0,1-.839.839H40.7l-4.1,4.922a.315.315,0,0,1-.537-.194V29.355h-10.9a.84.84,0,0,1-.839-.839V24.323h.839a2.519,2.519,0,0,0,2.516-2.516V9.226H50.323a.84.84,0,0,1,.839.839Z"/>
          <path id="Path_1262574" data-name="Path 1262574" d="M20.968,36.065a3.322,3.322,0,0,0,.31,1.39,5.534,5.534,0,0,0-1.2-.811,3.355,3.355,0,1,0-4.932,0,5.534,5.534,0,0,0-1.2.811,3.322,3.322,0,0,0,.31-1.39,3.355,3.355,0,1,0-5.781,2.3,5.035,5.035,0,0,0-2.606,4.406v1.677H7.548V42.774a3.348,3.348,0,0,1,4.851-3,5.579,5.579,0,0,0-.277,1.2l-.376,3.38,1.667.185.376-3.38a3.847,3.847,0,0,1,7.647,0l.376,3.38,1.667-.185-.376-3.38a5.53,5.53,0,0,0-.277-1.2,3.348,3.348,0,0,1,4.851,3v1.677h1.677V42.774a5.035,5.035,0,0,0-2.606-4.406,3.351,3.351,0,1,0-5.781-2.3ZM10.9,37.742a1.677,1.677,0,1,1,1.677-1.677A1.679,1.679,0,0,1,10.9,37.742Zm6.71-1.677a1.677,1.677,0,1,1,1.677-1.677A1.679,1.679,0,0,1,17.613,36.065Zm8.387,0a1.677,1.677,0,1,1-1.677-1.677A1.679,1.679,0,0,1,26,36.065Z"/>
          <path id="Path_1262575" data-name="Path 1262575" d="M44.452,15.935H42.925l.2-1.211A3.282,3.282,0,0,0,39.891,10.9a2.514,2.514,0,0,0-2.441,1.906,6.919,6.919,0,0,1-1.819,3.214l-.247.247a1.665,1.665,0,0,0-1-.335H31.032a1.679,1.679,0,0,0-1.677,1.677V26a1.679,1.679,0,0,0,1.677,1.677h3.355a1.674,1.674,0,0,0,1.578-1.129,10.782,10.782,0,0,0,4.8,1.129h3.686a3.358,3.358,0,0,0,3.355-3.355V19.29a3.358,3.358,0,0,0-3.355-3.355ZM31.032,26V17.613h3.355V26Zm15.1-1.677A1.679,1.679,0,0,1,44.452,26H40.765a9.113,9.113,0,0,1-4.7-1.307V17.96l.751-.751a8.6,8.6,0,0,0,2.261-3.993.837.837,0,0,1,.814-.635,1.6,1.6,0,0,1,1.582,1.869l-.527,3.164h3.506a1.679,1.679,0,0,1,1.677,1.677Z"/>
        </g>
      </g>
    </g>
  </g>
</svg>
