<svg xmlns="http://www.w3.org/2000/svg" xmlns:xlink="http://www.w3.org/1999/xlink" width="98" height="97.998" viewBox="0 0 98 97.998">
  <defs>
    <clipPath id="clip-path">
      <rect id="Rectangle_411080" data-name="Rectangle 411080" width="55" height="52" transform="translate(825.051 2027)" fill="#fff"/>
    </clipPath>
  </defs>
  <g id="Group_1206461" data-name="Group 1206461" transform="translate(-803.781 -2003.55)">
    <g id="Group_1204447" data-name="Group 1204447" transform="translate(0 -541.412)">
      <g id="Group_1204142" data-name="Group 1204142" transform="translate(-67.331 2267.798)">
        <g id="Group_1188789" data-name="Group 1188789" transform="translate(871.113 277.164)">
          <path id="Path_1243039" data-name="Path 1243039" d="M41.05,0h0a41.05,41.05,0,0,1,0,82.1h0a41.05,41.05,0,0,1,0-82.1Z" transform="translate(7.951 7.949)" fill="#ffa724"/>
          <rect id="Rectangle_400907" data-name="Rectangle 400907" width="88.438" height="88.437" rx="44.218" transform="translate(4.782 4.781)" fill="none"/>
          <g id="Group_1098742" data-name="Group 1098742" transform="translate(0)">
            <g id="Rectangle_400898" data-name="Rectangle 400898" transform="translate(0)" fill="none" stroke="#fff" stroke-width="2" opacity="0.859">
              <rect width="98" height="97.999" rx="48.999" stroke="none"/>
              <rect x="1" y="1" width="96" height="95.999" rx="47.999" fill="none"/>
            </g>
            <g id="Rectangle_400907-2" data-name="Rectangle 400907" transform="translate(0)" fill="none" stroke="#0f1f33" stroke-linecap="round" stroke-width="2">
              <rect width="98" height="97.999" rx="48.999" stroke="none"/>
              <rect x="1" y="1" width="96" height="95.999" rx="47.999" fill="none"/>
            </g>
          </g>
        </g>
      </g>
    </g>
    <g id="Mask_Group_1099596" data-name="Mask Group 1099596" clip-path="url(#clip-path)">
      <g id="excel_3979345" transform="translate(826.551 2027)">
        <g id="Group_1206865" data-name="Group 1206865">
          <path id="Path_1263153" data-name="Path 1263153" d="M42.346,14.242,34.671,6.568h-23.3L10.7,5.543h-.179a2.3,2.3,0,0,0-2.3,2.3v41.1a2.3,2.3,0,0,0,2.3,2.3H40.864a2.3,2.3,0,0,0,2.3-2.3V48.76l-.817-.817v-33.7Z" fill="#0055a3"/>
          <path id="Path_1263154" data-name="Path 1263154" d="M10.7,5.543V46.462a2.3,2.3,0,0,0,2.3,2.3H43.162v-33.7L33.646,5.543Z" fill="#004281"/>
          <path id="Path_1263155" data-name="Path 1263155" d="M46.448,9.513c-1.747-.723-.819-.31-4.232-1.9L38.427.762H15.3a2.3,2.3,0,0,0-2.3,2.3v41.1a2.3,2.3,0,0,0,2.3,2.3H42.762a2.3,2.3,0,0,0,1.977-1.127h1.708Z" fill="#eaf6ff"/>
          <path id="Path_1263156" data-name="Path 1263156" d="M17.575,10.974v2.892h8.6V9.958H18.591A1.016,1.016,0,0,0,17.575,10.974Z" fill="#fec165"/>
          <path id="Path_1263157" data-name="Path 1263157" d="M17.575,13.866v3.908h8.6V13.866Z" fill="#fedba6"/>
          <path id="Path_1263158" data-name="Path 1263158" d="M17.575,21.681v3.908h8.6V21.681Z" fill="#fee8c7"/>
          <path id="Path_1263159" data-name="Path 1263159" d="M17.575,29.5V33.4h8.6V29.5Z" fill="#fee8c7"/>
          <path id="Path_1263160" data-name="Path 1263160" d="M17.575,37.312V40.2a1.016,1.016,0,0,0,1.016,1.016h7.584V37.312Z" fill="#fedba6"/>
          <path id="Path_1263161" data-name="Path 1263161" d="M26.175,9.958v3.908h8.6V9.958Z" fill="#fece85"/>
          <g id="Group_1206863" data-name="Group 1206863">
            <path id="Path_1263162" data-name="Path 1263162" d="M26.175,17.773v3.908h8.6V17.773Z" fill="#fedba6"/>
            <path id="Path_1263163" data-name="Path 1263163" d="M26.175,25.589V29.5h8.6V25.589h-8.6Z" fill="#fedba6"/>
            <path id="Path_1263164" data-name="Path 1263164" d="M26.175,33.4v3.908h8.6V33.4Z" fill="#fedba6"/>
          </g>
          <path id="Path_1263165" data-name="Path 1263165" d="M34.774,9.958v3.908h8.6V10.974a1.016,1.016,0,0,0-1.016-1.016Z" fill="#fec165"/>
          <path id="Path_1263166" data-name="Path 1263166" d="M34.774,13.866v3.908h8.6V13.866Z" fill="#fedba6"/>
          <path id="Path_1263167" data-name="Path 1263167" d="M34.774,21.681v3.908h8.6V21.681Z" fill="#fedba6"/>
          <path id="Path_1263168" data-name="Path 1263168" d="M34.774,29.5V33.4h8.6V29.5Z" fill="#fedba6"/>
          <g id="Group_1206864" data-name="Group 1206864">
            <path id="Path_1263169" data-name="Path 1263169" d="M17.575,17.773v3.908h8.6V17.773Z" fill="#ffefd2"/>
            <path id="Path_1263170" data-name="Path 1263170" d="M17.575,25.589V29.5h8.6V25.589h-8.6Z" fill="#ffefd2"/>
            <path id="Path_1263171" data-name="Path 1263171" d="M17.575,33.4v3.908h8.6V33.4Z" fill="#ffefd2"/>
            <path id="Path_1263172" data-name="Path 1263172" d="M26.175,13.866v3.908h8.6V13.866Z" fill="#ffefd2"/>
            <path id="Path_1263173" data-name="Path 1263173" d="M26.175,21.681v3.908h8.6V21.681Z" fill="#ffefd2"/>
            <path id="Path_1263174" data-name="Path 1263174" d="M26.175,29.5V33.4h8.6V29.5Z" fill="#ffefd2"/>
            <path id="Path_1263175" data-name="Path 1263175" d="M26.175,37.312V41.22h8.6V37.312Z" fill="#ffefd2"/>
            <path id="Path_1263176" data-name="Path 1263176" d="M34.774,17.773v3.908h8.6V17.773Z" fill="#ffefd2"/>
            <path id="Path_1263177" data-name="Path 1263177" d="M34.774,25.589V29.5h8.6V25.589h-8.6Z" fill="#ffefd2"/>
            <path id="Path_1263178" data-name="Path 1263178" d="M34.774,33.4v3.908h8.6V33.4Z" fill="#ffefd2"/>
          </g>
          <path id="Path_1263179" data-name="Path 1263179" d="M34.774,37.312V41.22h7.584A1.016,1.016,0,0,0,43.373,40.2V37.312Z" fill="#fedba6"/>
          <path id="Path_1263180" data-name="Path 1263180" d="M30.652,34.936H5.436a1.379,1.379,0,0,1-1.379-1.379V22.533a1.379,1.379,0,0,1,1.379-1.379H30.652a1.379,1.379,0,0,1,1.379,1.379V33.556A1.379,1.379,0,0,1,30.652,34.936Z" fill="#60ba4d"/>
          <path id="Path_1263181" data-name="Path 1263181" d="M45.061,44.159a2.3,2.3,0,0,1-2.3,2.3h2.883a2.3,2.3,0,0,0,2.3-2.3V10.278L45.061,8.92Z" fill="#d8ecfe"/>
          <path id="Path_1263182" data-name="Path 1263182" d="M40.726,10.278h7.218L38.427.762V7.979a2.3,2.3,0,0,0,2.3,2.3Z" fill="#b3dafe"/>
        </g>
        <g id="Group_1206866" data-name="Group 1206866">
          <path id="Path_1263183" data-name="Path 1263183" d="M47.943,36.878a.762.762,0,0,0,.762-.762V10.278a.764.764,0,0,0-.223-.539L38.966.223A.768.768,0,0,0,38.427,0H15.3a3.064,3.064,0,0,0-3.06,3.06V4.781H10.523a3.064,3.064,0,0,0-3.06,3.06V13.05a.762.762,0,0,0,1.523,0V7.841A1.539,1.539,0,0,1,10.523,6.3h1.721V20.392H8.986V16.6a.762.762,0,0,0-1.523,0v3.788H5.436a2.143,2.143,0,0,0-2.141,2.141V33.556A2.143,2.143,0,0,0,5.436,35.7H7.463V48.94A3.064,3.064,0,0,0,10.523,52H40.864a3.064,3.064,0,0,0,3.06-3.06V47.219h1.721a3.064,3.064,0,0,0,3.06-3.06V39.671a.762.762,0,1,0-1.523,0v4.488A1.539,1.539,0,0,1,45.645,45.7H15.3a1.539,1.539,0,0,1-1.537-1.537V35.7h3.047V40.2a1.779,1.779,0,0,0,1.777,1.777H42.357A1.779,1.779,0,0,0,44.135,40.2V11.04h3.047V36.116a.762.762,0,0,0,.762.762Zm-7.567-27.4a1.538,1.538,0,0,1-1.187-1.5V2.6L46.1,9.516c-5.606,0-5.436.015-5.728-.042ZM13.767,3.06A1.539,1.539,0,0,1,15.3,1.523H37.666V7.979A3.042,3.042,0,0,0,37.919,9.2H18.591a1.779,1.779,0,0,0-1.777,1.777v9.419H13.767c0-.9,0-16.573,0-17.332ZM26.936,35.7h3.716A2.154,2.154,0,0,0,32.7,34.166h1.307v2.384H26.936Zm3.716-15.305H26.936V18.535h7.076v2.384H32.058a2.161,2.161,0,0,0-1.406-.527Zm-12.315,0V18.535h7.076v1.857Zm8.6-9.673h7.076V13.1H26.936Zm15.675,10.2H35.536V18.535h7.076Zm0,3.908H35.536V22.443h7.076Zm0,3.908H35.536V26.351h7.076Zm0,3.908H35.536V30.258h7.076ZM18.337,14.627h7.076v2.384H18.337Zm8.6,0h7.076v2.384H26.936Zm5.857,11.723h1.219v2.384H32.793Zm1.219-1.523H32.793V22.533q0-.045,0-.09h1.221Zm-1.219,5.431h1.219v2.384H32.793ZM25.413,13.1H18.337v-2.13a.254.254,0,0,1,.254-.254h6.822ZM35.536,34.166h7.076v2.384H35.536Zm7.076-17.154H35.536V14.627h7.076ZM4.818,33.556V22.533a.618.618,0,0,1,.617-.617H30.652a.62.62,0,0,1,.617.618V33.556a.618.618,0,0,1-.617.617H5.436a.618.618,0,0,1-.617-.618ZM15.3,47.219H42.4V48.94a1.539,1.539,0,0,1-1.537,1.537H10.523A1.539,1.539,0,0,1,8.986,48.94V35.7h3.258v8.461A3.064,3.064,0,0,0,15.3,47.219ZM25.413,35.7v.853H18.337V35.7ZM18.337,40.2v-2.13h7.076v2.384H18.591A.254.254,0,0,1,18.337,40.2Zm8.6-2.13h7.076v2.384H26.936ZM42.611,40.2a.254.254,0,0,1-.254.254H35.536V38.074h7.076Zm0-29.164V13.1H35.536V10.719H39.36c.76.392,1.384.33,3.252.321Z"/>
          <path id="Path_1263184" data-name="Path 1263184" d="M16.83,32.058c.161.028,1.619.015,2.421.011a.762.762,0,0,0,0-1.523h0c-.526,0-1.091.005-1.522.005V24.777a.762.762,0,0,0-1.523,0v6.53A.762.762,0,0,0,16.83,32.058Z"/>
          <path id="Path_1263185" data-name="Path 1263185" d="M24.913,32.074a2.64,2.64,0,0,0,2.7-2.044,2.409,2.409,0,0,0-1.865-2.648c-.812-.3-1.567-.626-1.789-.723-.33-.257-.252-.861.373-1.049a2.233,2.233,0,0,1,1.849.426.762.762,0,0,0,.977-1.169,3.75,3.75,0,0,0-3.265-.715,2.244,2.244,0,0,0-1.627,1.811,2.009,2.009,0,0,0,1.008,2.06c.038.017.936.417,1.948.79.3.111.986.424.892.951a1.158,1.158,0,0,1-1.2.789,2.332,2.332,0,0,1-1.713-.719.762.762,0,0,0-1.129,1.023,3.877,3.877,0,0,0,2.842,1.219Z"/>
          <path id="Path_1263186" data-name="Path 1263186" d="M8.3,31.751l1.842-2.615,1.839,2.615a.762.762,0,1,0,1.246-.877l-2.153-3.061,1.83-2.6a.762.762,0,0,0-1.245-.877l-1.515,2.151L8.633,24.339a.762.762,0,1,0-1.246.877l1.827,2.6L7.057,30.874a.762.762,0,1,0,1.245.877Z"/>
        </g>
      </g>
    </g>
  </g>
</svg>
