<svg xmlns="http://www.w3.org/2000/svg" xmlns:xlink="http://www.w3.org/1999/xlink" width="98" height="97.998" viewBox="0 0 98 97.998">
  <defs>
    <clipPath id="clip-path">
      <rect id="Rectangle_411080" data-name="Rectangle 411080" width="55" height="52" transform="translate(825.051 2027)" fill="#fff"/>
    </clipPath>
    <clipPath id="clip-path-2">
      <path id="path8349" d="M0-52H52V0H0Z"/>
    </clipPath>
  </defs>
  <g id="Group_1206460" data-name="Group 1206460" transform="translate(-803.781 -2003.55)">
    <g id="Group_1204447" data-name="Group 1204447" transform="translate(0 -541.412)">
      <g id="Group_1204142" data-name="Group 1204142" transform="translate(-67.331 2267.798)">
        <g id="Group_1188789" data-name="Group 1188789" transform="translate(871.113 277.164)">
          <path id="Path_1243039" data-name="Path 1243039" d="M41.05,0h0a41.05,41.05,0,0,1,0,82.1h0a41.05,41.05,0,0,1,0-82.1Z" transform="translate(7.951 7.949)" fill="#ffa724"/>
          <rect id="Rectangle_400907" data-name="Rectangle 400907" width="88.438" height="88.437" rx="44.218" transform="translate(4.782 4.781)" fill="none"/>
          <g id="Group_1098742" data-name="Group 1098742" transform="translate(0)">
            <g id="Rectangle_400898" data-name="Rectangle 400898" transform="translate(0)" fill="none" stroke="#fff" stroke-width="2" opacity="0.859">
              <rect width="98" height="97.999" rx="48.999" stroke="none"/>
              <rect x="1" y="1" width="96" height="95.999" rx="47.999" fill="none"/>
            </g>
            <g id="Rectangle_400907-2" data-name="Rectangle 400907" transform="translate(0)" fill="none" stroke="#0f1f33" stroke-linecap="round" stroke-width="2">
              <rect width="98" height="97.999" rx="48.999" stroke="none"/>
              <rect x="1" y="1" width="96" height="95.999" rx="47.999" fill="none"/>
            </g>
          </g>
        </g>
      </g>
    </g>
    <g id="Mask_Group_1099595" data-name="Mask Group 1099595" clip-path="url(#clip-path)">
      <g id="g8343" transform="translate(826.551 2079)">
        <g id="g8345">
          <g id="g8347" clip-path="url(#clip-path-2)">
            <g id="g8353" transform="translate(51.23 -44.377)">
              <path id="path8355" d="M0,0V31.637a1.218,1.218,0,0,1-1.219,1.219H-49.242a1.218,1.218,0,0,1-1.219-1.219V0l2.981-2,43.027-.962Z" fill="#f2fbff"/>
            </g>
            <g id="g8357" transform="translate(4.528 -11.522)">
              <path id="path8359" d="M0,0H-2.539A1.218,1.218,0,0,1-3.758-1.219V-32.855l1.4-2,1.135,2V-1.219A1.218,1.218,0,0,0,0,0" fill="#d8ecfe"/>
            </g>
            <g id="g8361" transform="translate(51.23 -49.085)">
              <path id="path8363" d="M0,0V4.708H-50.46V0a1.219,1.219,0,0,1,1.219-1.219H-1.219A1.219,1.219,0,0,1,0,0" fill="#b3dafe"/>
            </g>
            <g id="g8365" transform="translate(4.528 -50.304)">
              <path id="path8367" d="M0,0A1.219,1.219,0,0,0-1.219,1.219V5.927H-3.758V1.219A1.219,1.219,0,0,1-2.539,0Z" fill="#8ac9fe"/>
            </g>
            <g id="g8369" transform="translate(20.196 -27.361)">
              <path id="path8371" d="M0,0H-12.617a.4.4,0,0,1-.313-.146,8.508,8.508,0,0,1-1.926-5.405A8.53,8.53,0,0,1-6.439-14.1,8.548,8.548,0,0,1,2.239-5.551,8.509,8.509,0,0,1,.313-.146.4.4,0,0,1,0,0" fill="#b6c4cf"/>
            </g>
            <g id="g8373" transform="translate(7.879 -32.912)">
              <path id="path8375" d="M0,0A8.51,8.51,0,0,0,1.927,5.405a.4.4,0,0,0,.313.146H-.3a.4.4,0,0,1-.313-.146A8.51,8.51,0,0,1-2.539,0,8.528,8.528,0,0,1,5.877-8.546a8.573,8.573,0,0,1,1.4.092A8.527,8.527,0,0,0,0,0" fill="#9facba"/>
            </g>
            <g id="g8377" transform="translate(17.405 -27.36)">
              <path id="path8379" d="M0,0V-2.315A3.506,3.506,0,0,0-1.03-4.8,3.505,3.505,0,0,0-3.517-5.832,3.517,3.517,0,0,0-7.034-2.315V0Z" fill="#fd9aa0"/>
            </g>
            <g id="g8381" transform="translate(15.157 -32.956)">
              <path id="path8383" d="M0,0A3.52,3.52,0,0,0-2.248,3.281V5.6H-4.787V3.281A3.517,3.517,0,0,1-1.27-.236,3.511,3.511,0,0,1,0,0" fill="#fd8087"/>
            </g>
            <g id="g8385" transform="translate(16.252 -35.38)">
              <path id="path8387" d="M0,0A2.364,2.364,0,0,1-2.364,2.364,2.364,2.364,0,0,1-4.729,0,2.364,2.364,0,0,1-2.364-2.364,2.364,2.364,0,0,1,0,0" fill="#f2fbff"/>
            </g>
            <g id="g8389" transform="translate(45.847 -27.36)">
              <path id="path8391" d="M0,0H-17.8a.812.812,0,0,0-.812.813V22.874a.812.812,0,0,0,.813.813H-13.5a.406.406,0,0,0,.406-.406V21.33a.406.406,0,0,1,.406-.406h7.567a.406.406,0,0,1,.406.406v1.95a.406.406,0,0,0,.406.406H0a.813.813,0,0,0,.813-.813V.813A.813.813,0,0,0,0,0" fill="#fd9aa0"/>
            </g>
            <g id="g8393" transform="translate(29.771 -26.548)">
              <path id="path8395" d="M0,0V22.062a.812.812,0,0,0,.813.812H-1.727a.812.812,0,0,1-.812-.812V0a.812.812,0,0,1,.813-.812H.813A.812.812,0,0,0,0,0" fill="#fd8087"/>
            </g>
            <g id="g8397" transform="translate(20.051 -6.707)">
              <path id="path8399" d="M0,0A7.579,7.579,0,0,1-9.7,4.56a7.579,7.579,0,0,1-4.56-9.7A7.579,7.579,0,0,1-4.56-9.7,7.579,7.579,0,0,1,0,0" fill="#b3dafe"/>
            </g>
            <g id="g8401" transform="translate(14.19 -1.803)">
              <path id="path8403" d="M0,0A7.557,7.557,0,0,1-3.839-.343a7.58,7.58,0,0,1-4.56-9.7,7.58,7.58,0,0,1,8.4-4.9,7.575,7.575,0,0,0-5.859,4.9A7.58,7.58,0,0,0-1.3-.343,7.689,7.689,0,0,0,0,0" fill="#8ac9fe"/>
            </g>
            <g id="g8405" transform="translate(19.92 -19.782)">
              <path id="path8407" d="M0,0H-12.064a.406.406,0,0,1-.406-.406v-3.36a.406.406,0,0,1,.406-.406H0a.406.406,0,0,1,.406.406v3.36A.406.406,0,0,1,0,0" fill="#c9f6b0"/>
            </g>
            <g id="g8409" transform="translate(10.395 -19.783)">
              <path id="path8411" d="M0,0H-2.539a.406.406,0,0,1-.406-.406v-3.36a.406.406,0,0,1,.406-.406H0a.406.406,0,0,0-.406.406v3.36A.406.406,0,0,0,0,0" fill="#9be69d"/>
            </g>
            <g id="g8413" transform="translate(31.802 -20.413)">
              <path id="path8415" d="M0,0V-3.042a.406.406,0,0,1,.406-.406H9.881a.406.406,0,0,1,.406.406V0a.406.406,0,0,1-.406.406H.406A.406.406,0,0,1,0,0" fill="#f2fbff"/>
            </g>
            <g id="g8417" transform="translate(34.748 -20.007)">
              <path id="path8419" d="M0,0H-2.539a.406.406,0,0,1-.406-.406V-3.448a.406.406,0,0,1,.406-.406H0a.406.406,0,0,0-.406.406V-.406A.406.406,0,0,0,0,0" fill="#d8ecfe"/>
            </g>
            <g id="g8421" transform="translate(13.071 -9.923)">
              <path id="path8423" d="M0,0,6.88-5.159a.2.2,0,0,1,.281.035,8.923,8.923,0,0,1,1.1,9.6,8.448,8.448,0,0,1-1.386,1.96.2.2,0,0,1-.284.008L-.016.311A.2.2,0,0,1,0,0" fill="#c9f6b0"/>
            </g>
            <g id="g8425" transform="translate(15.594 -9.612)">
              <path id="path8427" d="M0,0,5.3,4.917a8.453,8.453,0,0,1-.949,1.2.2.2,0,0,1-.284.008L-2.539,0a.2.2,0,0,1,.016-.311L4.358-5.47a.2.2,0,0,1,.281.034,9.521,9.521,0,0,1,.751,1.1L.016-.311A.2.2,0,0,0,0,0" fill="#9be69d"/>
            </g>
            <g id="g8429" transform="translate(36.152 -39.567)">
              <path id="path8431" d="M0,0A1.4,1.4,0,0,1-1.4,1.4,1.4,1.4,0,0,1-2.8,0,1.4,1.4,0,0,1-1.4-1.4,1.4,1.4,0,0,1,0,0" fill="#fd9aa0"/>
            </g>
            <g id="g8433" transform="translate(40.034 -35.201)">
              <path id="path8435" d="M0,0A1.4,1.4,0,0,1-1.4,1.4,1.4,1.4,0,0,1-2.8,0,1.4,1.4,0,0,1-1.4-1.4,1.4,1.4,0,0,1,0,0" fill="#fd9aa0"/>
            </g>
            <g id="g8437" transform="translate(45.126 -39.219)">
              <path id="path8439" d="M0,0A1.4,1.4,0,0,1-1.4,1.4,1.4,1.4,0,0,1-2.8,0,1.4,1.4,0,0,1-1.4-1.4,1.4,1.4,0,0,1,0,0" fill="#fd9aa0"/>
            </g>
            <g id="g8441" transform="translate(20.196 -27.361)">
              <path id="path8443" d="M0,0H-12.617a.4.4,0,0,1-.313-.146,8.509,8.509,0,0,1-1.926-5.405A8.53,8.53,0,0,1-6.439-14.1,8.548,8.548,0,0,1,2.239-5.551,8.509,8.509,0,0,1,.313-.146.4.4,0,0,1,0,0Z" fill="none" stroke="#000" stroke-linecap="round" stroke-linejoin="round" stroke-miterlimit="10" stroke-width="1.523"/>
            </g>
            <g id="g8445" transform="translate(14.59 -33.122)">
              <path id="path8447" d="M0,0A3.512,3.512,0,0,1,1.784.961a3.507,3.507,0,0,1,1.03,2.486V5.762" fill="none" stroke="#000" stroke-linecap="round" stroke-linejoin="round" stroke-miterlimit="10" stroke-width="1.523"/>
            </g>
            <g id="g8449" transform="translate(10.371 -27.36)">
              <path id="path8451" d="M0,0V-2.315A3.519,3.519,0,0,1,2.814-5.762" fill="none" stroke="#000" stroke-linecap="round" stroke-linejoin="round" stroke-miterlimit="10" stroke-width="1.523"/>
            </g>
            <g id="g8453" transform="translate(16.252 -35.38)">
              <path id="path8455" d="M0,0A2.364,2.364,0,0,1-2.364,2.364,2.364,2.364,0,0,1-4.729,0,2.364,2.364,0,0,1-2.364-2.364,2.364,2.364,0,0,1,0,0Z" fill="none" stroke="#000" stroke-linecap="round" stroke-linejoin="round" stroke-miterlimit="10" stroke-width="1.523"/>
            </g>
            <g id="g8457" transform="translate(27.232 -11.522)">
              <path id="path8459" d="M0,0H-5.248" fill="none" stroke="#000" stroke-linecap="round" stroke-linejoin="round" stroke-miterlimit="10" stroke-width="1.523"/>
            </g>
            <g id="g8461" transform="translate(0.77 -41.855)">
              <path id="path8463" d="M0,0V-7.23A1.218,1.218,0,0,1,1.219-8.449H49.242A1.218,1.218,0,0,1,50.46-7.23V29.114a1.218,1.218,0,0,1-1.219,1.219H45.89" fill="none" stroke="#000" stroke-linecap="round" stroke-linejoin="round" stroke-miterlimit="10" stroke-width="1.523"/>
            </g>
            <g id="g8465" transform="translate(0.77 -38.3)">
              <path id="path8467" d="M0,0V25.559a1.218,1.218,0,0,0,1.219,1.219H4.913" fill="none" stroke="#000" stroke-linecap="round" stroke-linejoin="round" stroke-miterlimit="10" stroke-width="1.523"/>
            </g>
            <g id="g8469" transform="translate(51.23 -44.377)">
              <path id="path8471" d="M0,0H-50.46" fill="none" stroke="#000" stroke-linecap="round" stroke-linejoin="round" stroke-miterlimit="10" stroke-width="1.523"/>
            </g>
            <g id="g8473" transform="translate(5.136 -47.341)">
              <path id="path8475" d="M0,0H26.7" fill="none" stroke="#000" stroke-linecap="round" stroke-linejoin="round" stroke-miterlimit="10" stroke-width="1.523"/>
            </g>
            <g id="g8477" transform="translate(46.519 -47.341)">
              <path id="path8479" d="M0,0H.345" fill="none" stroke="#000" stroke-linecap="round" stroke-linejoin="round" stroke-miterlimit="10" stroke-width="1.523"/>
            </g>
            <g id="g8481" transform="translate(43.636 -47.341)">
              <path id="path8483" d="M0,0H.345" fill="none" stroke="#000" stroke-linecap="round" stroke-linejoin="round" stroke-miterlimit="10" stroke-width="1.523"/>
            </g>
            <g id="g8485" transform="translate(40.753 -47.341)">
              <path id="path8487" d="M0,0H.344" fill="none" stroke="#000" stroke-linecap="round" stroke-linejoin="round" stroke-miterlimit="10" stroke-width="1.523"/>
            </g>
            <g id="g8489" transform="translate(19.92 -19.783)">
              <path id="path8491" d="M0,0H-12.064a.406.406,0,0,1-.406-.406v-3.36a.406.406,0,0,1,.406-.406H0a.406.406,0,0,1,.406.406v3.36A.406.406,0,0,1,0,0Z" fill="none" stroke="#000" stroke-linecap="round" stroke-linejoin="round" stroke-miterlimit="10" stroke-width="1.523"/>
            </g>
            <g id="g8493" transform="translate(31.802 -20.413)">
              <path id="path8495" d="M0,0V-3.043a.406.406,0,0,1,.406-.406H9.881a.406.406,0,0,1,.406.406V0a.406.406,0,0,1-.406.406H.406A.406.406,0,0,1,0,0Z" fill="none" stroke="#000" stroke-linecap="round" stroke-linejoin="round" stroke-miterlimit="10" stroke-width="1.523"/>
            </g>
            <g id="g8497" transform="translate(13.071 -9.924)">
              <path id="path8499" d="M0,0,6.88-5.159a.2.2,0,0,1,.281.035,8.923,8.923,0,0,1,1.1,9.6,8.451,8.451,0,0,1-1.386,1.96.2.2,0,0,1-.284.008L-.016.311A.2.2,0,0,1,0,0Z" fill="none" stroke="#000" stroke-linecap="round" stroke-linejoin="round" stroke-miterlimit="10" stroke-width="1.523"/>
            </g>
            <g id="g8501" transform="translate(18.702 -4.373)">
              <path id="path8503" d="M0,0A7.581,7.581,0,0,1-8.35,2.226a7.579,7.579,0,0,1-4.56-9.7,7.579,7.579,0,0,1,9.7-4.56A7.556,7.556,0,0,1,.017-9.786" fill="none" stroke="#000" stroke-linecap="round" stroke-linejoin="round" stroke-miterlimit="10" stroke-width="1.523"/>
            </g>
            <g id="g8505" transform="translate(31.802 -16.392)">
              <path id="path8507" d="M0,0H1.448" fill="none" stroke="#000" stroke-linecap="round" stroke-linejoin="round" stroke-miterlimit="10" stroke-width="1.523"/>
            </g>
            <g id="g8509" transform="translate(36.032 -16.392)">
              <path id="path8511" d="M0,0H6.058" fill="none" stroke="#000" stroke-linecap="round" stroke-linejoin="round" stroke-miterlimit="10" stroke-width="1.523"/>
            </g>
            <g id="g8513" transform="translate(31.802 -13.142)">
              <path id="path8515" d="M0,0H1.448" fill="none" stroke="#000" stroke-linecap="round" stroke-linejoin="round" stroke-miterlimit="10" stroke-width="1.523"/>
            </g>
            <g id="g8517" transform="translate(36.032 -13.142)">
              <path id="path8519" d="M0,0H6.058" fill="none" stroke="#000" stroke-linecap="round" stroke-linejoin="round" stroke-miterlimit="10" stroke-width="1.523"/>
            </g>
            <g id="g8521" transform="translate(31.802 -9.892)">
              <path id="path8523" d="M0,0H1.448" fill="none" stroke="#000" stroke-linecap="round" stroke-linejoin="round" stroke-miterlimit="10" stroke-width="1.523"/>
            </g>
            <g id="g8525" transform="translate(36.032 -9.892)">
              <path id="path8527" d="M0,0H6.058" fill="none" stroke="#000" stroke-linecap="round" stroke-linejoin="round" stroke-miterlimit="10" stroke-width="1.523"/>
            </g>
            <g id="g8529" transform="translate(28.928 -41.46)">
              <path id="path8531" d="M0,0V10.344a.2.2,0,0,0,.2.2H14.708" fill="none" stroke="#000" stroke-linecap="round" stroke-linejoin="round" stroke-miterlimit="10" stroke-width="1.523"/>
            </g>
            <g id="g8533" transform="translate(33.63 -38.73)">
              <path id="path8535" d="M0,0-4.7,3.423" fill="none" stroke="#000" stroke-linecap="round" stroke-linejoin="round" stroke-miterlimit="10" stroke-width="1.523"/>
            </g>
            <g id="g8537" transform="translate(42.654 -38.32)">
              <path id="path8539" d="M0,0-2.9,2.275" fill="none" stroke="#000" stroke-linecap="round" stroke-linejoin="round" stroke-miterlimit="10" stroke-width="1.523"/>
            </g>
            <g id="g8541" transform="translate(37.718 -36.259)">
              <path id="path8543" d="M0,0-2.039-2.26" fill="none" stroke="#000" stroke-linecap="round" stroke-linejoin="round" stroke-miterlimit="10" stroke-width="1.523"/>
            </g>
            <g id="g8545" transform="translate(36.152 -39.567)">
              <path id="path8547" d="M0,0A1.4,1.4,0,0,1-1.4,1.4,1.4,1.4,0,0,1-2.8,0,1.4,1.4,0,0,1-1.4-1.4,1.4,1.4,0,0,1,0,0Z" fill="none" stroke="#000" stroke-linecap="round" stroke-linejoin="round" stroke-miterlimit="10" stroke-width="1.523"/>
            </g>
            <g id="g8549" transform="translate(40.034 -35.201)">
              <path id="path8551" d="M0,0A1.4,1.4,0,0,1-1.4,1.4,1.4,1.4,0,0,1-2.8,0,1.4,1.4,0,0,1-1.4-1.4,1.4,1.4,0,0,1,0,0Z" fill="none" stroke="#000" stroke-linecap="round" stroke-linejoin="round" stroke-miterlimit="10" stroke-width="1.523"/>
            </g>
            <g id="g8553" transform="translate(45.126 -39.219)">
              <path id="path8555" d="M0,0A1.4,1.4,0,0,1-1.4,1.4,1.4,1.4,0,0,1-2.8,0,1.4,1.4,0,0,1-1.4-1.4,1.4,1.4,0,0,1,0,0Z" fill="none" stroke="#000" stroke-linecap="round" stroke-linejoin="round" stroke-miterlimit="10" stroke-width="1.523"/>
            </g>
            <g id="g8557" transform="translate(46.66 -14.138)">
              <path id="path8559" d="M0,0V9.65a.812.812,0,0,1-.812.813H-5.118a.406.406,0,0,1-.406-.406V8.108A.406.406,0,0,0-5.93,7.7H-13.5a.406.406,0,0,0-.406.406v1.949a.406.406,0,0,1-.406.406h-4.305a.812.812,0,0,1-.812-.813V-12.41a.812.812,0,0,1,.813-.812h17.8A.812.812,0,0,1,0-12.41v8.855" fill="none" stroke="#000" stroke-linecap="round" stroke-linejoin="round" stroke-miterlimit="10" stroke-width="1.523"/>
            </g>
          </g>
        </g>
      </g>
    </g>
  </g>
</svg>
