<svg xmlns="http://www.w3.org/2000/svg" xmlns:xlink="http://www.w3.org/1999/xlink" width="98" height="97.998" viewBox="0 0 98 97.998">
  <defs>
    <clipPath id="clip-path">
      <rect id="Rectangle_411080" data-name="Rectangle 411080" width="55" height="52" transform="translate(825.051 2027)" fill="#fff"/>
    </clipPath>
  </defs>
  <g id="Group_1206231" data-name="Group 1206231" transform="translate(-803.781 -2003.55)">
    <g id="Group_1204447" data-name="Group 1204447" transform="translate(0 -541.412)">
      <g id="Group_1204142" data-name="Group 1204142" transform="translate(-67.331 2267.798)">
        <g id="Group_1188789" data-name="Group 1188789" transform="translate(871.113 277.164)">
          <path id="Path_1243039" data-name="Path 1243039" d="M41.05,0h0a41.05,41.05,0,0,1,0,82.1h0a41.05,41.05,0,0,1,0-82.1Z" transform="translate(7.951 7.949)" fill="#ffa724"/>
          <rect id="Rectangle_400907" data-name="Rectangle 400907" width="88.438" height="88.437" rx="44.218" transform="translate(4.782 4.781)" fill="none"/>
          <g id="Group_1098742" data-name="Group 1098742" transform="translate(0)">
            <g id="Rectangle_400898" data-name="Rectangle 400898" transform="translate(0)" fill="none" stroke="#fff" stroke-width="2" opacity="0.859">
              <rect width="98" height="97.999" rx="48.999" stroke="none"/>
              <rect x="1" y="1" width="96" height="95.999" rx="47.999" fill="none"/>
            </g>
            <g id="Rectangle_400907-2" data-name="Rectangle 400907" transform="translate(0)" fill="none" stroke="#0f1f33" stroke-linecap="round" stroke-width="2">
              <rect width="98" height="97.999" rx="48.999" stroke="none"/>
              <rect x="1" y="1" width="96" height="95.999" rx="47.999" fill="none"/>
            </g>
          </g>
        </g>
      </g>
    </g>
    <g id="Mask_Group_1099571" data-name="Mask Group 1099571" clip-path="url(#clip-path)">
      <g id="web_11218048" transform="translate(825.146 2025.521)">
        <path id="Path_1262720" data-name="Path 1262720" d="M6.455,6.137A2.836,2.836,0,1,0,9.291,8.973,2.834,2.834,0,0,0,6.455,6.137Zm0,4A1.169,1.169,0,1,1,7.624,8.965a1.17,1.17,0,0,1-1.169,1.169Z"/>
        <path id="Path_1262721" data-name="Path 1262721" d="M12.686,6.137a2.836,2.836,0,1,0,2.836,2.836,2.834,2.834,0,0,0-2.836-2.836Zm0,4a1.169,1.169,0,1,1,1.169-1.169,1.17,1.17,0,0,1-1.169,1.169Z"/>
        <path id="Path_1262722" data-name="Path 1262722" d="M18.926,6.137a2.836,2.836,0,1,0,2.836,2.836,2.839,2.839,0,0,0-2.836-2.836Zm0,4A1.169,1.169,0,1,1,20.1,8.965,1.17,1.17,0,0,1,18.926,10.134Z"/>
        <path id="Path_1262723" data-name="Path 1262723" d="M38.566,6.73H27.307a2.243,2.243,0,0,0,0,4.487h11.26a2.243,2.243,0,0,0,0-4.487Zm0,2.811H27.307a.576.576,0,0,1,0-1.152h11.26a.576.576,0,0,1,0,1.152Z"/>
        <path id="Path_1262724" data-name="Path 1262724" d="M18.342,21.436a3.335,3.335,0,1,0,3.335,3.335,3.349,3.349,0,0,0-3.335-3.335Zm0,5a1.667,1.667,0,1,1,1.667-1.667A1.664,1.664,0,0,1,18.342,26.439Z"/>
        <path id="Path_1262725" data-name="Path 1262725" d="M18.342,30.418a3.335,3.335,0,1,0,3.335,3.335A3.349,3.349,0,0,0,18.342,30.418Zm0,5a1.667,1.667,0,1,1,1.667-1.667A1.664,1.664,0,0,1,18.342,35.42Z"/>
        <path id="Path_1262726" data-name="Path 1262726" d="M18.342,39.219a3.335,3.335,0,1,0,3.335,3.335A3.344,3.344,0,0,0,18.342,39.219Zm0,5a1.667,1.667,0,1,1,1.667-1.667A1.669,1.669,0,0,1,18.342,44.222Z"/>
        <path id="Path_1262727" data-name="Path 1262727" d="M44.3,20.817V7.357a4.593,4.593,0,0,0-4.59-4.581H4.487A4.585,4.585,0,0,0-.095,7.357V47.591a4.585,4.585,0,0,0,4.581,4.581H16.2a.372.372,0,0,0,.043.009c.009,0,.026-.009.034-.009h4.108c.017,0,.026.009.043.009a.372.372,0,0,1,.043-.009H39.709a4.6,4.6,0,0,0,4.59-4.581v-3.98a11.427,11.427,0,0,0,0-22.794ZM1.573,7.357A2.916,2.916,0,0,1,4.487,4.444H39.709a2.924,2.924,0,0,1,2.922,2.914v6.137H1.573ZM19.6,50.5H17.078V47.7H19.6Zm-8.105-4.461V39.09h13.7v6.953Zm13.7-15.952v7.332h-13.7V30.091Zm-13.7-1.667v-7.34h13.7v7.34Zm31.14,19.167A2.924,2.924,0,0,1,39.709,50.5H21.264V47.7h4.263a1.341,1.341,0,0,0,1.332-1.341v-.2a1.582,1.582,0,0,0,1.272-1.092l1.685-5.578a1.615,1.615,0,0,0-1.53-2.08H26.86v-.258a1.579,1.579,0,0,0,1.272-1.1l1.685-5.578a1.6,1.6,0,0,0-1.53-2.071H26.86v-.258a1.579,1.579,0,0,0,1.272-1.1l1.685-5.561a1.615,1.615,0,0,0-1.53-2.08H8.406a1.573,1.573,0,0,0-1.289.653,1.6,1.6,0,0,0-.258,1.427l1.685,5.578a1.6,1.6,0,0,0,1.272,1.1v.258H8.406a1.6,1.6,0,0,0-1.289.653A1.561,1.561,0,0,0,6.867,30.5l1.685,5.578a1.6,1.6,0,0,0,1.272,1.1v.258H8.406a1.615,1.615,0,0,0-1.539,2.08L8.552,45.09a1.582,1.582,0,0,0,1.272,1.092v.2a1.343,1.343,0,0,0,1.341,1.341H15.42v2.8H4.487a2.916,2.916,0,0,1-2.914-2.914V15.162H42.632v5.656a11.431,11.431,0,0,0,0,22.8ZM26.86,43.663V39.09H28.2Zm0-9.008V30.091H28.2Zm0-9V21.084H28.2ZM9.824,21.075V25.51L8.483,21.075Zm0,9.016v4.426L8.483,30.091Zm0,9v4.435L8.483,39.09Zm33.641,2.9a9.768,9.768,0,1,1,9.773-9.764A9.781,9.781,0,0,1,43.465,41.987Z"/>
        <path id="Path_1262728" data-name="Path 1262728" d="M43.465,22.442a9.768,9.768,0,1,0,9.773,9.773A9.783,9.783,0,0,0,43.465,22.442Zm-5.587,3.447a.83.83,0,0,1,1.178.026l2.862,2.957,2.768-1.857c0-.009.009-.009.017-.009.06-.034.12-.052.172-.077a.644.644,0,0,1,.138-.043.93.93,0,0,1,.155,0,.469.469,0,0,1,.155.009.807.807,0,0,1,.129.052.721.721,0,0,1,.163.077.032.032,0,0,0,.026.009l3.343,2.475a.835.835,0,0,1,.172,1.169.847.847,0,0,1-.679.335.869.869,0,0,1-.49-.155l-2.871-2.123-2.862,1.925a.445.445,0,0,1-.112.052c-.026.017-.052.026-.077.043a1.035,1.035,0,0,1-.275.052h-.009a.839.839,0,0,1-.284-.06c-.017-.009-.034-.009-.052-.017a.987.987,0,0,1-.241-.163c-.009-.009-.017-.009-.026-.017l-3.343-3.464a.868.868,0,0,1,.043-1.195ZM49.327,38.6H37.612a.834.834,0,0,1,0-1.667h.009V29.387a.834.834,0,0,1,1.667,0v7.546h1.676V32.859a.834.834,0,1,1,1.667,0v4.074h1.685V30.547a.834.834,0,0,1,1.667,0v6.386H47.66v-4.65a.834.834,0,1,1,1.667,0v4.65h.009a.834.834,0,1,1-.009,1.667Z" fill="#4bc8f1"/>
        <g id="Group_1206764" data-name="Group 1206764">
          <path id="Path_1262729" data-name="Path 1262729" d="M9.824,30.091v4.426L8.483,30.091Z" fill="#596d7c"/>
          <path id="Path_1262730" data-name="Path 1262730" d="M9.824,21.075V25.51L8.483,21.075Z" fill="#596d7c"/>
          <path id="Path_1262731" data-name="Path 1262731" d="M9.824,39.09v4.435L8.483,39.09Z" fill="#596d7c"/>
          <path id="Path_1262732" data-name="Path 1262732" d="M28.2,39.09,26.86,43.663V39.09Z" fill="#596d7c"/>
          <path id="Path_1262733" data-name="Path 1262733" d="M28.2,30.091,26.86,34.655V30.091Z" fill="#596d7c"/>
          <path id="Path_1262734" data-name="Path 1262734" d="M28.2,21.075,26.86,25.656V21.075Z" fill="#596d7c"/>
        </g>
        <path id="Path_1262735" data-name="Path 1262735" d="M11.492,21.075v7.34h13.7v-7.34Zm6.85,7.031a3.335,3.335,0,1,1,3.335-3.335A3.344,3.344,0,0,1,18.342,28.106Z" fill="#617586"/>
        <circle id="Ellipse_12717" data-name="Ellipse 12717" cx="1.667" cy="1.667" r="1.667" transform="translate(16.674 23.104)" fill="#ff5052"/>
        <path id="Path_1262736" data-name="Path 1262736" d="M11.492,30.091v7.332h13.7V30.091Zm6.85,7a3.335,3.335,0,1,1,3.335-3.335A3.344,3.344,0,0,1,18.342,37.088Z" fill="#617586"/>
        <circle id="Ellipse_12718" data-name="Ellipse 12718" cx="1.667" cy="1.667" r="1.667" transform="translate(16.674 32.085)" fill="#49bda0"/>
        <path id="Path_1262737" data-name="Path 1262737" d="M11.492,39.09v6.953h13.7V39.09Zm6.85,6.8a3.335,3.335,0,1,1,3.335-3.335A3.349,3.349,0,0,1,18.342,45.889Z" fill="#617586"/>
        <circle id="Ellipse_12719" data-name="Ellipse 12719" cx="1.667" cy="1.667" r="1.667" transform="translate(16.674 40.887)" fill="#4bc8f1"/>
        <path id="Path_1262738" data-name="Path 1262738" d="M17.078,47.711H19.6v2.8H17.078Z" fill="#617586"/>
        <path id="Path_1262739" data-name="Path 1262739" d="M32.025,32.223a11.451,11.451,0,0,0,10.606,11.4V47.6a2.924,2.924,0,0,1-2.922,2.914H21.264v-2.8h4.263a1.341,1.341,0,0,0,1.332-1.341v-.2a1.582,1.582,0,0,0,1.272-1.092L29.816,39.5a1.615,1.615,0,0,0-1.53-2.08H26.86v-.258a1.579,1.579,0,0,0,1.272-1.1l1.685-5.578a1.6,1.6,0,0,0-1.53-2.071H26.86v-.258a1.579,1.579,0,0,0,1.272-1.1l1.685-5.57a1.615,1.615,0,0,0-1.53-2.08H8.406a1.573,1.573,0,0,0-1.289.653,1.6,1.6,0,0,0-.258,1.427l1.685,5.578a1.6,1.6,0,0,0,1.272,1.1v.258H8.406a1.6,1.6,0,0,0-1.289.653A1.561,1.561,0,0,0,6.867,30.5l1.685,5.578a1.6,1.6,0,0,0,1.272,1.1v.258H8.406a1.615,1.615,0,0,0-1.539,2.08L8.552,45.09a1.582,1.582,0,0,0,1.272,1.092v.2a1.343,1.343,0,0,0,1.341,1.341H15.42v2.8H4.487a2.916,2.916,0,0,1-2.914-2.914V15.162H42.632v5.656A11.465,11.465,0,0,0,32.025,32.223Z" fill="#e5e5e5"/>
        <path id="Path_1262740" data-name="Path 1262740" d="M39.709,4.444H4.487A2.916,2.916,0,0,0,1.573,7.357v6.137H42.632V7.357a2.924,2.924,0,0,0-2.922-2.914ZM6.455,11.8A2.836,2.836,0,1,1,9.291,8.965,2.839,2.839,0,0,1,6.455,11.8Zm6.231,0a2.836,2.836,0,1,1,2.836-2.836A2.839,2.839,0,0,1,12.686,11.8Zm6.24,0a2.836,2.836,0,1,1,2.836-2.836A2.845,2.845,0,0,1,18.926,11.8Zm19.64-.593H27.307a2.243,2.243,0,1,1,0-4.487h11.26a2.243,2.243,0,1,1,0,4.487Z" fill="#8a8bc4"/>
        <circle id="Ellipse_12720" data-name="Ellipse 12720" cx="1.169" cy="1.169" r="1.169" transform="translate(5.286 7.796)" fill="#4bc8f1"/>
        <circle id="Ellipse_12721" data-name="Ellipse 12721" cx="1.169" cy="1.169" r="1.169" transform="translate(11.517 7.796)" fill="#49bda0"/>
        <circle id="Ellipse_12722" data-name="Ellipse 12722" cx="1.169" cy="1.169" r="1.169" transform="translate(17.757 7.796)" fill="#ff5052"/>
        <path id="Path_1262741" data-name="Path 1262741" d="M39.142,8.965a.576.576,0,0,1-.576.576H27.307a.576.576,0,0,1,0-1.152h11.26A.587.587,0,0,1,39.142,8.965Z" fill="#ddd"/>
        <path id="Path_1262742" data-name="Path 1262742" d="M50.161,37.767a.84.84,0,0,1-.834.834H37.612a.834.834,0,0,1,0-1.667h.009V29.387a.834.834,0,0,1,1.667,0v7.546h1.676V32.859a.834.834,0,1,1,1.667,0v4.074h1.685V30.547a.834.834,0,0,1,1.667,0v6.386H47.66v-4.65a.834.834,0,1,1,1.667,0v4.65h.009a.833.833,0,0,1,.825.834Z"/>
        <path id="Path_1262743" data-name="Path 1262743" d="M49.155,30.676a.847.847,0,0,1-.679.335.869.869,0,0,1-.49-.155l-2.871-2.123-2.862,1.925a.444.444,0,0,1-.112.052c-.026.017-.052.026-.077.043a1.035,1.035,0,0,1-.275.052h-.009a.839.839,0,0,1-.284-.06c-.017-.009-.034-.009-.052-.017a.987.987,0,0,1-.241-.163c-.009-.009-.017-.009-.026-.017l-3.343-3.464a.833.833,0,1,1,1.2-1.152L41.9,28.888l2.768-1.857c0-.009.009-.009.017-.009.06-.034.12-.052.172-.077A.644.644,0,0,1,45,26.9a.93.93,0,0,1,.155,0,.469.469,0,0,1,.155.009.807.807,0,0,1,.129.052.721.721,0,0,1,.163.077.032.032,0,0,0,.026.009l3.343,2.475a.808.808,0,0,1,.189,1.152Z"/>
      </g>
    </g>
  </g>
</svg>
