<svg xmlns="http://www.w3.org/2000/svg" xmlns:xlink="http://www.w3.org/1999/xlink" width="98" height="97.999" viewBox="0 0 98 97.999">
  <defs>
    <clipPath id="clip-path">
      <rect id="Rectangle_411080" data-name="Rectangle 411080" width="55" height="52" transform="translate(825.051 2027)" fill="#fff"/>
    </clipPath>
  </defs>
  <g id="Group_1206233" data-name="Group 1206233" transform="translate(-803.781 -2003.55)">
    <g id="Group_1204447" data-name="Group 1204447" transform="translate(0 -541.412)">
      <g id="Group_1204142" data-name="Group 1204142" transform="translate(-67.331 2267.798)">
        <g id="Group_1188789" data-name="Group 1188789" transform="translate(871.113 277.164)">
          <path id="Path_1243039" data-name="Path 1243039" d="M41.05,0h0a41.05,41.05,0,0,1,0,82.1h0a41.05,41.05,0,0,1,0-82.1Z" transform="translate(7.951 7.949)" fill="#ffa724"/>
          <rect id="Rectangle_400907" data-name="Rectangle 400907" width="88.438" height="88.437" rx="44.218" transform="translate(4.782 4.781)" fill="none"/>
          <g id="Group_1098742" data-name="Group 1098742" transform="translate(0)">
            <g id="Rectangle_400898" data-name="Rectangle 400898" transform="translate(0)" fill="none" stroke="#fff" stroke-width="2" opacity="0.859">
              <rect width="98" height="97.999" rx="48.999" stroke="none"/>
              <rect x="1" y="1" width="96" height="95.999" rx="47.999" fill="none"/>
            </g>
            <g id="Rectangle_400907-2" data-name="Rectangle 400907" transform="translate(0)" fill="none" stroke="#0f1f33" stroke-linecap="round" stroke-width="2">
              <rect width="98" height="97.999" rx="48.999" stroke="none"/>
              <rect x="1" y="1" width="96" height="95.999" rx="47.999" fill="none"/>
            </g>
          </g>
        </g>
      </g>
    </g>
    <g id="Mask_Group_1099572" data-name="Mask Group 1099572" clip-path="url(#clip-path)">
      <g id="online-resume_17534764" transform="translate(825.604 2026.053)">
        <path id="Path_1262744" data-name="Path 1262744" d="M39.184,32.211a.737.737,0,1,1,1.042-1.042l.709.708L42.911,29.9a.737.737,0,0,1,1.042,1.041l-2.5,2.5a.737.737,0,0,1-1.042,0ZM20.167,21.343a1.546,1.546,0,1,1-1.546,1.546A1.546,1.546,0,0,1,20.167,21.343Zm0,4.565a3.019,3.019,0,1,0-3.019-3.019,3.02,3.02,0,0,0,3.019,3.019Zm0-6.529a6.472,6.472,0,0,0-5.73,9.491,7.952,7.952,0,0,1,11.459,0,6.472,6.472,0,0,0-5.729-9.491Zm0,12.953A6.463,6.463,0,0,1,15.3,30.117a6.47,6.47,0,0,1,9.742,0,6.465,6.465,0,0,1-4.871,2.215Zm0,1.474a7.95,7.95,0,1,0-7.951-7.95,7.95,7.95,0,0,0,7.951,7.95ZM34.1,28.966a.737.737,0,0,1-.737.737h-1.91a.737.737,0,0,1,0-1.474h1.91A.737.737,0,0,1,34.1,28.966Zm0-2.775a.737.737,0,0,1-.737.737H32.005a.737.737,0,1,1,0-1.474h1.355a.738.738,0,0,1,.737.737Zm0-2.774a.737.737,0,0,1-.737.737H32.052a.737.737,0,0,1,0-1.474h1.309a.737.737,0,0,1,.737.737Zm0-2.775a.737.737,0,0,1-.737.737H31.036a.737.737,0,0,1,0-1.474H33.36a.738.738,0,0,1,.737.737Zm0-2.774a.737.737,0,0,1-.737.737H30.7a.737.737,0,0,1,0-1.474H33.36a.737.737,0,0,1,.737.737Zm0-2.775a.737.737,0,0,1-.737.737H25.527a.737.737,0,1,1,0-1.474H33.36a.737.737,0,0,1,.737.737Zm-.737-2.037H17.421a.737.737,0,0,1,0-1.474H33.36a.737.737,0,1,1,0,1.474ZM16.684,9.547a.737.737,0,0,1,.737-.737H33.36a.737.737,0,1,1,0,1.474H17.421A.737.737,0,0,1,16.684,9.547ZM45.7,43.566H8.195a2.428,2.428,0,0,1-2.425-2.425v-.959H48.125v.959A2.428,2.428,0,0,1,45.7,43.566ZM32.266,47.52H21.628a5.078,5.078,0,0,0,.574-2.48h9.491a5.07,5.07,0,0,0,.574,2.48Zm3.49,2.714a1.242,1.242,0,0,1-1.24,1.24H19.492a1.241,1.241,0,0,1-1.24-1.24v-1.24h17.5ZM6.494,14.445a2.421,2.421,0,0,0-.724,1.728V38.708H48.125V16.174a2.415,2.415,0,0,0-.72-1.722,2.381,2.381,0,0,0-1.689-.7H45.7l-6.637.034V26.82a5.459,5.459,0,1,1-1.978,7.965h-.006a2.542,2.542,0,0,1-.552.061H26.4A10.94,10.94,0,0,1,11.756,18.86V13.779l-3.568-.03a2.374,2.374,0,0,0-1.695.7Zm9.7,1.219A10.947,10.947,0,0,1,30.119,30.409h3.448a1.063,1.063,0,0,0,1.062-1.062V8.865A1.063,1.063,0,0,0,33.568,7.8H17.255a1.063,1.063,0,0,0-1.062,1.062v6.8Zm-2.72,3.5a9.476,9.476,0,1,0,6.694-2.768,9.476,9.476,0,0,0-6.694,2.768Zm.818-14.324A1.063,1.063,0,0,0,13.23,5.9V17.4a10.8,10.8,0,0,1,1.49-1.029v-7.5a2.539,2.539,0,0,1,2.536-2.536H33.567A2.539,2.539,0,0,1,36.1,8.865V29.347a2.538,2.538,0,0,1-2.535,2.536H29.3a10.933,10.933,0,0,1-1.186,1.491h8.269a5.443,5.443,0,0,1,1.211-5.44V5.9a1.063,1.063,0,0,0-1.062-1.062H30.3a2.082,2.082,0,0,1-1.762.976H22.283a2.085,2.085,0,0,1-1.762-.976Zm7.381-1.805a.7.7,0,0,1,.612-.613h6.256a.612.612,0,0,1,.611.613v.695a.613.613,0,0,1-.612.613H22.284a.613.613,0,0,1-.612-.613V3.034ZM37.583,31.669a3.986,3.986,0,1,0,3.985-3.985,3.986,3.986,0,0,0-3.985,3.985ZM48.446,13.407A3.86,3.86,0,0,0,45.7,12.275l-6.629.034V5.9a2.539,2.539,0,0,0-2.536-2.536H30.624V3.034A2.088,2.088,0,0,0,28.539.947H22.284A2.169,2.169,0,0,0,20.2,3.034v.331H14.291A2.538,2.538,0,0,0,11.756,5.9v6.4L8.2,12.275A3.83,3.83,0,0,0,5.457,13.4,3.883,3.883,0,0,0,4.3,16.174V41.141a3.9,3.9,0,0,0,3.9,3.9H20.728a3.676,3.676,0,0,1-.855,2.48H17.881a1.105,1.105,0,0,0-1.1,1.1v1.609a2.717,2.717,0,0,0,2.714,2.714H34.516a2.717,2.717,0,0,0,2.713-2.714v-1.61a1.105,1.105,0,0,0-1.1-1.1H34.019a3.682,3.682,0,0,1-.854-2.48H45.7a3.9,3.9,0,0,0,3.9-3.9V16.174a3.883,3.883,0,0,0-1.153-2.766Z" fill-rule="evenodd"/>
        <path id="Path_1262745" data-name="Path 1262745" d="M20.166,26.433a7.882,7.882,0,0,1,5.73,2.438,6.477,6.477,0,1,0-11.459,0,7.877,7.877,0,0,1,5.729-2.438Zm3.019-3.543a3.019,3.019,0,1,1-3.019-3.02A3.019,3.019,0,0,1,23.185,22.889Z" fill="#eceff1" fill-rule="evenodd"/>
        <path id="Path_1262746" data-name="Path 1262746" d="M20.166,24.435a1.546,1.546,0,1,0-1.545-1.545,1.546,1.546,0,0,0,1.545,1.545Z" fill="#fdd7ad" fill-rule="evenodd"/>
        <path id="Path_1262747" data-name="Path 1262747" d="M25.038,30.118a6.47,6.47,0,0,0-9.742,0,6.464,6.464,0,0,0,9.742,0Z" fill="#8ac9fe" fill-rule="evenodd"/>
        <path id="Path_1262748" data-name="Path 1262748" d="M28.117,25.857a7.95,7.95,0,1,1-7.95-7.951,7.959,7.959,0,0,1,7.95,7.951ZM26.86,32.549a9.4,9.4,0,1,0-6.694,2.8A9.466,9.466,0,0,0,26.86,32.549Z" fill="#b1b1b5" fill-rule="evenodd"/>
        <path id="Path_1262749" data-name="Path 1262749" d="M33.568,31.883H29.3a10.933,10.933,0,0,1-1.186,1.491h8.269a5.443,5.443,0,0,1,1.211-5.44V5.9a1.063,1.063,0,0,0-1.062-1.062H30.3a2.082,2.082,0,0,1-1.762.976H22.283a2.085,2.085,0,0,1-1.762-.976h-6.23A1.063,1.063,0,0,0,13.23,5.9V17.4a10.8,10.8,0,0,1,1.49-1.029v-7.5a2.539,2.539,0,0,1,2.536-2.536H33.567A2.539,2.539,0,0,1,36.1,8.865V29.347a2.538,2.538,0,0,1-2.536,2.536Z" fill="#d1d1d6" fill-rule="evenodd"/>
        <path id="Path_1262750" data-name="Path 1262750" d="M41.568,27.684a3.986,3.986,0,1,0,3.986,3.986,3.986,3.986,0,0,0-3.986-3.986Zm-2.384,4.526a.737.737,0,1,1,1.042-1.042l.709.708L42.911,29.9a.737.737,0,0,1,1.042,1.041l-2.5,2.5a.737.737,0,0,1-1.042,0Z" fill="#96ff96" fill-rule="evenodd"/>
        <path id="Path_1262751" data-name="Path 1262751" d="M34.63,29.347V8.865A1.063,1.063,0,0,0,33.568,7.8H17.255a1.063,1.063,0,0,0-1.062,1.062v6.8A10.947,10.947,0,0,1,30.119,30.41h3.448A1.063,1.063,0,0,0,34.63,29.347Zm-2.625-3.893H33.36a.737.737,0,1,1,0,1.474H32.005a.737.737,0,1,1,0-1.474Zm-.555,2.775h1.91a.737.737,0,1,1,0,1.474H31.451a.737.737,0,0,1,0-1.474Zm1.909-4.075H32.052a.737.737,0,0,1,0-1.474h1.309a.737.737,0,1,1,0,1.474Zm.737-3.512a.737.737,0,0,1-.737.737H31.036a.737.737,0,0,1,0-1.474H33.36a.738.738,0,0,1,.737.737Zm0-2.774a.737.737,0,0,1-.737.737H30.7a.737.737,0,0,1,0-1.474H33.36a.737.737,0,0,1,.737.737Zm0-2.775a.737.737,0,0,1-.737.737H25.527a.737.737,0,1,1,0-1.474H33.36a.737.737,0,0,1,.737.737Zm-.737-2.037H17.421a.737.737,0,1,1,0-1.474H33.36a.737.737,0,1,1,0,1.474Zm0-2.774H17.421a.737.737,0,0,1,0-1.474H33.36a.737.737,0,1,1,0,1.474Z" fill="#eceff1" fill-rule="evenodd"/>
        <path id="Path_1262752" data-name="Path 1262752" d="M39.068,13.782V26.82a5.459,5.459,0,1,1-1.978,7.965h-.006a2.542,2.542,0,0,1-.552.061H26.4A10.94,10.94,0,0,1,11.756,18.86V13.779l-3.568-.03a2.374,2.374,0,0,0-1.695.7,2.421,2.421,0,0,0-.724,1.728V38.708H48.125V16.174a2.415,2.415,0,0,0-.72-1.722,2.381,2.381,0,0,0-1.689-.7H45.7Z" fill="#eaf6ff" fill-rule="evenodd"/>
        <path id="Path_1262753" data-name="Path 1262753" d="M31.693,45.04H22.2a5.078,5.078,0,0,1-.574,2.48H32.266a5.07,5.07,0,0,1-.574-2.48Z" fill="#d0d0d5" fill-rule="evenodd"/>
        <path id="Path_1262754" data-name="Path 1262754" d="M8.195,43.566H45.7a2.428,2.428,0,0,0,2.425-2.425v-.959H5.769v.959a2.428,2.428,0,0,0,2.425,2.425Z" fill="#4eb1fc" fill-rule="evenodd"/>
        <path id="Path_1262755" data-name="Path 1262755" d="M35.756,48.994h-17.5v1.24a1.241,1.241,0,0,0,1.24,1.24H34.516a1.242,1.242,0,0,0,1.24-1.24Z" fill="#eceeee" fill-rule="evenodd"/>
        <path id="Path_1262756" data-name="Path 1262756" d="M22.284,4.341h6.255a.613.613,0,0,0,.612-.613V3.033a.612.612,0,0,0-.612-.612H22.283a.7.7,0,0,0-.612.613v.695a.613.613,0,0,0,.612.613Z" fill="#7789a4" fill-rule="evenodd"/>
        <path id="Path_1262757" data-name="Path 1262757" d="M27,47.52h5.263a5.07,5.07,0,0,1-.574-2.48H27Z" fill="#b1b1b5" fill-rule="evenodd"/>
        <path id="Path_1262758" data-name="Path 1262758" d="M35.756,48.994H27v2.48h7.512a1.242,1.242,0,0,0,1.24-1.24Z" fill="#d0d1d7" fill-rule="evenodd"/>
      </g>
    </g>
  </g>
</svg>
