<svg xmlns="http://www.w3.org/2000/svg" xmlns:xlink="http://www.w3.org/1999/xlink" width="98" height="97.999" viewBox="0 0 98 97.999">
  <defs>
    <clipPath id="clip-path">
      <rect id="Rectangle_411080" data-name="Rectangle 411080" width="55" height="52" transform="translate(825.051 2027)" fill="#fff"/>
    </clipPath>
  </defs>
  <g id="Group_1206235" data-name="Group 1206235" transform="translate(-803.781 -2003.55)">
    <g id="Group_1204447" data-name="Group 1204447" transform="translate(0 -541.412)">
      <g id="Group_1204142" data-name="Group 1204142" transform="translate(-67.331 2267.798)">
        <g id="Group_1188789" data-name="Group 1188789" transform="translate(871.113 277.164)">
          <path id="Path_1243039" data-name="Path 1243039" d="M41.05,0h0a41.05,41.05,0,0,1,0,82.1h0a41.05,41.05,0,0,1,0-82.1Z" transform="translate(7.951 7.949)" fill="#ffa724"/>
          <rect id="Rectangle_400907" data-name="Rectangle 400907" width="88.438" height="88.437" rx="44.218" transform="translate(4.782 4.781)" fill="none"/>
          <g id="Group_1098742" data-name="Group 1098742" transform="translate(0)">
            <g id="Rectangle_400898" data-name="Rectangle 400898" transform="translate(0)" fill="none" stroke="#fff" stroke-width="2" opacity="0.859">
              <rect width="98" height="97.999" rx="48.999" stroke="none"/>
              <rect x="1" y="1" width="96" height="95.999" rx="47.999" fill="none"/>
            </g>
            <g id="Rectangle_400907-2" data-name="Rectangle 400907" transform="translate(0)" fill="none" stroke="#0f1f33" stroke-linecap="round" stroke-width="2">
              <rect width="98" height="97.999" rx="48.999" stroke="none"/>
              <rect x="1" y="1" width="96" height="95.999" rx="47.999" fill="none"/>
            </g>
          </g>
        </g>
      </g>
    </g>
    <g id="Mask_Group_1099573" data-name="Mask Group 1099573" clip-path="url(#clip-path)">
      <g id="profitability_16683558" transform="translate(825.816 2026.266)">
        <g id="Group_1206768" data-name="Group 1206768">
          <g id="Group_1206765" data-name="Group 1206765">
            <path id="Path_1262759" data-name="Path 1262759" d="M44.908,13.266l4.306,5.072a.313.313,0,0,1-.238.514H46.97V33.093a.627.627,0,0,1-.627.625H42.995a.627.627,0,0,1-.627-.625V18.853h-2a.312.312,0,0,1-.238-.514l4.306-5.072a.3.3,0,0,1,.238-.11.306.306,0,0,1,.238.11Z" fill="#8ac9fe" fill-rule="evenodd"/>
            <path id="Path_1262760" data-name="Path 1262760" d="M44.146,13.6l.286-.337a.3.3,0,0,1,.238-.11.306.306,0,0,1,.238.11l4.306,5.072a.313.313,0,0,1-.238.514H47.927a.313.313,0,0,0,.238-.514Zm2.824,5.25V33.093a.627.627,0,0,1-.627.625H45.3a.627.627,0,0,0,.627-.625V18.853Z" fill="#60b7ff" fill-rule="evenodd"/>
            <path id="Path_1262761" data-name="Path 1262761" d="M24.252,20.846l4.306,5.07a.313.313,0,0,1-.238.516H26.314v6.66a.625.625,0,0,1-.625.625H22.338a.625.625,0,0,1-.625-.625v-6.66H19.708a.313.313,0,0,1-.238-.516l4.306-5.07a.313.313,0,0,1,.476,0Z" fill="#ffe177" fill-rule="evenodd"/>
            <path id="Path_1262762" data-name="Path 1262762" d="M23.489,21.183l.286-.337a.313.313,0,0,1,.476,0l4.306,5.07a.313.313,0,0,1-.238.516H27.271a.313.313,0,0,0,.238-.516Zm2.824,5.25v6.66a.625.625,0,0,1-.625.625H24.641a.625.625,0,0,0,.625-.625v-6.66Z" fill="#ffd064" fill-rule="evenodd"/>
            <path id="Path_1262763" data-name="Path 1262763" d="M34.579,17.057l4.306,5.07a.312.312,0,0,1-.238.514H36.641V33.093a.625.625,0,0,1-.625.625H32.667a.627.627,0,0,1-.627-.625V22.642H30.035a.313.313,0,0,1-.238-.514l4.306-5.07a.3.3,0,0,1,.238-.11.294.294,0,0,1,.238.11Z" fill="#6cf5c2" fill-rule="evenodd"/>
            <path id="Path_1262764" data-name="Path 1262764" d="M33.817,17.394l.286-.337a.3.3,0,0,1,.238-.11.294.294,0,0,1,.238.11l4.306,5.07a.312.312,0,0,1-.238.514H37.6a.312.312,0,0,0,.238-.514l-4.02-4.734Zm2.824,5.248V33.093a.625.625,0,0,1-.625.625H34.968a.625.625,0,0,0,.625-.625V22.642Z" fill="#00e499" fill-rule="evenodd"/>
          </g>
          <g id="Group_1206766" data-name="Group 1206766">
            <path id="Path_1262765" data-name="Path 1262765" d="M14.275,21.7a10.1,10.1,0,1,0-10.1-10.1A10.116,10.116,0,0,0,14.275,21.7Z" fill="#ffd064" fill-rule="evenodd"/>
            <path id="Path_1262766" data-name="Path 1262766" d="M13.849,1.521a10.1,10.1,0,0,1,0,20.174c.141.006.283.01.426.01a10.1,10.1,0,0,0,0-20.193c-.143,0-.285,0-.426.01Z" fill="#f5b829" fill-rule="evenodd"/>
            <path id="Path_1262767" data-name="Path 1262767" d="M14.275,19.317a7.709,7.709,0,1,0-7.71-7.709A7.724,7.724,0,0,0,14.275,19.317Z" fill="#ffc338" fill-rule="evenodd"/>
            <path id="Path_1262768" data-name="Path 1262768" d="M7.485,11.608a7.71,7.71,0,0,1,7.249-7.7c-.151-.008-.305-.013-.459-.013a7.709,7.709,0,1,0,0,15.419c.154,0,.308,0,.459-.013A7.71,7.71,0,0,1,7.485,11.608Z" fill="#f5b829" fill-rule="evenodd"/>
          </g>
          <g id="Group_1206767" data-name="Group 1206767">
            <path id="Path_1262769" data-name="Path 1262769" d="M14.294,41.54l7.052-4.085a4.994,4.994,0,0,1,4.126-.84,49.346,49.346,0,0,0,6.972,2.143A1.959,1.959,0,0,1,33.8,41.1a1.9,1.9,0,0,1-2.349,1.356l.946.151a4.384,4.384,0,0,0,3.023-.527l6.78-3.949c5.271-3.069,6.045,1.654,4.294,2.733L34.187,48.445a4.516,4.516,0,0,1-3.654.514l-8.925-2.391L18.3,48.477a1.336,1.336,0,0,1-1.819-.489l-2.674-4.629a1.337,1.337,0,0,1,.487-1.819Z" fill="#f6dccd" fill-rule="evenodd"/>
            <path id="Path_1262770" data-name="Path 1262770" d="M14.294,41.54l7.052-4.085a4.994,4.994,0,0,1,4.126-.84c.867.281,2.03.735,3.335,1.171l-13.663,7.89-1.337-2.317a1.337,1.337,0,0,1,.487-1.819Z" fill="#f1cbbc" fill-rule="evenodd"/>
            <path id="Path_1262771" data-name="Path 1262771" d="M15.112,39.508l5.594,9.884a1,1,0,0,1-.376,1.36l-1.9,1.078a1,1,0,0,1-1.36-.378l-5.592-9.884a1,1,0,0,1,.376-1.36l1.9-1.078a1,1,0,0,1,1.36.378Z" fill="#d1d1d6" fill-rule="evenodd"/>
            <path id="Path_1262772" data-name="Path 1262772" d="M18.056,46.3l.988,1.749.98,1.73a1,1,0,0,1-.374,1.358l.68-.385a1,1,0,0,0,.376-1.36l-.982-1.737-1.972-3.486-1.975-3.488-.665-1.173a1,1,0,0,0-1.163-.463l1.15,2.032,1.972,3.486.982,1.734Z" fill="#b1b1b5" fill-rule="evenodd"/>
          </g>
        </g>
        <path id="Path_1262773" data-name="Path 1262773" d="M20.949,48.115l.458.809v0a1.84,1.84,0,0,1-.694,2.5l-1.9,1.075h0a1.841,1.841,0,0,1-2.5-.695l-5.576-9.852a1.837,1.837,0,0,1,.691-2.5l1.9-1.075h0a1.842,1.842,0,0,1,2.5.692v0l.355.628,4.82-2.79A5.781,5.781,0,0,1,25.8,36a48.667,48.667,0,0,0,6.84,2.108.833.833,0,0,1,.109.027,2.787,2.787,0,0,1,1.9,3.357q-.036.135-.082.263a3.624,3.624,0,0,0,.466-.229l6.761-3.937c2.527-1.472,4.215-1.285,5.169-.645a2.971,2.971,0,0,1-.028,4.808L34.668,49.3a5.312,5.312,0,0,1-4.3.612h0l-8.563-2.3Zm-3.937-6.956,3.11,5.5,1.143-.66a.839.839,0,0,1,.637-.084L30.8,48.3a3.687,3.687,0,0,0,2.985-.419h0l12.268-7.553a1.127,1.127,0,0,0,.441-.95c.031-1.155-1.136-1.921-3.858-.335l-6.761,3.937a5.2,5.2,0,0,1-3.569.63h0l-.839-.137-.034-.006h0c-1.529-.314-2.947-.776-4.52-1.2a.839.839,0,1,1,.435-1.62c1.528.411,2.905.861,4.388,1.168a1.081,1.081,0,0,0,1.295-.754h0a1.112,1.112,0,0,0-.752-1.309,51.185,51.185,0,0,1-7-2.152h0a4.181,4.181,0,0,0-3.435.765Zm-2.64-1.26h0a.159.159,0,0,0-.215-.06l-1.9,1.074h0a.156.156,0,0,0-.057.213h0l5.576,9.852h0a.158.158,0,0,0,.215.058l1.894-1.073h0a.158.158,0,0,0,.058-.215Zm-.566.954a.787.787,0,1,1-.666.891A.787.787,0,0,1,13.806,40.853ZM35.223,16.58h0l4.294,5.057a1.128,1.128,0,0,1,.176,1.233l0,.005a1.127,1.127,0,0,1-1.045.666H37.48v9.613a1.465,1.465,0,0,1-1.463,1.463H32.667A1.468,1.468,0,0,1,31.2,33.154s0-9.613,0-9.613H30.035a1.152,1.152,0,0,1-.877-1.9l4.305-5.07a1.152,1.152,0,0,1,1.76,0Zm-4.05,5.284h.868a.839.839,0,0,1,.839.839V32.94H35.8V22.7a.839.839,0,0,1,.839-.839h.868l-3.168-3.731Zm14.375-9.08,4.305,5.072a1.152,1.152,0,0,1-.877,1.9H47.809v13.4a1.468,1.468,0,0,1-1.465,1.463H42.995a1.468,1.468,0,0,1-1.465-1.463v-13.4H40.364a1.151,1.151,0,0,1-.875-1.9l4.3-5.068a1.152,1.152,0,0,1,1.753-.006l0,0ZM41.5,18.075h.867a.839.839,0,0,1,.839.839V32.94h2.925V18.913a.839.839,0,0,1,.839-.839h.868L44.67,14.342Zm-16.61,2.29,4.306,5.07,0,.006a1.129,1.129,0,0,1,.165,1.219l0,.005a1.139,1.139,0,0,1-1.045.668H27.152v5.821a1.465,1.465,0,0,1-1.463,1.463H22.338a1.465,1.465,0,0,1-1.463-1.463V27.333H19.708a1.139,1.139,0,0,1-1.045-.668l0-.005a1.129,1.129,0,0,1,.165-1.219l.005-.006,4.306-5.07,0,0a1.151,1.151,0,0,1,1.747,0Zm-4.048,5.291h.87a.839.839,0,0,1,.839.839V32.94h2.923V26.494a.839.839,0,0,1,.839-.839h.87l-3.17-3.733-3.17,3.733ZM14.274,22.6A10.935,10.935,0,1,1,25.209,11.669,10.957,10.957,0,0,1,14.274,22.6Zm0-1.677a9.257,9.257,0,1,0-9.257-9.257A9.276,9.276,0,0,0,14.274,20.926Zm0-.71a8.548,8.548,0,1,1,8.548-8.548A8.566,8.566,0,0,1,14.274,20.217Zm0-1.677a6.87,6.87,0,1,0-6.87-6.87A6.885,6.885,0,0,0,14.274,18.539ZM13.435,7.146V6.79a.839.839,0,1,1,1.677,0v.347A3.118,3.118,0,0,1,17.317,9a.839.839,0,1,1-1.546.65,1.637,1.637,0,0,0-2.15-.807,1.006,1.006,0,0,0-.724.97.84.84,0,0,0,.551.72,3.549,3.549,0,0,0,.969.281c1.408.23,2.946.883,3.15,2.557h0c.2,1.619-1.084,2.572-2.454,2.843v.333a.839.839,0,1,1-1.677,0V16.2a3.1,3.1,0,0,1-2.448-2.258.839.839,0,0,1,1.628-.405,1.619,1.619,0,0,0,1.739,1.078,2.292,2.292,0,0,0,1.213-.344.71.71,0,0,0,.334-.7,1.03,1.03,0,0,0-.689-.813,4.287,4.287,0,0,0-1.067-.292h0c-1.381-.227-2.844-.932-2.924-2.574h0a2.631,2.631,0,0,1,1.785-2.613,3.4,3.4,0,0,1,.43-.137Z" fill-rule="evenodd"/>
      </g>
    </g>
  </g>
</svg>
