<svg xmlns="http://www.w3.org/2000/svg" xmlns:xlink="http://www.w3.org/1999/xlink" width="98" height="97.998" viewBox="0 0 98 97.998">
  <defs>
    <clipPath id="clip-path">
      <rect id="Rectangle_411080" data-name="Rectangle 411080" width="55" height="52" transform="translate(825.051 2027)" fill="#fff"/>
    </clipPath>
  </defs>
  <g id="Group_1206459" data-name="Group 1206459" transform="translate(-803.781 -2003.55)">
    <g id="Group_1204447" data-name="Group 1204447" transform="translate(0 -541.412)">
      <g id="Group_1204142" data-name="Group 1204142" transform="translate(-67.331 2267.798)">
        <g id="Group_1188789" data-name="Group 1188789" transform="translate(871.113 277.164)">
          <path id="Path_1243039" data-name="Path 1243039" d="M41.05,0h0a41.05,41.05,0,0,1,0,82.1h0a41.05,41.05,0,0,1,0-82.1Z" transform="translate(7.951 7.949)" fill="#ffa724"/>
          <rect id="Rectangle_400907" data-name="Rectangle 400907" width="88.438" height="88.437" rx="44.218" transform="translate(4.782 4.781)" fill="none"/>
          <g id="Group_1098742" data-name="Group 1098742" transform="translate(0)">
            <g id="Rectangle_400898" data-name="Rectangle 400898" transform="translate(0)" fill="none" stroke="#fff" stroke-width="2" opacity="0.859">
              <rect width="98" height="97.999" rx="48.999" stroke="none"/>
              <rect x="1" y="1" width="96" height="95.999" rx="47.999" fill="none"/>
            </g>
            <g id="Rectangle_400907-2" data-name="Rectangle 400907" transform="translate(0)" fill="none" stroke="#0f1f33" stroke-linecap="round" stroke-width="2">
              <rect width="98" height="97.999" rx="48.999" stroke="none"/>
              <rect x="1" y="1" width="96" height="95.999" rx="47.999" fill="none"/>
            </g>
          </g>
        </g>
      </g>
    </g>
    <g id="Mask_Group_1099597" data-name="Mask Group 1099597" clip-path="url(#clip-path)">
      <g id="pdf_3997635" transform="translate(826.551 2027)">
        <g id="Group_1206867" data-name="Group 1206867">
          <path id="Path_1263187" data-name="Path 1263187" d="M8.9,33.327H7.275A4.071,4.071,0,0,1,3.2,29.257a2.442,2.442,0,0,1,2.442-2.442H8.9Z" fill="#bd4150"/>
          <path id="Path_1263188" data-name="Path 1263188" d="M48.319,8.426,41.131,1.239A1.628,1.628,0,0,0,39.98.762H9.717A1.628,1.628,0,0,0,8.089,2.39V27.828l1.628,23.41h37.45A1.628,1.628,0,0,0,48.8,49.61V9.578a1.628,1.628,0,0,0-.477-1.151Z" fill="#eceaec"/>
          <path id="Path_1263189" data-name="Path 1263189" d="M48.8,9.578a1.628,1.628,0,0,0-.477-1.151L41.131,1.239A1.628,1.628,0,0,0,39.98.762H39.84V8.9a.814.814,0,0,0,.814.814H48.8Z" fill="#dad8db"/>
          <path id="Path_1263190" data-name="Path 1263190" d="M10.531,47.168V.762H9.717A1.628,1.628,0,0,0,8.089,2.39V49.61a1.628,1.628,0,0,0,1.628,1.628h37.45A1.628,1.628,0,0,0,48.8,49.61V48.8H12.16a1.63,1.63,0,0,1-1.628-1.628Z" fill="#dad8db"/>
          <path id="Path_1263191" data-name="Path 1263191" d="M30.885,31.7H5.647A2.442,2.442,0,0,1,3.2,29.257V43.911a2.442,2.442,0,0,0,2.442,2.442H30.885a1.628,1.628,0,0,0,1.628-1.628v-11.4A1.628,1.628,0,0,0,30.885,31.7Z" fill="#e15f78"/>
          <path id="Path_1263192" data-name="Path 1263192" d="M5.647,46.353H30.885a1.628,1.628,0,0,0,1.628-1.628v-.814H7.275a1.63,1.63,0,0,1-1.628-1.628V31.7A2.442,2.442,0,0,1,3.2,29.257V43.911a2.442,2.442,0,0,0,2.442,2.442Z" fill="#db4655"/>
        </g>
        <g id="Group_1206868" data-name="Group 1206868">
          <path id="Path_1263193" data-name="Path 1263193" d="M48.858,7.888,41.67.7A2.375,2.375,0,0,0,39.98,0H9.717a2.393,2.393,0,0,0-2.39,2.39V26.052H5.647a3.208,3.208,0,0,0-3.2,3.2V43.911a3.208,3.208,0,0,0,3.2,3.2H30.885a2.393,2.393,0,0,0,2.39-2.39v-11.4a2.393,2.393,0,0,0-2.39-2.39H5.647a1.681,1.681,0,0,1,0-3.361H7.327v.867a.762.762,0,0,0,1.523,0V2.39a.868.868,0,0,1,.867-.867H39.079V8.9a1.578,1.578,0,0,0,1.576,1.576h7.38V49.61a.868.868,0,0,1-.867.867H9.717a.867.867,0,0,1-.867-.867.762.762,0,0,0-1.523,0A2.393,2.393,0,0,0,9.717,52h37.45a2.393,2.393,0,0,0,2.39-2.39V9.578A2.374,2.374,0,0,0,48.858,7.888ZM5.647,32.461H30.885a.868.868,0,0,1,.867.867v11.4a.868.868,0,0,1-.867.867H5.647a1.683,1.683,0,0,1-1.681-1.681V31.984A3.183,3.183,0,0,0,5.647,32.461ZM40.6,8.9V1.787l7.169,7.169H40.654A.053.053,0,0,1,40.6,8.9Z"/>
          <path id="Path_1263194" data-name="Path 1263194" d="M24.027,43.021a.762.762,0,0,0,.762-.762V39.727h1.65a.762.762,0,1,0,0-1.523h-1.65V36.555h1.859a.762.762,0,0,0,0-1.523h-2.62a.762.762,0,0,0-.762.762v6.465a.762.762,0,0,0,.762.762Z"/>
          <path id="Path_1263195" data-name="Path 1263195" d="M16.02,42.727a.762.762,0,0,0,.537.221h0c.054,0,1.33-.005,1.84-.014,1.882-.033,3.248-1.676,3.248-3.908,0-2.346-1.332-3.922-3.314-3.922h-1.79a.762.762,0,0,0-.762.763v0h0v6.211a1.071,1.071,0,0,0,.238.643Zm2.314-6.1c1.32,0,1.791,1.239,1.791,2.4,0,1.626-.88,2.37-1.752,2.385-.242,0-.675.008-1.057.01,0-.747-.008-4.016-.009-4.793Z"/>
          <path id="Path_1263196" data-name="Path 1263196" d="M9.694,43.044a.762.762,0,0,0,.762-.762V40.211l1.052,0a2.6,2.6,0,1,0,0-5.2H9.694a.761.761,0,0,0-.762.762h0v6.513a.762.762,0,0,0,.762.762Zm1.814-6.513a1.077,1.077,0,1,1,0,2.153l-1.043,0c0-.389-.005-1.749-.006-2.156h1.05Z"/>
          <path id="Path_1263197" data-name="Path 1263197" d="M23.963,22.086a12.266,12.266,0,0,0-4.819,2.467,2.127,2.127,0,0,0-.421,2.779,1.818,1.818,0,0,0,1.539.923,2.026,2.026,0,0,0,.724-.142,7.325,7.325,0,0,0,2.955-2.977c.353-.536.71-1.132,1.066-1.777l.4-.114a38,38,0,0,1,6.716-1.22,9.317,9.317,0,0,0,3.793,2.506,2.127,2.127,0,0,0,2.674-1.543,1.583,1.583,0,0,0-.771-1.926,7.866,7.866,0,0,0-3.89-.654c-.389,0-.8.02-1.228.047a29.1,29.1,0,0,1-2.5-2.977,29.364,29.364,0,0,1-1.689-2.556q.079-.271.149-.533A11.6,11.6,0,0,0,29.213,10c-.223-1.422-1.141-1.624-1.525-1.645a2.033,2.033,0,0,0-2.358,1.766,7.286,7.286,0,0,0,.934,3.822c.179.381.38.773.6,1.174q-.123.4-.268.823a43.767,43.767,0,0,1-2.634,6.15Zm-3.658,4.641c-.054.007-.146.018-.3-.224a.469.469,0,0,1-.026-.548,5.814,5.814,0,0,1,2.8-1.826c-1.173,1.819-2.049,2.545-2.475,2.6Zm16.848-4.265a.272.272,0,0,1-.013.052c-.19.581-.446.635-.881.534A5.508,5.508,0,0,1,34.3,21.932C36.339,21.948,37.049,22.315,37.153,22.462ZM26.838,10.331c.031-.218.066-.463.645-.463l.116,0c.173.211.263,1.152-.139,3.013a5.441,5.441,0,0,1-.623-2.553Zm1.061,6.5c.334.514.694,1.033,1.075,1.55.547.743,1.165,1.514,1.818,2.25-.756.091-1.535.209-2.315.35-.528.1-1.448.276-2.525.545q.358-.743.7-1.537c.458-1.049.879-2.122,1.242-3.16Z"/>
        </g>
      </g>
    </g>
  </g>
</svg>
