<svg xmlns="http://www.w3.org/2000/svg" xmlns:xlink="http://www.w3.org/1999/xlink" width="98" height="97.999" viewBox="0 0 98 97.999">
  <defs>
    <clipPath id="clip-path">
      <rect id="Rectangle_411080" data-name="Rectangle 411080" width="55" height="52" transform="translate(825.051 2027)" fill="#fff"/>
    </clipPath>
  </defs>
  <g id="Group_1206323" data-name="Group 1206323" transform="translate(-803.781 -2003.55)">
    <g id="Group_1204447" data-name="Group 1204447" transform="translate(0 -541.412)">
      <g id="Group_1204142" data-name="Group 1204142" transform="translate(-67.331 2267.798)">
        <g id="Group_1188789" data-name="Group 1188789" transform="translate(871.113 277.164)">
          <path id="Path_1243039" data-name="Path 1243039" d="M41.05,0h0a41.05,41.05,0,0,1,0,82.1h0a41.05,41.05,0,0,1,0-82.1Z" transform="translate(7.951 7.949)" fill="#ffa724"/>
          <rect id="Rectangle_400907" data-name="Rectangle 400907" width="88.438" height="88.437" rx="44.218" transform="translate(4.782 4.781)" fill="none"/>
          <g id="Group_1098742" data-name="Group 1098742" transform="translate(0)">
            <g id="Rectangle_400898" data-name="Rectangle 400898" transform="translate(0)" fill="none" stroke="#fff" stroke-width="2" opacity="0.859">
              <rect width="98" height="97.999" rx="48.999" stroke="none"/>
              <rect x="1" y="1" width="96" height="95.999" rx="47.999" fill="none"/>
            </g>
            <g id="Rectangle_400907-2" data-name="Rectangle 400907" transform="translate(0)" fill="none" stroke="#0f1f33" stroke-linecap="round" stroke-width="2">
              <rect width="98" height="97.999" rx="48.999" stroke="none"/>
              <rect x="1" y="1" width="96" height="95.999" rx="47.999" fill="none"/>
            </g>
          </g>
        </g>
      </g>
    </g>
    <g id="Mask_Group_1099575" data-name="Mask Group 1099575" clip-path="url(#clip-path)">
      <g id="analysis_18648918" transform="translate(826.5 2026.949)">
        <g id="Group_1206783" data-name="Group 1206783">
          <g id="Group_1206773" data-name="Group 1206773">
            <path id="Path_1262795" data-name="Path 1262795" d="M6.1,1.054H42.213V47.534H6.1Z" fill="#d9eafc" fill-rule="evenodd"/>
          </g>
          <g id="Group_1206774" data-name="Group 1206774">
            <path id="Path_1262796" data-name="Path 1262796" d="M11.308,30.01h4.351V42.6H11.308Z" fill="#05e39c" fill-rule="evenodd"/>
          </g>
          <g id="Group_1206775" data-name="Group 1206775">
            <path id="Path_1262797" data-name="Path 1262797" d="M18.422,26.194h4.351V42.6H18.422Z" fill="#f9d42f" fill-rule="evenodd"/>
          </g>
          <g id="Group_1206776" data-name="Group 1206776">
            <path id="Path_1262798" data-name="Path 1262798" d="M25.537,28.524h4.351V42.6H25.537Z" fill="#ef5350" fill-rule="evenodd"/>
          </g>
          <g id="Group_1206777" data-name="Group 1206777">
            <path id="Path_1262799" data-name="Path 1262799" d="M32.651,22.545H37V42.6H32.651Z" fill="#31a7fb" fill-rule="evenodd"/>
          </g>
          <g id="Group_1206778" data-name="Group 1206778">
            <path id="Path_1262800" data-name="Path 1262800" d="M13.485,20.759a1.809,1.809,0,1,0,1.809,1.809A1.812,1.812,0,0,0,13.485,20.759Z" fill="#ef5350"/>
            <path id="Path_1262801" data-name="Path 1262801" d="M20.6,16.049a1.765,1.765,0,1,0,1.764,1.764A1.767,1.767,0,0,0,20.6,16.049Z" fill="#ef5350"/>
            <path id="Path_1262802" data-name="Path 1262802" d="M27.551,19.027A1.672,1.672,0,1,0,29.222,20.7,1.676,1.676,0,0,0,27.551,19.027Z" fill="#ef5350"/>
          </g>
          <g id="Group_1206779" data-name="Group 1206779">
            <path id="Path_1262803" data-name="Path 1262803" d="M15.847,14.819A5.424,5.424,0,1,0,10.423,9.4,5.434,5.434,0,0,0,15.847,14.819Z" fill="#ffc328" fill-rule="evenodd"/>
          </g>
          <g id="Group_1206780" data-name="Group 1206780">
            <path id="Path_1262804" data-name="Path 1262804" d="M34.945,40.65l-.526-.367a1.241,1.241,0,0,0-1.727.307l-5.683,8.139a1.245,1.245,0,0,0,.307,1.73l.524.367a1.25,1.25,0,0,0,1.73-.307l5.683-8.142a1.244,1.244,0,0,0-.307-1.728Z" fill="#ef5350" fill-rule="evenodd"/>
          </g>
          <g id="Group_1206781" data-name="Group 1206781">
            <path id="Path_1262805" data-name="Path 1262805" d="M42.181,29.1a8.934,8.934,0,1,0,2.211,12.439A8.934,8.934,0,0,0,42.181,29.1Z" fill="#407093" fill-rule="evenodd"/>
          </g>
          <g id="Group_1206782" data-name="Group 1206782">
            <path id="Path_1262806" data-name="Path 1262806" d="M40.926,30.889a6.745,6.745,0,1,0,1.67,9.394A6.746,6.746,0,0,0,40.926,30.889Z" fill="#bbf7ff" fill-rule="evenodd"/>
          </g>
        </g>
        <path id="Path_1262807" data-name="Path 1262807" d="M15.533,29.358h-4.4a.711.711,0,0,0-.711.711V42.817a.711.711,0,0,0,.711.711h4.4a.711.711,0,0,0,.711-.711V30.069a.711.711,0,0,0-.711-.711Zm-.711,12.748H11.84V30.78h2.981ZM22.733,25.5h-4.4a.711.711,0,0,0-.711.711v16.61a.711.711,0,0,0,.711.711h4.4a.711.711,0,0,0,.711-.711V26.207a.711.711,0,0,0-.711-.711Zm-.711,16.611H19.041V26.918h2.981ZM18.3,17.724a2.23,2.23,0,0,0,.078.583l-3.694,2.466a2.223,2.223,0,1,0,.793,1.181l3.692-2.465a2.222,2.222,0,0,0,3.035-.3l3.139,1.3c0,.05-.006.1-.006.153a2.228,2.228,0,1,0,4.113-1.187l4.77-5.858v1.763a.711.711,0,0,0,1.423,0V11.742a.711.711,0,0,0-.711-.711H31.311a.711.711,0,0,0,0,1.423h2.013L28.351,18.56a2.223,2.223,0,0,0-2.459.621l-3.139-1.3c0-.05.006-.1.006-.153a2.228,2.228,0,0,0-4.456,0Zm9.266,2.117a.8.8,0,0,1,.5.174l.01.009.009.006a.8.8,0,1,1-.516-.189Zm-14.24,3.5a.8.8,0,1,1,.806-.8A.8.8,0,0,1,13.329,23.341Zm8.007-5.617a.8.8,0,0,1-1.472.452l0,0h0a.8.8,0,1,1,1.475-.447Zm-5.614-2.319a6.2,6.2,0,1,0-6.2-6.2A6.208,6.208,0,0,0,15.723,15.406Zm0-10.98A4.778,4.778,0,1,1,10.944,9.2a4.784,4.784,0,0,1,4.778-4.778ZM13.179,8.1a1.854,1.854,0,0,1,.448-1.226,1.761,1.761,0,0,1,1.35-.587h.035V5.762a.711.711,0,1,1,1.423,0V6.29h1.12a.711.711,0,0,1,0,1.423H14.977a.348.348,0,0,0-.375.39.348.348,0,0,0,.375.39h1.492a1.765,1.765,0,0,1,1.8,1.813,1.855,1.855,0,0,1-.447,1.226,1.758,1.758,0,0,1-1.349.587h-.035v.527a.711.711,0,1,1-1.423,0v-.527h-1.12a.711.711,0,0,1,0-1.423h2.578a.391.391,0,0,0,0-.781H14.977a1.766,1.766,0,0,1-1.8-1.813ZM46.8,34.85a9.68,9.68,0,0,0-3.685-6.042V.762a.711.711,0,0,0-.711-.711H5.858a.711.711,0,0,0-.711.711V47.806a.711.711,0,0,0,.711.711H26.5l-.064.091a2.091,2.091,0,0,0,.736,2.953,2.552,2.552,0,0,0,1.452.49,1.88,1.88,0,0,0,1.574-.817l1.9-2.717H42.406a.711.711,0,0,0,.711-.711v-3.49A9.764,9.764,0,0,0,46.8,34.85ZM6.569,47.094V1.474H41.694V27.9a9.642,9.642,0,0,0-3.848-1.079V22.514a.711.711,0,0,0-.711-.711h-4.4a.711.711,0,0,0-.711.711v5.775a9.645,9.645,0,0,0-1.374,1.044v-.768a.711.711,0,0,0-.711-.711h-4.4a.711.711,0,0,0-.711.711V42.817a.711.711,0,0,0,.711.711h4.4l.048,0L27.49,47.094Zm29.854-20.26q-.465.038-.931.12a9.832,9.832,0,0,0-2.05.6V23.226h2.981ZM27.594,38.265a9.72,9.72,0,0,0,1.577,3.841h-2.93V29.277h2.981v1.669l-.021.029a9.685,9.685,0,0,0-1.607,7.29Zm1.434,12.154c-.327.468-1.015,0-1.045-.025s-.71-.5-.384-.972l.825-1.181a.715.715,0,0,0,.041-.059l2.743-3.927q.2.154.407.3a9.9,9.9,0,0,0,1.058.643l-1.535,2.2-.011.016Zm12.666-3.325h-8.61L34,45.777a9.639,9.639,0,0,0,3.175.538,9.862,9.862,0,0,0,4.515-1.1v1.876Zm2.337-5.768a8.343,8.343,0,0,1-2,2.025l-.047.032A8.334,8.334,0,1,1,33.04,29.335a.729.729,0,0,0,.071-.039,8.324,8.324,0,0,1,8.855.432h0a8.331,8.331,0,0,1,2.065,11.6ZM41.514,30.376h0a7.536,7.536,0,1,0,1.867,10.5,7.547,7.547,0,0,0-1.867-10.5Zm.7,9.683A6.114,6.114,0,1,1,40.7,31.543,6.126,6.126,0,0,1,42.214,40.059ZM40.5,34.916,37.008,39.11a.711.711,0,0,1-.545.257h0a.712.712,0,0,1-.544-.253l-2.01-2.385a.711.711,0,0,1,1.088-.917l1.463,1.735,2.945-3.54a.711.711,0,0,1,1.094.91Z"/>
      </g>
    </g>
  </g>
</svg>
