<svg xmlns="http://www.w3.org/2000/svg" xmlns:xlink="http://www.w3.org/1999/xlink" width="98" height="97.998" viewBox="0 0 98 97.998">
  <defs>
    <clipPath id="clip-path">
      <rect id="Rectangle_411080" data-name="Rectangle 411080" width="55" height="52" transform="translate(825.051 2027)" fill="#fff"/>
    </clipPath>
  </defs>
  <g id="Group_1206325" data-name="Group 1206325" transform="translate(-803.781 -2003.55)">
    <g id="Group_1204447" data-name="Group 1204447" transform="translate(0 -541.412)">
      <g id="Group_1204142" data-name="Group 1204142" transform="translate(-67.331 2267.798)">
        <g id="Group_1188789" data-name="Group 1188789" transform="translate(871.113 277.164)">
          <path id="Path_1243039" data-name="Path 1243039" d="M41.05,0h0a41.05,41.05,0,0,1,0,82.1h0a41.05,41.05,0,0,1,0-82.1Z" transform="translate(7.951 7.949)" fill="#ffa724"/>
          <rect id="Rectangle_400907" data-name="Rectangle 400907" width="88.438" height="88.437" rx="44.218" transform="translate(4.782 4.781)" fill="none"/>
          <g id="Group_1098742" data-name="Group 1098742" transform="translate(0)">
            <g id="Rectangle_400898" data-name="Rectangle 400898" transform="translate(0)" fill="none" stroke="#fff" stroke-width="2" opacity="0.859">
              <rect width="98" height="97.999" rx="48.999" stroke="none"/>
              <rect x="1" y="1" width="96" height="95.999" rx="47.999" fill="none"/>
            </g>
            <g id="Rectangle_400907-2" data-name="Rectangle 400907" transform="translate(0)" fill="none" stroke="#0f1f33" stroke-linecap="round" stroke-width="2">
              <rect width="98" height="97.999" rx="48.999" stroke="none"/>
              <rect x="1" y="1" width="96" height="95.999" rx="47.999" fill="none"/>
            </g>
          </g>
        </g>
      </g>
    </g>
    <g id="Mask_Group_1099577" data-name="Mask Group 1099577" clip-path="url(#clip-path)">
      <g id="investment_2980029" transform="translate(825.712 2026.161)">
        <g id="Group_1206815" data-name="Group 1206815">
          <g id="Group_1206800" data-name="Group 1206800">
            <path id="Path_1262835" data-name="Path 1262835" d="M32.71,6.71a4.985,4.985,0,0,0,1.652,3.715l-.008.008-1.9,2.088A14.258,14.258,0,1,0,18.452,35a13.832,13.832,0,0,0,2.516.226H31.309l-.344.235a17.428,17.428,0,0,1-6.81,2.818l-.671,1.979H18.452l-.671-1.979a17.428,17.428,0,0,1-6.81-2.818l-1.862.923L5.552,32.827l.923-1.862a17.428,17.428,0,0,1-2.818-6.81l-1.979-.671V18.452l1.979-.671a17.428,17.428,0,0,1,2.818-6.81L5.552,9.108,9.108,5.552l1.862.923a17.428,17.428,0,0,1,6.81-2.818l.671-1.979h5.032l.671,1.979a17.428,17.428,0,0,1,6.81,2.818l1.862-.923.017.008A4.735,4.735,0,0,0,32.71,6.71Z" fill="#fcd770"/>
          </g>
          <g id="Group_1206801" data-name="Group 1206801">
            <path id="Path_1262836" data-name="Path 1262836" d="M40.258,25.857v.008a8.38,8.38,0,0,0-5.032,7.683V15.1h5.032Z" fill="#b4dd7f"/>
          </g>
          <g id="Group_1206802" data-name="Group 1206802">
            <path id="Path_1262837" data-name="Path 1262837" d="M31.871,23.484V35.226H26.839V23.484Z" fill="#b4dd7f"/>
          </g>
          <g id="Group_1206803" data-name="Group 1206803">
            <path id="Path_1262838" data-name="Path 1262838" d="M23.484,21.806V35.226H20.968A13.832,13.832,0,0,1,18.452,35V21.806Z" fill="#b4dd7f"/>
          </g>
          <g id="Group_1206804" data-name="Group 1206804">
            <circle id="Ellipse_12724" data-name="Ellipse 12724" cx="1.677" cy="1.677" r="1.677" transform="translate(28.516 43.613)" fill="#ff826e"/>
          </g>
          <g id="Group_1206805" data-name="Group 1206805">
            <circle id="Ellipse_12725" data-name="Ellipse 12725" cx="1.677" cy="1.677" r="1.677" transform="translate(21.806 43.613)" fill="#ff826e"/>
          </g>
          <g id="Group_1206806" data-name="Group 1206806">
            <circle id="Ellipse_12726" data-name="Ellipse 12726" cx="1.677" cy="1.677" r="1.677" transform="translate(15.097 43.613)" fill="#ff826e"/>
          </g>
          <g id="Group_1206807" data-name="Group 1206807">
            <circle id="Ellipse_12727" data-name="Ellipse 12727" cx="1.677" cy="1.677" r="1.677" transform="translate(8.387 43.613)" fill="#ff826e"/>
          </g>
          <g id="Group_1206808" data-name="Group 1206808">
            <path id="Path_1262839" data-name="Path 1262839" d="M46.968,41.935h1.677a1.682,1.682,0,0,1,1.677,1.677V45.29a1.682,1.682,0,0,1-1.677,1.677H38.581A1.682,1.682,0,0,1,36.9,45.29V43.613a1.682,1.682,0,0,1,1.677-1.677h8.387Z" fill="#ffc729"/>
          </g>
          <g id="Group_1206809" data-name="Group 1206809">
            <path id="Path_1262840" data-name="Path 1262840" d="M48.645,46.968a1.682,1.682,0,0,1,1.677,1.677v1.677A1.682,1.682,0,0,1,48.645,52H38.581A1.682,1.682,0,0,1,36.9,50.323V48.645a1.682,1.682,0,0,1,1.677-1.677H48.645Z" fill="#fcd770"/>
          </g>
          <g id="Group_1206810" data-name="Group 1206810">
            <path id="Path_1262841" data-name="Path 1262841" d="M43.613,25.161a8.4,8.4,0,1,1-3.355.7A8.287,8.287,0,0,1,43.613,25.161Z" fill="#fcd770"/>
          </g>
          <g id="Group_1206811" data-name="Group 1206811">
            <circle id="Ellipse_12728" data-name="Ellipse 12728" cx="1.677" cy="1.677" r="1.677" transform="translate(36.065 5.032)" fill="#fc6e51"/>
          </g>
          <g id="Group_1206812" data-name="Group 1206812">
            <path id="Path_1262842" data-name="Path 1262842" d="M37.742,1.677a5.032,5.032,0,0,1,0,10.065,4.948,4.948,0,0,1-3.38-1.317A4.985,4.985,0,0,1,32.71,6.71a4.735,4.735,0,0,1,.134-1.149A5.037,5.037,0,0,1,37.742,1.677Z" fill="#ff826e"/>
          </g>
          <g id="Group_1206813" data-name="Group 1206813">
            <path id="Path_1262843" data-name="Path 1262843" d="M29.355,13.419a2.516,2.516,0,1,1-2.516,2.516,2.416,2.416,0,0,1,.05-.495A2.512,2.512,0,0,1,29.355,13.419Z" fill="#ff826e"/>
          </g>
          <g id="Group_1206814" data-name="Group 1206814">
            <path id="Path_1262844" data-name="Path 1262844" d="M20.968,11.742a2.513,2.513,0,0,1,2.516,2.516,2.416,2.416,0,0,1-.05.495,2.516,2.516,0,1,1-2.466-3.011Z" fill="#ff826e"/>
          </g>
        </g>
        <g id="Group_1206816" data-name="Group 1206816">
          <path id="Path_1262845" data-name="Path 1262845" d="M44.452,39.419V37.742a2.516,2.516,0,0,0,0-5.032H42.774a.839.839,0,1,1,0-1.677h1.677a.84.84,0,0,1,.839.839h1.677a2.519,2.519,0,0,0-2.516-2.516V27.677H42.774v1.677a2.516,2.516,0,0,0,0,5.032h1.677a.839.839,0,1,1,0,1.677H42.774a.84.84,0,0,1-.839-.839H40.258a2.519,2.519,0,0,0,2.516,2.516v1.677Z"/>
          <path id="Path_1262846" data-name="Path 1262846" d="M48.87,41.119A9.213,9.213,0,0,0,41.1,24.68V14.258h-6.71v19.29c0,.283.018.562.043.839H32.71V22.645H26V34.387H24.323V20.968h-6.71V33.945A13.412,13.412,0,1,1,31.361,12.482l-.453.5a3.308,3.308,0,0,0-1.553-.4,3.348,3.348,0,0,0-3.008,1.9L24.3,14.07a3.358,3.358,0,1,0-.329,1.645l2.043.408A3.348,3.348,0,1,0,32.157,14.1l2.3-2.528A5.87,5.87,0,1,0,32.14,4.953l-1.114.553a18.192,18.192,0,0,0-6.236-2.577l-.7-2.09H17.849l-.7,2.089a18.212,18.212,0,0,0-6.236,2.577L8.94,4.529,4.529,8.939l.976,1.97a18.217,18.217,0,0,0-2.578,6.237l-2.088.7v6.237l2.089.7a18.224,18.224,0,0,0,2.578,6.237L4.529,33l4.41,4.41,1.97-.976a18.2,18.2,0,0,0,6.236,2.577l.7,2.089h6.237l.7-2.089a18.235,18.235,0,0,0,6.646-2.852l.131-.091h3.177a9.25,9.25,0,0,0,3.611,5.055,2.511,2.511,0,0,0-2.291,2.493V45.29a2.5,2.5,0,0,0,.654,1.677,2.5,2.5,0,0,0-.654,1.677v1.677a2.519,2.519,0,0,0,2.516,2.516H48.645a2.519,2.519,0,0,0,2.516-2.516V48.645a2.5,2.5,0,0,0-.654-1.677,2.5,2.5,0,0,0,.654-1.677V43.613a2.511,2.511,0,0,0-2.291-2.493Zm-27.9-25.184a1.677,1.677,0,1,1,1.677-1.677A1.679,1.679,0,0,1,20.968,15.935Zm8.387,1.677a1.677,1.677,0,1,1,1.677-1.677A1.679,1.679,0,0,1,29.355,17.613ZM19.29,22.645h3.355V34.387H20.968a13.338,13.338,0,0,1-1.677-.117ZM37.742,2.516A4.194,4.194,0,1,1,33.548,6.71,4.2,4.2,0,0,1,37.742,2.516ZM24,37.453l-.486.088-.632,1.878H19.055l-.633-1.877-.486-.088a16.581,16.581,0,0,1-6.485-2.681l-.407-.28-1.769.876L6.567,32.662l.876-1.77-.281-.406A16.592,16.592,0,0,1,4.481,24l-.089-.486-1.876-.633V19.054l1.876-.632.089-.486A16.574,16.574,0,0,1,7.163,11.45l.281-.406-.876-1.77L9.274,6.568l1.769.876.407-.28a16.573,16.573,0,0,1,6.485-2.681l.486-.088.633-1.879h3.827l.633,1.877L24,4.481a16.583,16.583,0,0,1,6.485,2.681l.406.281.991-.491a5.84,5.84,0,0,0,1.331,3.49l-.716.788a15.095,15.095,0,1,0-11.53,24.835h7.248A16.626,16.626,0,0,1,24,37.453Zm7.032-3.066H27.677V24.323h3.355Zm5.032-18.452h3.355v9.405a9.279,9.279,0,0,0-3.355,2.92Zm0,17.613A7.548,7.548,0,1,1,43.613,41.1,7.557,7.557,0,0,1,36.065,33.548ZM49.484,50.323a.84.84,0,0,1-.839.839H38.581a.84.84,0,0,1-.839-.839V48.645a.84.84,0,0,1,.839-.839h.839v1.677H41.1V47.806h1.677v1.677h1.677V47.806h1.678v1.677h1.677V47.806h.839a.84.84,0,0,1,.839.839Zm0-5.032a.84.84,0,0,1-.839.839H38.581a.84.84,0,0,1-.839-.839V43.613a.84.84,0,0,1,.839-.839h.839v1.677H41.1V42.774h1.677v1.677h1.677V42.774h1.678v1.677h1.677V42.774h.839a.84.84,0,0,1,.839.839Z"/>
          <path id="Path_1262847" data-name="Path 1262847" d="M37.742,9.226A2.516,2.516,0,1,0,35.226,6.71,2.519,2.519,0,0,0,37.742,9.226Zm0-3.355a.839.839,0,1,1-.839.839A.84.84,0,0,1,37.742,5.871Z"/>
          <path id="Path_1262848" data-name="Path 1262848" d="M10.065,42.774a2.516,2.516,0,1,0,2.516,2.516A2.519,2.519,0,0,0,10.065,42.774Zm0,3.355a.839.839,0,1,1,.839-.839A.84.84,0,0,1,10.065,46.129Z"/>
          <path id="Path_1262849" data-name="Path 1262849" d="M16.774,42.774A2.516,2.516,0,1,0,19.29,45.29,2.519,2.519,0,0,0,16.774,42.774Zm0,3.355a.839.839,0,1,1,.839-.839A.84.84,0,0,1,16.774,46.129Z"/>
          <path id="Path_1262850" data-name="Path 1262850" d="M23.484,42.774A2.516,2.516,0,1,0,26,45.29,2.519,2.519,0,0,0,23.484,42.774Zm0,3.355a.839.839,0,1,1,.839-.839A.84.84,0,0,1,23.484,46.129Z"/>
          <path id="Path_1262851" data-name="Path 1262851" d="M30.194,42.774A2.516,2.516,0,1,0,32.71,45.29,2.519,2.519,0,0,0,30.194,42.774Zm0,3.355a.839.839,0,1,1,.839-.839A.84.84,0,0,1,30.194,46.129Z"/>
        </g>
      </g>
    </g>
  </g>
</svg>
