<svg xmlns="http://www.w3.org/2000/svg" xmlns:xlink="http://www.w3.org/1999/xlink" width="98" height="97.998" viewBox="0 0 98 97.998">
  <defs>
    <clipPath id="clip-path">
      <rect id="Rectangle_411080" data-name="Rectangle 411080" width="55" height="52" transform="translate(825.051 2027)" fill="#fff"/>
    </clipPath>
  </defs>
  <g id="Group_1206324" data-name="Group 1206324" transform="translate(-803.781 -2003.55)">
    <g id="Group_1204447" data-name="Group 1204447" transform="translate(0 -541.412)">
      <g id="Group_1204142" data-name="Group 1204142" transform="translate(-67.331 2267.798)">
        <g id="Group_1188789" data-name="Group 1188789" transform="translate(871.113 277.164)">
          <path id="Path_1243039" data-name="Path 1243039" d="M41.05,0h0a41.05,41.05,0,0,1,0,82.1h0a41.05,41.05,0,0,1,0-82.1Z" transform="translate(7.951 7.949)" fill="#ffa724"/>
          <rect id="Rectangle_400907" data-name="Rectangle 400907" width="88.438" height="88.437" rx="44.218" transform="translate(4.782 4.781)" fill="none"/>
          <g id="Group_1098742" data-name="Group 1098742" transform="translate(0)">
            <g id="Rectangle_400898" data-name="Rectangle 400898" transform="translate(0)" fill="none" stroke="#fff" stroke-width="2" opacity="0.859">
              <rect width="98" height="97.999" rx="48.999" stroke="none"/>
              <rect x="1" y="1" width="96" height="95.999" rx="47.999" fill="none"/>
            </g>
            <g id="Rectangle_400907-2" data-name="Rectangle 400907" transform="translate(0)" fill="none" stroke="#0f1f33" stroke-linecap="round" stroke-width="2">
              <rect width="98" height="97.999" rx="48.999" stroke="none"/>
              <rect x="1" y="1" width="96" height="95.999" rx="47.999" fill="none"/>
            </g>
          </g>
        </g>
      </g>
    </g>
    <g id="Mask_Group_1099578" data-name="Mask Group 1099578" clip-path="url(#clip-path)">
      <g id="decision-making_18091921" transform="translate(821.973 2022.438)">
        <g id="Group_1206817" data-name="Group 1206817">
          <path id="Path_1262852" data-name="Path 1262852" d="M22.358,37.244,19.23,42.372l-3.481-5.306c-1.307-2-5.013.548-3.286,2.214l5.963,8.329a1.986,1.986,0,0,0,.487.335,1.886,1.886,0,0,0,2.487-.806L23.638,42.8v10.6c0,.591.564.817,1.115,1.075H35.8a1.1,1.1,0,0,0,1.112-1.075V42.8l2.241,4.344a1.884,1.884,0,0,0,2.487.806,1.962,1.962,0,0,0,.484-.335L47.426,39.6c1.723-1.67-1.469-4.617-2.628-2.537L41.317,43.31l-3.125-6.065c-.531-1.028-4.223-1.546-7.919-1.546s-7.388.518-7.916,1.546Z" fill="#b39ccb" fill-rule="evenodd"/>
          <path id="Path_1262853" data-name="Path 1262853" d="M36.934,27.7l1.2.064c.659.033.954.591.659,1.233L38.2,30.276a1.98,1.98,0,0,1-1.731,1.108l-1.2-.068Z" fill="#f598a2" fill-rule="evenodd"/>
          <path id="Path_1262854" data-name="Path 1262854" d="M38.194,37.244l3.125,6.065L44.8,37.066a1.129,1.129,0,0,1,.635-.4A9.323,9.323,0,0,1,47.118,39.9l-5,7.712a1.89,1.89,0,0,1-2.97-.471L36.91,42.8v6.1c-.154-.027-.313-.057-.467-.088C29.37,47.41,23.638,42.386,23.638,37.6a5.471,5.471,0,0,1,.128-1.189c3.769-1.168,13.54-.889,14.428.838Z" fill="#d0c3e1" fill-rule="evenodd"/>
          <path id="Path_1262855" data-name="Path 1262855" d="M27.471,33.488h5.571v2.473c0,1.357.383,1.969-.884,2.469a4.142,4.142,0,0,1-3.72,0c-1.189-.655-.967-1.112-.967-2.469Z" fill="#f598a2" fill-rule="evenodd"/>
          <path id="Path_1262856" data-name="Path 1262856" d="M25.442,41.484l.622-5.15,4.432,3.1Z" fill="#43b3e6" fill-rule="evenodd"/>
          <path id="Path_1262857" data-name="Path 1262857" d="M35.546,41.484l-.625-5.194L30.5,39.438Z" fill="#43b3e6" fill-rule="evenodd"/>
          <path id="Path_1262858" data-name="Path 1262858" d="M29.1,38.817h2.547L32.6,48.951h-.013l-1.1,1.727-1.1,1.727-1.106-1.727-1.1-1.727h-.013Z" fill="#43b3e6" fill-rule="evenodd"/>
          <path id="Path_1262859" data-name="Path 1262859" d="M30.855,38.817h.793L32.6,48.951h-.013l-1.1,1.727-.11.174-.316-.5-1.1-1.727h-.014Z" fill="#83d4f7" fill-rule="evenodd"/>
          <path id="Path_1262860" data-name="Path 1262860" d="M29.844,37.338H30.9a.9.9,0,0,1,.9.9v1.969a.9.9,0,0,1-.9.9H29.844a.905.905,0,0,1-.9-.9V38.239a.9.9,0,0,1,.9-.9Z" fill="#43b3e6" fill-rule="evenodd"/>
          <path id="Path_1262861" data-name="Path 1262861" d="M30.442,22.091A5.4,5.4,0,0,1,35.848,27.5c0,2.983-2.419,6.928-5.406,6.928s-5.4-3.945-5.4-6.928A5.4,5.4,0,0,1,30.442,22.091Z" fill="#f598a2" fill-rule="evenodd"/>
          <path id="Path_1262862" data-name="Path 1262862" d="M30.442,22.091A5.4,5.4,0,0,1,35.848,27.5,8.221,8.221,0,0,1,32.9,33.512c-.053,0-.108,0-.161,0-2.983,0-5.406-3.945-5.406-6.928a5.4,5.4,0,0,1,2.319-4.439,5.576,5.576,0,0,1,.786-.057Z" fill="#f9b5b2" fill-rule="evenodd"/>
          <path id="Path_1262863" data-name="Path 1262863" d="M10.43,35.691H14.5a1.795,1.795,0,0,1,0,3.589H10.43a1.795,1.795,0,1,1,0-3.589Z" fill="#f598a2" fill-rule="evenodd"/>
          <path id="Path_1262864" data-name="Path 1262864" d="M50.232,36.378H46.166a1.8,1.8,0,1,0,0,3.593h4.066a1.8,1.8,0,0,0,0-3.593Z" fill="#f598a2" fill-rule="evenodd"/>
          <path id="Path_1262865" data-name="Path 1262865" d="M35.952,28.089a4.544,4.544,0,0,1-1.438-1.932,5.351,5.351,0,0,1-5.886-.467,1.431,1.431,0,0,0-1.465-.209,4.178,4.178,0,0,0-2.553,3.205c-.83-1.767-1.559-8.461,1.921-7.4C27.667,16.91,38.912,18.7,35.952,28.089Z" fill="#6dcff1" fill-rule="evenodd"/>
          <path id="Path_1262866" data-name="Path 1262866" d="M35.573,27.785a6.184,6.184,0,0,1-1.058-1.63,5.351,5.351,0,0,1-5.886-.467,1.431,1.431,0,0,0-1.465-.209,4.187,4.187,0,0,0-1.956,1.63c-.168-2.379.315-4.969,2.58-4.28.7-2.694,5.232-3.051,7.919-.733a7.448,7.448,0,0,1,.252,5.971c-.064-.117-.128-.242-.188-.37-.068.031-.134.058-.2.088Z" fill="#3ab6e9" fill-rule="evenodd"/>
          <path id="Path_1262867" data-name="Path 1262867" d="M52.178,30.874a13.657,13.657,0,0,1,5.07-6.388,30.807,30.807,0,0,1-6.558-5.349s-.091,1.172-.273,3.518A9.826,9.826,0,0,0,41.5,34.647,12.289,12.289,0,0,1,51.216,26.9Q52.179,30.874,52.178,30.874Z" fill="#43b649" fill-rule="evenodd"/>
          <path id="Path_1262868" data-name="Path 1262868" d="M52.178,30.874a16.027,16.027,0,0,1,5.07-6.388c-1.569-1.119-3.643-2.167-5.228-3.82t-.273,3.514a9.816,9.816,0,0,0-9,8.074A12.287,12.287,0,0,1,51.216,26.9Q52.179,30.874,52.178,30.874Z" fill="#5fbb46" fill-rule="evenodd"/>
          <path id="Path_1262869" data-name="Path 1262869" d="M17.856,6.649a6.026,6.026,0,1,1-6.025,6.027,6.027,6.027,0,0,1,6.025-6.027Z" fill="#fed733" fill-rule="evenodd"/>
          <path id="Path_1262870" data-name="Path 1262870" d="M22.841,9.293A6.026,6.026,0,0,1,15.23,18.1a6.028,6.028,0,0,1,7.611-8.807Z" fill="#feea3a" fill-rule="evenodd"/>
          <path id="Path_1262871" data-name="Path 1262871" d="M42.3,6.678a6.011,6.011,0,1,1-6.011,6.011A6.01,6.01,0,0,1,42.3,6.678Z" fill="#fed733" fill-rule="evenodd"/>
          <path id="Path_1262872" data-name="Path 1262872" d="M45.521,17.763A6.011,6.011,0,0,1,36.877,10.1a6.011,6.011,0,0,1,8.645,7.667Z" fill="#feea3a" fill-rule="evenodd"/>
          <path id="Path_1262873" data-name="Path 1262873" d="M8.979,30.874a13.7,13.7,0,0,0-5.07-6.388,30.807,30.807,0,0,0,6.558-5.349s.091,1.172.273,3.518a9.822,9.822,0,0,1,8.911,11.992A12.283,12.283,0,0,0,9.941,26.9q-.965,3.972-.962,3.972Z" fill="#43b649" fill-rule="evenodd"/>
          <path id="Path_1262874" data-name="Path 1262874" d="M8.979,30.874a16.027,16.027,0,0,0-5.07-6.388c1.566-1.119,3.639-2.167,5.228-3.82t.269,3.514a9.828,9.828,0,0,1,9.009,8.074A12.287,12.287,0,0,0,9.941,26.9Q8.976,30.874,8.979,30.874Z" fill="#5fbb46" fill-rule="evenodd"/>
          <path id="Path_1262875" data-name="Path 1262875" d="M24.27,27.7l-1.2.064c-.659.033-.958.591-.661,1.233L23,30.276a1.973,1.973,0,0,0,1.731,1.108l1.2-.068Z" fill="#f598a2" fill-rule="evenodd"/>
        </g>
        <path id="Path_1262876" data-name="Path 1262876" d="M23.752,28.552l-.615.033.612,1.348a1.177,1.177,0,0,0,.921.625Zm-.722-1.62.245-.013c-.255-1.566-.343-3.817.42-5.228a2.341,2.341,0,0,1,2.315-1.337c2.231-4.311,12.717-2.2,11.1,6.522l1.058.057a1.612,1.612,0,0,1,1.371,2.406l-.584,1.284a2.81,2.81,0,0,1-2.527,1.59l-1.207-.064a8.28,8.28,0,0,1-1.351,1.63v1.267c1.593.158,4.4.538,5.057,1.824l2.419,4.69,2.295-4.115a2.633,2.633,0,0,1,.669-1.123,2.6,2.6,0,0,1,1.855-.773h4.066a2.626,2.626,0,0,1,0,5.252h-2.6l-4.815,7.267a2.419,2.419,0,0,1-.817.625,2.713,2.713,0,0,1-3.582-1.172l-.676-1.307v7.181A1.934,1.934,0,0,1,35.8,55.3H24.753a.933.933,0,0,1-.447-.124c-.762-.356-1.495-.7-1.495-1.784V46.212l-.676,1.307a2.718,2.718,0,0,1-3.948.958,2.032,2.032,0,0,1-.434-.383l-5.719-7.98h-1.6a2.626,2.626,0,0,1,0-5.251H14.5a2.63,2.63,0,0,1,2.624,2.624c0,.051,0,.1,0,.152l2.09,3.189,2.432-3.992c.729-1.264,3.39-1.623,5.007-1.787l0-1.633a8.569,8.569,0,0,1-.971-1.253,3.336,3.336,0,0,1-2.392-.379,2.811,2.811,0,0,1-1.038-1.159L21.66,29.34a1.612,1.612,0,0,1,1.37-2.409ZM8.206,31.173a12.9,12.9,0,0,0-4.745-5.987.825.825,0,0,1,.071-1.434,25.078,25.078,0,0,0,3.119-2.194,35.826,35.826,0,0,0,3.222-2.991.829.829,0,0,1,1.421.514v0l.218,2.826a10.663,10.663,0,0,1,8.948,12.93.829.829,0,0,1-1.6.06,11.458,11.458,0,0,0-8.3-7.036l-.78,3.212a.828.828,0,0,1-1.576.1ZM7.45,26.62a15.486,15.486,0,0,1,1.256,1.855l.417-1.72a.827.827,0,0,1,.934-.669,13.1,13.1,0,0,1,8.981,5.618,8.987,8.987,0,0,0-8.333-8.218.828.828,0,0,1-.793-.769L9.779,21a31.435,31.435,0,0,1-4.388,3.545A13.032,13.032,0,0,1,7.45,26.62ZM39.366,13.872a.828.828,0,1,1,1.045-1.284l1.478,1.207,2.194-3.941a.827.827,0,0,1,1.445.8l-2.755,4.926a.83.83,0,0,1-1.166.117ZM42.3,5.848a6.841,6.841,0,1,1-6.841,6.841A6.839,6.839,0,0,1,42.3,5.848Zm3.661,3.179a5.181,5.181,0,1,0,0,7.328A5.184,5.184,0,0,0,45.961,9.027ZM19.3,10.015a.83.83,0,0,1,1.172,1.176l-1.441,1.441,1.533,1.529a.83.83,0,1,1-1.176,1.172L17.856,13.8l-1.533,1.529a.829.829,0,0,1-1.172-1.172l1.533-1.529-1.441-1.441a.83.83,0,1,1,1.172-1.176l1.441,1.441ZM17.856,5.821A6.855,6.855,0,1,1,11,12.676a6.853,6.853,0,0,1,6.855-6.855ZM21.528,9a5.195,5.195,0,1,0,0,7.348A5.2,5.2,0,0,0,21.528,9ZM52.446,28.475a13.966,13.966,0,0,1,3.317-3.934A31.767,31.767,0,0,1,51.375,21l-.132,1.72a.83.83,0,0,1-.8.769A8.988,8.988,0,0,0,42.117,31.7,13.088,13.088,0,0,1,51.1,26.084a.824.824,0,0,1,.93.669ZM55,27.651a15.259,15.259,0,0,0-2.049,3.522.828.828,0,0,1-1.575-.1l-.78-3.212a11.458,11.458,0,0,0-8.3,7.036.829.829,0,0,1-1.6-.06A10.661,10.661,0,0,1,49.646,21.9l.218-2.826v0a.829.829,0,0,1,1.421-.514A35.973,35.973,0,0,0,54.5,21.556a25.166,25.166,0,0,0,3.119,2.194.827.827,0,0,1,.073,1.434A11.112,11.112,0,0,0,55,27.651ZM27.566,20.972a4.922,4.922,0,0,1,1.949,4.338,4.647,4.647,0,0,0,4.663.091.831.831,0,0,1,1.082.4c.088.185.178.353.262.507.989-6.519-6.4-7.7-7.956-5.333Zm.6,5.406a.678.678,0,0,0-.359-.174c-.386-.057-1.062.43-1.32.661a3.526,3.526,0,0,0-.619.749,7.523,7.523,0,0,0,1.586,4.2c1.626,2.083,3.827,2.567,5.822.185a7.774,7.774,0,0,0,1.674-3.669,5.572,5.572,0,0,1-.82-1.132,5.971,5.971,0,0,1-5.963-.824Zm-.312-1.835a3.4,3.4,0,0,0-.3-1.042,3.286,3.286,0,0,0-1.341-1.445,1.4,1.4,0,0,0-.447-.051c-.753.053-.951,1.4-1,2.1a11.247,11.247,0,0,0,.073,2.093,4.157,4.157,0,0,1,3.011-1.658ZM50.232,37.207H46.166a.966.966,0,0,0,0,1.932h4.066a.966.966,0,0,0,0-1.932Zm-4.559,3.544a2.634,2.634,0,0,1-1.495-.866l-2.134,3.827a.827.827,0,0,1-1.458-.024l-3.128-6.062c-.117-.229-1.1-.5-1.613-.612l.527,4.375a.833.833,0,0,1-1.136.863L32.7,41.228l.716,7.648a.841.841,0,0,1-.205.625l-2.143,3.35a.826.826,0,0,1-1.4-.013l-2.124-3.322a.806.806,0,0,1-.209-.712l.7-7.472-2.285.925a.83.83,0,0,1-1.132-.863l.538-4.465c-.531.1-1.915.414-2.062.7-.013.02-.024.04-.037.057l-3.121,5.121a.828.828,0,0,1-1.4.024L16.294,39.4a2.625,2.625,0,0,1-1.795.712h-.42l4.98,6.948a1.08,1.08,0,0,0,1.61-.3l2.238-4.341a.83.83,0,0,1,1.566.379V53.394a1.916,1.916,0,0,0,.463.249H35.8a.267.267,0,0,0,.282-.249V42.8a.83.83,0,0,1,1.593-.326l2.214,4.287a1.056,1.056,0,0,0,1.535.356.421.421,0,0,0,.068-.051ZM14.5,36.522H10.43a.966.966,0,0,0,0,1.932H14.5a.965.965,0,0,0,.682-1.646A.946.946,0,0,0,14.5,36.522Zm17.717-1.64A4.387,4.387,0,0,1,28.3,34.7l-.017,2.181.279.2a1.721,1.721,0,0,1,1.28-.571H30.9a1.724,1.724,0,0,1,1.357.659l.009,0-.057-1.2V34.882Zm.42,4.053v.478l1.925.78-.293-2.419Zm-1.526,2.993H29.642L29,48.728l1.37,2.144,1.371-2.144Zm-2.993-2.418v-.725l-1.394-.978-.286,2.386ZM30.9,38.169H29.844l-.071.071v1.969l.071.071H30.9l.071-.071v-1.97Zm7.159-9.583-.612-.033-.917,2.006a1.172,1.172,0,0,0,.917-.625Z"/>
      </g>
    </g>
  </g>
</svg>
