<svg xmlns="http://www.w3.org/2000/svg" xmlns:xlink="http://www.w3.org/1999/xlink" width="98" height="97.998" viewBox="0 0 98 97.998">
  <defs>
    <clipPath id="clip-path">
      <rect id="Rectangle_411080" data-name="Rectangle 411080" width="55" height="52" transform="translate(825.051 2027)" fill="#fff"/>
    </clipPath>
  </defs>
  <g id="Group_1204450" data-name="Group 1204450" transform="translate(-803.781 -2003.55)">
    <g id="Group_1204447" data-name="Group 1204447" transform="translate(0 -541.412)">
      <g id="Group_1204142" data-name="Group 1204142" transform="translate(-67.331 2267.798)">
        <g id="Group_1188789" data-name="Group 1188789" transform="translate(871.113 277.164)">
          <path id="Path_1243039" data-name="Path 1243039" d="M41.05,0h0a41.05,41.05,0,0,1,0,82.1h0a41.05,41.05,0,0,1,0-82.1Z" transform="translate(7.951 7.949)" fill="#ffa724"/>
          <rect id="Rectangle_400907" data-name="Rectangle 400907" width="88.438" height="88.437" rx="44.218" transform="translate(4.782 4.781)" fill="none"/>
          <g id="Group_1098742" data-name="Group 1098742" transform="translate(0)">
            <g id="Rectangle_400898" data-name="Rectangle 400898" transform="translate(0)" fill="none" stroke="#fff" stroke-width="2" opacity="0.859">
              <rect width="98" height="97.999" rx="48.999" stroke="none"/>
              <rect x="1" y="1" width="96" height="95.999" rx="47.999" fill="none"/>
            </g>
            <g id="Rectangle_400907-2" data-name="Rectangle 400907" transform="translate(0)" fill="none" stroke="#0f1f33" stroke-linecap="round" stroke-width="2">
              <rect width="98" height="97.999" rx="48.999" stroke="none"/>
              <rect x="1" y="1" width="96" height="95.999" rx="47.999" fill="none"/>
            </g>
          </g>
        </g>
      </g>
    </g>
    <g id="Mask_Group_1099557" data-name="Mask Group 1099557" clip-path="url(#clip-path)">
      <g id="_x34_9_Feedback" transform="translate(825.927 2026.376)">
        <g id="Group_1206700" data-name="Group 1206700">
          <g id="Group_1206693" data-name="Group 1206693">
            <path id="Path_1262458" data-name="Path 1262458" d="M51.844,10.764H1.4V5.044A3.644,3.644,0,0,1,5.044,1.4H48.2a3.644,3.644,0,0,1,3.64,3.64Z" fill="#0cf"/>
            <path id="Path_1262459" data-name="Path 1262459" d="M46.852,10.764H1.4V5.044A3.644,3.644,0,0,1,5.044,1.4H46.852Z" fill="#75eeff"/>
            <path id="Path_1262460" data-name="Path 1262460" d="M1.4,8.684h50.44V48.2a3.644,3.644,0,0,1-3.64,3.64H5.044A3.644,3.644,0,0,1,1.4,48.2Z" fill="#c0f6ff"/>
            <path id="Path_1262461" data-name="Path 1262461" d="M1.4,8.684H46.852v35.88a3.644,3.644,0,0,1-3.64,3.64H5.044a3.644,3.644,0,0,1-3.64-3.64Z" fill="#e0f4ff"/>
          </g>
          <g id="Group_1206697" data-name="Group 1206697">
            <g id="Group_1206694" data-name="Group 1206694">
              <path id="Path_1262462" data-name="Path 1262462" d="M40.206,11.794,36.6,14.841a2.6,2.6,0,1,0,3.609-3.047Z" fill="#f26522"/>
              <path id="Path_1262463" data-name="Path 1262463" d="M40.3,12.48a2.486,2.486,0,0,0-.094-.686,2.592,2.592,0,0,0-3.7,2.35,2.486,2.486,0,0,0,.094.686,2.592,2.592,0,0,0,3.7-2.35Z" fill="#ed844d"/>
            </g>
            <g id="Group_1206695" data-name="Group 1206695">
              <path id="Path_1262464" data-name="Path 1262464" d="M15.246,22.714l-3.609,3.047a2.6,2.6,0,1,0,3.609-3.047Z" fill="#f6c4a9"/>
              <path id="Path_1262465" data-name="Path 1262465" d="M15.34,23.4a2.487,2.487,0,0,0-.094-.686,2.592,2.592,0,0,0-3.7,2.35,2.487,2.487,0,0,0,.094.686,2.592,2.592,0,0,0,3.7-2.35Z" fill="#f8d3bf"/>
            </g>
            <g id="Group_1206696" data-name="Group 1206696">
              <path id="Path_1262466" data-name="Path 1262466" d="M23.566,17.254,19.958,20.3a2.6,2.6,0,1,0,3.609-3.047Z" fill="#ed844d"/>
              <path id="Path_1262467" data-name="Path 1262467" d="M23.66,17.94a2.487,2.487,0,0,0-.094-.686,2.592,2.592,0,0,0-3.7,2.35,2.487,2.487,0,0,0,.094.686,2.592,2.592,0,0,0,3.7-2.35Z" fill="#f19d71"/>
            </g>
          </g>
          <g id="Group_1206699" data-name="Group 1206699">
            <path id="Path_1262468" data-name="Path 1262468" d="M15.7,44.564h3.64a1.815,1.815,0,0,0,1.82-1.82V31.824A1.815,1.815,0,0,0,19.344,30H15.7a1.815,1.815,0,0,0-1.82,1.82v10.92A1.815,1.815,0,0,0,15.7,44.564Z" fill="#38c714"/>
            <path id="Path_1262469" data-name="Path 1262469" d="M13.884,40.924h3.38a1.815,1.815,0,0,0,1.82-1.82v-7.28A1.815,1.815,0,0,0,17.264,30H15.7a1.815,1.815,0,0,0-1.82,1.82Z" fill="#60d243"/>
            <g id="Group_1206698" data-name="Group 1206698">
              <path id="Path_1262470" data-name="Path 1262470" d="M37.544,33.644a1.82,1.82,0,1,0,0-3.64H32.417a1.242,1.242,0,0,1-1.206-1.55L32.3,24.138a2.343,2.343,0,0,0-2.309-2.964l-2.746,7.654-3.588.655a6.185,6.185,0,0,1-1.071.364,1.833,1.833,0,0,0-1.425,1.778V42.754a1.815,1.815,0,0,0,1.82,1.82h12.74A1.866,1.866,0,0,0,37.6,42.723a1.822,1.822,0,0,0-1.82-1.789h.78a1.866,1.866,0,0,0,1.872-1.851,1.822,1.822,0,0,0-1.82-1.789h.884a1.866,1.866,0,0,0,1.872-1.851,1.824,1.824,0,0,0-1.82-1.8Z" fill="#f6c4a9"/>
              <path id="Path_1262471" data-name="Path 1262471" d="M27.3,41.257h3.567a3.637,3.637,0,0,0,3.609-3.172l.374-2.933a2.21,2.21,0,0,0-2.194-2.486,3.326,3.326,0,0,1-3.224-4.15l.676-2.662a8.658,8.658,0,0,0-.125-4.69,2.325,2.325,0,0,0-2.215,1.768l-.6,2.4a6.2,6.2,0,0,1-3.5,4.15v8.133A3.644,3.644,0,0,0,27.3,41.257Z" fill="#f8d3bf"/>
            </g>
          </g>
        </g>
        <g id="Feedback">
          <path id="Path_1262472" data-name="Path 1262472" d="M48.2.624H5.044a4.43,4.43,0,0,0-4.42,4.42V48.2a4.423,4.423,0,0,0,4.42,4.42H48.2a4.43,4.43,0,0,0,4.42-4.42V5.044A4.43,4.43,0,0,0,48.2.624Zm2.86,47.58a2.858,2.858,0,0,1-2.86,2.86H5.044a2.858,2.858,0,0,1-2.86-2.86V9.464h38.74a.78.78,0,1,0,0-1.56H2.184V5.044a2.865,2.865,0,0,1,2.86-2.86H48.2a2.858,2.858,0,0,1,2.86,2.86V7.9h-6.5a.78.78,0,0,0,0,1.56h6.5Z"/>
          <circle id="Ellipse_12683" data-name="Ellipse 12683" cx="0.78" cy="0.78" r="0.78" transform="translate(4.264 4.264)"/>
          <circle id="Ellipse_12684" data-name="Ellipse 12684" cx="0.78" cy="0.78" r="0.78" transform="translate(7.904 4.264)"/>
          <circle id="Ellipse_12685" data-name="Ellipse 12685" cx="0.78" cy="0.78" r="0.78" transform="translate(11.544 4.264)"/>
          <path id="Path_1262473" data-name="Path 1262473" d="M48.2,5.824H30a.78.78,0,0,1,0-1.56H48.2a.78.78,0,0,1,0,1.56Z"/>
          <path id="Path_1262474" data-name="Path 1262474" d="M37.544,48.984H15.7a.78.78,0,0,1,0-1.56h21.84a.78.78,0,0,1,0,1.56Z"/>
          <path id="Path_1262475" data-name="Path 1262475" d="M39.1,16.744a2.6,2.6,0,1,0-2.6-2.6,2.511,2.511,0,0,0,.354,1.3l-5.034,5.512A3.046,3.046,0,0,0,28.5,20.8a3.59,3.59,0,0,0-.52.364l-2.922-1.279a2.534,2.534,0,0,0,.01-.281,2.6,2.6,0,0,0-5.2,0,2.283,2.283,0,0,0,.1.707L15.8,23.046a2.595,2.595,0,1,0,.957,2.007,2.283,2.283,0,0,0-.1-.707l4.17-2.735a2.6,2.6,0,0,0,1.643.593,2.576,2.576,0,0,0,1.955-.894l2.673,1.165a1.9,1.9,0,0,0-.073.26l-.6,2.4a5.4,5.4,0,0,1-4,3.942,2.623,2.623,0,0,0-1.352.79,2.577,2.577,0,0,0-1.716-.645H15.7a2.6,2.6,0,0,0-2.6,2.6v1.2a.78.78,0,0,0,1.56,0v-1.2a1.043,1.043,0,0,1,1.04-1.04h3.64a1.043,1.043,0,0,1,1.04,1.04v10.92a1.043,1.043,0,0,1-1.04,1.04H15.7a1.043,1.043,0,0,1-1.04-1.04V36.66a.78.78,0,0,0-1.56,0v6.084a2.6,2.6,0,0,0,2.6,2.6h3.64a2.562,2.562,0,0,0,1.82-.749,2.606,2.606,0,0,0,1.82.749H30a.78.78,0,1,0,0-1.56h-7.02a1.043,1.043,0,0,1-1.04-1.04V31.616a1.054,1.054,0,0,1,.822-1.019,6.944,6.944,0,0,0,5.148-5.075l.6-2.4a1.511,1.511,0,0,1,.738-.967,1.561,1.561,0,0,1,2.278,1.789l-1.092,4.316A2.024,2.024,0,0,0,30.8,30a2,2,0,0,0,1.6.78h5.138a1.02,1.02,0,0,1,.832.426,1.067,1.067,0,0,1,.146.967,1.029,1.029,0,0,1-.988.7.78.78,0,0,0,0,1.56,1.022,1.022,0,0,1,.738,1.747,1.137,1.137,0,0,1-.79.333h-.874a.78.78,0,1,0,0,1.56,1.022,1.022,0,0,1,.738,1.747,1.137,1.137,0,0,1-.79.333h-.78a.78.78,0,0,0,0,1.56,1.022,1.022,0,0,1,.738,1.747,1.137,1.137,0,0,1-.79.333h-2.08a.78.78,0,1,0,0,1.56h2.08a2.685,2.685,0,0,0,1.9-.8,2.552,2.552,0,0,0,.312-3.234,2.471,2.471,0,0,0,.52-.416,2.576,2.576,0,0,0,.749-1.851,2.539,2.539,0,0,0-.406-1.331,2.82,2.82,0,0,0,.593-.458,2.56,2.56,0,0,0,.01-3.609,2.543,2.543,0,0,0,.624-1.03,2.623,2.623,0,0,0-.385-2.35,2.591,2.591,0,0,0-2.09-1.05H32.427a.508.508,0,0,1-.374-.177.451.451,0,0,1-.083-.406l1.092-4.316a3.208,3.208,0,0,0-.218-2.163L38.022,16.5a2.464,2.464,0,0,0,1.082.239ZM14.144,26.1a1.04,1.04,0,1,1,1.04-1.04A1.043,1.043,0,0,1,14.144,26.1Zm8.32-5.46A1.04,1.04,0,1,1,23.5,19.6,1.043,1.043,0,0,1,22.464,20.644ZM39.1,13.1a1.04,1.04,0,1,1-1.04,1.04A1.043,1.043,0,0,1,39.1,13.1Z"/>
        </g>
      </g>
    </g>
  </g>
</svg>
