<svg xmlns="http://www.w3.org/2000/svg" xmlns:xlink="http://www.w3.org/1999/xlink" width="98" height="97.999" viewBox="0 0 98 97.999">
  <defs>
    <clipPath id="clip-path">
      <rect id="Rectangle_411080" data-name="Rectangle 411080" width="55" height="52" transform="translate(825.051 2027)" fill="#fff"/>
    </clipPath>
  </defs>
  <g id="Group_1206671" data-name="Group 1206671" transform="translate(-803.781 -2003.55)">
    <g id="Group_1204447" data-name="Group 1204447" transform="translate(0 -541.412)">
      <g id="Group_1204142" data-name="Group 1204142" transform="translate(-67.331 2267.798)">
        <g id="Group_1188789" data-name="Group 1188789" transform="translate(871.113 277.164)">
          <path id="Path_1243039" data-name="Path 1243039" d="M41.05,0h0a41.05,41.05,0,0,1,0,82.1h0a41.05,41.05,0,0,1,0-82.1Z" transform="translate(7.951 7.949)" fill="#ffa724"/>
          <rect id="Rectangle_400907" data-name="Rectangle 400907" width="88.438" height="88.437" rx="44.218" transform="translate(4.782 4.781)" fill="none"/>
          <g id="Group_1098742" data-name="Group 1098742" transform="translate(0)">
            <g id="Rectangle_400898" data-name="Rectangle 400898" transform="translate(0)" fill="none" stroke="#fff" stroke-width="2" opacity="0.859">
              <rect width="98" height="97.999" rx="48.999" stroke="none"/>
              <rect x="1" y="1" width="96" height="95.999" rx="47.999" fill="none"/>
            </g>
            <g id="Rectangle_400907-2" data-name="Rectangle 400907" transform="translate(0)" fill="none" stroke="#0f1f33" stroke-linecap="round" stroke-width="2">
              <rect width="98" height="97.999" rx="48.999" stroke="none"/>
              <rect x="1" y="1" width="96" height="95.999" rx="47.999" fill="none"/>
            </g>
          </g>
        </g>
      </g>
    </g>
    <g id="Mask_Group_1099601" data-name="Mask Group 1099601" clip-path="url(#clip-path)">
      <g id="checking_2452654" transform="translate(825.713 2026.161)">
        <g id="Group_1206899" data-name="Group 1206899">
          <g id="Group_1206886" data-name="Group 1206886">
            <path id="Path_1263236" data-name="Path 1263236" d="M4.193,6.71H20.967v3.355H4.193Z" fill="#ffeaa7"/>
          </g>
          <g id="Group_1206887" data-name="Group 1206887">
            <path id="Path_1263237" data-name="Path 1263237" d="M4.193,15.1H17.956a13.429,13.429,0,0,0-2.743,3.355H4.193Z" fill="#ffeaa7"/>
          </g>
          <g id="Group_1206888" data-name="Group 1206888">
            <path id="Path_1263238" data-name="Path 1263238" d="M23.483,3.355V5.032A1.682,1.682,0,0,1,21.806,6.71H3.355A1.682,1.682,0,0,1,1.677,5.032V3.355A1.682,1.682,0,0,1,3.355,1.677H21.806A1.682,1.682,0,0,1,23.483,3.355Z" fill="#ff826e"/>
          </g>
          <g id="Group_1206889" data-name="Group 1206889">
            <path id="Path_1263239" data-name="Path 1263239" d="M21.806,10.064a1.682,1.682,0,0,1,1.677,1.677v.419A13.365,13.365,0,0,0,17.965,15.1s-.008-.008-.008,0H3.355a1.682,1.682,0,0,1-1.677-1.677V11.742a1.682,1.682,0,0,1,1.677-1.677H21.806Z" fill="#ff826e"/>
          </g>
          <g id="Group_1206890" data-name="Group 1206890">
            <path id="Path_1263240" data-name="Path 1263240" d="M4.193,18.451h11.02a13.3,13.3,0,0,0-1.694,5.032H3.355a1.682,1.682,0,0,1-1.677-1.677V20.129a1.682,1.682,0,0,1,1.677-1.677Z" fill="#ff826e"/>
          </g>
          <g id="Group_1206891" data-name="Group 1206891">
            <path id="Path_1263241" data-name="Path 1263241" d="M40.257,25.161a13.419,13.419,0,0,1-.419,3.355L38.58,31.661a13.437,13.437,0,0,1-3.355,3.975V52H45.29V45.29H52V25.161Z" fill="#f0d0b4"/>
          </g>
          <g id="Group_1206892" data-name="Group 1206892">
            <path id="Path_1263242" data-name="Path 1263242" d="M48.644,28.516v6.71H38.58V31.661c.008,0,0-.008,0-.008a13.267,13.267,0,0,0,1.258-3.137Z" fill="#e6e9ed"/>
          </g>
          <g id="Group_1206893" data-name="Group 1206893">
            <path id="Path_1263243" data-name="Path 1263243" d="M38.58,45.29h3.355v3.355H38.58Z" fill="#e6e9ed"/>
          </g>
          <g id="Group_1206894" data-name="Group 1206894">
            <path id="Path_1263244" data-name="Path 1263244" d="M52,45.29,45.29,52V45.29Z" fill="#b4dd7f"/>
          </g>
          <g id="Group_1206895" data-name="Group 1206895">
            <path id="Path_1263245" data-name="Path 1263245" d="M28.516,41.935a1.682,1.682,0,0,1,1.677,1.677v5.032a3.355,3.355,0,1,1-6.71,0V43.612a1.682,1.682,0,0,1,1.677-1.677h3.355Z" fill="#969faa"/>
          </g>
          <g id="Group_1206896" data-name="Group 1206896">
            <path id="Path_1263246" data-name="Path 1263246" d="M29.354,38.345v1.912a1.677,1.677,0,0,1-1.677,1.677H26a1.677,1.677,0,0,1-1.677-1.677V38.345a13.6,13.6,0,0,0,5.032,0Z" fill="#ccd1d9"/>
          </g>
          <g id="Group_1206897" data-name="Group 1206897">
            <path id="Path_1263247" data-name="Path 1263247" d="M39.838,28.516a13.267,13.267,0,0,1-1.258,3.137s.008.008,0,.008a13.444,13.444,0,0,1-9.226,6.684,13.6,13.6,0,0,1-5.032,0,13.417,13.417,0,0,1-10.9-13.184,13.858,13.858,0,0,1,.1-1.677A13.447,13.447,0,0,1,17.956,15.1c0-.008.008,0,.008,0A13.429,13.429,0,0,1,39.838,28.516Z" fill="#fcd770"/>
          </g>
          <g id="Group_1206898" data-name="Group 1206898">
            <circle id="Ellipse_12740" data-name="Ellipse 12740" cx="10.064" cy="10.064" r="10.064" transform="translate(16.774 15.097)" fill="#69d6f4"/>
          </g>
        </g>
        <g id="Group_1206900" data-name="Group 1206900">
          <path id="Path_1263248" data-name="Path 1263248" d="M37.741,25.161a10.9,10.9,0,1,0-10.9,10.9A10.916,10.916,0,0,0,37.741,25.161Zm-20.129,0a9.226,9.226,0,1,1,9.226,9.226A9.237,9.237,0,0,1,17.613,25.161Z"/>
          <path id="Path_1263249" data-name="Path 1263249" d="M32.116,20.374l-7.794,7.794L21.56,25.407l-1.186,1.186,3.948,3.948,8.98-8.98Z"/>
          <path id="Path_1263250" data-name="Path 1263250" d="M41.053,24.322A14.186,14.186,0,0,0,24.245,11.151a2.515,2.515,0,0,0-2.439-1.926V7.548a2.519,2.519,0,0,0,2.516-2.516V3.355A2.519,2.519,0,0,0,21.806.839H3.355A2.519,2.519,0,0,0,.839,3.355V5.032A2.519,2.519,0,0,0,3.355,7.548V9.226A2.519,2.519,0,0,0,.839,11.742v1.677a2.519,2.519,0,0,0,2.516,2.516v1.677A2.519,2.519,0,0,0,.839,20.129v1.677a2.519,2.519,0,0,0,2.516,2.516h9.268c-.017.279-.043.555-.043.839A14.271,14.271,0,0,0,23.483,39v1.255a2.488,2.488,0,0,0,.336,1.234,2.511,2.511,0,0,0-1.175,2.121v5.032a4.193,4.193,0,0,0,8.387,0V43.613a2.511,2.511,0,0,0-1.175-2.121,2.488,2.488,0,0,0,.336-1.234V39a14.146,14.146,0,0,0,4.193-1.769v15.6h11.25l7.2-7.2V24.322Zm-1.635,7.534a14.165,14.165,0,0,0,1.046-2.5h7.341v5.032H39.419ZM2.516,5.032V3.355a.84.84,0,0,1,.839-.839H21.806a.84.84,0,0,1,.839.839V5.032a.84.84,0,0,1-.839.839H3.355A.84.84,0,0,1,2.516,5.032ZM5.032,7.548h15.1V9.226H5.032ZM2.516,13.419V11.742a.84.84,0,0,1,.839-.839H21.806a.827.827,0,0,1,.8.642,14.226,14.226,0,0,0-4.935,2.713H3.355A.84.84,0,0,1,2.516,13.419Zm2.516,2.516H15.987a14.344,14.344,0,0,0-1.223,1.677H5.032Zm-1.677,6.71a.84.84,0,0,1-.839-.839V20.129a.84.84,0,0,1,.839-.839H13.86a14.135,14.135,0,0,0-1.043,3.355Zm10.9,2.516a12.58,12.58,0,1,1,12.58,12.58,12.595,12.595,0,0,1-12.58-12.58Zm15.1,23.484a2.516,2.516,0,0,1-5.032,0V43.613a.84.84,0,0,1,.839-.839h3.355a.84.84,0,0,1,.839.839Zm-.839-8.387a.84.84,0,0,1-.839.839H26a.84.84,0,0,1-.839-.839v-.947a13.159,13.159,0,0,0,3.355,0Zm7.548-4.246a14.379,14.379,0,0,0,1.677-1.682v1.734H49.483V27.677H40.86A14.311,14.311,0,0,0,41.054,26H51.16V44.451h-6.71v6.71H36.064ZM49.975,46.128l-3.846,3.846V46.128Z"/>
          <path id="Path_1263251" data-name="Path 1263251" d="M37.741,37.741H49.483v1.677H37.741Z"/>
          <path id="Path_1263252" data-name="Path 1263252" d="M37.741,41.1H49.483v1.677H37.741Z"/>
          <path id="Path_1263253" data-name="Path 1263253" d="M37.741,44.451v5.032h5.032V44.451ZM41.1,47.806H39.419V46.128H41.1Z"/>
          <path id="Path_1263254" data-name="Path 1263254" d="M4.193,38.58H15.935v1.677H4.193Z"/>
          <path id="Path_1263255" data-name="Path 1263255" d="M4.193,41.935H15.935v1.677H4.193Z"/>
          <path id="Path_1263256" data-name="Path 1263256" d="M14.258,45.29h1.677v1.677H14.258Z"/>
          <path id="Path_1263257" data-name="Path 1263257" d="M7.548,45.29H9.226v1.677H7.548Z"/>
          <path id="Path_1263258" data-name="Path 1263258" d="M4.193,45.29H5.871v1.677H4.193Z"/>
          <path id="Path_1263259" data-name="Path 1263259" d="M10.9,45.29H12.58v1.677H10.9Z"/>
        </g>
      </g>
    </g>
  </g>
</svg>
