<svg xmlns="http://www.w3.org/2000/svg" xmlns:xlink="http://www.w3.org/1999/xlink" width="98" height="97.999" viewBox="0 0 98 97.999">
  <defs>
    <clipPath id="clip-path">
      <rect id="Rectangle_411080" data-name="Rectangle 411080" width="55" height="52" transform="translate(825.051 2027)" fill="#fff"/>
    </clipPath>
  </defs>
  <g id="Group_1206673" data-name="Group 1206673" transform="translate(-803.781 -2003.55)">
    <g id="Group_1204447" data-name="Group 1204447" transform="translate(0 -541.412)">
      <g id="Group_1204142" data-name="Group 1204142" transform="translate(-67.331 2267.798)">
        <g id="Group_1188789" data-name="Group 1188789" transform="translate(871.113 277.164)">
          <path id="Path_1243039" data-name="Path 1243039" d="M41.05,0h0a41.05,41.05,0,0,1,0,82.1h0a41.05,41.05,0,0,1,0-82.1Z" transform="translate(7.951 7.949)" fill="#ffa724"/>
          <rect id="Rectangle_400907" data-name="Rectangle 400907" width="88.438" height="88.437" rx="44.218" transform="translate(4.782 4.781)" fill="none"/>
          <g id="Group_1098742" data-name="Group 1098742" transform="translate(0)">
            <g id="Rectangle_400898" data-name="Rectangle 400898" transform="translate(0)" fill="none" stroke="#fff" stroke-width="2" opacity="0.859">
              <rect width="98" height="97.999" rx="48.999" stroke="none"/>
              <rect x="1" y="1" width="96" height="95.999" rx="47.999" fill="none"/>
            </g>
            <g id="Rectangle_400907-2" data-name="Rectangle 400907" transform="translate(0)" fill="none" stroke="#0f1f33" stroke-linecap="round" stroke-width="2">
              <rect width="98" height="97.999" rx="48.999" stroke="none"/>
              <rect x="1" y="1" width="96" height="95.999" rx="47.999" fill="none"/>
            </g>
          </g>
        </g>
      </g>
    </g>
    <g id="Mask_Group_1099603" data-name="Mask Group 1099603" clip-path="url(#clip-path)">
      <g id="education_17363573" transform="translate(825.203 2025.652)">
        <g id="Group_1206907" data-name="Group 1206907">
          <g id="Group_1206901" data-name="Group 1206901">
            <path id="Path_1263282" data-name="Path 1263282" d="M53.087,4.488A2.389,2.389,0,0,0,50.7,2.1H4A2.389,2.389,0,0,0,1.609,4.488V32.714A2.389,2.389,0,0,0,4,35.1H50.7a2.389,2.389,0,0,0,2.389-2.389V4.488Z" fill="#cad0d7" fill-rule="evenodd"/>
          </g>
          <g id="Group_1206902" data-name="Group 1206902">
            <circle id="Ellipse_12741" data-name="Ellipse 12741" cx="4.003" cy="4.003" r="4.003" transform="translate(10.065 18.906)" fill="#d5a889"/>
            <path id="Path_1263283" data-name="Path 1263283" d="M9.159,40.9H7.336a.982.982,0,0,1-.923-1.032v-9.6a2.107,2.107,0,0,1,.519-1.4,2.715,2.715,0,0,1,1.674-.581H24.994a1.1,1.1,0,0,1,.82.38,1.408,1.408,0,0,1,0,1.834,1.1,1.1,0,0,1-.82.38H18.929V51.153a1.474,1.474,0,0,1-1.5,1.444H10.66a1.474,1.474,0,0,1-1.5-1.444Z" fill="#66d4f1" fill-rule="evenodd"/>
          </g>
          <g id="Group_1206903" data-name="Group 1206903">
            <path id="Path_1263284" data-name="Path 1263284" d="M27.488,40.743a2.173,2.173,0,1,0,2.173-2.172A2.173,2.173,0,0,0,27.488,40.743Z" fill="#d5a889" fill-rule="evenodd"/>
            <path id="Path_1263285" data-name="Path 1263285" d="M34.362,48.869c0,2.6-9.4,2.6-9.4,0a4.7,4.7,0,1,1,9.4,0Z" fill="#66d4f1" fill-rule="evenodd"/>
          </g>
          <g id="Group_1206904" data-name="Group 1206904">
            <path id="Path_1263286" data-name="Path 1263286" d="M39.975,40.743a2.173,2.173,0,1,0,2.173-2.172A2.173,2.173,0,0,0,39.975,40.743Z" fill="#b9835e" fill-rule="evenodd"/>
            <path id="Path_1263287" data-name="Path 1263287" d="M46.849,48.869c0,2.6-9.4,2.6-9.4,0a4.7,4.7,0,1,1,9.4,0Z" fill="#4fc0e8" fill-rule="evenodd"/>
          </g>
          <g id="Group_1206906" data-name="Group 1206906">
            <path id="Path_1263288" data-name="Path 1263288" d="M40.053,6.29l9.574,16.583a1.675,1.675,0,0,1-1.45,2.513H29.029a1.675,1.675,0,0,1-1.45-2.513L37.153,6.29a1.675,1.675,0,0,1,2.9,0Z" fill="#fdcd56" fill-rule="evenodd"/>
            <g id="Group_1206905" data-name="Group 1206905">
              <path id="Path_1263289" data-name="Path 1263289" d="M37.719,11.537a.884.884,0,0,1,1.768,0v6.616a.884.884,0,1,1-1.768,0Z" fill="#eb5463"/>
              <path id="Path_1263290" data-name="Path 1263290" d="M38.6,22.795a.885.885,0,1,0-.884-.884A.885.885,0,0,0,38.6,22.795Z" fill="#eb5463" fill-rule="evenodd"/>
            </g>
          </g>
        </g>
        <path id="Path_1263291" data-name="Path 1263291" d="M5.662,35.854H4a3.14,3.14,0,0,1-3.14-3.14V4.488A3.14,3.14,0,0,1,4,1.348H50.7a3.14,3.14,0,0,1,3.14,3.14V32.714a3.14,3.14,0,0,1-3.14,3.14H19.68v15.3a2.225,2.225,0,0,1-2.253,2.2H10.66a2.225,2.225,0,0,1-2.253-2.2V41.646H7.336a1.732,1.732,0,0,1-1.673-1.782Zm14.017-1.5H50.7a1.638,1.638,0,0,0,1.638-1.638V4.488A1.638,1.638,0,0,0,50.7,2.85H4A1.638,1.638,0,0,0,2.359,4.488V32.714A1.638,1.638,0,0,0,4,34.353H5.662V30.264a2.862,2.862,0,0,1,.71-1.9,2.325,2.325,0,0,1,.889-.566,4.145,4.145,0,0,1,1.344-.265h4.347a4.754,4.754,0,1,1,2.229,0h9.812a1.848,1.848,0,0,1,1.38.63,2.158,2.158,0,0,1,0,2.835,1.848,1.848,0,0,1-1.38.63H19.68ZM14.819,51.847h2.609a.724.724,0,0,0,.751-.694V30.876a.751.751,0,0,1,.751-.751h6.065a.356.356,0,0,0,.261-.13.659.659,0,0,0,0-.834.355.355,0,0,0-.261-.13H8.606A2.515,2.515,0,0,0,7.8,29.2a.8.8,0,0,0-.306.164,1.352,1.352,0,0,0-.328.9v9.6c0,.136.051.281.172.281H8.408V32.518a.751.751,0,1,1,1.5,0V51.153a.724.724,0,0,0,.751.694h2.657v-10.2a.751.751,0,1,1,1.5,0Zm-3.4-35.618a.751.751,0,0,1,0-1.5H24.96a.751.751,0,0,1,0,1.5Zm-3.351,0a.751.751,0,0,1,0-1.5h.354a.751.751,0,0,1,0,1.5Zm3.351-8.58a.751.751,0,0,1,0-1.5H24.96a.751.751,0,1,1,0,1.5Zm-3.351,4.29a.751.751,0,0,1,0-1.5h.354a.751.751,0,0,1,0,1.5Zm3.351,0a.751.751,0,0,1,0-1.5H24.96a.751.751,0,0,1,0,1.5ZM40.7,5.915h0L50.277,22.5a2.426,2.426,0,0,1-2.1,3.639H29.029a2.426,2.426,0,0,1-2.1-3.638h0L36.5,5.915a2.425,2.425,0,0,1,4.2,0Zm-1.3.75a.924.924,0,0,0-1.6,0h0L28.229,23.247a.924.924,0,0,0,.8,1.387H48.177a.9.9,0,0,0,.8-.461h0a.9.9,0,0,0,0-.923h0L39.4,6.665Zm-2.435,4.872a1.635,1.635,0,0,1,3.27,0v6.616a1.635,1.635,0,1,1-3.27,0Zm1.5,0v6.616a.133.133,0,1,0,.267,0V11.537a.133.133,0,0,0-.267,0ZM38.6,23.545a1.635,1.635,0,1,1,1.635-1.635A1.639,1.639,0,0,1,38.6,23.545Zm0-1.5a.134.134,0,1,0-.133-.133A.134.134,0,0,0,38.6,22.044ZM8.066,7.649a.751.751,0,1,1,0-1.5h.354a.751.751,0,0,1,0,1.5Zm6,12.007a3.252,3.252,0,1,0,3.252,3.252A3.254,3.254,0,0,0,14.068,19.656ZM30.629,43.5a5.454,5.454,0,0,1,4.484,5.366,2.2,2.2,0,0,1-1.383,1.913,9.481,9.481,0,0,1-4.068.785,9.481,9.481,0,0,1-4.068-.785,2.2,2.2,0,0,1-1.383-1.913A5.454,5.454,0,0,1,28.693,43.5a2.923,2.923,0,1,1,1.936,0Zm2.982,5.366a3.95,3.95,0,1,0-7.9,0c0,.267.263.419.572.58a7.914,7.914,0,0,0,3.378.617,7.913,7.913,0,0,0,3.378-.617C33.348,49.289,33.611,49.136,33.611,48.869Zm-5.372-8.126a1.422,1.422,0,1,0,1.422-1.422A1.422,1.422,0,0,0,28.239,40.743ZM43.116,43.5A5.454,5.454,0,0,1,47.6,48.869a2.2,2.2,0,0,1-1.383,1.913,9.481,9.481,0,0,1-4.068.785,9.481,9.481,0,0,1-4.068-.785A2.2,2.2,0,0,1,36.7,48.869,5.454,5.454,0,0,1,41.181,43.5a2.923,2.923,0,1,1,1.936,0ZM46.1,48.869a3.95,3.95,0,1,0-7.9,0c0,.267.263.419.572.58a7.914,7.914,0,0,0,3.378.617,7.913,7.913,0,0,0,3.378-.617C45.836,49.289,46.1,49.136,46.1,48.869Zm-5.372-8.126a1.422,1.422,0,1,0,1.422-1.422A1.422,1.422,0,0,0,40.726,40.743Z" fill-rule="evenodd"/>
      </g>
    </g>
  </g>
</svg>
